<svg xmlns="http://www.w3.org/2000/svg" xmlns:xlink="http://www.w3.org/1999/xlink" width="321" zoomAndPan="magnify" viewBox="0 0 240.75 141.750002" height="188" preserveAspectRatio="xMidYMid meet" version="1.0"><defs><g/><clipPath id="2bb23abbdf"><path d="M 0.0859375 0 L 240.414062 0 L 240.414062 141.5 L 0.0859375 141.5 Z M 0.0859375 0 " clip-rule="nonzero"/></clipPath><clipPath id="506a58217e"><path d="M 95.347656 121 L 100 121 L 100 139.230469 L 95.347656 139.230469 Z M 95.347656 121 " clip-rule="nonzero"/></clipPath><clipPath id="e130221b90"><path d="M 156 121 L 160.550781 121 L 160.550781 139.230469 L 156 139.230469 Z M 156 121 " clip-rule="nonzero"/></clipPath><clipPath id="7837a2165d"><path d="M 95.347656 22 L 160.550781 22 L 160.550781 51 L 95.347656 51 Z M 95.347656 22 " clip-rule="nonzero"/></clipPath><clipPath id="82c72cb1af"><path d="M 95.347656 55 L 161.300781 55 L 161.300781 84 L 95.347656 84 Z M 95.347656 55 " clip-rule="nonzero"/></clipPath><clipPath id="322e3c6450"><path d="M 95.347656 89.371094 L 161.300781 89.371094 L 161.300781 117.851562 L 95.347656 117.851562 Z M 95.347656 89.371094 " clip-rule="nonzero"/></clipPath><clipPath id="d1ef85526b"><path d="M 96 2.363281 L 161 2.363281 L 161 19 L 96 19 Z M 96 2.363281 " clip-rule="nonzero"/></clipPath></defs><g clip-path="url(#2bb23abbdf)"><path fill="#ffffff" d="M 0.0859375 0 L 240.664062 0 L 240.664062 148.390625 L 0.0859375 148.390625 Z M 0.0859375 0 " fill-opacity="1" fill-rule="nonzero"/><path fill="#ffffff" d="M 0.0859375 0 L 240.664062 0 L 240.664062 141.648438 L 0.0859375 141.648438 Z M 0.0859375 0 " fill-opacity="1" fill-rule="nonzero"/><path fill="#ffffff" d="M 0.0859375 0 L 240.664062 0 L 240.664062 141.648438 L 0.0859375 141.648438 Z M 0.0859375 0 " fill-opacity="1" fill-rule="nonzero"/></g><g clip-path="url(#506a58217e)"><path fill="#000000" d="M 95.382812 139.335938 L 99.722656 139.335938 L 99.722656 121.886719 L 95.382812 121.886719 L 95.382812 139.335938 " fill-opacity="1" fill-rule="nonzero"/></g><g clip-path="url(#e130221b90)"><path fill="#000000" d="M 156.175781 121.886719 L 156.175781 139.335938 L 160.527344 139.335938 L 160.519531 121.886719 L 156.175781 121.886719 " fill-opacity="1" fill-rule="nonzero"/></g><path fill="#000000" d="M 134.464844 134.972656 L 134.464844 131.820312 C 134.464844 130.304688 135.226562 128.921875 136.507812 128.121094 L 146.441406 121.886719 L 109.460938 121.886719 L 119.394531 128.121094 C 120.671875 128.921875 121.4375 130.304688 121.4375 131.820312 L 121.4375 134.972656 L 134.464844 134.972656 " fill-opacity="1" fill-rule="nonzero"/><g clip-path="url(#7837a2165d)"><path fill="#c10b06" d="M 95.386719 50.902344 L 171.753906 50.902344 L 171.753906 22.785156 L 95.386719 22.785156 L 95.386719 50.902344 " fill-opacity="1" fill-rule="nonzero"/></g><g clip-path="url(#82c72cb1af)"><path fill="#b66822" d="M 95.386719 83.996094 L 171.753906 83.996094 L 171.753906 55.878906 L 95.386719 55.878906 L 95.386719 83.996094 " fill-opacity="1" fill-rule="nonzero"/></g><g clip-path="url(#322e3c6450)"><path fill="#e1b083" d="M 95.386719 117.433594 L 172.503906 117.433594 L 172.503906 89.019531 L 95.386719 89.019531 L 95.386719 117.433594 " fill-opacity="1" fill-rule="nonzero"/></g><g clip-path="url(#d1ef85526b)"><path fill="#000000" d="M 127.355469 2.597656 L 96.390625 18.007812 L 160.339844 18.007812 L 129.375 2.597656 C 128.742188 2.28125 127.988281 2.28125 127.355469 2.597656 " fill-opacity="1" fill-rule="nonzero"/></g><g fill="#c10b06" fill-opacity="1"><g transform="translate(89.85565, 140.371751)"><g><path d="M -6.28125 -8.984375 L -3.703125 -8.375 C -3.210938 -8.257812 -2.878906 -8.203125 -2.703125 -8.203125 C -2.242188 -8.203125 -2.015625 -8.382812 -2.015625 -8.75 C -2.015625 -9.125 -2.234375 -9.453125 -2.671875 -9.734375 C -3.109375 -10.015625 -3.71875 -10.15625 -4.5 -10.15625 C -5.644531 -10.15625 -6.53125 -9.816406 -7.15625 -9.140625 C -7.789062 -8.472656 -8.109375 -7.59375 -8.109375 -6.5 C -8.109375 -5.90625 -8 -5.332031 -7.78125 -4.78125 C -7.570312 -4.226562 -7.269531 -3.726562 -6.875 -3.28125 C -6.488281 -2.84375 -5.988281 -2.488281 -5.375 -2.21875 C -4.757812 -1.957031 -4.09375 -1.828125 -3.375 -1.828125 C -2.144531 -1.828125 -1.179688 -2.175781 -0.484375 -2.875 C 0.210938 -3.582031 0.5625 -4.539062 0.5625 -5.75 C 0.5625 -6.957031 0.238281 -8.003906 -0.40625 -8.890625 L 0.515625 -9.3125 C 1.253906 -8.1875 1.625 -6.957031 1.625 -5.625 C 1.625 -5.132812 1.5625 -4.65625 1.4375 -4.1875 C 1.320312 -3.726562 1.132812 -3.28125 0.875 -2.84375 C 0.625 -2.414062 0.3125 -2.039062 -0.0625 -1.71875 C -0.4375 -1.394531 -0.898438 -1.132812 -1.453125 -0.9375 C -2.015625 -0.75 -2.632812 -0.65625 -3.3125 -0.65625 C -5.019531 -0.65625 -6.421875 -1.226562 -7.515625 -2.375 C -8.617188 -3.53125 -9.171875 -4.914062 -9.171875 -6.53125 C -9.171875 -8 -8.734375 -9.164062 -7.859375 -10.03125 C -6.984375 -10.894531 -5.894531 -11.328125 -4.59375 -11.328125 C -3.363281 -11.328125 -2.445312 -11.035156 -1.84375 -10.453125 C -1.25 -9.878906 -0.953125 -9.171875 -0.953125 -8.328125 C -0.953125 -7.378906 -1.34375 -6.804688 -2.125 -6.609375 L -1.40625 -6.25 C -1.101562 -5.882812 -0.953125 -5.472656 -0.953125 -5.015625 C -0.953125 -4.492188 -1.125 -4.050781 -1.46875 -3.6875 C -1.820312 -3.332031 -2.382812 -3.15625 -3.15625 -3.15625 C -4.09375 -3.15625 -4.882812 -3.410156 -5.53125 -3.921875 C -6.1875 -4.429688 -6.515625 -5.078125 -6.515625 -5.859375 C -6.515625 -6.359375 -6.390625 -6.726562 -6.140625 -6.96875 L -5.421875 -7.140625 L -6.28125 -7.390625 Z M -2.25 -5.59375 C -2.25 -5.84375 -2.347656 -6.054688 -2.546875 -6.234375 C -2.753906 -6.410156 -3.015625 -6.535156 -3.328125 -6.609375 L -4.09375 -6.78125 C -4.46875 -6.863281 -4.75 -6.851562 -4.9375 -6.75 C -5.125 -6.644531 -5.21875 -6.46875 -5.21875 -6.21875 C -5.21875 -5.84375 -5.03125 -5.535156 -4.65625 -5.296875 C -4.28125 -5.054688 -3.828125 -4.9375 -3.296875 -4.9375 C -2.597656 -4.9375 -2.25 -5.15625 -2.25 -5.59375 Z M -2.25 -5.59375 "/></g></g></g><g fill="#000000" fill-opacity="1"><g transform="translate(91.310833, 128.312979)"><g><path d="M -10.125 -12.21875 L 0 -12.21875 L 0 -10.203125 L -4.6875 -10.203125 C -6.289062 -10.203125 -7.441406 -10.207031 -8.140625 -10.21875 C -6.960938 -9.945312 -5.8125 -9.632812 -4.6875 -9.28125 L 0 -7.859375 L 0 -5.65625 L -4.703125 -4.203125 C -5.953125 -3.835938 -7.09375 -3.535156 -8.125 -3.296875 C -7.425781 -3.316406 -6.28125 -3.328125 -4.6875 -3.328125 L 0 -3.328125 L 0 -1.3125 L -10.125 -1.3125 L -10.125 -4.5 L -1.859375 -6.796875 L -10.125 -9.078125 Z M -10.125 -12.21875 "/></g></g></g><g fill="#000000" fill-opacity="1"><g transform="translate(91.310833, 115.407339)"><g><path d="M -3.046875 -6.796875 L -3.046875 -3.390625 L 0 -2.375 L 0 -0.21875 L -10.125 -3.875 L -10.125 -6.40625 L 0 -9.984375 L 0 -7.796875 Z M -8.390625 -5.109375 L -4.65625 -3.90625 L -4.65625 -6.28125 Z M -8.390625 -5.109375 "/></g></g></g><g fill="#000000" fill-opacity="1"><g transform="translate(91.310833, 105.742781)"><g><path d="M -2.546875 -8.640625 C -1.347656 -8.765625 -0.5 -9.007812 0 -9.375 L 0 -7.15625 C -0.675781 -6.914062 -1.429688 -6.75 -2.265625 -6.65625 C -3.398438 -6.519531 -4 -6.066406 -4.0625 -5.296875 C -4.070312 -5.109375 -4.078125 -4.84375 -4.078125 -4.5 L -4.078125 -3.328125 L 0 -3.328125 L 0 -1.3125 L -10.125 -1.3125 L -10.125 -5 C -10.125 -5.5625 -10.097656 -6.050781 -10.046875 -6.46875 C -9.953125 -7.269531 -9.6875 -7.910156 -9.25 -8.390625 C -8.8125 -8.878906 -8.179688 -9.125 -7.359375 -9.125 C -6.722656 -9.125 -6.195312 -8.945312 -5.78125 -8.59375 C -5.375 -8.238281 -5.082031 -7.753906 -4.90625 -7.140625 C -4.570312 -8.015625 -3.785156 -8.515625 -2.546875 -8.640625 Z M -5.59375 -3.328125 L -5.59375 -4.71875 C -5.59375 -5.125 -5.597656 -5.398438 -5.609375 -5.546875 C -5.691406 -6.515625 -6.175781 -7 -7.0625 -7 C -7.519531 -7 -7.859375 -6.882812 -8.078125 -6.65625 C -8.296875 -6.425781 -8.4375 -6.09375 -8.5 -5.65625 C -8.519531 -5.425781 -8.53125 -5.144531 -8.53125 -4.8125 L -8.53125 -3.328125 Z M -5.59375 -3.328125 "/></g></g></g><g fill="#000000" fill-opacity="1"><g transform="translate(91.310833, 96.400866)"><g><path d="M -5.28125 -5.640625 L 0 -9.90625 L 0 -7.296875 L -4.09375 -4.171875 L -3.1875 -3.328125 L 0 -3.328125 L 0 -1.3125 L -10.125 -1.3125 L -10.125 -3.328125 L -5.234375 -3.328125 L -10.125 -7.703125 L -10.125 -10.109375 Z M -5.28125 -5.640625 "/></g></g></g><g fill="#000000" fill-opacity="1"><g transform="translate(91.310833, 86.633648)"><g><path d="M -1.59375 -8.609375 L 0 -8.609375 L 0 -1.3125 L -10.125 -1.3125 L -10.125 -8.46875 L -8.53125 -8.46875 L -8.53125 -3.328125 L -5.875 -3.328125 L -5.875 -8.09375 L -4.265625 -8.09375 L -4.265625 -3.328125 L -1.59375 -3.328125 Z M -1.59375 -8.609375 "/></g></g></g><g fill="#000000" fill-opacity="1"><g transform="translate(91.310833, 77.849023)"><g><path d="M -8.53125 -9.234375 L -8.53125 -5.796875 L 0 -5.796875 L 0 -3.765625 L -8.53125 -3.765625 L -8.53125 -0.34375 L -10.125 -0.34375 L -10.125 -9.234375 Z M -8.53125 -9.234375 "/></g></g></g><g fill="#000000" fill-opacity="1"><g transform="translate(91.310833, 68.961737)"><g><path d="M -10.046875 -6.28125 C -9.960938 -7.09375 -9.648438 -7.75 -9.109375 -8.25 C -8.578125 -8.757812 -7.863281 -9.015625 -6.96875 -9.015625 C -6.082031 -9.015625 -5.367188 -8.753906 -4.828125 -8.234375 C -4.296875 -7.710938 -3.984375 -7.0625 -3.890625 -6.28125 C -3.835938 -5.863281 -3.8125 -5.375 -3.8125 -4.8125 L -3.8125 -3.328125 L 0 -3.328125 L 0 -1.3125 L -10.125 -1.3125 L -10.125 -4.8125 C -10.125 -5.375 -10.097656 -5.863281 -10.046875 -6.28125 Z M -5.453125 -5.671875 C -5.578125 -6.472656 -6.082031 -6.875 -6.96875 -6.875 C -7.851562 -6.875 -8.359375 -6.472656 -8.484375 -5.671875 C -8.515625 -5.453125 -8.53125 -5.15625 -8.53125 -4.78125 L -8.53125 -3.328125 L -5.40625 -3.328125 L -5.40625 -4.78125 C -5.40625 -5.15625 -5.421875 -5.453125 -5.453125 -5.671875 Z M -5.453125 -5.671875 "/></g></g></g><g fill="#000000" fill-opacity="1"><g transform="translate(91.310833, 60.074451)"><g><path d="M -1.6875 -8.609375 L 0 -8.609375 L 0 -1.3125 L -10.125 -1.3125 L -10.125 -3.328125 L -1.6875 -3.328125 Z M -1.6875 -8.609375 "/></g></g></g><g fill="#000000" fill-opacity="1"><g transform="translate(91.310833, 51.465811)"><g><path d="M -3.046875 -6.796875 L -3.046875 -3.390625 L 0 -2.375 L 0 -0.21875 L -10.125 -3.875 L -10.125 -6.40625 L 0 -9.984375 L 0 -7.796875 Z M -8.390625 -5.109375 L -4.65625 -3.90625 L -4.65625 -6.28125 Z M -8.390625 -5.109375 "/></g></g></g><g fill="#000000" fill-opacity="1"><g transform="translate(91.310833, 41.801255)"><g><path d="M -10.328125 -5.65625 C -10.328125 -6.96875 -10.003906 -7.992188 -9.359375 -8.734375 C -8.722656 -9.484375 -7.882812 -9.910156 -6.84375 -10.015625 L -6.6875 -10.03125 L -6.6875 -8.015625 L -6.84375 -7.984375 C -8.15625 -7.710938 -8.8125 -6.925781 -8.8125 -5.625 C -8.8125 -4.800781 -8.484375 -4.140625 -7.828125 -3.640625 C -7.171875 -3.140625 -6.269531 -2.890625 -5.125 -2.890625 C -3.894531 -2.890625 -2.953125 -3.140625 -2.296875 -3.640625 C -1.640625 -4.140625 -1.3125 -4.789062 -1.3125 -5.59375 C -1.3125 -6.238281 -1.488281 -6.753906 -1.84375 -7.140625 C -2.207031 -7.535156 -2.710938 -7.800781 -3.359375 -7.9375 L -3.5 -7.96875 L -3.5 -9.984375 L -3.359375 -9.96875 C -2.265625 -9.851562 -1.394531 -9.398438 -0.75 -8.609375 C -0.113281 -7.816406 0.203125 -6.78125 0.203125 -5.5 C 0.203125 -4.070312 -0.265625 -2.921875 -1.203125 -2.046875 C -2.140625 -1.179688 -3.40625 -0.75 -5 -0.75 C -6.625 -0.75 -7.914062 -1.207031 -8.875 -2.125 C -9.84375 -3.039062 -10.328125 -4.21875 -10.328125 -5.65625 Z M -10.328125 -5.65625 "/></g></g></g><g fill="#000000" fill-opacity="1"><g transform="translate(91.310833, 31.520741)"><g><path d="M -1.59375 -8.609375 L 0 -8.609375 L 0 -1.3125 L -10.125 -1.3125 L -10.125 -8.46875 L -8.53125 -8.46875 L -8.53125 -3.328125 L -5.875 -3.328125 L -5.875 -8.09375 L -4.265625 -8.09375 L -4.265625 -3.328125 L -1.59375 -3.328125 Z M -1.59375 -8.609375 "/></g></g></g></svg>