<svg xmlns="http://www.w3.org/2000/svg" xmlns:xlink="http://www.w3.org/1999/xlink" width="940" zoomAndPan="magnify" viewBox="0 0 705 591.000005" height="788" preserveAspectRatio="xMidYMid meet" version="1.0"><defs><g/><clipPath id="9f32be303d"><path d="M 0.59375 0 L 704.402344 0 L 704.402344 590 L 0.59375 590 Z M 0.59375 0 " clip-rule="nonzero"/></clipPath><clipPath id="6f4a8bd915"><path d="M 82 313 L 704.402344 313 L 704.402344 343 L 82 343 Z M 82 313 " clip-rule="nonzero"/></clipPath><clipPath id="18d3aa3ba3"><path d="M 8.191406 349 L 14 349 L 14 370.660156 L 8.191406 370.660156 Z M 8.191406 349 " clip-rule="nonzero"/></clipPath><clipPath id="3ced679259"><path d="M 81 349 L 87.082031 349 L 87.082031 370.660156 L 81 370.660156 Z M 81 349 " clip-rule="nonzero"/></clipPath><clipPath id="15a9d71cc8"><path d="M 8.191406 231 L 87.082031 231 L 87.082031 265.996094 L 8.191406 265.996094 Z M 8.191406 231 " clip-rule="nonzero"/></clipPath><clipPath id="c63e46cb9b"><path d="M 8.191406 271 L 87.082031 271 L 87.082031 306 L 8.191406 306 Z M 8.191406 271 " clip-rule="nonzero"/></clipPath><clipPath id="fb0e449082"><path d="M 8.191406 311.425781 L 87.082031 311.425781 L 87.082031 345 L 8.191406 345 Z M 8.191406 311.425781 " clip-rule="nonzero"/></clipPath><clipPath id="05a5bc65f9"><path d="M 9 206.320312 L 87 206.320312 L 87 226 L 9 226 Z M 9 206.320312 " clip-rule="nonzero"/></clipPath></defs><g clip-path="url(#9f32be303d)"><path fill="#ffffff" d="M 0.59375 0 L 704.40625 0 L 704.40625 597.488281 L 0.59375 597.488281 Z M 0.59375 0 " fill-opacity="1" fill-rule="nonzero"/><path fill="#ffffff" d="M 0.59375 0 L 704.40625 0 L 704.40625 590 L 0.59375 590 Z M 0.59375 0 " fill-opacity="1" fill-rule="nonzero"/><path fill="#ffffff" d="M 0.59375 0 L 704.40625 0 L 704.40625 590 L 0.59375 590 Z M 0.59375 0 " fill-opacity="1" fill-rule="nonzero"/></g><g fill="#000000" fill-opacity="1"><g transform="translate(95.025025, 316.077917)"><g><path d="M 39.234375 -36.296875 L 24.640625 -36.296875 L 24.640625 0 L 16.03125 0 L 16.03125 -36.296875 L 1.4375 -36.296875 L 1.4375 -43.03125 L 39.234375 -43.03125 Z M 39.234375 -36.296875 "/></g></g></g><g fill="#000000" fill-opacity="1"><g transform="translate(132.819708, 316.077917)"><g><path d="M 42.859375 -43.03125 L 42.859375 0 L 34.3125 0 L 34.3125 -17.65625 L 14.15625 -17.65625 L 14.15625 0 L 5.546875 0 L 5.546875 -43.03125 L 14.15625 -43.03125 L 14.15625 -24.515625 L 34.3125 -24.515625 L 34.3125 -43.03125 Z M 42.859375 -43.03125 "/></g></g></g><g fill="#000000" fill-opacity="1"><g transform="translate(178.659819, 316.077917)"><g><path d="M 36.609375 -6.796875 L 36.609375 0 L 5.546875 0 L 5.546875 -43.03125 L 35.984375 -43.03125 L 35.984375 -36.296875 L 14.15625 -36.296875 L 14.15625 -24.953125 L 34.4375 -24.953125 L 34.4375 -18.15625 L 14.15625 -18.15625 L 14.15625 -6.796875 Z M 36.609375 -6.796875 "/></g></g></g><g fill="#000000" fill-opacity="1"><g transform="translate(216.010662, 316.077917)"><g/></g></g><g fill="#000000" fill-opacity="1"><g transform="translate(227.049624, 316.077917)"><g/></g></g><g fill="#000000" fill-opacity="1"><g transform="translate(238.088587, 316.077917)"><g/></g></g><g fill="#000000" fill-opacity="1"><g transform="translate(249.120678, 316.077917)"><g><path d="M 51.953125 -43.03125 L 51.953125 0 L 43.34375 0 L 43.34375 -19.890625 C 43.34375 -26.710938 43.382812 -31.625 43.46875 -34.625 C 42.3125 -29.632812 40.984375 -24.742188 39.484375 -19.953125 L 33.4375 0 L 24.078125 0 L 17.90625 -20.015625 C 16.320312 -25.296875 15.03125 -30.144531 14.03125 -34.5625 C 14.113281 -31.5625 14.15625 -26.671875 14.15625 -19.890625 L 14.15625 0 L 5.546875 0 L 5.546875 -43.03125 L 19.15625 -43.03125 L 28.875 -7.921875 L 38.609375 -43.03125 Z M 51.953125 -43.03125 "/></g></g></g><g fill="#000000" fill-opacity="1"><g transform="translate(304.004098, 316.077917)"><g><path d="M 28.875 -12.96875 L 14.40625 -12.96875 L 10.109375 0 L 0.9375 0 L 16.46875 -43.03125 L 27.265625 -43.03125 L 42.484375 0 L 33.125 0 Z M 21.703125 -35.671875 L 16.59375 -19.765625 L 26.703125 -19.765625 Z M 21.703125 -35.671875 "/></g></g></g><g fill="#000000" fill-opacity="1"><g transform="translate(345.104263, 316.077917)"><g><path d="M 36.734375 -10.859375 C 37.273438 -5.742188 38.316406 -2.125 39.859375 0 L 30.4375 0 C 29.394531 -2.863281 28.6875 -6.066406 28.3125 -9.609375 C 27.726562 -14.472656 25.796875 -17.03125 22.515625 -17.28125 C 21.722656 -17.320312 20.601562 -17.34375 19.15625 -17.34375 L 14.15625 -17.34375 L 14.15625 0 L 5.546875 0 L 5.546875 -43.03125 L 21.265625 -43.03125 C 23.640625 -43.03125 25.71875 -42.929688 27.5 -42.734375 C 30.914062 -42.316406 33.648438 -41.179688 35.703125 -39.328125 C 37.765625 -37.472656 38.796875 -34.800781 38.796875 -31.3125 C 38.796875 -28.613281 38.046875 -26.378906 36.546875 -24.609375 C 35.054688 -22.835938 33 -21.578125 30.375 -20.828125 C 34.070312 -19.421875 36.191406 -16.097656 36.734375 -10.859375 Z M 14.15625 -23.765625 L 20.078125 -23.765625 C 21.785156 -23.765625 22.953125 -23.785156 23.578125 -23.828125 C 27.691406 -24.203125 29.75 -26.257812 29.75 -30 C 29.75 -31.957031 29.257812 -33.398438 28.28125 -34.328125 C 27.3125 -35.265625 25.910156 -35.859375 24.078125 -36.109375 C 23.078125 -36.234375 21.867188 -36.296875 20.453125 -36.296875 L 14.15625 -36.296875 Z M 14.15625 -23.765625 "/></g></g></g><g fill="#000000" fill-opacity="1"><g transform="translate(384.832339, 316.077917)"><g><path d="M 23.953125 -22.453125 L 42.109375 0 L 31 0 L 17.71875 -17.40625 L 14.15625 -13.53125 L 14.15625 0 L 5.546875 0 L 5.546875 -43.03125 L 14.15625 -43.03125 L 14.15625 -22.265625 L 32.75 -43.03125 L 42.96875 -43.03125 Z M 23.953125 -22.453125 "/></g></g></g><g fill="#000000" fill-opacity="1"><g transform="translate(426.369083, 316.077917)"><g><path d="M 36.609375 -6.796875 L 36.609375 0 L 5.546875 0 L 5.546875 -43.03125 L 35.984375 -43.03125 L 35.984375 -36.296875 L 14.15625 -36.296875 L 14.15625 -24.953125 L 34.4375 -24.953125 L 34.4375 -18.15625 L 14.15625 -18.15625 L 14.15625 -6.796875 Z M 36.609375 -6.796875 "/></g></g></g><g fill="#000000" fill-opacity="1"><g transform="translate(463.727187, 316.077917)"><g><path d="M 39.234375 -36.296875 L 24.640625 -36.296875 L 24.640625 0 L 16.03125 0 L 16.03125 -36.296875 L 1.4375 -36.296875 L 1.4375 -43.03125 L 39.234375 -43.03125 Z M 39.234375 -36.296875 "/></g></g></g><g fill="#000000" fill-opacity="1"><g transform="translate(501.521874, 316.077917)"><g><path d="M 26.703125 -42.734375 C 30.148438 -42.359375 32.941406 -41.035156 35.078125 -38.765625 C 37.222656 -36.492188 38.296875 -33.445312 38.296875 -29.625 C 38.296875 -25.84375 37.191406 -22.816406 34.984375 -20.546875 C 32.785156 -18.285156 30.023438 -16.945312 26.703125 -16.53125 C 24.910156 -16.320312 22.828125 -16.21875 20.453125 -16.21875 L 14.15625 -16.21875 L 14.15625 0 L 5.546875 0 L 5.546875 -43.03125 L 20.453125 -43.03125 C 22.867188 -43.03125 24.953125 -42.929688 26.703125 -42.734375 Z M 24.140625 -23.203125 C 27.546875 -23.703125 29.25 -25.84375 29.25 -29.625 C 29.25 -33.40625 27.546875 -35.546875 24.140625 -36.046875 C 23.179688 -36.171875 21.910156 -36.234375 20.328125 -36.234375 L 14.15625 -36.234375 L 14.15625 -23.015625 L 20.328125 -23.015625 C 21.910156 -23.015625 23.179688 -23.078125 24.140625 -23.203125 Z M 24.140625 -23.203125 "/></g></g></g><g fill="#000000" fill-opacity="1"><g transform="translate(539.316562, 316.077917)"><g><path d="M 36.609375 -7.171875 L 36.609375 0 L 5.546875 0 L 5.546875 -43.03125 L 14.15625 -43.03125 L 14.15625 -7.171875 Z M 36.609375 -7.171875 "/></g></g></g><g fill="#000000" fill-opacity="1"><g transform="translate(575.926258, 316.077917)"><g><path d="M 28.875 -12.96875 L 14.40625 -12.96875 L 10.109375 0 L 0.9375 0 L 16.46875 -43.03125 L 27.265625 -43.03125 L 42.484375 0 L 33.125 0 Z M 21.703125 -35.671875 L 16.59375 -19.765625 L 26.703125 -19.765625 Z M 21.703125 -35.671875 "/></g></g></g><g fill="#000000" fill-opacity="1"><g transform="translate(617.026418, 316.077917)"><g><path d="M 24.015625 -43.90625 C 29.628906 -43.90625 34.015625 -42.539062 37.171875 -39.8125 C 40.335938 -37.09375 42.148438 -33.507812 42.609375 -29.0625 L 42.671875 -28.4375 L 34.0625 -28.4375 L 33.9375 -29.0625 C 32.8125 -34.675781 29.460938 -37.484375 23.890625 -37.484375 C 20.398438 -37.484375 17.59375 -36.078125 15.46875 -33.265625 C 13.34375 -30.460938 12.28125 -26.628906 12.28125 -21.765625 C 12.28125 -16.566406 13.34375 -12.5625 15.46875 -9.75 C 17.59375 -6.945312 20.359375 -5.546875 23.765625 -5.546875 C 26.503906 -5.546875 28.707031 -6.316406 30.375 -7.859375 C 32.039062 -9.398438 33.164062 -11.539062 33.75 -14.28125 L 33.875 -14.90625 L 42.421875 -14.90625 L 42.359375 -14.28125 C 41.898438 -9.625 39.984375 -5.929688 36.609375 -3.203125 C 33.242188 -0.484375 28.835938 0.875 23.390625 0.875 C 17.316406 0.875 12.429688 -1.117188 8.734375 -5.109375 C 5.035156 -9.109375 3.1875 -14.492188 3.1875 -21.265625 C 3.1875 -28.171875 5.140625 -33.671875 9.046875 -37.765625 C 12.953125 -41.859375 17.941406 -43.90625 24.015625 -43.90625 Z M 24.015625 -43.90625 "/></g></g></g><g fill="#000000" fill-opacity="1"><g transform="translate(660.746044, 316.077917)"><g><path d="M 36.609375 -6.796875 L 36.609375 0 L 5.546875 0 L 5.546875 -43.03125 L 35.984375 -43.03125 L 35.984375 -36.296875 L 14.15625 -36.296875 L 14.15625 -24.953125 L 34.4375 -24.953125 L 34.4375 -18.15625 L 14.15625 -18.15625 L 14.15625 -6.796875 Z M 36.609375 -6.796875 "/></g></g></g><g fill="#c10b06" fill-opacity="1"><g transform="translate(250.039693, 317.297759)"><g><path d="M -9.359375 -12.710938 C -10.222656 -13.953125 -11.644531 -14.714844 -13.164062 -14.714844 C -15.777344 -14.714844 -17.730469 -12.429688 -17.730469 -9.359375 L -17.730469 -2.03125 L 0.0234375 -2.03125 L 0.0234375 -9.5625 C 0.0234375 -12.660156 -2.257812 -15.171875 -5.097656 -15.171875 C -7 -15.171875 -8.523438 -14.257812 -9.359375 -12.710938 Z M -12.582031 -10.984375 C -11.464844 -10.984375 -10.679688 -10.199219 -10.679688 -9.003906 L -10.679688 -5.785156 L -14.460938 -5.785156 L -14.460938 -9.003906 C -14.460938 -10.199219 -13.699219 -10.984375 -12.582031 -10.984375 Z M -3.5 -9.207031 L -3.5 -5.785156 L -7.484375 -5.785156 L -7.484375 -9.207031 C -7.484375 -10.476562 -6.644531 -11.3125 -5.503906 -11.3125 C -4.339844 -11.3125 -3.5 -10.476562 -3.5 -9.207031 Z M -3.5 -9.207031 "/></g></g></g><g fill="#c10b06" fill-opacity="1"><g transform="translate(250.039693, 301.014494)"><g><path d="M -3.398438 -7.484375 C -7.941406 -11.441406 -9.84375 -12.328125 -11.898438 -12.328125 C -15.019531 -12.328125 -17.199219 -9.996094 -17.199219 -6.671875 C -17.199219 -3.296875 -14.96875 -1.140625 -11.871094 -1.140625 L -11.492188 -1.140625 L -11.492188 -4.769531 L -11.820312 -4.769531 C -13.015625 -4.769531 -13.824219 -5.53125 -13.824219 -6.746094 C -13.824219 -7.890625 -13.039062 -8.675781 -11.871094 -8.675781 C -10.121094 -8.675781 -8.800781 -7.761719 -0.785156 -0.8125 L 0 -0.8125 L 0 -12.632812 L -3.398438 -12.632812 Z M -3.398438 -7.484375 "/></g></g></g><g fill="#c10b06" fill-opacity="1"><g transform="translate(250.039693, 287.11538)"><g><path d="M -9.359375 -12.710938 C -10.222656 -13.953125 -11.644531 -14.714844 -13.164062 -14.714844 C -15.777344 -14.714844 -17.730469 -12.429688 -17.730469 -9.359375 L -17.730469 -2.03125 L 0.0234375 -2.03125 L 0.0234375 -9.5625 C 0.0234375 -12.660156 -2.257812 -15.171875 -5.097656 -15.171875 C -7 -15.171875 -8.523438 -14.257812 -9.359375 -12.710938 Z M -12.582031 -10.984375 C -11.464844 -10.984375 -10.679688 -10.199219 -10.679688 -9.003906 L -10.679688 -5.785156 L -14.460938 -5.785156 L -14.460938 -9.003906 C -14.460938 -10.199219 -13.699219 -10.984375 -12.582031 -10.984375 Z M -3.5 -9.207031 L -3.5 -5.785156 L -7.484375 -5.785156 L -7.484375 -9.207031 C -7.484375 -10.476562 -6.644531 -11.3125 -5.503906 -11.3125 C -4.339844 -11.3125 -3.5 -10.476562 -3.5 -9.207031 Z M -3.5 -9.207031 "/></g></g></g><g fill="#c10b06" fill-opacity="1"><g transform="translate(96.626808, 362.840331)"><g><path d="M 30.453125 -19.46875 L 24.265625 0 L 18.546875 0 L 15.265625 -14.828125 L 11.921875 0 L 6.1875 0 L 0 -19.46875 L 5.640625 -19.46875 L 9.078125 -4.203125 L 12.265625 -19.390625 L 18.328125 -19.390625 L 21.625 -4.25 L 25.03125 -19.46875 Z M 30.453125 -19.46875 "/></g></g></g><g fill="#c10b06" fill-opacity="1"><g transform="translate(126.809117, 362.840331)"><g><path d="M 30.453125 -19.46875 L 24.265625 0 L 18.546875 0 L 15.265625 -14.828125 L 11.921875 0 L 6.1875 0 L 0 -19.46875 L 5.640625 -19.46875 L 9.078125 -4.203125 L 12.265625 -19.390625 L 18.328125 -19.390625 L 21.625 -4.25 L 25.03125 -19.46875 Z M 30.453125 -19.46875 "/></g></g></g><g fill="#c10b06" fill-opacity="1"><g transform="translate(156.991425, 362.840331)"><g><path d="M 30.453125 -19.46875 L 24.265625 0 L 18.546875 0 L 15.265625 -14.828125 L 11.921875 0 L 6.1875 0 L 0 -19.46875 L 5.640625 -19.46875 L 9.078125 -4.203125 L 12.265625 -19.390625 L 18.328125 -19.390625 L 21.625 -4.25 L 25.03125 -19.46875 Z M 30.453125 -19.46875 "/></g></g></g><g fill="#c10b06" fill-opacity="1"><g transform="translate(187.173734, 362.840331)"><g><path d="M 2.265625 -4.78125 C 2.828125 -5.351562 3.554688 -5.640625 4.453125 -5.640625 C 5.359375 -5.640625 6.097656 -5.351562 6.671875 -4.78125 C 7.242188 -4.207031 7.53125 -3.46875 7.53125 -2.5625 C 7.53125 -1.65625 7.242188 -0.914062 6.671875 -0.34375 C 6.097656 0.226562 5.359375 0.515625 4.453125 0.515625 C 3.554688 0.515625 2.828125 0.226562 2.265625 -0.34375 C 1.703125 -0.914062 1.421875 -1.65625 1.421875 -2.5625 C 1.421875 -3.46875 1.703125 -4.207031 2.265625 -4.78125 Z M 2.265625 -4.78125 "/></g></g></g><g fill="#c10b06" fill-opacity="1"><g transform="translate(195.917378, 362.840331)"><g><path d="M 8.34375 -15.984375 L 8.34375 -6.984375 C 8.34375 -6.179688 8.351562 -5.609375 8.375 -5.265625 C 8.445312 -4.316406 8.726562 -3.703125 9.21875 -3.421875 C 9.707031 -3.140625 10.648438 -3.046875 12.046875 -3.140625 L 12.046875 0.140625 C 10.992188 0.316406 9.878906 0.40625 8.703125 0.40625 C 6.847656 0.40625 5.523438 0.09375 4.734375 -0.53125 C 3.941406 -1.15625 3.484375 -2.175781 3.359375 -3.59375 C 3.316406 -4.175781 3.296875 -5.113281 3.296875 -6.40625 L 3.296875 -15.984375 L 0.4375 -15.984375 L 0.4375 -19.328125 L 3.296875 -19.328125 L 3.296875 -24.109375 L 8.34375 -24.109375 L 8.34375 -19.328125 L 12.375 -19.328125 L 12.375 -15.984375 Z M 8.34375 -15.984375 "/></g></g></g><g fill="#c10b06" fill-opacity="1"><g transform="translate(208.904849, 362.840331)"><g><path d="M 20.453125 -14.53125 C 20.554688 -13.644531 20.609375 -12.460938 20.609375 -10.984375 L 20.609375 0 L 15.546875 0 L 15.546875 -10.28125 C 15.546875 -11.425781 15.523438 -12.328125 15.484375 -12.984375 C 15.304688 -15.285156 14.0625 -16.4375 11.75 -16.4375 C 10.425781 -16.40625 9.363281 -15.78125 8.5625 -14.5625 C 7.757812 -13.34375 7.359375 -11.453125 7.359375 -8.890625 L 7.359375 0 L 2.3125 0 L 2.3125 -27.078125 L 7.359375 -27.078125 L 7.359375 -16.328125 L 8.859375 -18.625 C 10.128906 -19.53125 11.691406 -19.984375 13.546875 -19.984375 C 15.585938 -19.984375 17.195312 -19.503906 18.375 -18.546875 C 19.5625 -17.597656 20.253906 -16.257812 20.453125 -14.53125 Z M 20.453125 -14.53125 "/></g></g></g><g fill="#c10b06" fill-opacity="1"><g transform="translate(231.404358, 362.840331)"><g><path d="M 19.984375 -10.140625 C 19.984375 -9.429688 19.957031 -8.859375 19.90625 -8.421875 L 6.078125 -8.421875 C 6.367188 -4.828125 7.867188 -3.03125 10.578125 -3.03125 C 11.671875 -3.03125 12.578125 -3.320312 13.296875 -3.90625 C 14.015625 -4.5 14.460938 -5.304688 14.640625 -6.328125 L 19.6875 -6.328125 C 19.195312 -4.109375 18.128906 -2.410156 16.484375 -1.234375 C 14.835938 -0.0664062 12.832031 0.515625 10.46875 0.515625 C 7.65625 0.515625 5.367188 -0.351562 3.609375 -2.09375 C 1.859375 -3.84375 0.984375 -6.363281 0.984375 -9.65625 C 0.984375 -12.6875 1.890625 -15.164062 3.703125 -17.09375 C 5.523438 -19.019531 7.914062 -19.984375 10.875 -19.984375 C 13.726562 -19.984375 15.957031 -19.039062 17.5625 -17.15625 C 19.175781 -15.28125 19.984375 -12.941406 19.984375 -10.140625 Z M 10.65625 -16.4375 C 8.132812 -16.4375 6.65625 -14.859375 6.21875 -11.703125 L 14.78125 -11.703125 C 14.4375 -14.859375 13.0625 -16.4375 10.65625 -16.4375 Z M 10.65625 -16.4375 "/></g></g></g><g fill="#c10b06" fill-opacity="1"><g transform="translate(252.330714, 362.840331)"><g><path d="M 20.75 -19.46875 L 13.203125 0 L 7.578125 0 L 0 -19.46875 L 5.59375 -19.46875 L 10.5 -3.8125 L 15.296875 -19.46875 Z M 20.75 -19.46875 "/></g></g></g><g fill="#c10b06" fill-opacity="1"><g transform="translate(272.818062, 362.840331)"><g><path d="M 2.8125 -25.96875 C 3.332031 -26.46875 4.003906 -26.71875 4.828125 -26.71875 C 5.660156 -26.71875 6.332031 -26.46875 6.84375 -25.96875 C 7.351562 -25.46875 7.609375 -24.828125 7.609375 -24.046875 C 7.609375 -23.234375 7.351562 -22.582031 6.84375 -22.09375 C 6.332031 -21.613281 5.660156 -21.375 4.828125 -21.375 C 4.003906 -21.375 3.332031 -21.613281 2.8125 -22.09375 C 2.300781 -22.582031 2.046875 -23.234375 2.046875 -24.046875 C 2.046875 -24.828125 2.300781 -25.46875 2.8125 -25.96875 Z M 7.359375 0 L 2.3125 0 L 2.3125 -19.46875 L 7.359375 -19.46875 Z M 7.359375 0 "/></g></g></g><g fill="#c10b06" fill-opacity="1"><g transform="translate(282.329978, 362.840331)"><g><path d="M 12.21875 -19.9375 C 12.78125 -19.9375 13.257812 -19.890625 13.65625 -19.796875 L 13.65625 -15.734375 C 11.5 -15.878906 9.910156 -15.421875 8.890625 -14.359375 C 7.867188 -13.296875 7.359375 -11.484375 7.359375 -8.921875 L 7.359375 0 L 2.3125 0 L 2.3125 -19.46875 L 7.359375 -19.46875 L 7.359375 -15.921875 L 8.890625 -18.625 C 9.835938 -19.5 10.945312 -19.9375 12.21875 -19.9375 Z M 12.21875 -19.9375 "/></g></g></g><g fill="#c10b06" fill-opacity="1"><g transform="translate(296.012557, 362.840331)"><g><path d="M 8.34375 -15.984375 L 8.34375 -6.984375 C 8.34375 -6.179688 8.351562 -5.609375 8.375 -5.265625 C 8.445312 -4.316406 8.726562 -3.703125 9.21875 -3.421875 C 9.707031 -3.140625 10.648438 -3.046875 12.046875 -3.140625 L 12.046875 0.140625 C 10.992188 0.316406 9.878906 0.40625 8.703125 0.40625 C 6.847656 0.40625 5.523438 0.09375 4.734375 -0.53125 C 3.941406 -1.15625 3.484375 -2.175781 3.359375 -3.59375 C 3.316406 -4.175781 3.296875 -5.113281 3.296875 -6.40625 L 3.296875 -15.984375 L 0.4375 -15.984375 L 0.4375 -19.328125 L 3.296875 -19.328125 L 3.296875 -24.109375 L 8.34375 -24.109375 L 8.34375 -19.328125 L 12.375 -19.328125 L 12.375 -15.984375 Z M 8.34375 -15.984375 "/></g></g></g><g fill="#c10b06" fill-opacity="1"><g transform="translate(309.000028, 362.840331)"><g><path d="M 20.265625 -19.46875 L 20.265625 0 L 15.21875 0 L 15.21875 -3.296875 L 13.71875 -0.8125 C 12.40625 0.0703125 10.84375 0.515625 9.03125 0.515625 C 7.101562 0.515625 5.535156 0.046875 4.328125 -0.890625 C 3.128906 -1.835938 2.40625 -3.015625 2.15625 -4.421875 C 2.03125 -5.253906 1.96875 -6.441406 1.96875 -7.984375 L 1.96875 -19.46875 L 7.03125 -19.46875 L 7.03125 -9.03125 C 7.03125 -8.132812 7.078125 -7.25 7.171875 -6.375 C 7.441406 -4.175781 8.695312 -3.078125 10.9375 -3.078125 C 12.257812 -3.078125 13.300781 -3.625 14.0625 -4.71875 C 14.832031 -5.820312 15.21875 -7.429688 15.21875 -9.546875 L 15.21875 -19.46875 Z M 20.265625 -19.46875 "/></g></g></g><g fill="#c10b06" fill-opacity="1"><g transform="translate(331.389792, 362.840331)"><g><path d="M 13.609375 0 L 13.25 -2.859375 L 12.296875 -0.765625 C 11.023438 0.0859375 9.414062 0.515625 7.46875 0.515625 C 5.6875 0.515625 4.195312 0.015625 3 -0.984375 C 1.800781 -1.984375 1.203125 -3.375 1.203125 -5.15625 C 1.203125 -7.300781 2.109375 -8.953125 3.921875 -10.109375 C 5.742188 -11.273438 8.410156 -11.859375 11.921875 -11.859375 L 13.171875 -11.859375 L 13.171875 -12.265625 C 13.171875 -13.046875 13.144531 -13.65625 13.09375 -14.09375 C 12.925781 -15.65625 11.925781 -16.4375 10.09375 -16.4375 C 8.070312 -16.4375 6.988281 -15.335938 6.84375 -13.140625 L 1.9375 -13.09375 C 2.007812 -15.25 2.820312 -16.9375 4.375 -18.15625 C 5.925781 -19.375 7.894531 -19.984375 10.28125 -19.984375 C 15.132812 -19.984375 17.734375 -18.066406 18.078125 -14.234375 C 18.148438 -13.304688 18.1875 -12.304688 18.1875 -11.234375 L 18.1875 -4.9375 C 18.1875 -3.445312 18.304688 -1.800781 18.546875 0 Z M 9.40625 -3.03125 C 10.476562 -3.03125 11.375 -3.394531 12.09375 -4.125 C 12.8125 -4.863281 13.171875 -5.878906 13.171875 -7.171875 L 13.171875 -8.75 C 8.679688 -9.0625 6.4375 -8 6.4375 -5.5625 C 6.4375 -3.875 7.425781 -3.03125 9.40625 -3.03125 Z M 9.40625 -3.03125 "/></g></g></g><g fill="#c10b06" fill-opacity="1"><g transform="translate(351.730812, 362.840331)"><g><path d="M 7.203125 -26.890625 L 7.203125 -6.375 C 7.203125 -5.519531 7.21875 -4.921875 7.25 -4.578125 C 7.289062 -4.066406 7.46875 -3.722656 7.78125 -3.546875 C 8.101562 -3.378906 8.679688 -3.316406 9.515625 -3.359375 L 9.515625 0.109375 C 8.640625 0.203125 7.601562 0.25 6.40625 0.25 C 3.71875 0.25 2.328125 -0.894531 2.234375 -3.1875 C 2.179688 -3.769531 2.15625 -4.789062 2.15625 -6.25 L 2.15625 -26.890625 Z M 7.203125 -26.890625 "/></g></g></g><g fill="#c10b06" fill-opacity="1"><g transform="translate(361.718332, 362.840331)"><g><path d="M 10.71875 -19.984375 C 13.28125 -19.984375 15.351562 -19.28125 16.9375 -17.875 C 18.53125 -16.46875 19.421875 -14.65625 19.609375 -12.4375 L 14.640625 -12.4375 C 14.203125 -15.101562 12.859375 -16.4375 10.609375 -16.4375 C 9.265625 -16.4375 8.195312 -15.882812 7.40625 -14.78125 C 6.613281 -13.6875 6.21875 -12.066406 6.21875 -9.921875 C 6.21875 -7.597656 6.609375 -5.867188 7.390625 -4.734375 C 8.171875 -3.597656 9.234375 -3.03125 10.578125 -3.03125 C 11.578125 -3.03125 12.421875 -3.347656 13.109375 -3.984375 C 13.804688 -4.617188 14.28125 -5.535156 14.53125 -6.734375 L 19.578125 -6.734375 C 19.160156 -4.390625 18.128906 -2.59375 16.484375 -1.34375 C 14.835938 -0.101562 12.769531 0.515625 10.28125 0.515625 C 7.519531 0.515625 5.28125 -0.351562 3.5625 -2.09375 C 1.84375 -3.84375 0.984375 -6.34375 0.984375 -9.59375 C 0.984375 -12.8125 1.910156 -15.347656 3.765625 -17.203125 C 5.617188 -19.054688 7.9375 -19.984375 10.71875 -19.984375 Z M 10.71875 -19.984375 "/></g></g></g><g fill="#c10b06" fill-opacity="1"><g transform="translate(382.022758, 362.840331)"><g><path d="M 3.65625 -17.140625 C 5.4375 -19.035156 7.910156 -19.984375 11.078125 -19.984375 C 14.253906 -19.984375 16.734375 -19.035156 18.515625 -17.140625 C 20.296875 -15.253906 21.1875 -12.785156 21.1875 -9.734375 C 21.1875 -6.710938 20.296875 -4.25 18.515625 -2.34375 C 16.734375 -0.4375 14.253906 0.515625 11.078125 0.515625 C 7.910156 0.515625 5.4375 -0.4375 3.65625 -2.34375 C 1.875 -4.25 0.984375 -6.710938 0.984375 -9.734375 C 0.984375 -12.785156 1.875 -15.253906 3.65625 -17.140625 Z M 7.515625 -4.8125 C 8.378906 -3.625 9.566406 -3.03125 11.078125 -3.03125 C 12.597656 -3.03125 13.789062 -3.625 14.65625 -4.8125 C 15.519531 -6 15.953125 -7.640625 15.953125 -9.734375 C 15.953125 -11.828125 15.519531 -13.46875 14.65625 -14.65625 C 13.789062 -15.84375 12.597656 -16.4375 11.078125 -16.4375 C 9.566406 -16.4375 8.378906 -15.84375 7.515625 -14.65625 C 6.648438 -13.46875 6.21875 -11.828125 6.21875 -9.734375 C 6.21875 -7.640625 6.648438 -6 7.515625 -4.8125 Z M 7.515625 -4.8125 "/></g></g></g><g fill="#c10b06" fill-opacity="1"><g transform="translate(403.973513, 362.840331)"><g><path d="M 3.65625 -17.140625 C 5.4375 -19.035156 7.910156 -19.984375 11.078125 -19.984375 C 14.253906 -19.984375 16.734375 -19.035156 18.515625 -17.140625 C 20.296875 -15.253906 21.1875 -12.785156 21.1875 -9.734375 C 21.1875 -6.710938 20.296875 -4.25 18.515625 -2.34375 C 16.734375 -0.4375 14.253906 0.515625 11.078125 0.515625 C 7.910156 0.515625 5.4375 -0.4375 3.65625 -2.34375 C 1.875 -4.25 0.984375 -6.710938 0.984375 -9.734375 C 0.984375 -12.785156 1.875 -15.253906 3.65625 -17.140625 Z M 7.515625 -4.8125 C 8.378906 -3.625 9.566406 -3.03125 11.078125 -3.03125 C 12.597656 -3.03125 13.789062 -3.625 14.65625 -4.8125 C 15.519531 -6 15.953125 -7.640625 15.953125 -9.734375 C 15.953125 -11.828125 15.519531 -13.46875 14.65625 -14.65625 C 13.789062 -15.84375 12.597656 -16.4375 11.078125 -16.4375 C 9.566406 -16.4375 8.378906 -15.84375 7.515625 -14.65625 C 6.648438 -13.46875 6.21875 -11.828125 6.21875 -9.734375 C 6.21875 -7.640625 6.648438 -6 7.515625 -4.8125 Z M 7.515625 -4.8125 "/></g></g></g><g fill="#c10b06" fill-opacity="1"><g transform="translate(425.924268, 362.840331)"><g><path d="M 13.875 -19.984375 C 16.550781 -19.984375 18.664062 -19.066406 20.21875 -17.234375 C 21.769531 -15.398438 22.546875 -13.019531 22.546875 -10.09375 C 22.546875 -6.726562 21.65625 -4.117188 19.875 -2.265625 C 18.09375 -0.410156 15.867188 0.515625 13.203125 0.515625 C 11.203125 0.515625 9.679688 0.148438 8.640625 -0.578125 L 7.359375 -2.59375 L 7.359375 7.171875 L 2.3125 7.171875 L 2.3125 -19.46875 L 7.359375 -19.46875 L 7.359375 -16.5 L 8.8125 -18.625 C 9.9375 -19.53125 11.625 -19.984375 13.875 -19.984375 Z M 12.21875 -3.03125 C 13.726562 -3.03125 14.953125 -3.609375 15.890625 -4.765625 C 16.835938 -5.929688 17.3125 -7.597656 17.3125 -9.765625 C 17.3125 -11.765625 16.863281 -13.375 15.96875 -14.59375 C 15.082031 -15.820312 13.894531 -16.4375 12.40625 -16.4375 C 10.894531 -16.4375 9.675781 -15.914062 8.75 -14.875 C 7.820312 -13.832031 7.359375 -12.191406 7.359375 -9.953125 L 7.359375 -9.03125 C 7.359375 -6.988281 7.832031 -5.476562 8.78125 -4.5 C 9.726562 -3.519531 10.875 -3.03125 12.21875 -3.03125 Z M 12.21875 -3.03125 "/></g></g></g><g fill="#c10b06" fill-opacity="1"><g transform="translate(449.228645, 362.840331)"><g><path d="M 2.265625 -4.78125 C 2.828125 -5.351562 3.554688 -5.640625 4.453125 -5.640625 C 5.359375 -5.640625 6.097656 -5.351562 6.671875 -4.78125 C 7.242188 -4.207031 7.53125 -3.46875 7.53125 -2.5625 C 7.53125 -1.65625 7.242188 -0.914062 6.671875 -0.34375 C 6.097656 0.226562 5.359375 0.515625 4.453125 0.515625 C 3.554688 0.515625 2.828125 0.226562 2.265625 -0.34375 C 1.703125 -0.914062 1.421875 -1.65625 1.421875 -2.5625 C 1.421875 -3.46875 1.703125 -4.207031 2.265625 -4.78125 Z M 2.265625 -4.78125 "/></g></g></g><g fill="#c10b06" fill-opacity="1"><g transform="translate(457.972302, 362.840331)"><g><path d="M 20.453125 -14.53125 C 20.554688 -13.644531 20.609375 -12.460938 20.609375 -10.984375 L 20.609375 0 L 15.546875 0 L 15.546875 -10.28125 C 15.546875 -11.425781 15.523438 -12.328125 15.484375 -12.984375 C 15.304688 -15.285156 14.0625 -16.4375 11.75 -16.4375 C 10.425781 -16.4375 9.363281 -15.816406 8.5625 -14.578125 C 7.757812 -13.347656 7.359375 -11.453125 7.359375 -8.890625 L 7.359375 0 L 2.3125 0 L 2.3125 -19.46875 L 7.359375 -19.46875 L 7.359375 -16.328125 L 8.859375 -18.625 C 10.128906 -19.53125 11.691406 -19.984375 13.546875 -19.984375 C 15.585938 -19.984375 17.195312 -19.503906 18.375 -18.546875 C 19.5625 -17.597656 20.253906 -16.257812 20.453125 -14.53125 Z M 20.453125 -14.53125 "/></g></g></g><g fill="#c10b06" fill-opacity="1"><g transform="translate(480.471825, 362.840331)"><g><path d="M 19.984375 -10.140625 C 19.984375 -9.429688 19.957031 -8.859375 19.90625 -8.421875 L 6.078125 -8.421875 C 6.367188 -4.828125 7.867188 -3.03125 10.578125 -3.03125 C 11.671875 -3.03125 12.578125 -3.320312 13.296875 -3.90625 C 14.015625 -4.5 14.460938 -5.304688 14.640625 -6.328125 L 19.6875 -6.328125 C 19.195312 -4.109375 18.128906 -2.410156 16.484375 -1.234375 C 14.835938 -0.0664062 12.832031 0.515625 10.46875 0.515625 C 7.65625 0.515625 5.367188 -0.351562 3.609375 -2.09375 C 1.859375 -3.84375 0.984375 -6.363281 0.984375 -9.65625 C 0.984375 -12.6875 1.890625 -15.164062 3.703125 -17.09375 C 5.523438 -19.019531 7.914062 -19.984375 10.875 -19.984375 C 13.726562 -19.984375 15.957031 -19.039062 17.5625 -17.15625 C 19.175781 -15.28125 19.984375 -12.941406 19.984375 -10.140625 Z M 10.65625 -16.4375 C 8.132812 -16.4375 6.65625 -14.859375 6.21875 -11.703125 L 14.78125 -11.703125 C 14.4375 -14.859375 13.0625 -16.4375 10.65625 -16.4375 Z M 10.65625 -16.4375 "/></g></g></g><g fill="#c10b06" fill-opacity="1"><g transform="translate(501.398182, 362.840331)"><g><path d="M 8.34375 -15.984375 L 8.34375 -6.984375 C 8.34375 -6.179688 8.351562 -5.609375 8.375 -5.265625 C 8.445312 -4.316406 8.726562 -3.703125 9.21875 -3.421875 C 9.707031 -3.140625 10.648438 -3.046875 12.046875 -3.140625 L 12.046875 0.140625 C 10.992188 0.316406 9.878906 0.40625 8.703125 0.40625 C 6.847656 0.40625 5.523438 0.09375 4.734375 -0.53125 C 3.941406 -1.15625 3.484375 -2.175781 3.359375 -3.59375 C 3.316406 -4.175781 3.296875 -5.113281 3.296875 -6.40625 L 3.296875 -15.984375 L 0.4375 -15.984375 L 0.4375 -19.328125 L 3.296875 -19.328125 L 3.296875 -24.109375 L 8.34375 -24.109375 L 8.34375 -19.328125 L 12.375 -19.328125 L 12.375 -15.984375 Z M 8.34375 -15.984375 "/></g></g></g><g clip-path="url(#6f4a8bd915)"><path stroke-linecap="butt" transform="matrix(2.250556, 0.0134792, -0.0134997, 2.25398, 95.038521, 325.266342)" fill="none" stroke-linejoin="miter" d="M -0.000228501 0.500533 L 267.418032 0.499195 " stroke="#000000" stroke-width="1" stroke-opacity="1" stroke-miterlimit="4"/></g><g clip-path="url(#18d3aa3ba3)"><path fill="#000000" d="M 8.226562 370.726562 L 13.480469 370.726562 L 13.480469 349.792969 L 8.226562 349.792969 L 8.226562 370.726562 " fill-opacity="1" fill-rule="nonzero"/></g><g clip-path="url(#3ced679259)"><path fill="#000000" d="M 81.792969 349.792969 L 81.792969 370.726562 L 87.058594 370.726562 L 87.046875 349.792969 L 81.792969 349.792969 " fill-opacity="1" fill-rule="nonzero"/></g><path fill="#000000" d="M 55.519531 365.492188 L 55.519531 361.710938 C 55.519531 359.890625 56.441406 358.234375 57.992188 357.277344 L 70.011719 349.792969 L 25.261719 349.792969 L 37.28125 357.277344 C 38.832031 358.234375 39.753906 359.890625 39.753906 361.710938 L 39.753906 365.492188 L 55.519531 365.492188 " fill-opacity="1" fill-rule="nonzero"/><g clip-path="url(#15a9d71cc8)"><path fill="#c10b06" d="M 8.238281 265.1875 L 100.558594 265.1875 L 100.558594 231.09375 L 8.238281 231.09375 L 8.238281 265.1875 " fill-opacity="1" fill-rule="nonzero"/></g><g clip-path="url(#c63e46cb9b)"><path fill="#b66822" d="M 8.238281 305.160156 L 100.558594 305.160156 L 100.558594 271.070312 L 8.238281 271.070312 L 8.238281 305.160156 " fill-opacity="1" fill-rule="nonzero"/></g><g clip-path="url(#fb0e449082)"><path fill="#e1b083" d="M 8.226562 344.90625 L 100.570312 344.90625 L 100.570312 310.8125 L 8.226562 310.8125 L 8.226562 344.90625 " fill-opacity="1" fill-rule="nonzero"/></g><g clip-path="url(#05a5bc65f9)"><path fill="#000000" d="M 46.691406 206.601562 L 9.441406 225.195312 L 86.371094 225.195312 L 49.121094 206.601562 C 48.359375 206.222656 47.453125 206.222656 46.691406 206.601562 " fill-opacity="1" fill-rule="nonzero"/></g></svg>