<?xml version="1.0" encoding="UTF-8"?>
<svg width="388px" height="80px" viewBox="0 0 388 80" version="1.1" xmlns="http://www.w3.org/2000/svg" xmlns:xlink="http://www.w3.org/1999/xlink">
    <title>bywusa-logo</title>
    <g id="Page-1" stroke="none" stroke-width="1" fill="none" fill-rule="evenodd">
        <g id="bywusa-logo" transform="translate(-0.000000, -0.000000)" fill-rule="nonzero">
            <path d="M0,29.7945241 L0,0 L11.719507,0 C17.3318289,0 19.6426798,2.31085097 19.6426798,6.35521234 L19.6426798,9.40865606 C19.6426798,11.8847592 18.6523577,13.205288 16.341209,14.1956102 C19.0647438,14.7732485 20.633002,16.7541906 20.633002,19.7251571 L20.633002,22.8613757 C20.633002,27.0706916 17.9094672,29.7114514 12.4620998,29.7114514 L0,29.7945241 L0,29.7945241 Z M13.9478808,7.09780509 C13.9478808,5.4473674 13.0403336,4.7044769 10.9769143,4.7044769 L5.52954687,4.7044769 L5.52954687,12.5451725 L10.8944371,12.5448747 C13.1228108,12.5448747 13.8654035,11.5545526 13.8654035,9.7388627 L13.8654035,7.09780509 L13.9478808,7.09780509 Z M15.0209779,19.9728865 C15.0209779,17.9922421 14.113133,17.00192 11.8847592,17.00192 L5.61232185,17.0016222 L5.61232185,25.0900472 L11.3893004,25.0900472 C13.9478808,25.0900472 15.0209779,24.3471567 15.0209779,22.2012602 L15.0209779,19.9728865 L15.0209779,19.9728865 Z M36.8092565,29.7945241 L33.9207672,38.5427669 L28.7211293,38.5427669 L31.4449618,29.7945241 L29.546497,29.7945241 L22.6139441,8.00565003 L28.2259682,8.00565003 L33.1781745,24.5124089 L38.2125603,8.00565003 L43.7421072,8.00565003 L36.8092565,29.7945241 L36.8092565,29.7945241 Z M106.879462,38.7077214 L96.3977093,38.7077214 L88.5573115,11.0593915 L88.3098798,11.0593915 L80.5516614,38.7077214 L70.1526832,38.7077214 L56.864918,0.330206638 L66.5210057,0.330206638 L75.187069,28.8863814 L75.3520234,28.8863814 L83.3576735,0.330206638 L93.6741745,0.330206638 L101.51487,28.8863814 L101.679824,28.8863814 L110.263411,0.330206638 L120.167228,0.330206638 L106.879462,38.7077214 L106.879462,38.7077214 Z M124.871705,38.7077214 L133.784902,38.7077214 L133.784902,7.59296617 L124.871705,7.59296617 L124.871705,38.7077214 L124.871705,38.7077214 Z M172.079939,38.7077214 L152.437557,18.1571966 L152.354782,18.1571966 L152.354782,38.7077214 L143.35881,38.7077214 L143.35881,7.59296617 L153.758086,7.59296617 L173.400766,28.143491 L173.483243,28.143491 L173.483243,7.59296617 L182.396738,7.59296617 L182.396738,38.7077214 L172.079939,38.7077214 Z M200.47116,7.51048895 L200.47116,15.3511845 L221.84735,15.3511845 L221.84735,22.3665124 L200.47116,22.3665124 L200.47116,38.7077214 L191.557665,38.7077214 L191.557665,0.495458833 L231.256006,0.495458833 L231.256006,7.51048895 L200.47116,7.51048895 Z M237.693398,38.7077214 L246.606893,38.7077214 L246.606893,7.59296617 L237.693398,7.59296617 L237.693398,38.7077214 L237.693398,38.7077214 Z M255.767819,38.7077214 L255.767819,7.59296617 L289.606407,7.59296617 L289.606407,14.608294 L264.681612,14.608294 L264.681612,19.7254548 L281.600757,19.7254548 L281.600757,26.7407827 L264.681612,26.7407827 L264.681612,31.6923935 L290.844459,31.6923935 L290.844459,38.7077214 L255.767819,38.7077214 L255.767819,38.7077214 Z M299.015063,38.7077214 L299.015063,7.59296617 L307.928558,7.59296617 L307.928558,31.6923935 L331.863031,31.6923935 L331.863031,38.7077214 L299.015063,38.7077214 Z M380.061886,23.7695184 C380.061886,28.3087431 378.081241,32.1050774 374.202132,34.9938644 C370.983436,37.3047153 366.526689,38.7077214 361.657258,38.7077214 L339.043313,38.7077214 L339.043313,7.59296617 L360.58416,7.59296617 C372.633874,7.59296617 380.061886,14.0306557 380.061886,23.7695184 M370.818184,23.6042662 C370.818184,18.4874032 366.691643,14.608294 361.079321,14.608294 L347.956808,14.608294 L347.956808,31.6923935 L361.079321,31.6923935 C366.608868,31.6923935 370.818184,27.9785365 370.818184,23.6042662 Z M387.077214,10.3167988 C387.077214,12.3799203 385.426776,14.0306557 383.363357,14.0306557 C381.299937,14.0306557 379.6495,12.3799203 379.6495,10.3167988 C379.6495,8.33615442 381.299937,6.68512123 383.363357,6.68512123 C385.426776,6.68512123 387.077214,8.33585667 387.077214,10.3167988 M380.47457,10.3167988 C380.47457,11.9672364 381.712621,13.2055858 383.363357,13.2055858 C384.931615,13.2055858 386.169369,11.885057 386.169369,10.3167988 C386.169369,8.66606331 385.013794,7.34553451 383.363357,7.34553451 C381.712621,7.42801173 380.47457,8.74854053 380.47457,10.3167988 M382.702943,12.2149659 L381.877576,12.2149659 L381.877576,8.58358609 C382.207782,8.50110887 382.703241,8.50110887 383.280879,8.50110887 C383.940995,8.50110887 384.271202,8.58358609 384.518633,8.74854053 C384.683885,8.91379273 384.84884,9.16122439 384.84884,9.57390825 C384.84884,9.98659211 384.518633,10.3167988 384.105949,10.399276 L384.105949,10.4820509 C384.436156,10.6470054 384.683588,10.8947348 384.766065,11.3895981 C384.84884,11.9672364 384.931317,12.1324886 385.013794,12.2974431 L384.188427,12.2974431 C384.105949,12.1321909 384.023472,11.802282 383.940995,11.3895981 C383.858518,10.9769143 383.693563,10.8119598 383.198104,10.8119598 L382.785421,10.8116621 L382.702943,12.2149659 L382.702943,12.2149659 L382.702943,12.2149659 Z" id="bywusa_svg_over" fill="#75A023"></path>
            <path d="M140.057637,78.983701 L120.497137,58.4331762 L120.33248,58.4331762 L120.33248,78.983701 L111.418687,78.983701 L111.418687,47.8689458 L121.735486,47.8689458 L141.377868,68.4194705 L141.54312,68.4194705 L141.54312,47.8689458 L150.456615,47.8689458 L150.456615,78.983701 L140.057637,78.983701 L140.057637,78.983701 Z M157.801852,78.983701 L166.715347,78.983701 L166.715347,47.8689458 L157.801852,47.8689458 L157.801852,78.983701 Z M217.885764,78.983701 L217.885764,47.8689458 L251.641279,47.8689458 L251.641279,54.8842736 L226.798961,54.8842736 L226.798961,60.0011366 L243.635629,60.0011366 L243.635629,67.0164645 L226.798961,67.0164645 L226.798961,71.9683731 L252.879628,71.9683731 L252.879628,78.983701 L217.885764,78.983701 L217.885764,78.983701 Z M94.7472716,47.8689458 L103.413037,47.8689458 L103.413037,67.0992395 C103.413037,72.2161025 101.019709,75.5175734 96.4804843,77.5806949 C91.5282779,79.8915459 86.1639833,80.2217525 80.7166159,79.8915459 C77.0852361,79.6441142 73.5363335,78.9012237 70.3176376,77.2504883 C66.3560512,75.1873667 64.2101547,72.2161025 64.2101547,67.5119233 L64.2101547,47.951423 L72.876218,47.951423 L72.876218,66.1913945 C72.876218,68.9149294 73.7837652,71.3907348 76.9202817,72.3813547 C81.5419836,73.8668379 86.2461627,73.8668379 90.8681624,72.2161025 C94.1696333,71.0605281 94.5820194,68.4194705 94.5820194,66.356349 L94.7472716,47.8689458 L94.7472716,47.8689458 L94.7472716,47.8689458 Z M174.143359,47.951423 L211.365597,47.951423 L211.365597,54.8842736 L197.252464,54.8842736 L197.252464,78.983701 L188.338969,78.983701 L188.338969,55.0492281 L174.143359,55.0492281 L174.143359,47.951423 L174.143359,47.951423 Z M300.665799,64.045498 C300.665799,68.5847227 298.685154,72.3813547 294.806045,75.269844 C291.587349,77.5806949 287.130602,78.983701 282.26117,78.983701 L259.646929,78.983701 L259.646929,47.8689458 L281.187776,47.8689458 C293.237787,47.8689458 300.665799,54.3063376 300.665799,64.045498 M291.339322,63.962723 C291.339322,58.84586 287.212781,54.9667508 281.600757,54.9667508 L268.477946,54.9667508 L268.477946,72.0511481 L281.600757,72.0511481 C287.130304,71.9683731 291.339322,68.2545161 291.339322,63.962723 L291.339322,63.962723 Z" id="bywusa_svg_under" fill="#4F7227"></path>
        </g>
    </g>
</svg>