<?xml version="1.0" encoding="UTF-8"?>
<svg width="293px" height="81px" viewBox="0 0 293 81" version="1.1" xmlns="http://www.w3.org/2000/svg" xmlns:xlink="http://www.w3.org/1999/xlink">
    <title>intelligro</title>
    <g id="Page-1" stroke="none" stroke-width="1" fill="none" fill-rule="evenodd">
        <g id="intelligro" transform="translate(0.538141, 0.536925)" fill-rule="nonzero">
            <path d="M3.21707021e-05,29.8179772 L42.0707121,29.8179772 L42.5339428,29.8411169 L42.9743803,29.9105234 L43.3912578,30.0260642 L43.7849451,30.1647678 L44.1790293,30.3727822 L44.54954,30.5808377 L44.896874,30.8350957 L45.1982245,31.1124619 L45.4991917,31.4360308 L45.754189,31.7829815 L45.9628194,32.1527255 L46.1478763,32.5224696 L46.3101398,32.9385668 L46.4260912,33.354664 L46.4724992,33.7939516 L46.4956347,34.2328421 L46.4956347,48.6565449 L46.4956347,49.0030986 L46.4260912,49.3268591 L46.3565478,49.627443 L46.2405963,49.9508202 L46.1015094,50.2282274 L45.9396292,50.5056347 L45.7309987,50.7598517 L45.5223683,50.9908921 L45.2909446,51.2223158 L45.0359473,51.4069893 L44.7581567,51.5688696 L44.4568062,51.7075732 L44.155839,51.8231139 L43.8312982,51.9157929 L43.5071545,51.9617902 L43.1826137,51.9849257 L7.52918116,51.9849257 L6.92686348,51.9617902 L6.32450473,51.9157929 L5.69903783,51.8462495 L5.0735326,51.7538443 L4.42484667,51.6151406 L3.79934144,51.4532604 L3.19701828,51.2453966 L2.6178375,51.0139729 L2.33985662,50.8752692 L2.08501811,50.7365656 L1.83017961,50.597862 L1.5753411,50.436365 L1.34368467,50.2744848 L1.1351706,50.089428 L0.926694871,49.9047544 L0.74136151,49.6965073 L0.579170519,49.5114505 L0.440199931,49.2804101 L0.301191012,49.0493697 L0.185362794,48.8183293 L0.115860388,48.5641123 L0.0463579818,48.309512 L0.0231813866,48.0321047 L3.21707021e-05,47.7550944 L3.21707021e-05,29.8179772 L3.21707021e-05,29.8179772 Z M3.70670597,0 L3.98468685,0.0232042483 L4.3322112,0.0463123952 L4.70287792,0.0925560683 L5.14301146,0.185016035 L6.11604104,0.393027688 L7.27436428,0.693532163 L8.57169234,1.06334876 L10.0080362,1.52565818 L11.5602082,2.05727971 L13.2050264,2.65829003 L14.9193511,3.32861247 L16.7031795,4.06824566 L18.5565132,4.90041 L20.4330275,5.7787441 L21.3828709,6.24105351 L22.3095377,6.72646697 L23.25934,7.2349831 L24.2091834,7.74349923 L25.1589858,8.2751235 L26.0856936,8.8298833 L27.0123604,9.3846431 L27.9389862,9.96246998 L29.2595045,10.8177452 L30.533697,11.6729794 L31.7384556,12.5513491 L32.8967378,13.4296777 L34.0086668,14.3080474 L35.0510523,15.186376 L36.0706308,16.0878538 L37.0202826,16.9893316 L37.947141,17.9139176 L38.8040727,18.8385036 L39.6150208,19.7862251 L40.4027923,20.7339055 L41.1438136,21.681627 L41.8388651,22.6755648 L42.4875496,23.6463534 L43.1130576,24.6633857 L2.45565403,24.6633857 L2.20081553,24.6633857 L1.96915909,24.6171146 L1.73750129,24.5477081 L1.50580516,24.4783015 L1.29732942,24.3627607 L1.08881536,24.24722 L0.903481999,24.1085574 L0.718148637,23.9467593 L0.555995978,23.7618531 L0.416987058,23.5769058 L0.301158841,23.3688914 L0.185330624,23.1608359 L0.115828217,22.9297271 L0.0463258111,22.6985772 L0.0231492159,22.4674272 L-3.03971525e-15,22.2131692 L-3.03971525e-15,3.69832612 L0.0231492159,3.12045817 L0.0695160959,2.61194067 L0.115841907,2.38078528 L0.162167718,2.17277363 L0.231670124,1.96472228 L0.301172531,1.75671062 L0.370674937,1.59490568 L0.440177343,1.40995837 L0.532828965,1.2712958 L0.625521656,1.10949085 L0.741349874,0.993895361 L0.857178091,0.85523279 L0.973006308,0.739637297 L1.08883453,0.64717733 L1.34367303,0.462269717 L1.64483461,0.323568815 L1.94599619,0.208014391 L2.27033984,0.138662571 L2.59468212,0.069310751 L2.96534884,0.0231081469 L3.33601557,0 L3.70668229,0 L3.70670597,0 Z" id="inteligro_svg_over" fill="#00AF09"></path>
            <path d="M63.9865648,62.5253592 L63.8243013,62.5253592 L63.6852143,62.548221 L63.5692629,62.6177644 L63.4765839,62.6868972 L63.3839049,62.7795762 L63.3379076,62.8951169 L63.3147721,63.0106577 L63.2916366,63.1725379 L63.3147721,63.3344182 L63.3379076,63.4727385 L63.3839049,63.5886899 L63.4765839,63.6810951 L63.5692629,63.7735003 L63.6852143,63.8199083 L63.8243013,63.8430438 L63.9865648,63.8661793 L64.1484451,63.8430438 L64.287532,63.8199083 L64.426619,63.7735003 L64.519298,63.6810951 L64.6117032,63.5886899 L64.6812467,63.4727385 L64.7043822,63.3344182 L64.7275177,63.1725379 L64.7043822,63.0569972 L64.6812467,62.9410458 L64.6348387,62.825505 L64.5657059,62.7330998 L64.4730269,62.6406946 L64.3570755,62.5711511 L64.1948119,62.5251539 L63.9865648,62.5251539 L63.9865648,62.5253592 Z M63.4765839,75.4461509 L64.5193527,75.4461509 L64.5193527,65.7610624 L63.4765839,65.7610624 L63.4765839,75.4461509 Z M71.5386043,65.5763862 L71.0753736,65.5995217 L70.6121428,65.6686545 L70.194882,65.7610597 L69.7780044,65.9229399 L69.5925506,66.0156189 L69.4074938,66.1080241 L69.22204,66.2235649 L69.0597764,66.3391056 L68.8978962,66.4546463 L68.7356326,66.59335 L68.5733691,66.7552302 L68.4342821,66.8939339 L68.4342821,65.7383485 L67.3918966,65.7383485 L67.3918966,75.4462316 L68.4342821,75.4462316 L68.4342821,69.5060593 L68.4574177,69.1822989 L68.4805532,68.8585384 L68.5500967,68.5583378 L68.6427757,68.2809442 L68.7587271,68.0267272 L68.897814,67.7721133 L69.0828709,67.5410729 L69.2683247,67.3100325 L69.5001317,67.1249756 L69.7315554,66.9630954 L70.0097293,66.8247751 L70.2643296,66.7088236 L70.5656801,66.6164184 L70.8666473,66.5700105 L71.2143647,66.5240132 L71.5385085,66.5008777 L71.8862258,66.5240132 L72.2335599,66.5700105 L72.5349104,66.639554 L72.8358776,66.7319592 L73.1140515,66.8706628 L73.3686655,67.032543 L73.6236628,67.2175999 L73.8322932,67.4486403 L74.0405403,67.6796807 L74.2028039,67.9107211 L74.3418908,68.1881283 L74.4578423,68.4655356 L74.5502475,68.7429429 L74.6197909,69.0667034 L74.6661989,69.3900805 L74.6661989,69.7370176 L74.6661989,75.4461509 L75.6857774,75.4461509 L75.6857774,69.9912387 L75.6626419,69.5059813 L75.6162339,69.0666938 L75.5466905,68.6274063 L75.430739,68.2344856 L75.2916521,67.8647416 L75.1065953,67.4949976 L74.8979648,67.1712371 L74.6429675,66.8706532 L74.5038806,66.708773 L74.3651769,66.5700693 L74.2029134,66.4313657 L74.0406499,66.315825 L73.8783863,66.2002842 L73.6933295,66.0847435 L73.5078756,65.9923383 L73.3224218,65.8996593 L72.9055443,65.7609556 L72.4886667,65.6685504 L72.025039,65.5994177 L71.538618,65.5762821 L71.5386043,65.5763862 Z M79.9251614,63.0797754 L78.8823925,63.0797754 L78.8823925,73.5047284 L78.8823925,73.7357688 L78.9055281,73.9668092 L78.951936,74.1750563 L78.998344,74.3597298 L79.0678874,74.5216101 L79.1605664,74.6834903 L79.2532454,74.8453705 L79.3691969,74.9609113 L79.5079005,75.076452 L79.6469875,75.1688572 L79.809251,75.2615362 L79.9947048,75.330669 L80.1797617,75.3770769 L80.3883921,75.4230742 L80.6201991,75.4462097 L80.8516228,75.4462097 L81.384397,75.4462097 L81.384397,74.4984882 L80.7125359,74.4984882 L80.527479,74.4756265 L80.3652155,74.4292185 L80.2261285,74.3596751 L80.1334495,74.2441343 L80.0410443,74.0822541 L79.9715009,73.8975806 L79.9483653,73.6893335 L79.9252298,73.4351165 L79.9252298,66.7087182 L82.6123117,66.7087182 L82.6123117,65.7609967 L79.9252298,65.7609967 L79.9252298,63.0797097 L79.9251614,63.0797754 Z M90.5355641,66.5009283 L90.9524416,66.5240639 L91.3461289,66.5700611 L91.7170228,66.6396046 L92.0875335,66.7551453 L92.4116773,66.893849 L92.7362181,67.0789058 L93.014392,67.2635793 L93.3153592,67.495003 L93.5471662,67.74922 L93.7785899,68.0266273 L93.9640437,68.3036376 L94.1263073,68.6273981 L94.2650109,68.9511585 L94.3809623,69.2745357 L94.4736413,69.644663 L94.5431848,70.0144071 L86.5275258,70.0144071 L86.5739338,69.644663 L86.6666128,69.2745357 L86.7825642,68.9511585 L86.9212678,68.6273981 L87.1067217,68.3036376 L87.2921755,68.0266273 L87.5235992,67.74922 L87.7785965,67.495003 L88.0567704,67.2635793 L88.3577376,67.0789058 L88.6590881,66.893849 L89.0064222,66.7551453 L89.3537562,66.6396046 L89.7478405,66.5700611 L90.1415277,66.5240639 L90.535612,66.5009283 L90.5355641,66.5009283 Z M90.5584258,65.5763834 L90.0024613,65.599519 L89.4696871,65.6686517 L89.2150731,65.7381952 L88.9600758,65.7841925 L88.7282688,65.853736 L88.4968451,65.9461412 L88.2650381,66.0385464 L88.0336143,66.1544978 L87.8249839,66.2700385 L87.6163535,66.3855793 L87.4081064,66.5242829 L87.2226525,66.6861631 L87.0371987,66.8476601 L86.8517449,67.0095403 L86.6666881,67.1945971 L86.5044245,67.3792706 L86.3653376,67.5643275 L86.2262506,67.7721913 L86.087547,67.9804384 L85.9715955,68.1883022 L85.8789165,68.3965493 L85.7862375,68.6275897 L85.6935585,68.8586301 L85.6240151,69.0900538 L85.5548823,69.3210942 L85.5084743,69.5753112 L85.4853388,69.8295282 L85.4389309,70.0837452 L85.4389309,70.3379622 L85.4389309,70.6153558 L85.4389309,70.8927631 L85.4620664,71.1469801 L85.4852019,71.4243874 L85.5083374,71.6558111 L85.5778809,71.9100281 L85.6238782,72.1642451 L85.6934216,72.3952855 L85.7861006,72.6263259 L85.8787796,72.8577496 L85.9947311,73.0656134 L86.1106825,73.2734772 L86.2493861,73.4817243 L86.3884731,73.6667811 L86.5507366,73.8746449 L86.7130002,74.0597018 L86.898057,74.2211987 L87.0603206,74.4062555 L87.268951,74.5449592 L87.4544048,74.7068394 L87.6626519,74.845543 L87.8712824,74.9610838 L88.1027061,75.0766245 L88.3113365,75.1690297 L88.5431435,75.2617087 L88.7977438,75.3541139 L89.0295508,75.4232467 L89.2845481,75.4927902 L89.5391621,75.5391981 L89.817336,75.5620599 L90.0951266,75.6084678 L90.3733005,75.6084678 L90.6510911,75.6084678 L90.9988085,75.6084678 L91.3461426,75.6084678 L91.6706833,75.5620599 L91.9948271,75.5391981 L92.3193679,75.4696546 L92.6203351,75.4232467 L92.898509,75.3541139 L93.1762996,75.2617087 L93.4544735,75.1690297 L93.7090738,75.053489 L93.9408808,74.9379482 L94.1726878,74.8224075 L94.4041115,74.6837039 L94.612742,74.5218236 L94.8213724,74.3599434 L95.0064292,74.1752699 L95.0759727,74.1288619 L94.2882012,73.4353574 L94.2422039,73.4817654 L94.0799404,73.620469 L93.9176768,73.7591726 L93.732223,73.8747134 L93.5471662,73.9902541 L93.3153592,74.1057948 L93.0835521,74.1984738 L92.8289518,74.2908791 L92.5739545,74.3600118 L92.0875335,74.4987155 L91.6011125,74.5913945 L91.1146915,74.6605273 L90.6510637,74.6605273 L90.2110096,74.6605273 L89.7941321,74.6141193 L89.4000478,74.5217141 L89.0295371,74.4061734 L88.6590265,74.2674697 L88.3344857,74.0824129 L88.0103419,73.8745491 L87.732168,73.6435087 L87.4771707,73.3661151 L87.245747,73.0887078 L87.0371166,72.788124 L86.874853,72.4647468 L86.7361494,72.1178097 L86.6434704,71.7480657 L86.5507914,71.3783216 L86.5043834,70.9622244 L95.5624211,70.9622244 L95.5855566,70.8926809 L95.6319646,70.6848171 L95.6319646,70.4306001 L95.608829,69.9217692 L95.5392856,69.4365118 L95.4928776,69.2054714 L95.4237448,68.974431 L95.3542014,68.7430072 L95.2846579,68.5119668 L95.1687065,68.3037197 L95.0760275,68.0958559 L94.960076,67.8879921 L94.8213724,67.679745 L94.5431985,67.310001 L94.1958644,66.9630639 L93.8249705,66.6396867 L93.4312695,66.3622795 L93.014392,66.1312391 L92.5507642,65.9229919 L92.0875335,65.7842883 L91.6011125,65.6687476 L91.0915149,65.5996148 L90.5583437,65.5764793 L90.5584258,65.5763834 Z M98.8290766,75.4461481 L99.8714621,75.4461481 L99.8714621,61.184713 L98.8290766,61.184713 L98.8290766,75.4461481 Z M103.068524,75.4461481 L104.111292,75.4461481 L104.111292,61.184713 L103.068524,61.184713 L103.068524,75.4461481 Z M107.979838,62.5253565 L107.817958,62.5253565 L107.678871,62.5482182 L107.56292,62.6177617 L107.470241,62.6868945 L107.377562,62.7795735 L107.331154,62.8951142 L107.284746,63.0106549 L107.284746,63.1725352 L107.284746,63.3344154 L107.331154,63.4727357 L107.377562,63.5886872 L107.470241,63.6810924 L107.56292,63.7734976 L107.678871,63.8199055 L107.817958,63.8430411 L107.979838,63.8661766 L108.142102,63.8430411 L108.304366,63.8199055 L108.420317,63.7734976 L108.512722,63.6810924 L108.605401,63.5886872 L108.651809,63.4727357 L108.698217,63.3344154 L108.698217,63.1725352 L108.698217,63.0569944 L108.675082,62.941043 L108.628674,62.8255023 L108.55913,62.7330971 L108.466451,62.6406919 L108.35091,62.5711484 L108.188647,62.5251511 L107.980016,62.5251511 L107.979838,62.5253565 Z M107.493417,75.4461481 L108.512613,75.4461481 L108.512613,65.7610597 L107.493417,65.7610597 L107.493417,75.4461481 Z M120.096239,67.8879319 L120.304486,68.211309 L120.513117,68.5582461 L120.67538,68.9279902 L120.814467,69.3209108 L120.930008,69.737008 L120.999552,70.1531052 L121.04596,70.615186 L121.069095,71.1008268 L121.069095,72.5106277 L120.860465,72.788035 L120.629041,73.0654422 L120.397234,73.2964826 L120.119443,73.5279064 L119.864446,73.7357702 L119.563479,73.943634 L119.262128,74.1286908 L118.961161,74.290571 L118.729354,74.3829762 L118.497547,74.4525197 L118.266123,74.5216525 L118.034316,74.5680605 L117.779319,74.6140577 L117.547895,74.6371932 L117.292898,74.6603288 L117.038298,74.6603288 L116.57467,74.6603288 L116.134616,74.591196 L115.717738,74.498517 L115.323654,74.3829762 L114.97632,74.221096 L114.628986,74.0132322 L114.466722,73.920827 L114.327635,73.8052863 L114.188548,73.6665826 L114.049462,73.527879 L113.794861,73.2504717 L113.586231,72.9498878 L113.401174,72.6029508 L113.262087,72.256397 L113.146136,71.8634764 L113.053457,71.4705557 L113.007049,71.0312682 L112.983913,70.5919807 L113.007049,70.1530902 L113.053457,69.7138027 L113.146136,69.320882 L113.262087,68.951138 L113.401174,68.6042009 L113.586231,68.2576472 L113.818038,67.9570633 L114.072638,67.6564794 L114.350812,67.4022624 L114.651779,67.171222 L114.999497,66.9629749 L115.346831,66.801478 L115.740915,66.6859373 L116.134616,66.5932583 L116.57467,66.5241255 L117.038298,66.5009899 L117.501528,66.5241255 L117.964759,66.5932583 L118.381637,66.708799 L118.775721,66.8475026 L118.961175,66.9401816 L119.146232,67.0557224 L119.331685,67.1712631 L119.493949,67.2868038 L119.655829,67.4255075 L119.794916,67.5642111 L119.934003,67.7260914 L120.096267,67.8879716 L120.096239,67.8879319 Z M121.069081,67.5178045 L120.860451,67.2867641 L120.675394,67.0789003 L120.466764,66.8706532 L120.234957,66.6859797 L120.003533,66.5009229 L119.771726,66.3390426 L119.540302,66.200339 L119.285305,66.0616354 L119.030308,65.9692301 L118.752517,65.8536894 L118.474343,65.7841459 L118.196553,65.7150131 L117.895202,65.6454697 L117.594235,65.6223341 L117.292884,65.5994724 L116.968741,65.5763369 L116.412776,65.5994724 L115.879605,65.6686052 L115.601814,65.7150131 L115.370007,65.7841459 L115.115407,65.8536894 L114.8836,65.9460946 L114.651793,66.0384998 L114.420369,66.1311788 L114.211739,66.2467196 L114.003492,66.3854232 L113.818038,66.5241268 L113.632584,66.6628305 L113.44713,66.8247107 L113.262073,66.9862076 L113.09981,67.1712645 L112.937546,67.3331447 L112.798459,67.5410085 L112.659756,67.7260653 L112.543804,67.9339291 L112.427853,68.1421763 L112.335174,68.3500401 L112.242495,68.5810805 L112.15009,68.8125042 L112.080546,69.0435446 L112.034138,69.274585 L111.98773,69.528802 L111.918187,70.0604262 L111.895051,70.6152271 L111.895051,70.8926344 L111.918187,71.1468514 L111.941322,71.4242587 L111.98773,71.6784757 L112.034138,71.9098994 L112.103682,72.1641164 L112.173225,72.3951568 L112.26563,72.6261972 L112.358309,72.8576209 L112.450988,73.0654847 L112.56694,73.2733485 L112.706027,73.4815956 L112.84473,73.6666524 L112.983817,73.8745162 L113.146081,74.0595731 L113.308344,74.22107 L113.493401,74.4061268 L113.678855,74.5448305 L113.864309,74.7067107 L114.072556,74.8454143 L114.281186,74.9609551 L114.489817,75.0764958 L114.721241,75.168901 L114.953048,75.26158 L115.184855,75.3539852 L115.416278,75.423118 L115.671276,75.4926615 L115.925876,75.5390694 L116.20405,75.5619312 L116.459047,75.6083391 L116.736838,75.6083391 L117.038188,75.6083391 L117.547786,75.6083391 L118.057383,75.5392063 L118.543804,75.4465273 L119.007035,75.3078237 L119.215666,75.2154185 L119.470663,75.0767148 L119.748454,74.9148346 L120.049804,74.7069708 L120.350771,74.4759304 L120.628945,74.2676833 L120.860369,74.0598195 L121.068999,73.8747627 L121.068999,74.9843644 L121.045864,75.4232686 L120.999456,75.8393658 L120.929912,76.2322865 L120.814372,76.6024138 L120.675285,76.9489676 L120.513021,77.272728 L120.304391,77.5729286 L120.072967,77.8503359 L119.794793,78.1049362 L119.493826,78.3128 L119.169285,78.5206638 L118.821951,78.6593674 L118.451057,78.7980711 L118.05737,78.8676146 L117.617316,78.9136118 L117.176878,78.9367473 L116.667281,78.9367473 L116.18086,78.8907501 L115.694439,78.8212066 L115.208018,78.7056659 L114.74439,78.5901251 L114.281159,78.4282449 L113.841105,78.2203811 L113.423844,78.012134 L113.331439,77.9661367 L112.983721,78.9598418 L113.053265,78.9829773 L113.725126,79.2603846 L114.2579,79.4454414 L114.697954,79.6069384 L115.022495,79.6996174 L115.485726,79.7920226 L115.995324,79.8844278 L116.551288,79.9308357 L117.130429,79.9308357 L117.43178,79.9308357 L117.709954,79.9077002 L117.964554,79.8845647 L118.242728,79.8614291 L118.497342,79.8154319 L118.752339,79.7458884 L118.983763,79.6767556 L119.21557,79.5840766 L119.447377,79.4916714 L119.655624,79.3992662 L119.864254,79.2837255 L120.072885,79.1681847 L120.281132,79.0294811 L120.466586,78.8676009 L120.628849,78.7288972 L120.814303,78.5438404 L120.953007,78.3819602 L121.11527,78.2204632 L121.254357,78.0354064 L121.370309,77.8275426 L121.485849,77.6424858 L121.601801,77.4342387 L121.69448,77.2031983 L121.764023,76.9953345 L121.926287,76.5328703 L122.018966,76.0476129 L122.088099,75.5159887 L122.088099,74.9843644 L122.088099,65.761354 L121.068903,65.761354 L121.068903,67.5181002 L121.069081,67.5178045 Z M130.405289,66.5009229 L130.822139,66.5240584 L131.216264,66.5700557 L131.586843,66.6395991 L131.957286,66.7551399 L132.281867,66.8938435 L132.606039,67.0789003 L132.907348,67.2635739 L133.185111,67.4949976 L133.44015,67.7492146 L133.64878,68.0266218 L133.833864,68.3036321 L134.019359,68.6273926 L134.158446,68.9511531 L134.251536,69.2745302 L134.344626,69.6446576 L134.414443,70.0144016 L126.398791,70.0144016 L126.445199,69.6446576 L126.537878,69.2745302 L126.653829,68.9511531 L126.792916,68.6273926 L126.97837,68.3036321 L127.163427,68.0266218 L127.395234,67.7492146 L127.649834,67.4949976 L127.904831,67.2635739 L128.206182,67.0789003 L128.530326,66.8938435 L128.87766,66.7551399 L129.225377,66.6395991 L129.619078,66.5700557 L130.013203,66.5240584 L130.406918,66.5009229 L130.405289,66.5009229 Z M130.405289,65.576378 L129.872487,65.5995135 L129.339699,65.6686463 L129.084702,65.7381897 L128.830102,65.784187 L128.598295,65.8537305 L128.366488,65.9461357 L128.135064,66.0385409 L127.903257,66.1544923 L127.694627,66.2700331 L127.486379,66.3855738 L127.277749,66.5242774 L127.092295,66.6861577 L126.907238,66.8476546 L126.721784,67.0095348 L126.536331,67.1945917 L126.37445,67.3792652 L126.235363,67.564322 L126.096277,67.7721858 L125.95719,67.9804329 L125.841238,68.1882967 L125.748833,68.3965438 L125.656154,68.6275842 L125.563475,68.8586246 L125.493931,69.0900484 L125.424388,69.3210888 L125.37798,69.5753057 L125.331572,69.8295227 L125.308437,70.0837397 L125.285301,70.3379567 L125.285301,70.6153503 L125.285301,70.8927576 L125.308437,71.1469746 L125.331572,71.4243819 L125.37798,71.6558056 L125.424388,71.9100226 L125.493931,72.1642396 L125.563475,72.39528 L125.656154,72.6263204 L125.748833,72.8577441 L125.864374,73.0656079 L125.980325,73.2734717 L126.096277,73.4817188 L126.235363,73.6667756 L126.397244,73.8746394 L126.559507,74.0596963 L126.744961,74.2211932 L126.930415,74.40625 L127.115472,74.5449537 L127.324102,74.7068339 L127.532733,74.8455376 L127.74098,74.9610783 L127.94961,75.076619 L128.181417,75.1690242 L128.412841,75.2617032 L128.644648,75.3541084 L128.899248,75.4232412 L129.154246,75.4927847 L129.409243,75.5391926 L129.687033,75.5620544 L129.965207,75.6084623 L130.242971,75.6084623 L130.521144,75.6084623 L130.868451,75.6084623 L131.216168,75.6084623 L131.54034,75.5620544 L131.864921,75.5391926 L132.16582,75.4696492 L132.46713,75.4232412 L132.768028,75.3541084 L133.046202,75.2617032 L133.30083,75.1690242 L133.555868,75.0534835 L133.810496,74.9379428 L134.042262,74.822402 L134.250892,74.6836984 L134.482385,74.5218181 L134.667879,74.3599379 L134.87651,74.1752644 L134.923055,74.1288564 L134.158487,73.4353519 L134.111942,73.4817599 L133.94972,73.6204635 L133.787908,73.7591672 L133.602413,73.8747079 L133.416918,73.9902486 L133.185152,74.0826538 L132.953797,74.1986053 L132.722031,74.2910105 L132.444268,74.3601433 L131.957464,74.4988469 L131.47107,74.5915259 L130.984676,74.6606587 L130.521418,74.6606587 L130.081433,74.6606587 L129.664172,74.6142507 L129.270471,74.5218455 L128.899577,74.4063048 L128.551887,74.267389 L128.204555,74.0823267 L127.903201,73.8744683 L127.602232,73.6434293 L127.347239,73.3660289 L127.115428,73.0886271 L126.930364,72.7880446 L126.768097,72.4646674 L126.605829,72.1177235 L126.51315,71.7479794 L126.443606,71.3550588 L126.397199,70.9621382 L135.455624,70.9621382 L135.455624,70.8925947 L135.502168,70.6847309 L135.502168,70.4305139 L135.478896,69.9216829 L135.409079,69.4364255 L135.292717,68.9743447 L135.15363,68.5118806 L135.037268,68.3036335 L134.945547,68.0957697 L134.829185,67.8879059 L134.690098,67.702849 L134.389199,67.3099284 L134.064617,66.9629913 L133.694038,66.6396142 L133.299913,66.3622069 L132.883063,66.1311665 L132.419804,65.9229194 L131.956136,65.7842158 L131.469742,65.668675 L130.960213,65.5995422 L130.404276,65.5764067 L130.405289,65.576378 Z M142.84585,65.576378 L142.359456,65.5995135 L141.91906,65.6686463 L141.479074,65.7610515 L141.08536,65.9229317 L140.714507,66.1079885 L140.343928,66.3390289 L140.181705,66.4545697 L140.019483,66.5932733 L139.880806,66.7551536 L139.718584,66.8938572 L139.718584,65.7382719 L138.699389,65.7382719 L138.699389,75.446155 L139.718584,75.446155 L139.718584,69.5059827 L139.741856,69.1822222 L139.788401,68.8584617 L139.858218,68.5582612 L139.951308,68.2808676 L140.066301,68.0266506 L140.205388,67.7720366 L140.390883,67.5409962 L140.576378,67.3099558 L140.807733,67.124899 L141.039499,66.9630187 L141.294127,66.8246984 L141.572301,66.708747 L141.850064,66.6163418 L142.174646,66.5699338 L142.498817,66.5239366 L142.846534,66.500801 L143.193841,66.5239366 L143.541558,66.5699338 L143.842457,66.6394773 L144.143767,66.7318825 L144.42153,66.8705861 L144.676568,67.0324664 L144.931196,67.2175232 L145.139826,67.4485636 L145.348457,67.679604 L145.510679,67.9106444 L145.649355,68.1880517 L145.765718,68.465459 L145.858807,68.7428662 L145.905352,69.0666267 L145.951897,69.3900039 L145.975169,69.7369409 L145.975169,75.4460742 L146.994365,75.4460742 L146.994365,69.991162 L146.971092,69.5059046 L146.924547,69.0666171 L146.85473,68.6273296 L146.739737,68.234409 L146.577514,67.8414883 L146.415292,67.4949346 L146.206662,67.1711741 L145.952034,66.8705902 L145.812947,66.70871 L145.67386,66.5700064 L145.512048,66.4313027 L145.349826,66.315762 L145.187603,66.2002213 L145.002108,66.0846805 L144.817024,65.9922753 L144.631529,65.8995963 L144.214679,65.7608927 L143.797418,65.6684875 L143.33416,65.5993547 L142.847766,65.5762192 L142.84585,65.576378 Z M151.208836,63.0797672 L150.189641,63.0797672 L150.189641,73.5047202 L150.189641,73.7357606 L150.212913,73.966801 L150.259458,74.1750481 L150.306003,74.3597216 L150.37582,74.5216019 L150.46891,74.6834821 L150.560631,74.8453623 L150.676993,74.9609031 L150.81608,75.0764438 L150.955167,75.168849 L151.116978,75.261528 L151.302473,75.3306608 L151.487968,75.3770687 L151.696599,75.423066 L151.904818,75.4462015 L152.159857,75.4462015 L152.669523,75.4462015 L152.669523,74.49848 L151.997634,74.49848 L151.812139,74.4756183 L151.650328,74.4292103 L151.511241,74.3596669 L151.418151,74.2441261 L151.325061,74.0822459 L151.255244,73.8975724 L151.231972,73.6893253 L151.208699,73.4351083 L151.208699,66.70871 L153.919348,66.70871 L153.919348,65.7609885 L151.208699,65.7609885 L151.208699,63.0797015 L151.208836,63.0797672 Z M166.98554,66.5009201 L167.379255,66.5240557 L167.772969,66.5931884 L168.167095,66.6858674 L168.514401,66.8014082 L168.862119,66.9629051 L169.209425,67.1711522 L169.510735,67.4021926 L169.811771,67.6795999 L169.881588,67.7491434 L170.62302,67.1016224 L170.553203,67.0324896 L170.367708,66.8706094 L170.182623,66.6859359 L169.973993,66.5472323 L169.788498,66.4085286 L169.371648,66.1543116 L168.931662,65.9460645 L168.699896,65.8769317 L168.46813,65.7842527 L168.213503,65.7382555 L167.981737,65.668712 L167.472208,65.5995792 L166.962678,65.5764437 L166.406741,65.5995792 L165.87394,65.668712 L165.618901,65.7382555 L165.363863,65.7842527 L165.132508,65.8537962 L164.900742,65.9462014 L164.66925,66.0386066 L164.437484,66.154558 L164.228853,66.2700988 L164.020633,66.3856395 L163.812003,66.5243431 L163.626508,66.6862234 L163.441424,66.8477203 L163.255929,67.0096005 L163.093707,67.1946574 L162.931484,67.3793309 L162.769672,67.5643877 L162.630585,67.7722515 L162.514223,67.9804986 L162.397861,68.1883624 L162.281499,68.3966096 L162.189778,68.62765 L162.119961,68.8586904 L162.050144,69.0901141 L161.980326,69.3211545 L161.933782,69.5753715 L161.887237,69.8295885 L161.863964,70.0838054 L161.840692,70.3380224 L161.840692,70.615416 L161.840692,70.869633 L161.863964,71.1470266 L161.887237,71.4012436 L161.933782,71.6558576 L161.980326,71.886898 L162.050144,72.141115 L162.119961,72.3721554 L162.189778,72.6031958 L162.281499,72.8114429 L162.397861,73.0424833 L162.514223,73.2507304 L162.630585,73.4585942 L162.769672,73.6436511 L162.931484,73.8515149 L163.093707,74.0365717 L163.255929,74.2212452 L163.441424,74.3831255 L163.626508,74.5450057 L163.835139,74.6837093 L164.020633,74.822413 L164.251989,74.9611166 L164.460619,75.0766574 L164.691974,75.1690626 L164.900605,75.2617416 L165.155643,75.3541468 L165.386998,75.4232796 L165.642037,75.492823 L165.897075,75.539231 L166.151703,75.5620927 L166.406741,75.6085007 L166.684504,75.6085007 L166.962678,75.6085007 L167.217306,75.6085007 L167.472344,75.6085007 L167.727383,75.5620927 L167.958738,75.539231 L168.213776,75.4696875 L168.445269,75.4232796 L168.677035,75.3308743 L168.908801,75.2617416 L169.11702,75.1690626 L169.348786,75.0535218 L169.557417,74.9379811 L169.765636,74.7992774 L169.974267,74.6605738 L170.159762,74.4986936 L170.367981,74.3371966 L170.553476,74.1521398 L170.623294,74.0825963 L169.881862,73.4354587 L169.812044,73.4818667 L169.511009,73.7592739 L169.209699,74.0134909 L168.862393,74.1985478 L168.514675,74.3832213 L168.144096,74.498762 L167.773243,74.591441 L167.379529,74.6605738 L166.985814,74.6605738 L166.522556,74.6605738 L166.082159,74.591441 L165.665309,74.498762 L165.29473,74.3832213 L164.923877,74.2213411 L164.576571,74.0134772 L164.275261,73.7824368 L163.997498,73.5050296 L163.74246,73.227636 L163.533829,72.9038755 L163.348745,72.5804983 L163.186522,72.210371 L163.07016,71.840627 L163.000343,71.4477063 L162.953798,71.0316091 L162.930526,70.5923216 L162.953798,70.1534311 L163.000343,69.7373338 L163.07016,69.3444132 L163.186522,68.9746692 L163.348745,68.6045418 L163.533829,68.2811646 L163.74246,67.9574042 L163.997498,67.6568203 L164.275261,67.4026033 L164.599843,67.1715629 L164.94715,66.9633158 L165.294867,66.8018189 L165.688582,66.6862781 L166.105432,66.5935991 L166.522693,66.5244663 L166.985951,66.5013308 L166.98554,66.5009201 Z M177.062773,65.7150789 L176.78501,65.7382144 L176.529971,65.7610761 L176.275344,65.7842116 L176.043578,65.8306196 L175.78895,65.8997524 L175.557184,65.9692959 L175.348554,66.0617011 L175.117062,66.1543801 L174.908431,66.2699208 L174.722936,66.3854615 L174.514716,66.5473418 L174.329222,66.6860454 L174.143727,66.8475423 L173.981504,67.0325992 L173.819692,67.240463 L173.65747,67.4255198 L173.65747,65.7611117 L172.638275,65.7611117 L172.638275,75.4462002 L173.65747,75.4462002 L173.65747,71.1008925 L173.680742,70.5920615 L173.727287,70.1068041 L173.797104,69.6675166 L173.890194,69.2514193 L174.02887,68.8584987 L174.191093,68.4887547 L174.376588,68.1653775 L174.584808,67.8647936 L174.839846,67.5874 L175.094884,67.3563596 L175.349512,67.1481125 L175.650821,66.9862323 L175.951857,66.8475286 L176.253166,66.7551234 L176.577338,66.7087155 L176.901919,66.6858538 L176.948464,66.6858538 L177.550809,66.7549865 L177.898116,66.8013945 L178.060339,66.82453 L178.083611,66.82453 L178.245833,66.8705273 L178.245833,65.8768222 L178.176016,65.8768222 L177.73562,65.8072787 L177.411449,65.7608708 L177.179683,65.738009 L177.063321,65.7148735 L177.062773,65.7150789 Z M185.426156,74.6603014 L184.98617,74.6603014 L184.545774,74.5911686 L184.128924,74.4984896 L183.758345,74.3829489 L183.387492,74.2210686 L183.063321,74.0132048 L182.901098,73.8976641 L182.738876,73.7821234 L182.6002,73.6434197 L182.461113,73.5047161 L182.206074,73.2273225 L181.997444,72.903562 L181.81236,72.5801849 L181.673273,72.2100575 L181.556911,71.8403135 L181.463821,71.4473928 L181.417276,71.0312956 L181.394004,70.5920081 L181.417276,70.1531176 L181.463821,69.7370203 L181.556911,69.3440997 L181.673273,68.9743557 L181.81236,68.6042283 L181.997444,68.2808512 L182.206074,67.9570907 L182.461113,67.6565068 L182.738876,67.4022898 L183.063458,67.1712494 L183.410764,66.9630023 L183.758482,66.8015054 L184.152196,66.6859646 L184.545911,66.5932856 L184.986307,66.5241529 L185.426293,66.5010173 L185.889551,66.5241529 L186.306812,66.5932856 L186.723662,66.6859646 L187.094104,66.8015054 L187.464957,66.9630023 L187.789128,67.1712494 L188.090438,67.4022898 L188.391337,67.6565068 L188.623103,67.9570907 L188.854458,68.2808512 L189.01668,68.6042283 L189.178903,68.9743557 L189.295265,69.3440997 L189.388355,69.7370203 L189.434899,70.1531176 L189.434899,70.5920081 L189.434899,71.0312956 L189.388355,71.4473928 L189.295265,71.8403135 L189.178903,72.2100575 L189.01668,72.5569946 L188.831185,72.9035483 L188.622966,73.2041322 L188.367927,73.5047161 L188.090164,73.7821234 L187.765582,74.0131638 L187.441411,74.2210276 L187.070558,74.3829078 L186.699979,74.4984485 L186.306264,74.5911275 L185.865868,74.6602603 L185.425882,74.6602603 L185.426156,74.6603014 Z M185.426156,65.576378 L184.870219,65.5995135 L184.360553,65.6686463 L184.105515,65.7150542 L183.850476,65.784187 L183.619121,65.8537305 L183.387355,65.9461357 L183.156,66.0385409 L182.924234,66.1544923 L182.715603,66.2700331 L182.507384,66.3855738 L182.298753,66.5242774 L182.113258,66.6861577 L181.928174,66.8476546 L181.742679,67.0095348 L181.557184,67.1945917 L181.394962,67.3792652 L181.256286,67.564322 L181.117199,67.7721858 L180.978112,67.9572426 L180.86175,68.188283 L180.745387,68.3965302 L180.653667,68.6275706 L180.583849,68.858611 L180.514032,69.0900347 L180.444215,69.3210751 L180.39767,69.5752921 L180.351125,69.8295091 L180.327853,70.083726 L180.30458,70.337943 L180.30458,70.6153366 L180.30458,70.8695536 L180.327853,71.1469472 L180.351125,71.4011642 L180.39767,71.6557782 L180.444215,71.9099952 L180.514032,72.1410356 L180.583849,72.372076 L180.653667,72.6031164 L180.745387,72.8345401 L180.86175,73.0424039 L180.978112,73.250651 L181.117199,73.4585148 L181.256286,73.6435717 L181.394962,73.8514355 L181.557184,74.0364923 L181.742679,74.1983725 L181.928174,74.3830461 L182.113258,74.5449263 L182.298753,74.6836299 L182.507384,74.8223336 L182.715603,74.9610372 L182.924234,75.076578 L183.156,75.1689832 L183.387355,75.2616622 L183.619121,75.3540674 L183.850476,75.4232002 L184.105515,75.4696081 L184.360553,75.5391516 L184.615181,75.5620133 L184.870219,75.5851488 L185.147982,75.6082844 L185.426156,75.6082844 L185.703919,75.6082844 L185.982093,75.5851488 L186.260267,75.5620133 L186.514895,75.5391516 L186.769933,75.4696081 L187.024561,75.4232002 L187.256327,75.3540674 L187.488093,75.2616622 L187.719448,75.1689832 L187.951214,75.076578 L188.159844,74.9610372 L188.368064,74.8223336 L188.576695,74.6836299 L188.76219,74.5449263 L188.947274,74.3830461 L189.132769,74.1983725 L189.318264,74.0364923 L189.45694,73.8514355 L189.619162,73.666762 L189.758249,73.4585148 L189.874611,73.250651 L189.990973,73.0424039 L190.105967,72.8345401 L190.199056,72.6031164 L190.338143,72.1410356 L190.454505,71.6557782 L190.524323,71.1469472 L190.547595,70.6153229 L190.524323,70.0836987 L190.454505,69.575251 L190.407961,69.321034 L190.338143,69.066817 L190.268326,68.8357766 L190.198509,68.6043529 L189.990289,68.1882557 L189.758523,67.7721584 L189.480349,67.3792378 L189.156178,67.0094938 L188.970683,66.8476135 L188.785188,66.6861166 L188.576968,66.5242364 L188.391474,66.3855327 L188.160118,66.269992 L187.951488,66.1544513 L187.742857,66.0384998 L187.511502,65.9460946 L187.256464,65.8536894 L187.024698,65.7841459 L186.77007,65.7150131 L186.515032,65.6686052 L185.98223,65.5994724 L185.426293,65.5763369 L185.426156,65.576378 Z M197.681263,66.5009229 L198.121249,66.5240584 L198.561646,66.5931912 L198.95536,66.6858702 L199.349075,66.8014109 L199.719928,66.9629078 L200.044099,67.171155 L200.368681,67.4021954 L200.646444,67.6564123 L200.901482,67.9569962 L201.110113,68.2807567 L201.295197,68.6041339 L201.457419,68.9510709 L201.550509,69.3439916 L201.643599,69.7369122 L201.690144,70.1530094 L201.713416,70.5918999 L201.690144,71.0311875 L201.643599,71.470475 L201.550509,71.8633956 L201.434147,72.2331396 L201.29506,72.6028837 L201.109976,72.9266442 L200.901345,73.2504046 L200.646307,73.5278119 L200.368544,73.8052055 L200.067234,74.0130693 L199.719928,74.2209331 L199.349075,74.3828133 L198.978496,74.4983541 L198.561646,74.5910331 L198.121249,74.6601659 L197.681263,74.6601659 L197.426636,74.6601659 L197.19487,74.6370303 L196.963104,74.6138948 L196.731749,74.5678975 L196.523118,74.5214896 L196.291352,74.4523568 L196.083132,74.3828133 L195.851367,74.2904081 L195.50406,74.1053513 L195.179478,73.8974875 L194.855307,73.6892404 L194.577133,73.4582 L194.322505,73.203983 L194.067467,72.949766 L193.835701,72.6491821 L193.627481,72.3485982 L193.627481,71.0774996 L193.650754,70.6150355 L193.697298,70.1529547 L193.767116,69.7136671 L193.883478,69.2975699 L194.022565,68.9046493 L194.184787,68.5349052 L194.369871,68.2111448 L194.601637,67.8877676 L194.740724,67.7258874 L194.879811,67.5640071 L195.041623,67.4253035 L195.203846,67.2865999 L195.366068,67.1710591 L195.551563,67.0555184 L195.713375,66.9399777 L195.922005,66.8472987 L196.1075,66.7781659 L196.31572,66.7086224 L196.52435,66.6394896 L196.732981,66.5930817 L197.196239,66.5239489 L197.682632,66.5008133 L197.681263,66.5009229 Z M197.727808,65.576378 L197.403637,65.5995135 L197.102328,65.6223752 L196.801292,65.6455107 L196.523118,65.7150542 L196.221809,65.784187 L195.944046,65.8537305 L195.689007,65.9692712 L195.434379,66.0616764 L195.179341,66.2003801 L194.924713,66.3390837 L194.692947,66.5009639 L194.461182,66.6860208 L194.252962,66.8706943 L194.044331,67.0789414 L193.835701,67.2868052 L193.627481,67.5178456 L193.627481,65.4609043 L192.58474,65.4609043 L192.58474,79.8842211 L192.631285,79.9073566 L192.654557,79.9769001 L193.627755,79.9769001 L193.627755,73.8280973 L193.835975,74.0595211 L194.067741,74.2905615 L194.322779,74.4984253 L194.577407,74.6834821 L194.855581,74.8453623 L195.156616,75.0072426 L195.457926,75.1687395 L195.805232,75.2846909 L196.245355,75.4461878 L196.709024,75.5388668 L197.195417,75.6079996 L197.681811,75.6079996 L197.959985,75.6079996 L198.237748,75.6079996 L198.515922,75.5615917 L198.77055,75.5387299 L199.025588,75.492322 L199.280626,75.4227785 L199.535254,75.3536457 L199.76702,75.2612405 L199.998512,75.1685615 L200.207143,75.0761563 L200.438909,74.9606156 L200.647128,74.8450748 L200.832623,74.7063712 L201.041254,74.544491 L201.226338,74.4057873 L201.38856,74.2207305 L201.574055,74.0592336 L201.713142,73.8741767 L201.875091,73.6663129 L202.014178,73.4812561 L202.13054,73.273009 L202.246902,73.0651452 L202.363264,72.8572814 L202.454985,72.6258577 L202.594072,72.1637769 L202.710434,71.6553429 L202.780251,71.1465119 L202.803524,70.6148876 L202.780251,70.0600867 L202.710434,69.5284625 L202.617344,69.0432051 L202.455122,68.580741 L202.270038,68.1418504 L202.038272,67.7257532 L201.760098,67.3560092 L201.435927,66.9858818 L201.273704,66.8243849 L201.08862,66.6625047 L200.903125,66.523801 L200.694495,66.3850974 L200.486275,66.2463937 L200.277644,66.130853 L200.045879,66.038174 L199.814386,65.9457688 L199.350718,65.7838886 L198.841051,65.6683478 L198.285114,65.599215 L197.729177,65.5760795 L197.727808,65.576378 Z M216.191601,70.2454502 L214.176004,69.7138259 L213.712746,69.5751223 L213.319031,69.4132421 L213.133536,69.3208369 L212.994449,69.2284317 L212.832501,69.1357527 L212.716138,69.0433474 L212.599776,68.9509422 L212.483414,68.8354015 L212.413597,68.7427225 L212.34378,68.6271818 L212.297235,68.4884781 L212.25069,68.3729374 L212.227418,68.2573967 L212.227418,68.118693 L212.227418,67.9568128 L212.25069,67.7949325 L212.273962,67.6330523 L212.34378,67.4947457 L212.390324,67.3787942 L212.483414,67.2632535 L212.576504,67.1708483 L212.692866,67.0553076 L212.809228,66.9857641 L212.947904,66.9166313 L213.086991,66.8470878 L213.272486,66.8010906 L213.434709,66.7546826 L213.642928,66.7315471 L213.851559,66.7084116 L214.083325,66.7084116 L215.867115,66.7084116 L216.191286,66.7315471 L216.492596,66.7546826 L216.747223,66.8010906 L217.025397,66.8702234 L217.256889,66.9626286 L217.46552,67.07858 L217.651015,67.1941207 L217.836099,67.356001 L217.882644,67.4019982 L218.809571,66.8703739 L218.739753,66.7779687 L218.507987,66.5469283 L218.230224,66.3386812 L217.928915,66.176801 L217.604744,66.0153041 L217.233891,65.9226251 L216.840176,65.8302199 L216.400053,65.7838119 L215.936795,65.7606764 L214.407605,65.7606764 L214.013891,65.7838119 L213.643038,65.8069474 L213.318867,65.8533554 L212.994285,65.9224882 L212.693249,65.9920316 L212.438211,66.0844369 L212.206856,66.2231405 L211.998225,66.3386812 L211.789595,66.5005615 L211.627783,66.6624417 L211.488696,66.8703055 L211.372334,67.0553623 L211.279244,67.2864027 L211.232699,67.5406197 L211.186155,67.7948367 L211.186155,68.072244 L211.186155,68.3032844 L211.209427,68.5115315 L211.255972,68.7193953 L211.325789,68.9276424 L211.418879,69.112316 L211.535241,69.2973728 L211.673917,69.459253 L211.813004,69.6211333 L211.975227,69.7826302 L212.183857,69.9213338 L212.392077,70.0600375 L212.623843,70.1759889 L212.855609,70.2915296 L213.133372,70.4070704 L213.411546,70.4994756 L213.735717,70.5918808 L215.658594,71.0775215 L216.168123,71.2394017 L216.608109,71.4240752 L216.816739,71.539616 L217.002234,71.632295 L217.164457,71.7478357 L217.303133,71.8633764 L217.44222,71.9789172 L217.558582,72.1176208 L217.651672,72.2331615 L217.721489,72.3718652 L217.791306,72.5105688 L217.837851,72.6724491 L217.861124,72.8343293 L217.861124,72.9730329 L217.861124,73.1808967 L217.837851,73.342777 L217.791306,73.5046572 L217.721489,73.6433608 L217.651672,73.7820645 L217.558582,73.9207681 L217.44222,74.0363089 L217.303133,74.1287141 L217.141184,74.2211193 L216.978962,74.2906628 L216.793467,74.3597955 L216.584836,74.4062035 L216.353481,74.4526114 L216.098443,74.475747 L215.843815,74.4986087 L215.565641,74.4986087 L213.920938,74.4986087 L213.619629,74.4986087 L213.341865,74.4526114 L213.086827,74.4062035 L212.855335,74.3370707 L212.623569,74.2211193 L212.414939,74.1055785 L212.206719,73.9668749 L212.044496,73.8281713 L211.974679,73.782174 L211.047889,74.290608 L211.140979,74.3830132 L211.234068,74.4985539 L211.373155,74.6372576 L211.489517,74.7299366 L211.628604,74.8454773 L211.767281,74.9378825 L211.929503,75.0302877 L212.091726,75.0998312 L212.27681,75.168964 L212.624527,75.3076676 L213.041377,75.3772111 L213.458638,75.4232084 L213.921896,75.4463439 L214.941092,75.4463439 L215.40435,75.4463439 L215.868018,75.4003466 L216.284869,75.3539387 L216.678583,75.2848059 L217.026301,75.1921269 L217.350472,75.0997217 L217.651781,74.9610181 L217.906409,74.8223144 L218.138175,74.6604342 L218.346805,74.4525704 L218.531889,74.2443233 L218.670976,74.0364595 L218.764066,73.7822425 L218.857156,73.5280255 L218.903701,73.2274416 L218.926973,72.9268577 L218.903701,72.6958173 L218.880428,72.4647769 L218.810611,72.2333532 L218.740794,72.0254894 L218.647704,71.8172423 L218.531342,71.6325688 L218.392666,71.4475119 L218.230443,71.2856317 L218.044948,71.1237515 L217.836318,70.9622545 L217.604963,70.8235509 L217.373197,70.6848473 L217.095433,70.5693065 L216.81726,70.4306029 L216.516224,70.3379239 L216.191642,70.2455187 L216.191601,70.2454502 Z M226.732462,74.6603014 L226.269203,74.6603014 L225.829218,74.5911686 L225.435092,74.4984896 L225.041378,74.3829489 L224.670525,74.2210686 L224.346354,74.0132048 L224.184131,73.8976641 L224.045044,73.7821234 L223.883096,73.6434197 L223.744009,73.5047161 L223.512243,73.2273225 L223.280887,72.903562 L223.095393,72.5801849 L222.956306,72.2100575 L222.839944,71.8403135 L222.748223,71.4473928 L222.701678,71.0312956 L222.678406,70.5920081 L222.701678,70.1531176 L222.748223,69.7370203 L222.839944,69.3440997 L222.956306,68.9743557 L223.095393,68.6042283 L223.280887,68.2808512 L223.512243,67.9570907 L223.744009,67.6565068 L224.045044,67.4022898 L224.369626,67.1712494 L224.693797,66.9630023 L225.06465,66.8015054 L225.435229,66.6859646 L225.85208,66.5932856 L226.26934,66.5241529 L226.732598,66.5010173 L227.172584,66.5241529 L227.589845,66.5932856 L228.006695,66.6859646 L228.377274,66.8015054 L228.748127,66.9630023 L229.072298,67.1712494 L229.373608,67.4022898 L229.674643,67.6565068 L229.906409,67.9570907 L230.138175,68.2808512 L230.32326,68.6042283 L230.485482,68.9743557 L230.601844,69.3440997 L230.671661,69.7370203 L230.741479,70.1531176 L230.741479,70.5920081 L230.741479,71.0312956 L230.671661,71.4242162 L230.601844,71.8171369 L230.485482,72.1872642 L230.32326,72.5570083 L230.138175,72.8803854 L229.906409,73.2041459 L229.674643,73.5047298 L229.373608,73.782137 L229.072298,74.0131774 L228.724992,74.2210412 L228.377274,74.3829215 L228.006695,74.4984622 L227.589845,74.5911412 L227.172584,74.660274 L226.732598,74.660274 L226.732462,74.6603014 Z M226.732462,65.576378 L226.176524,65.5995135 L225.643723,65.6686463 L225.388684,65.7150542 L225.157192,65.784187 L224.902154,65.8537305 L224.670388,65.9461357 L224.438896,66.0385409 L224.230265,66.1544923 L223.998499,66.2700331 L223.79028,66.3855738 L223.581649,66.5242774 L223.396154,66.6861577 L223.21107,66.8476546 L223.025575,67.0095348 L222.84008,67.1945917 L222.678132,67.3792652 L222.539045,67.564322 L222.399958,67.7721858 L222.260871,67.9572426 L222.144509,68.188283 L222.052788,68.3965302 L221.959698,68.6275706 L221.866609,68.858611 L221.796791,69.0900347 L221.726974,69.3210751 L221.680429,69.5752921 L221.657157,69.8295091 L221.610612,70.083726 L221.610612,70.337943 L221.58734,70.6153366 L221.610612,70.8695536 L221.610612,71.1469472 L221.657157,71.4011642 L221.680429,71.6557782 L221.726974,71.9099952 L221.796791,72.1410356 L221.866609,72.372076 L221.959698,72.6031164 L222.052788,72.8345401 L222.144509,73.0424039 L222.260871,73.250651 L222.399958,73.4585148 L222.539045,73.6435717 L222.678132,73.8514355 L222.84008,74.0364923 L223.025575,74.1983725 L223.21107,74.3830461 L223.396154,74.5449263 L223.581649,74.6836299 L223.79028,74.8223336 L223.998499,74.9610372 L224.230265,75.076578 L224.438896,75.1689832 L224.670388,75.2616622 L224.902154,75.3540674 L225.157192,75.4232002 L225.388684,75.4696081 L225.643723,75.5391516 L225.898351,75.5620133 L226.176524,75.5851488 L226.454698,75.6082844 L226.732462,75.6082844 L227.010635,75.6082844 L227.288399,75.5851488 L227.543437,75.5620133 L227.798065,75.5391516 L228.053103,75.4696081 L228.308141,75.4232002 L228.562769,75.3540674 L228.794535,75.2616622 L229.026027,75.1689832 L229.234658,75.076578 L229.443288,74.9610372 L229.651508,74.8223336 L229.860138,74.6836299 L230.045633,74.5449263 L230.230717,74.3830461 L230.416212,74.1983725 L230.578435,74.0364923 L230.740657,73.8514355 L230.902469,73.666762 L231.041556,73.4585148 L231.157918,73.250651 L231.27428,73.0424039 L231.390642,72.8345401 L231.482363,72.6031164 L231.575453,72.372076 L231.64527,72.1410356 L231.691815,71.9099952 L231.761632,71.6557782 L231.831449,71.1469472 L231.854722,70.6153229 L231.831449,70.0836987 L231.761632,69.575251 L231.64527,69.0899936 L231.483048,68.6275295 L231.274828,68.188242 L231.043062,67.7721447 L230.765299,67.3792241 L230.440717,67.0094801 L230.255222,66.8475998 L230.070138,66.6861029 L229.861507,66.5242227 L229.676012,66.385519 L229.467793,66.2699783 L229.236027,66.1544376 L229.027396,66.0384861 L228.795904,65.9460809 L228.564138,65.8536757 L228.30951,65.7841322 L228.077745,65.7149995 L227.822706,65.6685915 L227.289905,65.5994587 L226.733967,65.5763232 L226.732462,65.576378 Z M234.516307,75.4461427 L235.559048,75.4461427 L235.559048,61.1847075 L234.516307,61.1847075 L234.516307,75.4461427 Z M245.474428,71.4937556 L245.474428,71.8403094 L245.427883,72.1640698 L245.358066,72.4646537 L245.288249,72.7648543 L245.171887,73.0422615 L245.0328,73.2964785 L244.847715,73.5506955 L244.662221,73.7821192 L244.45359,73.9899831 L244.198962,74.1750399 L243.943924,74.3369201 L243.666161,74.4756238 L243.364851,74.568029 L243.063953,74.6371618 L242.739371,74.6835697 L242.392064,74.7067052 L242.021211,74.6835697 L241.69704,74.6604342 L241.372458,74.568029 L241.071423,74.4756238 L240.793249,74.3596723 L240.538621,74.1981754 L240.283583,74.0131186 L240.074952,73.7820782 L239.866733,73.5738311 L239.70451,73.3196141 L239.565423,73.0653971 L239.449061,72.7648132 L239.379244,72.4874059 L239.309426,72.1640288 L239.262882,71.8402683 L239.262882,71.4937145 L239.262882,65.7610131 L238.243276,65.7610131 L238.243276,71.2394948 L238.243276,71.7015756 L238.313093,72.1640397 L238.38291,72.6029439 L238.499272,72.9962479 L238.638359,73.3659919 L238.823443,73.7357359 L239.008938,74.0594964 L239.263977,74.359697 L239.403064,74.5215772 L239.54174,74.6602809 L239.703962,74.7989845 L239.866185,74.9145252 L240.028407,75.030066 L240.213492,75.122745 L240.398987,75.2151502 L240.607617,75.3075554 L240.792701,75.3770989 L241.001332,75.4462316 L241.209962,75.4926396 L241.441317,75.5390475 L241.904575,75.5850448 L242.39138,75.6081803 L242.854638,75.5850448 L243.317896,75.5390475 L243.526526,75.4926396 L243.758292,75.4462316 L243.943377,75.3770989 L244.152007,75.3075554 L244.337502,75.2151502 L244.522586,75.122745 L244.708081,75.0072042 L244.870303,74.9145252 L245.032115,74.7758216 L245.194338,74.6371179 L245.333425,74.4984143 L245.472512,74.3369174 L245.727139,74.0363335 L245.93577,73.712573 L246.097992,73.3660193 L246.259941,72.9730986 L246.353031,72.580178 L246.44612,72.1408905 L246.492665,71.701603 L246.515938,71.2395222 L246.515938,65.7610405 L245.473607,65.7610405 L245.473607,71.4937419 L245.474428,71.4937556 Z M250.246657,63.0797672 L249.204327,63.0797672 L249.204327,73.5047202 L249.204327,73.7357606 L249.227599,73.966801 L249.274144,74.1750481 L249.320689,74.3597216 L249.390506,74.5216019 L249.483596,74.6834821 L249.576685,74.8453623 L249.693048,74.9609031 L249.832135,75.0764438 L249.970811,75.168849 L250.133033,75.261528 L250.318528,75.3306608 L250.504023,75.3770687 L250.735515,75.423066 L250.944146,75.4462015 L251.198773,75.4462015 L251.708713,75.4462015 L251.708713,74.49848 L251.036825,74.49848 L250.85133,74.4756183 L250.689107,74.4292103 L250.550431,74.3596669 L250.434069,74.2441261 L250.340979,74.0822459 L250.294434,73.8975724 L250.24789,73.6893253 L250.24789,73.4351083 L250.24789,66.70871 L252.958538,66.70871 L252.958538,65.7609885 L250.24789,65.7609885 L250.24789,63.0797015 L250.246657,63.0797672 Z M255.922569,62.5253496 L255.783482,62.5253496 L255.644395,62.5482114 L255.505308,62.6177548 L255.413587,62.6868876 L255.34377,62.7795666 L255.273953,62.8951074 L255.25068,63.0106481 L255.227408,63.1725283 L255.25068,63.3344086 L255.273953,63.4727289 L255.34377,63.5886803 L255.413587,63.6810855 L255.505308,63.7734907 L255.644395,63.8198987 L255.783482,63.8430342 L255.922569,63.8661697 L256.108064,63.8430342 L256.24674,63.8198987 L256.363102,63.7734907 L256.479464,63.6810855 L256.549281,63.5886803 L256.619099,63.4727289 L256.642371,63.3344086 L256.665643,63.1725283 L256.642371,63.0569876 L256.619099,62.9410362 L256.595826,62.8254954 L256.526009,62.7330902 L256.432919,62.640685 L256.293832,62.5711416 L256.13161,62.5251443 L255.92339,62.5251443 L255.922569,62.5253496 Z M255.436175,75.4461413 L256.45537,75.4461413 L256.45537,65.7610528 L255.436175,65.7610528 L255.436175,75.4461413 Z M264.471036,74.6603 L264.007778,74.6603 L263.567382,74.5911672 L263.173667,74.5216238 L262.779952,74.3829201 L262.594457,74.3137873 L262.432235,74.2211083 L262.270423,74.1287031 L262.108201,74.0131624 L261.945978,73.9207572 L261.783756,73.7820535 L261.645079,73.6433499 L261.505993,73.5046463 L261.250954,73.2272527 L261.042734,72.9034922 L260.85724,72.580115 L260.695017,72.2099877 L260.578655,71.8402436 L260.508838,71.447323 L260.462293,71.0312258 L260.43902,70.5919383 L260.462293,70.1530478 L260.508838,69.7369505 L260.578655,69.3440299 L260.695017,68.9742858 L260.85724,68.6041585 L261.042734,68.2807813 L261.250954,67.9570209 L261.505993,67.656437 L261.807028,67.40222 L262.108338,67.1711796 L262.432509,66.9629325 L262.803362,66.8014356 L263.173941,66.6858948 L263.590791,66.5932158 L264.008052,66.524083 L264.47131,66.5009475 L264.911296,66.524083 L265.351692,66.5932158 L265.745407,66.6858948 L266.139121,66.8014356 L266.486839,66.9629325 L266.834145,67.1711796 L267.135455,67.40222 L267.413218,67.656437 L267.668256,67.9570209 L267.876476,68.2807813 L268.061971,68.6041585 L268.224193,68.9742858 L268.340556,69.3440299 L268.433645,69.7369505 L268.48019,70.1530478 L268.503462,70.5919383 L268.48019,71.0312258 L268.433645,71.4241464 L268.340556,71.8170671 L268.224193,72.2099877 L268.061971,72.5569248 L267.876476,72.9034785 L267.668256,73.2040624 L267.413218,73.5046463 L267.135455,73.7820535 L266.810873,74.0130939 L266.486702,74.2209577 L266.115849,74.382838 L265.74527,74.4983787 L265.32842,74.5910577 L264.911159,74.6601905 L264.471173,74.6601905 L264.471036,74.6603 Z M264.471036,65.5763766 L263.915099,65.5995121 L263.382297,65.6686449 L263.127259,65.7150528 L262.895904,65.7841856 L262.640865,65.8537291 L262.409099,65.9461343 L262.177607,66.0385395 L261.968977,66.154491 L261.737211,66.2700317 L261.528991,66.3855724 L261.320361,66.5242761 L261.134866,66.6861563 L260.949782,66.8476532 L260.764287,67.0095335 L260.602064,67.1945903 L260.439842,67.3792638 L260.277893,67.5643206 L260.161531,67.7721844 L260.022444,67.9804316 L259.906082,68.1882954 L259.791089,68.3965425 L259.697999,68.6275829 L259.628182,68.8586233 L259.558365,69.090047 L259.488547,69.3210874 L259.442002,69.5753044 L259.395458,69.8295214 L259.372185,70.0837384 L259.348913,70.3379554 L259.348913,70.615349 L259.348913,70.869566 L259.372185,71.1469595 L259.395458,71.4011765 L259.442002,71.6557905 L259.488547,71.9100075 L259.558365,72.1410479 L259.628182,72.3720883 L259.697999,72.6031287 L259.791089,72.8345524 L259.906082,73.0424162 L260.022444,73.2506634 L260.161531,73.4585272 L260.277893,73.643584 L260.439842,73.8514478 L260.602064,74.0365046 L260.764287,74.1983849 L260.949782,74.3830584 L261.134866,74.5449386 L261.343496,74.6836423 L261.528991,74.8223459 L261.737211,74.9610495 L261.968977,75.0765903 L262.177607,75.1689955 L262.409099,75.2616745 L262.640865,75.3540797 L262.895904,75.4232125 L263.127259,75.4696204 L263.382297,75.5391639 L263.660061,75.5620256 L263.915099,75.5851612 L264.192862,75.6082967 L264.471036,75.6082967 L264.74921,75.6082967 L265.026973,75.5851612 L265.305147,75.5620256 L265.559775,75.5391639 L265.814813,75.4696204 L266.069441,75.4232125 L266.301207,75.3540797 L266.556245,75.2616745 L266.764465,75.1689955 L266.996231,75.0765903 L267.204861,74.9610495 L267.413081,74.8223459 L267.621711,74.6836423 L267.807206,74.5449386 L267.992291,74.3830584 L268.177785,74.1983849 L268.340008,74.0365046 L268.50182,73.8514478 L268.640907,73.6667743 L268.779994,73.4585272 L268.919081,73.2506634 L269.035443,73.0424162 L269.127163,72.8345524 L269.220253,72.6031287 L269.382476,72.1410479 L269.498838,71.6557905 L269.568655,71.1469595 L269.591927,70.6153353 L269.568655,70.083711 L269.498838,69.5752633 L269.382476,69.0900059 L269.243389,68.6275418 L269.035169,68.1882543 L268.803403,67.7721571 L268.525229,67.3792364 L268.201058,67.0094924 L268.015563,66.8476121 L267.830479,66.6861152 L267.621848,66.524235 L267.436353,66.3855313 L267.228134,66.2699906 L266.996368,66.1544499 L266.787737,66.0384985 L266.556245,65.9460932 L266.301207,65.853688 L266.069441,65.7841446 L265.814813,65.7150118 L265.559775,65.6686038 L265.026973,65.599471 L264.471036,65.5763355 L264.471036,65.5763766 Z M276.425176,65.5763766 L275.938372,65.5995121 L275.475114,65.6686449 L275.058264,65.7610501 L274.641413,65.9229303 L274.455919,66.0156093 L274.270424,66.1080146 L274.084929,66.2235553 L273.92298,66.339096 L273.760758,66.4546368 L273.598535,66.5933404 L273.459448,66.7552206 L273.297499,66.8939243 L273.297499,65.738339 L272.277894,65.738339 L272.277894,75.4462221 L273.297499,75.4462221 L273.297499,69.5060498 L273.320772,69.1822893 L273.367317,68.8585288 L273.437134,68.5583283 L273.506951,68.2809347 L273.646038,68.0267177 L273.785125,67.7721037 L273.947348,67.5410633 L274.155567,67.3100229 L274.364198,67.124966 L274.595964,66.9630858 L274.850591,66.8247655 L275.128765,66.7088141 L275.429664,66.6164088 L275.754246,66.5700009 L276.078417,66.5240036 L276.426134,66.5008681 L276.773441,66.5240036 L277.098023,66.5700009 L277.422194,66.6395444 L277.723504,66.7319496 L278.001267,66.8706532 L278.256305,67.0325335 L278.510933,67.2175903 L278.742699,67.4486307 L278.928194,67.6796711 L279.090005,67.9107115 L279.206368,68.1881188 L279.32273,68.465526 L279.415819,68.7429333 L279.485637,69.0666938 L279.532182,69.390071 L279.532182,69.737008 L279.532182,75.4461413 L280.551377,75.4461413 L280.551377,69.9912291 L280.551377,69.5059717 L280.504832,69.0666842 L280.411742,68.6273967 L280.29538,68.2344761 L280.156704,67.864732 L279.971209,67.494988 L279.762579,67.1712275 L279.531086,66.8706436 L279.368864,66.7087634 L279.229777,66.5700598 L279.067554,66.4313561 L278.905743,66.3158154 L278.74352,66.2002747 L278.558025,66.0847339 L278.37253,65.9923287 L278.187446,65.8996497 L277.793321,65.7609461 L277.353198,65.6685409 L276.913213,65.5994081 L276.426819,65.5762725 L276.425176,65.5763766 Z M288.332552,70.2454489 L286.317339,69.7138246 L285.85367,69.5751209 L285.459955,69.4132407 L285.27446,69.3208355 L285.135784,69.2284303 L284.973561,69.1357513 L284.857199,69.0433461 L284.740837,68.9509409 L284.624475,68.8354001 L284.554658,68.7427211 L284.484841,68.6271804 L284.415023,68.4884768 L284.391751,68.372936 L284.368478,68.2573953 L284.345206,68.1186916 L284.368478,67.9568114 L284.391751,67.7949312 L284.415023,67.6330509 L284.461568,67.4947443 L284.531385,67.3787929 L284.623106,67.2632521 L284.716196,67.1708469 L284.809286,67.0553062 L284.948372,66.9857627 L285.087459,66.9166299 L285.226136,66.8470865 L285.411631,66.8010892 L285.573853,66.7546813 L285.782073,66.7315457 L285.990703,66.7084102 L286.222469,66.7084102 L287.983083,66.7084102 L288.307254,66.7315457 L288.608563,66.7546813 L288.886327,66.8010892 L289.141365,66.870222 L289.373131,66.9626272 L289.604486,67.0785786 L289.789981,67.1941194 L289.975476,67.3559996 L290.022021,67.4019969 L290.948537,66.8703726 L290.87872,66.7779674 L290.647228,66.546927 L290.369054,66.3386799 L290.068018,66.1767996 L289.743436,66.0153027 L289.372994,65.9226237 L288.955733,65.8302185 L288.538883,65.7838105 L288.075625,65.760675 L286.546435,65.760675 L286.15272,65.7838105 L285.781867,65.8069461 L285.434561,65.853354 L285.133525,65.9224868 L284.832216,65.9920303 L284.577177,66.0844355 L284.32255,66.2231391 L284.113919,66.3386799 L283.928424,66.5005601 L283.766476,66.6624403 L283.627389,66.8703041 L283.511027,67.055361 L283.417937,67.2864014 L283.34812,67.5406184 L283.324847,67.7948354 L283.301575,68.0722426 L283.301575,68.303283 L283.34812,68.5115301 L283.394664,68.719394 L283.464482,68.9276411 L283.557571,69.1123146 L283.650661,69.2973714 L283.789748,69.4592517 L283.951697,69.6211319 L284.113919,69.7826288 L284.299414,69.9213325 L284.508045,70.0600361 L284.739537,70.1759875 L284.994575,70.2915283 L285.249203,70.407069 L285.550512,70.4994742 L285.851548,70.5918794 L287.774425,71.0775201 L288.307227,71.2394003 L288.747623,71.4240739 L288.955843,71.5396146 L289.141338,71.6322936 L289.30356,71.7478343 L289.442647,71.8633751 L289.581323,71.9789158 L289.697685,72.1176194 L289.790775,72.2331602 L289.860592,72.3718638 L289.93041,72.5105675 L289.976954,72.6724477 L290.000227,72.8343279 L290.023499,72.9730316 L290.000227,73.1808954 L289.976954,73.3427756 L289.93041,73.5046558 L289.860592,73.6433595 L289.790775,73.7820631 L289.674413,73.9207668 L289.558051,74.0363075 L289.443058,74.1287127 L289.280835,74.2211179 L289.118613,74.2906614 L288.909982,74.3597942 L288.701763,74.4062021 L288.493132,74.4526101 L288.238094,74.4757456 L287.983466,74.4986073 L287.705292,74.4986073 L286.060589,74.4986073 L285.75969,74.4986073 L285.481516,74.4526101 L285.226478,74.4062021 L284.97185,74.3370693 L284.740084,74.2211179 L284.531865,74.1055772 L284.34637,73.9668735 L284.160875,73.8281699 L284.11433,73.7821726 L283.187814,74.2906066 L283.257631,74.3830118 L283.372624,74.4985526 L283.488986,74.6372562 L283.628073,74.7299352 L283.76716,74.8454759 L283.906247,74.9378812 L284.068196,75.0302864 L284.230418,75.0998298 L284.415913,75.1689626 L284.76322,75.3076663 L285.18007,75.3772097 L285.597331,75.423207 L286.060589,75.4463425 L287.079784,75.4463425 L287.566588,75.4463425 L288.006574,75.4003453 L288.423424,75.3539373 L288.794277,75.2848045 L289.164856,75.1921255 L289.489028,75.0997203 L289.790337,74.9610167 L290.045375,74.822313 L290.276867,74.6604328 L290.485498,74.452569 L290.64772,74.2443219 L290.786397,74.0364581 L290.902759,73.7822411 L290.972576,73.5280241 L291.019121,73.2274402 L291.042393,72.9268563 L291.042393,72.6958159 L290.995848,72.4647755 L290.949304,72.2333518 L290.879486,72.025488 L290.763124,71.8172409 L290.648131,71.6325674 L290.509044,71.4475106 L290.346822,71.2856303 L290.184599,71.1237501 L289.976379,70.9622532 L289.744613,70.8235495 L289.512848,70.6848459 L289.235084,70.5693052 L288.95691,70.4306015 L288.655875,70.3379225 L288.331293,70.2455173 L288.332552,70.2454489 Z M63.0831787,53.718442 L69.1064157,53.718442 L69.1064157,9.0147749 L63.0831787,9.0147749 L63.0831787,53.718442 Z M89.2152976,21.8665255 L88.7284933,21.8665255 L88.2188957,21.889661 L87.755665,21.9359321 L87.2692439,21.9822031 L86.8060132,22.0516097 L86.3655758,22.1440149 L85.9255216,22.2364201 L85.4854675,22.3519608 L85.04503,22.4675016 L84.6281525,22.6062052 L84.211275,22.768017 L83.8171907,22.9298288 L83.4235034,23.114735 L83.0529928,23.3227494 L82.6589085,23.5308049 L82.3115745,23.7619548 L82.3115745,22.3288185 L76.4270383,22.3288185 L76.4270383,53.718557 L82.3115745,53.718557 L82.3115745,34.8339332 L82.3115745,34.4178359 L82.33471,34.0017387 L82.3578455,33.6088181 L82.427389,33.2158974 L82.4737969,32.8461534 L82.5662021,32.4992163 L82.6588812,32.1526626 L82.7515602,31.8057118 L82.8906471,31.4823347 L83.0297341,31.1586426 L83.1684377,30.8581409 L83.3538915,30.5576392 L83.5161551,30.280273 L83.7247855,30.0029067 L83.9330326,29.7486487 L84.1648396,29.4943906 L84.3962633,29.2632407 L84.6512606,29.0551852 L84.906258,28.8471708 L85.1608583,28.6622646 L85.4390322,28.4773173 L85.7399993,28.3155055 L86.0413498,28.1768429 L86.342317,28.0613022 L86.6668578,27.9457615 L86.9910016,27.8533563 L87.3155424,27.760951 L87.686053,27.6915445 L88.056947,27.6452734 L88.4274577,27.5990024 L88.8211586,27.5758668 L89.2152429,27.5758668 L89.6089438,27.5758668 L90.0026311,27.5990024 L90.373525,27.6452734 L90.7208591,27.71468 L91.0685765,27.7840866 L91.4159105,27.8764918 L91.7404513,27.9920325 L92.0645951,28.1306951 L92.3659456,28.2693987 L92.6669128,28.4312105 L92.9682633,28.6161168 L93.2460539,28.801023 L93.5010512,29.0321729 L93.7788418,29.2633228 L94.0106488,29.5175809 L94.2652628,29.771839 L94.4970698,30.0492052 L94.7057002,30.3497069 L94.9139474,30.6502086 L95.0994012,30.9506693 L95.2616647,31.2742792 L95.4239283,31.5979302 L95.5626319,31.9444839 L95.6785833,32.2914347 L95.7945348,32.6611787 L95.8872138,33.0309227 L95.9567572,33.4006668 L96.0263007,33.7939707 L96.0727087,34.2096846 L96.1187059,34.6257819 L96.1418414,35.0418791 L96.1418414,35.4811666 L96.1418414,53.718557 L101.956835,53.718557 L101.956835,36.2206451 L101.9337,35.4579804 L101.910564,34.7185061 L101.841021,34.001825 L101.748342,33.2851438 L101.632801,32.5916393 L101.51685,31.9213114 L101.354586,31.2511889 L101.169132,30.6270772 L100.960885,30.0030067 L100.729078,29.4020306 L100.474081,28.8241626 L100.19629,28.2462947 L99.8717496,27.7146293 L99.5476058,27.1830051 L99.2002718,26.6744889 L98.8293778,26.189081 L98.3893237,25.6574156 L97.9260929,25.172035 L97.4392886,24.7328296 L96.929691,24.2936653 L96.3969168,23.9238528 L95.8641289,23.5539993 L95.2849878,23.2535386 L94.7058467,22.9530369 L94.0803387,22.6987788 L93.4548308,22.4907234 L92.7829696,22.3058171 L92.1111085,22.1440053 L91.416057,22.0284646 L90.697829,21.9360594 L89.979601,21.8897883 L89.2153893,21.8665255 L89.2152976,21.8665255 Z M115.138788,14.5159732 L109.277432,14.5159732 L109.277432,46.553145 L109.277432,46.9688589 L109.300568,47.3849561 L109.323703,47.7778768 L109.393247,48.1707974 L109.439655,48.5409248 L109.532334,48.9106688 L109.625013,49.2572226 L109.740553,49.6041596 L109.856505,49.9275368 L109.972456,50.2281207 L110.13472,50.5287045 L110.296983,50.8292884 L110.458863,51.1066957 L110.644317,51.3609127 L110.852948,51.6151297 L111.061195,51.8461701 L111.293002,52.0772105 L111.524809,52.2854576 L111.779423,52.4701311 L112.057597,52.6551879 L112.312197,52.8170682 L112.613548,52.9789484 L112.914515,53.117652 L113.215865,53.2331928 L113.540009,53.3487335 L113.887726,53.4411387 L114.23506,53.5338177 L114.582778,53.6029505 L114.953289,53.6493585 L115.346989,53.6953557 L115.741074,53.7184912 L116.134775,53.7184912 L119.123212,53.7184912 L119.123212,47.9166338 L115.7179,47.9166338 L115.648356,47.9166338 L115.555677,47.8937721 L115.462998,47.8473641 L115.370319,47.7318234 L115.323911,47.6391444 L115.277503,47.5236036 L115.231506,47.4080629 L115.208371,47.2461827 L115.161963,46.8300854 L115.138827,46.2984612 L115.138827,28.1767457 L122.459438,28.1767457 L122.459438,22.398069 L115.138827,22.398069 L115.138827,14.5159732 L115.138788,14.5159732 Z M132.930703,34.8107292 L133.023792,34.4641754 L133.116882,34.1172384 L133.231875,33.7706846 L133.348237,33.4469241 L133.464599,33.123547 L133.603686,32.7997865 L133.742773,32.4992026 L133.904585,32.1986188 L134.09008,31.8984182 L134.252302,31.6210246 L134.437387,31.3436173 L134.646017,31.0661827 L134.854648,30.8119246 L135.08614,30.5345173 L135.317906,30.3033674 L135.549672,30.0491093 L135.873843,29.7486487 L136.198425,29.4712551 L136.545731,29.1938889 L136.893038,28.962739 L137.263891,28.731589 L137.634333,28.5235747 L138.028458,28.3617766 L138.422173,28.1768703 L138.815888,28.0381667 L139.233149,27.9226259 L139.673134,27.8070852 L140.11312,27.7378155 L140.576789,27.6684089 L141.040047,27.6221379 L141.503305,27.5758668 L142.012834,27.5758668 L142.499228,27.5758668 L142.986032,27.6221379 L143.44929,27.6684089 L143.889276,27.7378155 L144.329398,27.8070852 L144.769795,27.9226259 L145.186645,28.0381667 L145.58036,28.1768703 L145.974485,28.3617766 L146.345064,28.5235747 L146.715917,28.731589 L147.086496,28.962739 L147.433803,29.1938889 L147.78152,29.4481469 L148.105691,29.7486487 L148.430273,30.0491093 L148.893531,30.5345173 L149.310381,31.0661827 L149.495876,31.3436173 L149.704507,31.6210246 L149.866318,31.8984182 L150.051813,32.1986188 L150.353123,32.7997865 L150.607751,33.4469241 L150.839516,34.1172521 L151.025011,34.8107566 L132.931729,34.8107566 L132.930703,34.8107292 Z M142.035107,21.8665255 L141.178134,21.889661 L140.367159,21.9359321 L139.556183,22.0283373 L138.768343,22.1669998 L138.004187,22.3287979 L137.262755,22.5368534 L136.544458,22.7680033 L135.826299,23.0453695 L135.131274,23.3458713 L134.459386,23.6925893 L133.810633,24.085551 L133.185152,24.5016209 L132.582807,24.9407852 L131.980462,25.4261931 L131.401253,25.9578174 L130.868451,26.5125772 L130.358922,27.0904452 L129.872528,27.6914213 L129.43246,28.3154918 L129.0152,28.9627116 L128.621512,29.6099313 L128.273795,30.3033537 L127.949651,30.9968172 L127.671477,31.7133477 L127.416877,32.4300288 L127.208247,33.1926935 L127.022793,33.9553581 L126.860913,34.7411994 L126.744961,35.5502173 L126.652282,36.3824254 L126.605874,37.2146336 L126.582739,38.0700183 L126.605874,38.9481963 L126.652282,39.8035811 L126.744961,40.6357892 L126.860913,41.4448071 L127.022793,42.253825 L127.208247,43.0164896 L127.440054,43.7791543 L127.694668,44.519012 L127.972841,45.2353098 L128.296985,45.9288143 L128.667879,46.5991422 L129.061567,47.2694565 L129.478444,47.8938008 L129.942072,48.5177619 L130.428465,49.1185463 L130.961267,49.6965238 L131.517204,50.228148 L132.096414,50.7597723 L132.698759,51.2222364 L133.301104,51.6843172 L133.949857,52.0772379 L134.59861,52.4473652 L135.293634,52.793919 L135.988658,53.0945028 L136.706817,53.3719101 L137.44825,53.6029505 L138.212406,53.7880073 L139.000246,53.9495043 L139.787949,54.0654557 L140.598514,54.1578609 L141.432625,54.2269937 L142.289872,54.2269937 L143.332202,54.2269937 L144.351398,54.1578609 L145.324596,54.0654557 L146.274247,53.9495043 L147.177902,53.7880073 L148.05801,53.5797602 L148.915394,53.3255432 L149.749505,53.048136 L150.143219,52.9094323 L150.536934,52.7475521 L150.931059,52.5860552 L151.301638,52.4009983 L151.672491,52.2159415 L152.019798,52.0080777 L152.390377,51.7998306 L152.714959,51.5919668 L153.062266,51.3609264 L153.386847,51.1295027 L153.711019,50.8984623 L154.0356,50.6442453 L154.336636,50.3900283 L154.61481,50.112621 L154.915709,49.8352137 L155.193883,49.5346298 L156.3753,48.2867078 L152.112682,44.126075 L150.884857,45.4435405 L150.537139,45.7900943 L150.16656,46.0906781 L149.74971,46.391262 L149.286041,46.6914626 L148.776375,46.9460629 L148.243574,47.2002799 L147.664501,47.4313203 L147.03902,47.6623607 L146.436675,47.8474175 L145.83433,48.0092977 L145.231985,48.1248385 L144.652912,48.2403792 L144.050567,48.3327844 L143.471495,48.4023279 L142.86915,48.4254634 L142.28994,48.4483252 L141.780411,48.4254634 L141.247199,48.4023279 L140.760805,48.3559199 L140.274411,48.2867872 L139.811153,48.1941082 L139.347895,48.0785674 L138.907499,47.9630267 L138.467513,47.8011465 L138.050663,47.6392662 L137.656538,47.4545927 L137.262823,47.2235523 L136.869108,46.9921286 L136.498256,46.7379116 L136.150949,46.4605043 L135.803231,46.1831107 L135.47906,45.8597336 L135.224022,45.5823263 L134.969394,45.3281093 L134.760764,45.0275254 L134.528998,44.7501181 L134.320778,44.4495343 L134.135283,44.1489504 L133.949788,43.8255732 L133.787977,43.5018128 L133.625754,43.1784356 L133.463532,42.8314985 L133.324445,42.4849448 L133.208083,42.1152007 L133.093089,41.76825 L133,41.3753293 L132.90691,41.0055853 L132.81382,40.6126647 L156.791247,40.6126647 L157.1621,39.2951991 L157.231917,38.9250718 L157.301734,38.5089745 L157.348279,38.0468937 L157.348279,37.5844296 L157.348279,36.7526185 L157.278462,35.9204103 L157.208645,35.1345691 L157.092283,34.3483445 L156.93006,33.5856798 L156.744565,32.8462054 L156.513073,32.1063477 L156.258035,31.3896666 L155.980271,30.6963948 L155.65569,30.0260806 L155.308383,29.3788608 L154.914258,28.7316411 L154.497407,28.1075705 L154.034149,27.5065944 L153.547756,26.9287265 L153.037816,26.3508585 L152.481879,25.8191932 L151.902669,25.310677 L151.32346,24.8484046 L150.697979,24.4091992 L150.072498,23.9931294 L149.423745,23.6233169 L148.774992,23.299707 L148.103104,22.9992053 L147.384944,22.721839 L146.690331,22.5138247 L145.948899,22.3057692 L145.207467,22.1439574 L144.419764,22.0284167 L143.655607,21.9360115 L142.844632,21.8897404 L142.033656,21.8665255 L142.035107,21.8665255 Z M164.669195,53.718442 L170.530163,53.718442 L170.530163,9.0147749 L164.669195,9.0147749 L164.669195,53.718442 Z M178.360375,53.718442 L184.221726,53.718442 L184.221726,22.398147 L178.360375,22.398147 L178.360375,53.718442 Z M181.256464,12.8749402 L180.885611,12.8749402 L180.515168,12.9212112 L180.167451,13.0136164 L179.84328,13.1060217 L179.54197,13.2447253 L179.264207,13.4065371 L179.009169,13.5914433 L178.777814,13.7994988 L178.569183,14.0537568 L178.383688,14.3080149 L178.221877,14.5853811 L178.08279,14.908991 L177.9897,15.2326009 L177.919883,15.5793189 L177.873338,15.9491725 L177.850065,16.318985 L177.873338,16.7119467 L177.919883,17.0817592 L177.9897,17.4516127 L178.08279,17.7752226 L178.221877,18.0987914 L178.383688,18.376185 L178.569183,18.6535512 L178.777814,18.8847011 L179.009169,19.0927155 L179.264207,19.300771 L179.54197,19.4625828 L179.84328,19.5781235 L180.167451,19.6936642 L180.515168,19.7629339 L180.885611,19.8323405 L181.256464,19.8323405 L181.650178,19.8323405 L182.02062,19.7629339 L182.368338,19.6936642 L182.692509,19.5781235 L183.017091,19.4625828 L183.294854,19.300771 L183.573028,19.0927155 L183.804794,18.8847011 L184.013014,18.6535512 L184.198508,18.376185 L184.360731,18.0987914 L184.499407,17.7752226 L184.615769,17.4516127 L184.685587,17.0817592 L184.732131,16.7119467 L184.755404,16.318985 L184.732131,15.9491725 L184.685587,15.5793189 L184.615769,15.2326009 L184.499407,14.908991 L184.360731,14.5853811 L184.198508,14.3080149 L184.013014,14.0537568 L183.804794,13.7994988 L183.573028,13.5914433 L183.294854,13.4065371 L183.017091,13.2447253 L182.692509,13.1060217 L182.368338,13.0136164 L182.02062,12.9212112 L181.650178,12.8749402 L181.256464,12.8749402 Z M213.990974,14.1924468 L214.801539,14.2155823 L215.589379,14.2849889 L216.377219,14.3773941 L217.141787,14.4929348 L217.882808,14.6778411 L218.601104,14.8627473 L219.319264,15.1170465 L220.014288,15.3944127 L220.686177,15.7180226 L221.334793,16.0647406 L221.983546,16.4808104 L222.632162,16.8968803 L223.234507,17.3822883 L223.836852,17.8908044 L224.415925,18.4455642 L224.995134,19.0234322 L226.107008,20.2484788 L230.786887,16.5039104 L229.489518,15.1170588 L229.072257,14.7009889 L228.678543,14.3080272 L228.261692,13.9150655 L227.844432,13.5221038 L227.404446,13.1753858 L226.987596,12.8055733 L226.547199,12.4819634 L226.107214,12.1583535 L225.667091,11.8347437 L225.203833,11.5573774 L224.763437,11.2568757 L224.300179,10.9795095 L223.813785,10.7252514 L223.350527,10.4941015 L222.886858,10.2398435 L222.400464,10.031788 L221.914071,9.8237736 L221.404542,9.63886736 L220.917737,9.45392004 L220.408208,9.29212195 L219.898542,9.13031016 L219.388876,8.99164759 L218.879347,8.87610685 L218.346545,8.76056612 L217.813333,8.64502538 L217.280531,8.57561881 L216.74773,8.4832136 L216.214928,8.43694254 L215.658991,8.39067149 L215.103054,8.34440044 L214.547117,8.32126491 L213.99118,8.32126491 L213.388835,8.32126491 L212.78649,8.34440044 L212.207417,8.39067149 L211.605072,8.43694254 L211.025589,8.4832136 L210.469651,8.55248328 L209.913714,8.64502538 L209.357777,8.73743059 L208.80184,8.85297133 L208.269039,8.96851206 L207.713101,9.10717463 L207.203435,9.24587827 L206.670634,9.40769006 L206.160694,9.5925963 L205.651165,9.77750255 L205.141499,9.96240879 L204.655105,10.1704643 L204.168711,10.4016142 L203.681907,10.6327641 L203.218649,10.8870221 L202.755391,11.1643884 L202.292133,11.4417546 L201.851736,11.7191619 L201.411751,12.0196225 L200.971765,12.3201243 L200.531369,12.6668423 L200.114518,12.9904522 L199.697668,13.3371702 L199.303543,13.7070238 L198.886693,14.0768362 L198.516251,14.469798 L198.122125,14.8627186 L197.751546,15.2787884 L197.381104,15.6948857 L197.033387,16.13405 L196.709215,16.5501198 L196.384634,16.9892841 L196.060462,17.4284484 L195.759153,17.890762 L195.48139,18.3530755 L195.203216,18.8153479 L194.948588,19.2776615 L194.69355,19.7630284 L194.438511,20.2484364 L194.207156,20.7338443 L193.998526,21.2423605 L193.789895,21.7508766 L193.581676,22.2594338 L193.396181,22.7679499 L193.233958,23.2995742 L193.072146,23.8311985 L192.933059,24.3628638 L192.793973,24.9176236 L192.67761,25.4723424 L192.561248,26.0271022 L192.446255,26.581862 L192.376438,27.1597299 L192.283348,27.7375979 L192.213531,28.3154247 L192.166986,28.9164419 L192.120441,29.517418 L192.097169,30.1183941 L192.073896,30.7193702 L192.073896,31.3435639 L192.073896,31.967525 L192.097169,32.5686927 L192.120441,33.1926538 L192.166986,33.7938215 L192.213531,34.3714157 L192.283348,34.9725834 L192.353165,35.5501776 L192.446255,36.128155 L192.537976,36.6829559 L192.654338,37.2609334 L192.7707,37.8157342 L192.909787,38.3473585 L193.07201,38.9017761 L193.210686,39.4337837 L193.396181,39.9654079 L193.581676,40.4738556 L193.76676,40.9822896 L193.97539,41.4907373 L194.184021,41.9991713 L194.415376,42.484812 L194.647142,42.9700694 L194.90218,43.4557101 L195.156808,43.9177909 L195.434982,44.380255 L195.712745,44.8423358 L196.014054,45.3047999 L196.31509,45.7440874 L196.639672,46.1829916 L196.986979,46.5990889 L197.334696,47.0151861 L197.682003,47.4312833 L198.052582,47.8473805 L198.423435,48.2403012 L198.817149,48.6332218 L199.23441,49.0261425 L199.628125,49.3730795 L200.044975,49.7428236 L200.485371,50.0662007 L200.902222,50.4131515 L201.342207,50.7137353 L201.782193,51.0139359 L202.245862,51.3145198 L202.70912,51.5919271 L203.172378,51.8461441 L203.658772,52.1003611 L204.12244,52.3545781 L204.632106,52.5628252 L205.1185,52.770689 L205.628029,52.9789361 L206.137558,53.1636096 L206.647498,53.3486664 L207.1803,53.5105467 L207.713101,53.6492503 L208.245903,53.787954 L208.778705,53.9034947 L209.334642,54.0190354 L209.890579,54.1114406 L210.469651,54.2041196 L211.025589,54.2732524 L211.605072,54.3423852 L212.207417,54.3887932 L212.78649,54.4119287 L213.388835,54.4350642 L213.99118,54.4350642 L214.663068,54.4350642 L215.311684,54.3886563 L215.983162,54.3422483 L216.631915,54.2731155 L217.257396,54.2039827 L217.882876,54.0880313 L218.508357,53.9724906 L219.133838,53.8337869 L219.759318,53.6719067 L220.361663,53.4872332 L220.964008,53.2789861 L221.543081,53.0711223 L222.145426,52.8169053 L222.724909,52.5626883 L223.280846,52.2852947 L223.859919,51.9847108 L223.859919,54.2962579 L229.883164,54.2962579 L229.883164,35.8046478 L229.859892,35.3885506 L229.836619,34.9724534 L229.790075,34.5795327 L229.696985,34.1866121 L229.603895,33.8164847 L229.512175,33.4467407 L229.373088,33.100187 L229.234001,32.7532362 L229.048506,32.429859 L228.863422,32.1060986 L228.654791,31.8055147 L228.423025,31.5053141 L228.168397,31.2277973 L227.913359,30.9734982 L227.635596,30.7192401 L227.334286,30.4881313 L226.847893,30.1645214 L226.361499,29.9102633 L225.851559,29.6791134 L225.34203,29.471058 L224.809229,29.3323954 L224.253291,29.2399902 L223.697354,29.1705836 L223.118145,29.1474481 L206.461319,29.1474481 L206.461319,35.0184246 L223.210865,35.0184246 L223.419085,35.0648326 L223.581307,35.134376 L223.697669,35.2035088 L223.767486,35.2730523 L223.814031,35.388593 L223.837304,35.5041338 L223.860576,35.6196745 L223.860576,35.7815547 L223.860576,44.5648957 L223.304639,45.0273598 L222.771427,45.4894406 L222.192217,45.8827445 L221.63628,46.2756652 L221.057207,46.6222189 L220.478135,46.9459794 L219.87579,47.2233867 L219.273445,47.4776037 L218.647964,47.7086441 L218.022484,47.8937009 L217.373867,48.0783744 L216.725251,48.1939151 L216.053363,48.3094559 L215.381474,48.3789993 L214.709996,48.4254073 L213.9917,48.448269 L213.111181,48.4254073 L212.231073,48.3558638 L211.396962,48.2634586 L210.585986,48.1479179 L209.775421,47.9860376 L209.010854,47.7777905 L208.640001,47.6622498 L208.269559,47.5235462 L207.89898,47.3848425 L207.551262,47.2461389 L207.18082,47.0846419 L206.833103,46.9227617 L206.485796,46.7608815 L206.161214,46.5758246 L205.813907,46.3679608 L205.489326,46.1597137 L205.165154,45.9518499 L204.863845,45.7208095 L204.539674,45.5125624 L204.238364,45.2583454 L203.937329,45.0041284 L203.636019,44.7499114 L203.056947,44.1951106 L202.50101,43.5943261 L201.968208,42.9931584 L201.481814,42.3691973 L201.041829,41.6988694 L200.624568,41.0285552 L200.230853,40.3350507 L199.883547,39.6415462 L199.558965,38.9016885 L199.281201,38.1390238 L199.026163,37.3763591 L198.817533,36.5673412 L198.632448,35.7351331 L198.470226,34.9029249 L198.353864,34.0247469 L198.284047,33.1461856 L198.237502,32.2216407 L198.214229,31.2740287 L198.237502,30.3494427 L198.284047,29.4248567 L198.353864,28.546487 L198.470226,27.6681584 L198.632448,26.8360324 L198.817533,26.0270145 L199.026163,25.2179967 L199.281201,24.4552225 L199.558965,23.6924483 L199.883547,22.9758767 L200.230853,22.2593462 L200.624568,21.5658827 L201.041829,20.8955548 L201.505087,20.2483351 L201.99148,19.6242645 L202.524282,19.0232884 L203.080219,18.4222713 L203.659429,17.890647 L204.261774,17.3821308 L204.887254,16.8967229 L205.512735,16.4575586 L206.184623,16.0645969 L206.856512,15.7178788 L207.551536,15.3942689 L208.269833,15.1169027 L209.0344,14.8626036 L209.798557,14.6776974 L210.58626,14.4927911 L211.397235,14.3772504 L212.231346,14.2848452 L213.111455,14.2154386 L213.991974,14.1923031 L213.990974,14.1924468 Z M250.988103,22.282583 L250.779473,22.282583 L250.223536,22.282583 L249.667599,22.3057295 L249.134797,22.3751361 L248.601995,22.4445427 L248.092056,22.5369479 L247.582526,22.6293531 L247.072997,22.7680567 L246.586604,22.9067193 L246.123345,23.0916666 L245.659677,23.2765728 L245.196419,23.4845872 L244.756433,23.7157371 L244.316447,23.9468871 L243.899186,24.2242533 L243.482336,24.5016469 L243.065486,24.8252157 L243.065486,22.3981867 L237.273664,22.3981867 L237.273664,53.7184817 L243.065486,53.7184817 L243.065486,39.5262039 L243.088758,38.8326994 L243.112031,38.1623715 L243.158576,37.4920573 L243.228393,36.8680962 L243.29821,36.2437519 L243.3913,35.6661577 L243.507662,35.0881803 L243.624024,34.5333794 L243.785973,34.0017551 L243.948195,33.4933211 L244.110418,33.030857 L244.319048,32.5687762 L244.527268,32.1294887 L244.759034,31.7133915 L244.9908,31.2972943 L245.268563,30.9275228 L245.523601,30.603913 L245.801365,30.2803031 L246.079539,29.9798424 L246.380574,29.7024351 L246.658748,29.4712852 L246.959647,29.2401627 L247.260956,29.0321072 L247.585127,28.847201 L247.886437,28.6853892 L248.233743,28.5235911 L248.558325,28.4080503 L248.905632,28.3155082 L249.253349,28.223103 L249.600656,28.176832 L249.971235,28.1305609 L250.342088,28.1305609 L251.801337,28.292359 L252.681856,28.4078998 L253.121842,28.4541708 L253.260929,28.4773063 L253.307474,28.2230483 L253.307474,28.5004556 L255.531318,28.8933762 L255.531318,22.9298302 L254.025702,22.7217747 L252.86742,22.5599629 L251.986901,22.4212593 L251.36142,22.3288541 L250.990841,22.282583 L250.988103,22.282583 Z M282.958005,45.5358841 L282.633834,45.9056282 L282.309252,46.2293886 L281.938673,46.5299725 L281.590956,46.8301731 L281.197241,47.0847734 L280.803527,47.3158138 L280.409401,47.5468542 L279.992551,47.731911 L279.552429,47.8937912 L279.112032,48.0321116 L278.648774,48.1708152 L278.185516,48.2634942 L277.699122,48.3558994 L277.189182,48.4023074 L276.679653,48.4254429 L276.146852,48.4483046 L275.61405,48.4254429 L275.081249,48.4023074 L274.571719,48.3558994 L274.06178,48.2634942 L273.598521,48.1708152 L273.135263,48.0552745 L272.672005,47.8937775 L272.231609,47.7318973 L271.814759,47.5468405 L271.397908,47.3389767 L271.003783,47.107553 L270.633204,46.8301594 L270.262625,46.5531491 L269.914908,46.2525652 L269.567601,45.9288047 L269.243019,45.5590607 L268.941983,45.1893167 L268.663809,44.8191893 L268.386046,44.4262687 L268.131008,44.0101715 L267.922377,43.5944575 L267.714158,43.15517 L267.528663,42.7158825 L267.36644,42.2538017 L267.204492,41.768161 L267.08813,41.2829036 L266.971767,40.7744696 L266.878678,40.2428453 L266.80886,39.7108378 L266.762316,39.1564202 L266.739043,38.6016193 L266.739043,38.0004516 L266.739043,37.4228574 L266.762316,36.8680565 L266.80886,36.3132557 L266.878678,35.7816314 L266.971767,35.2500071 L267.08813,34.7411761 L267.204492,34.2559187 L267.36644,33.7706613 L267.528663,33.3081972 L267.714158,32.8689097 L267.922377,32.4300055 L268.131008,32.0139083 L268.386046,31.5978111 L268.663809,31.2048083 L268.941983,30.8349958 L269.243019,30.4651422 L269.567601,30.1184242 L269.914908,29.7717062 L270.262625,29.4712044 L270.633204,29.1938382 L271.026919,28.9395802 L271.421044,28.6853221 L271.814759,28.4772666 L272.254744,28.2923604 L272.695141,28.1305623 L273.135126,27.9687505 L273.598384,27.8532098 L274.084778,27.7608046 L274.571582,27.6683994 L275.081112,27.6221283 L275.613913,27.5758573 L276.146715,27.5758573 L276.679516,27.5758573 L277.212318,27.6221283 L277.722258,27.6683994 L278.208651,27.7608046 L278.695045,27.8532098 L279.135031,27.9687505 L279.598289,28.1074541 L280.038685,28.2923604 L280.455535,28.4772666 L280.84925,28.6853221 L281.243375,28.9395802 L281.613955,29.1938382 L281.984807,29.4712044 L282.332114,29.7717062 L282.679831,30.0953161 L283.004003,30.4651285 L283.304901,30.8349821 L283.583075,31.2047946 L283.861249,31.5977974 L284.092741,32.0138946 L284.324507,32.4299918 L284.533138,32.868896 L284.718222,33.3313601 L284.880444,33.7938243 L285.042667,34.2559051 L285.15766,34.7643527 L285.274022,35.2499934 L285.367112,35.7816177 L285.413657,36.313242 L285.483474,36.8680429 L285.506746,37.4228437 L285.506746,38.0004379 L285.506746,38.5784153 L285.483474,39.1563928 L285.413657,39.6880171 L285.343839,40.2196414 L285.274022,40.7280754 L285.15766,41.2365093 L285.018984,41.7217667 L284.879897,42.2074074 L284.717674,42.6694882 L284.53259,43.1087758 L284.32396,43.5480633 L284.092194,43.9641605 L283.837566,44.3802577 L283.559392,44.7731784 L283.281629,45.166099 L282.957047,45.535843 L282.957047,45.535843 L282.958005,45.5358841 Z M287.336547,26.5587839 L286.803746,25.980916 L286.224673,25.4492917 L285.645464,24.9638837 L285.019983,24.5016113 L284.394503,24.0855414 L283.745749,23.7156879 L283.073861,23.3689698 L282.378837,23.0453599 L281.660677,22.7679937 L280.942381,22.5368438 L280.178224,22.3287884 L279.413656,22.1669903 L278.625816,22.0283277 L277.814841,21.9359225 L277.004276,21.8896514 L276.146893,21.8665159 L275.312782,21.8896514 L274.479081,21.9359225 L273.668106,22.0283277 L272.880403,22.1669903 L272.116246,22.3287884 L271.374814,22.5368438 L270.656654,22.7679937 L269.938358,23.0453599 L269.243334,23.3458617 L268.571445,23.6925797 L267.922829,24.0855414 L267.297349,24.5016113 L266.695004,24.9407756 L266.092659,25.4261836 L265.536721,25.9578078 L264.980784,26.5125676 L264.471118,27.0904356 L263.984725,27.6914117 L263.544328,28.3154822 L263.127478,28.962702 L262.733763,29.6099218 L262.386046,30.3033441 L262.061875,30.9968076 L261.783701,31.7133381 L261.529073,32.4300192 L261.320443,33.1926839 L261.134948,33.9553486 L260.996272,34.7411898 L260.87991,35.5502077 L260.78682,36.3824158 L260.740275,37.214624 L260.717003,38.0700087 L260.740275,38.9250102 L260.78682,39.7803949 L260.87991,40.5894128 L260.996272,41.3984306 L261.134948,42.1842719 L261.320443,42.9469366 L261.529073,43.7099846 L261.783701,44.4262824 L262.061875,45.1429635 L262.386046,45.836468 L262.733763,46.5299725 L263.127478,47.1771101 L263.544328,47.8010712 L263.984725,48.4254155 L264.471118,49.0261999 L264.980784,49.6041774 L265.536721,50.1589783 L266.092659,50.6906026 L266.695004,51.17586 L267.297349,51.6383241 L267.922829,52.0544213 L268.594718,52.4241653 L269.266606,52.7707191 L269.938495,53.071303 L270.656791,53.3486966 L271.374951,53.579737 L272.139518,53.7879841 L272.903675,53.949481 L273.691515,54.0654324 L274.479218,54.1578376 L275.312919,54.2269704 L276.14703,54.2269704 L277.004413,54.2269704 L277.814978,54.1578376 L278.625953,54.0654324 L279.413793,53.949481 L280.178361,53.7879841 L280.919382,53.579737 L281.660814,53.3486966 L282.378974,53.071303 L283.050862,52.7707191 L283.722751,52.4241653 L284.371504,52.0544213 L284.996984,51.6383241 L285.59933,51.17586 L286.178539,50.6906026 L286.757612,50.1817716 L287.290413,49.627354 L287.799942,49.0493765 L288.286336,48.4482088 L288.726732,47.8242478 L289.143583,47.2002867 L289.514162,46.5299588 L289.861879,45.8596446 L290.18605,45.1661401 L290.464224,44.449459 L290.718852,43.7099846 L290.927482,42.9701269 L291.112977,42.2074622 L291.252064,41.3984443 L291.367057,40.5894265 L291.460147,39.7804086 L291.506692,38.9250239 L291.529964,38.0700224 L291.506692,37.2146377 L291.460147,36.3592529 L291.367057,35.5502351 L291.252064,34.7412172 L291.112977,33.9553759 L290.927482,33.1927113 L290.718852,32.4300466 L290.48736,31.6901889 L290.18605,30.996835 L289.885015,30.3033715 L289.537297,29.6330436 L289.166718,28.9627294 L288.749868,28.3386588 L288.332607,27.7145472 L287.846214,27.1366793 L287.336684,26.5588113 L287.336547,26.5587839 Z M42.7892331,79.9996988 L42.5574261,79.9996988 L42.2796355,79.9768371 L41.9550947,79.9072936 L41.5614074,79.8381608 L40.657434,79.6299644 L39.5918732,79.3525626 L38.3640448,78.9828226 L36.9971295,78.5435406 L35.514694,78.0350998 L33.9159661,77.4339347 L32.2480822,76.7867944 L30.5105385,76.0704966 L28.72671,75.30745 L26.9196995,74.4524526 L25.9930327,74.0131651 L25.0895425,73.550701 L24.1628757,73.0886202 L23.2593581,72.6029795 L22.3326913,72.1177221 L21.4523914,71.6092881 L20.5488738,71.0776638 L19.6685177,70.5460409 L18.973547,70.1067575 L18.2785367,69.6674741 L17.6067084,69.2053974 L16.9348801,68.7197513 L16.2861928,68.2576732 L15.6606889,67.7720284 L15.0351837,67.2867696 L14.4328591,66.8015108 L13.2513552,65.8306059 L12.139355,64.8365216 L11.0968586,63.842822 L10.1238688,62.8719184 L9.22037854,61.9241969 L8.40953995,61.0228423 L7.66820377,60.144281 L6.99636999,59.3120728 L6.44033705,58.5262316 L5.95384211,57.8099338 L5.74536638,57.4861733 L5.58317539,57.1624128 L5.42102273,56.8854025 L5.30519451,56.608009 L44.0399437,56.608009 L44.294544,56.608009 L44.5263511,56.6540062 L44.7581581,56.7235497 L44.9895818,56.7926825 L45.2213888,56.9082232 L45.4068426,57.0241746 L45.5918995,57.162495 L45.7773533,57.3243752 L45.9396168,57.509432 L46.0783205,57.6944889 L46.1942719,57.9023527 L46.3102233,58.1102165 L46.4029023,58.3416402 L46.4493103,58.5726806 L46.4957182,58.803721 L46.4957182,59.057938 L46.4957182,76.3016287 L46.4957182,76.8796062 L46.4261748,77.3880402 L46.3334958,77.850121 L46.2175443,78.2430416 L46.1480009,78.4280984 L46.0555956,78.5899787 L45.9629166,78.7518589 L45.8702376,78.8905625 L45.7542862,79.0292662 L45.6616072,79.1448069 L45.5456558,79.2603476 L45.4069522,79.3758884 L45.1519548,79.5377686 L44.8737809,79.6996488 L44.5496372,79.7920541 L44.2250964,79.8844593 L43.9009526,79.9540027 L43.5304419,79.9771383 L43.1827246,80 L42.7890373,80 L42.7892331,79.9996988 Z" id="inteligro_svg_text" fill="#505050"></path>
        </g>
    </g>
</svg>