<?xml version="1.0" encoding="UTF-8"?>
<svg width="295px" height="80px" viewBox="0 0 295 80" version="1.1" xmlns="http://www.w3.org/2000/svg" xmlns:xlink="http://www.w3.org/1999/xlink">
    <title>intelifert-logo</title>
    <g id="Page-1" stroke="none" stroke-width="1" fill="none" fill-rule="evenodd">
        <g id="intelifert-logo" fill="#000000" fill-rule="nonzero">
            <path d="M1.66576753e-05,29.6041523 L41.5804344,29.6041523 L42.0383173,29.6271832 L42.4732722,29.6959808 L42.8856784,29.8106885 L43.2747637,29.9483919 L43.6638491,30.1548929 L44.0303857,30.3614346 L44.373615,30.6138864 L44.6713541,30.8892662 L44.9690931,31.2104749 L45.2209625,31.5548419 L45.426976,31.9221504 L45.6100479,32.2890662 L45.770571,32.7022307 L45.8848725,33.1153952 L45.9307827,33.5515013 L45.95367,33.9872146 L45.95367,48.3074253 L45.95367,48.6517922 L45.8848725,48.9732312 L45.8164812,49.2713494 L45.7017735,49.5927884 L45.5645576,49.8679786 L45.4040345,50.143548 L45.198021,50.3958102 L44.9920075,50.6255236 L44.7630661,50.8548443 L44.5111966,51.0383089 L44.2363856,51.1992112 L43.9386466,51.3368064 L43.6412868,51.4515141 L43.3206197,51.543199 L42.9999527,51.5891092 L42.6792857,51.6119966 L7.44144576,51.6119966 L6.84615733,51.5891092 L6.25082962,51.543199 L5.63260776,51.4744015 L5.01442383,51.3827165 L4.37330647,51.2451214 L3.75508462,51.0842056 L3.15975691,50.8778129 L2.58736127,50.6484923 L2.31259088,50.5105179 L2.060716,50.3729228 L1.80887903,50.2353277 L1.55700279,50.0748046 L1.32805998,49.9138888 L1.12197338,49.7304241 L0.915886793,49.5469595 L0.732732267,49.3401876 L0.572433969,49.1567229 L0.435067736,48.9270095 L0.297701503,48.6976889 L0.183196914,48.4683682 L0.114507704,48.2157268 L0.0458184933,47.9634646 L0.0229175755,47.6878952 L1.66576753e-05,47.412705 L1.66576753e-05,29.6041523 L1.66576753e-05,29.6041523 Z M3.6635037,0 L3.93827273,0.0229280034 L4.28172555,0.0458966354 L4.64807252,0.0917932707 L5.08310193,0.183559456 L6.04473869,0.390105149 L7.1895679,0.688457656 L8.47180261,1.05564564 L9.8914022,1.51460251 L11.4254725,2.04243278 L13.0511208,2.63909852 L14.7454894,3.30463765 L16.5085418,4.03901361 L18.3402767,4.86515711 L20.1949057,5.73720402 L21.1336808,6.19619881 L22.0495279,6.67812567 L22.988303,7.18302929 L23.927051,7.68789228 L24.8658397,8.2157239 L25.7816868,8.76648352 L26.6975746,9.31728377 L27.6134217,9.8909714 L28.9185438,10.7400795 L30.1778369,11.5891875 L31.3685763,12.4612778 L32.5132836,13.3333274 L33.6125141,14.205377 L34.6425679,15.0774673 L35.6500728,15.9724449 L36.5887802,16.8674631 L37.5049388,17.7854094 L38.3519071,18.7033962 L39.1533986,19.644284 L39.9319621,20.5851989 L40.6646561,21.5261274 L41.3514805,22.5129118 L41.9924488,23.4767682 L42.6108684,24.4865213 L2.42705037,24.4865213 L2.17521341,24.4865213 L1.94623267,24.4406111 L1.71728985,24.3718135 L1.48830911,24.303016 L1.28222252,24.1883083 L1.07617385,24.0734651 L0.892981406,23.9357887 L0.70982688,23.7751437 L0.549528582,23.5915301 L0.412162349,23.4079571 L0.297684846,23.2014155 L0.183180257,22.9948739 L0.114491046,22.7653907 L0.0458018356,22.5359075 L0.0229009178,22.3063972 L3.00711132e-15,22.0539861 L3.00711132e-15,3.67184093 L0.0229009178,3.09810726 L0.0686892106,2.59324833 L0.114477503,2.36373265 L0.160265796,2.15718696 L0.228955007,1.95064127 L0.297671303,1.74413349 L0.366360513,1.58349121 L0.435049724,1.39987758 L0.52662631,1.26220528 L0.618243524,1.10156299 L0.732721027,0.986787547 L0.84719853,0.849116601 L0.961703119,0.734381784 L1.07618062,0.64257497 L1.32805551,0.458961343 L1.62568076,0.321290397 L1.9233453,0.20655558 L2.24390397,0.13767677 L2.56446265,0.0688385879 L2.93080962,0.0229419526 L3.29715659,0 L3.66350356,0 L3.6635037,0 Z" id="intelifert_svg_over"></path>
            <path d="M62.8973562,75.3873272 L63.9732795,75.3873272 L63.9732795,65.5194639 L62.8973562,65.5194639 L62.8973562,75.3873272 Z M63.4236575,62.1686412 L63.2635136,62.1915286 L63.1033697,62.2144159 L62.988662,62.2836198 L62.8972479,62.3524173 L62.805563,62.4441022 L62.7596528,62.55881 L62.7137426,62.6964051 L62.7137426,62.8573209 L62.7137426,63.017844 L62.7596528,63.1554392 L62.805563,63.2930343 L62.8972479,63.3851255 L62.988662,63.453923 L63.1033697,63.4998332 L63.2635136,63.5457434 L63.4236575,63.5457434 L63.5841806,63.5457434 L63.7443245,63.4998332 L63.8590323,63.453923 L63.9733337,63.3851255 L64.0650186,63.2930343 L64.1109288,63.1554392 L64.1564327,63.017844 L64.1564327,62.8573209 L64.1564327,62.7423423 L64.1338162,62.6276346 L64.087906,62.5129269 L64.0191085,62.3982192 L63.904807,62.3065342 L63.7900993,62.2373304 L63.6299554,62.1914202 L63.4235627,62.1685328 L63.4236575,62.1686412 Z M71.0942028,65.3126894 L70.5904503,65.3355767 L70.1325674,65.4043743 L69.6976125,65.5193529 L69.2852063,65.656948 L69.1021344,65.7486329 L68.896121,65.8403178 L68.7359771,65.9550256 L68.5525124,66.0700042 L68.3923685,66.2075993 L68.2322246,66.3451944 L68.0717015,66.5057175 L67.9344856,66.6666333 L67.9344856,65.4963165 L66.8811246,65.4963165 L66.8811246,75.3871119 L67.9344856,75.3871119 L67.9344856,69.3287221 L67.9344856,68.9843552 L67.9803957,68.6629162 L68.0491933,68.364798 L68.1406074,68.066287 L68.2553151,67.8140248 L68.415459,67.5384554 L68.5985309,67.3091348 L68.8045444,67.0794214 L69.010937,66.8959567 L69.26282,66.7354336 L69.5146895,66.5978385 L69.7891213,66.4598642 L70.0868603,66.3681793 L70.4075274,66.2993817 L70.7507567,66.2764943 L71.0943653,66.2536069 L71.4379739,66.2764943 L71.7812032,66.3224045 L72.1018703,66.3912021 L72.3996093,66.5059098 L72.6973483,66.6208884 L72.9717666,66.804353 L73.2236496,66.9878177 L73.452591,67.2175311 L73.6360557,67.4468518 L73.7961996,67.6994932 L73.9334155,67.9746834 L74.0710106,68.2502528 L74.1398082,68.548371 L74.2081994,68.86981 L74.2541096,69.1908697 L74.276997,69.5352367 L74.276997,75.3872338 L75.3074299,75.3872338 L75.3074299,69.8108088 L75.2845426,69.3288467 L75.2386324,68.8698127 L75.1472183,68.4337202 L75.0325106,68.0205556 L74.8952947,67.6306983 L74.71183,67.2633898 L74.4828886,66.9419508 L74.2539471,66.6208911 L74.1167312,66.4599752 L73.9562081,66.3223801 L73.7960642,66.184785 L73.6359203,66.0471899 L73.4524556,65.9322113 L73.2923117,65.8175036 L73.1092398,65.7258187 L72.9032263,65.6341337 L72.6972129,65.5653362 L72.4908202,65.4965386 L72.2848067,65.4503576 L72.0558653,65.4044474 L71.5979824,65.3356499 L71.0942299,65.3127625 L71.0942028,65.3126894 Z M79.6117218,62.7423369 L78.55874,62.7423369 L78.55874,73.4136012 L78.55874,73.6433146 L78.5813565,73.8726353 L78.6272667,74.0794072 L78.6731769,74.2628718 L78.7419744,74.4463365 L78.8333885,74.6072523 L78.9250734,74.7677754 L79.0622894,74.8824832 L79.1769971,74.9971909 L79.337141,75.1121695 L79.4976641,75.180967 L79.680736,75.2497646 L79.8638079,75.3185622 L80.0927494,75.3644723 L80.2987629,75.3873597 L80.5506323,75.3873597 L81.1002543,75.3873597 L81.1002543,74.400494 L80.3904884,74.400494 L80.2074165,74.400494 L80.0468934,74.3545838 L79.9096775,74.2628989 L79.7949697,74.1481912 L79.7035557,73.9872753 L79.6576455,73.8038107 L79.6117353,73.57449 L79.6117353,73.3218486 L79.6117353,66.4600565 L82.3365003,66.4600565 L82.3365003,65.5194395 L79.6117353,65.5194395 L79.6117353,62.7423126 L79.6117218,62.7423369 Z M90.3961201,66.2536869 L90.8081471,66.2765742 L91.1976116,66.3224844 L91.586697,66.391282 L91.9532336,66.5059897 L92.296463,66.6669055 L92.61713,66.8274286 L92.914869,67.0338213 L93.18968,67.2864627 L93.441563,67.5387249 L93.6705045,67.8142943 L93.8765179,68.1124126 L94.0366618,68.41091 L94.174257,68.7552769 L94.3114729,69.0992647 L94.4031578,69.4665597 L94.4715491,69.8338682 L86.320568,69.8338682 L86.3664782,69.4665597 L86.4578922,69.0992647 L86.5726,68.7552769 L86.7327439,68.41091 L86.8928878,68.1124126 L87.0992805,67.8142943 L87.3282219,67.5387249 L87.5801049,67.2864627 L87.8545232,67.0338213 L88.1751902,66.8274286 L88.4958572,66.6669055 L88.8390866,66.5059897 L89.1826952,66.391282 L89.5717805,66.3224844 L89.9612451,66.2765742 L90.3962,66.2536869 L90.3961201,66.2536869 Z M90.4190075,65.3126907 L90.1212685,65.3355781 L89.8464575,65.3355781 L89.5716465,65.3814883 L89.2972147,65.4043756 L89.0453452,65.4731732 L88.7934622,65.5193542 L88.5415927,65.6110392 L88.3126513,65.6798367 L88.0607818,65.7715216 L87.8543891,65.8862294 L87.6254477,66.0009371 L87.4194342,66.1389114 L87.2134207,66.2765065 L87.0074073,66.4370296 L86.8243354,66.5979319 L86.6408707,66.758455 L86.4577988,66.9648477 L86.2976549,67.1486916 L86.1371318,67.3321562 L85.9999159,67.5385489 L85.8627,67.7682623 L85.7479922,67.9746549 L85.6563073,68.1814268 L85.5420059,68.4107475 L85.4732083,68.6630097 L85.4044107,68.8927231 L85.3360195,69.1449853 L85.2901093,69.3976267 L85.2441991,69.6498889 L85.2213117,69.9025303 L85.1984244,70.1777205 L85.1984244,70.4532899 L85.1984244,70.7284801 L85.2213117,71.0040496 L85.2441991,71.2792398 L85.2901093,71.5318812 L85.3360195,71.7841434 L85.4044107,72.0367848 L85.4732083,72.2661055 L85.5648932,72.4958189 L85.6563073,72.7251395 L85.771015,72.9548394 L85.8857228,73.161232 L86.0229387,73.3676247 L86.1601546,73.5743966 L86.3206777,73.7807892 L86.4808216,73.9642539 L86.6638935,74.1480977 L86.8473582,74.3086208 L87.0533716,74.469144 L87.2364435,74.6300463 L87.442457,74.7676414 L87.6713985,74.9052365 L87.9003399,75.0199442 L88.1292814,75.1120354 L88.3582229,75.2037203 L88.6100923,75.2954053 L88.8619618,75.3642028 L89.1138448,75.4330004 L89.3886558,75.4789106 L89.6405388,75.5248207 L89.9382778,75.5477081 L90.2130889,75.5705955 L90.5108279,75.5705955 L90.8769852,75.5705955 L91.2205938,75.5477081 L91.5408816,75.5017979 L91.8844902,75.4789106 L92.1822292,75.410113 L92.502517,75.3642028 L92.7773281,75.2725179 L93.0750671,75.180833 L93.3498781,75.089148 L93.6017611,74.9741695 L93.8536306,74.8594617 L94.082572,74.7218666 L94.3115135,74.5842715 L94.5175269,74.4233557 L94.7235404,74.2628326 L94.9295539,74.0793679 L94.975464,74.0334577 L94.1969006,73.3217822 L94.1513967,73.3676924 L93.9908736,73.5056667 L93.8307296,73.6432618 L93.6476577,73.7808569 L93.4416443,73.8955647 L93.2127028,74.0102724 L92.9833821,74.1023636 L92.7315127,74.1940485 L92.4570809,74.2857335 L91.9533284,74.4233286 L91.4725175,74.5150135 L90.991693,74.5842173 L90.510882,74.5842173 L90.0755479,74.5842173 L89.640593,74.5150135 L89.2285661,74.4462159 L88.8620295,74.3315082 L88.4958721,74.1709851 L88.1522636,73.9871413 L87.8319757,73.7807486 L87.5342367,73.5284864 L87.2823673,73.252917 L87.0534258,72.9777268 L86.8474123,72.6562878 L86.6868892,72.3348488 L86.5496733,71.9908611 L86.4349656,71.6235526 L86.3665743,71.210388 L86.3206641,70.7972235 L95.5020795,70.7972235 L95.5249669,70.728426 L95.5478543,70.5220333 L95.5707416,70.2693919 L95.5478543,69.764881 L95.4790567,69.2599774 L95.4106655,69.007336 L95.3647553,68.7780153 L95.2730703,68.5483019 L95.2042728,68.3189813 L95.0899713,68.0892814 L94.9982864,67.8828887 L94.8610705,67.6764961 L94.7463628,67.4697242 L94.5862189,67.2633316 L94.4486238,67.0794877 L94.2884799,66.8960231 L94.1054079,66.7125584 L93.922336,66.5520353 L93.7159434,66.3911194 L93.5328714,66.2535243 L93.326858,66.1159292 L93.1208445,65.9779549 L92.8919031,65.8632472 L92.6858896,65.7715623 L92.4569481,65.6798773 L91.9761372,65.5193542 L91.4723847,65.4043756 L90.9457043,65.3355781 L90.4190238,65.3126907 L90.4190075,65.3126907 Z M98.8222467,75.3873286 L99.8752285,75.3873286 L99.8752285,60.8377918 L98.8222467,60.8377918 L98.8222467,75.3873286 Z M103.103749,75.3873286 L104.15711,75.3873286 L104.15711,60.8377918 L103.103749,60.8377918 L103.103749,75.3873286 Z M107.591642,75.3873286 L108.667565,75.3873286 L108.667565,65.5194653 L107.591642,65.5194653 L107.591642,75.3873286 Z M108.117943,62.1686425 L107.957799,62.1915299 L107.797655,62.2144173 L107.682948,62.2836211 L107.591534,62.3524187 L107.499849,62.4441036 L107.453939,62.5588113 L107.431051,62.6964064 L107.408164,62.8573223 L107.431051,63.0178454 L107.453939,63.1554405 L107.499849,63.2930356 L107.591534,63.3851268 L107.682948,63.4539244 L107.797655,63.4998346 L107.957799,63.5457447 L108.117943,63.5457447 L108.278466,63.5457447 L108.43861,63.4998346 L108.553318,63.4539244 L108.667619,63.3851268 L108.736417,63.2930356 L108.805215,63.1554405 L108.828102,63.0178454 L108.850718,62.8573223 L108.850718,62.7423437 L108.828102,62.627636 L108.782192,62.5129282 L108.713394,62.3982205 L108.621709,62.3065356 L108.484493,62.2373317 L108.324349,62.1914216 L108.117957,62.1685342 L108.117943,62.1686425 Z M120.413595,67.6537184 L120.642536,67.9977062 L120.84855,68.3420731 L121.009073,68.7323097 L121.146289,69.122167 L121.260997,69.5353315 L121.329388,69.9943656 L121.375298,70.4533996 L121.398185,70.9353617 L121.398185,72.4038075 L121.169244,72.679377 L120.940303,72.9549464 L120.711361,73.184267 L120.43655,73.4365292 L120.161739,73.6433011 L119.886928,73.8496938 L119.56664,74.0335376 L119.268901,74.1940607 L119.03996,74.2857457 L118.811018,74.3545432 L118.559149,74.4233408 L118.330207,74.4921383 L118.078338,74.5380485 L117.826468,74.5613422 L117.574599,74.5842295 L117.299788,74.5842295 L116.841905,74.5842295 L116.40695,74.5150257 L115.971616,74.4233408 L115.582531,74.308633 L115.399459,74.2169481 L115.215994,74.1481506 L115.032922,74.0334428 L114.872778,73.9413516 L114.712255,73.8266439 L114.575039,73.6890488 L114.414895,73.574341 L114.2773,73.4134252 L114.025431,73.138235 L113.796489,72.816796 L113.613417,72.4728082 L113.476201,72.1054997 L113.338606,71.7381912 L113.269809,71.3250267 L113.201417,70.8893134 L113.201417,70.4302793 L113.201417,69.9712452 L113.269809,69.5351392 L113.338606,69.1449027 L113.476201,68.7550454 L113.613417,68.3877368 L113.819431,68.0433699 L114.025444,67.7452517 L114.300255,67.4238127 L114.575066,67.1715505 L114.895747,66.9189091 L115.238963,66.7125164 L115.605499,66.5519933 L115.994585,66.414019 L116.406991,66.3223341 L116.841946,66.2764239 L117.299829,66.2535365 L117.803581,66.2764239 L118.261464,66.3452215 L118.467477,66.3911316 L118.673491,66.4599292 L118.879504,66.5287267 L119.085897,66.5979306 L119.268969,66.7126383 L119.452041,66.8043232 L119.635113,66.919031 L119.818577,67.0566261 L119.978721,67.1946004 L120.138865,67.3321955 L120.27646,67.4927186 L120.413676,67.6536344 L120.413595,67.6537184 Z M121.398158,67.2864099 L121.192145,67.0566965 L120.986131,66.8273758 L120.780118,66.6209832 L120.551177,66.4371393 L120.322235,66.2536747 L120.092914,66.0931516 L119.841045,65.9551772 L119.589555,65.8175821 L119.337685,65.7028744 L119.062874,65.6111895 L118.788063,65.5195046 L118.490324,65.4503007 L118.192585,65.3815032 L117.894846,65.3586158 L117.597486,65.3357284 L117.276819,65.312841 L116.97908,65.3357284 L116.681341,65.3357284 L116.406909,65.3816386 L116.132098,65.404526 L115.857287,65.4504361 L115.605418,65.51964 L115.353548,65.5884375 L115.124607,65.6801225 L114.872738,65.7718074 L114.666724,65.8865151 L114.437783,66.0012229 L114.23139,66.1391972 L114.025377,66.2767923 L113.842305,66.4143874 L113.659233,66.5753032 L113.476161,66.7587679 L113.315638,66.9422325 L113.155494,67.1260764 L112.99535,67.309541 L112.880642,67.5159337 L112.743426,67.7227056 L112.628718,67.9290982 L112.537034,68.1588116 L112.445619,68.3652043 L112.353935,68.6174665 L112.285137,68.8471799 L112.239633,69.0994421 L112.193723,69.3520835 L112.147813,69.6272737 L112.124925,69.9028431 L112.102038,70.1780334 L112.102038,70.4536028 L112.102038,70.728793 L112.124925,71.0043624 L112.147813,71.2795526 L112.193723,71.532194 L112.239633,71.7844562 L112.308024,72.0370976 L112.376822,72.2664183 L112.468507,72.4961317 L112.559921,72.7254524 L112.651606,72.9551522 L112.765907,73.1615449 L112.903502,73.3679375 L113.040718,73.5747094 L113.178313,73.7811021 L113.338457,73.9645667 L113.521529,74.1484106 L113.704994,74.3089337 L113.888066,74.4694568 L114.094079,74.6303591 L114.300093,74.7679542 L114.506106,74.8826619 L114.71212,74.9973697 L114.94144,75.1123483 L115.19331,75.2040332 L115.422251,75.2957181 L115.674121,75.3645157 L115.92599,75.4333132 L116.200422,75.4792234 L116.452291,75.5021108 L116.727102,75.548021 L117.024841,75.548021 L117.299652,75.5709083 L117.826333,75.548021 L118.353013,75.4792234 L118.833838,75.3645157 L119.314662,75.2269206 L119.543604,75.1352356 L119.772545,74.9972613 L120.070284,74.8367382 L120.390572,74.6303456 L120.688311,74.4006457 L120.963122,74.171325 L121.192064,73.9645532 L121.398077,73.7810885 L121.398077,74.8826078 L121.37519,75.3416418 L121.32928,75.7777479 L121.260888,76.1679844 L121.146181,76.5578417 L121.008965,76.9022087 L120.8255,77.2465757 L120.619487,77.5446939 L120.390545,77.8202633 L120.115734,78.0954535 L119.818374,78.3022254 L119.474766,78.508618 L119.131157,78.6691411 L118.742072,78.7838489 L118.330045,78.8759401 L117.917639,78.9447376 L117.459756,78.9447376 L116.933075,78.9447376 L116.429323,78.8988274 L115.92595,78.8300299 L115.444746,78.7150513 L114.986863,78.5774562 L114.52898,78.4169331 L114.071097,78.2101612 L113.636142,78.0037686 L113.544457,77.9578584 L113.201228,78.9676521 L113.246732,78.9905395 L113.933949,79.2657297 L114.50612,79.4725015 L114.941454,79.6330246 L115.261742,79.7247096 L115.742566,79.8394173 L116.246319,79.9086211 L116.818869,79.9545313 L117.413967,79.9774187 L117.688779,79.9774187 L117.986518,79.9545313 L118.261329,79.9316439 L118.53614,79.8857338 L118.788009,79.8395527 L119.039878,79.7707552 L119.291761,79.7019576 L119.543631,79.6102727 L119.772572,79.5185878 L119.978586,79.40388 L120.207527,79.2889014 L120.413541,79.1741937 L120.596613,79.0365986 L120.780077,78.8760755 L120.963149,78.7151596 L121.146221,78.5546365 L121.283816,78.3711719 L121.44396,78.210256 L121.581176,78.0267914 L121.718771,77.8203987 L121.833073,77.6136269 L121.924758,77.4072342 L122.039059,77.2004623 L122.130744,76.9711417 L122.268339,76.4891796 L122.359753,75.9842895 L122.428551,75.4564579 L122.451438,74.8827567 L122.451438,65.4968596 L121.398077,65.4968596 L121.398077,67.2867431 L121.398158,67.2864099 Z M130.900245,66.2536882 L131.312624,66.2765756 L131.701709,66.3224858 L132.090795,66.3912833 L132.457399,66.505991 L132.800574,66.6669069 L133.121268,66.82743 L133.41894,67.0338227 L133.716746,67.2864641 L133.968643,67.5387263 L134.174629,67.8142957 L134.380616,68.1124139 L134.540827,68.4109113 L134.70131,68.7552783 L134.815069,69.0992661 L134.907161,69.466561 L134.976229,69.8338695 L126.824865,69.8338695 L126.870775,69.466561 L126.962189,69.0992661 L127.076897,68.7552783 L127.237041,68.4109113 L127.397564,68.1124139 L127.603577,67.8142957 L127.809591,67.5387263 L128.06146,67.2864641 L128.359199,67.0338227 L128.6566,66.82743 L128.977294,66.6669069 L129.343763,66.505991 L129.686938,66.3912833 L130.076429,66.3224858 L130.488402,66.2765756 L130.900375,66.2536882 L130.900245,66.2536882 Z M130.900245,65.3126921 L130.625461,65.3355794 L130.350677,65.3355794 L130.076299,65.3814896 L129.801515,65.404377 L129.549619,65.4731745 L129.297722,65.5193556 L129.045826,65.6110405 L128.816952,65.6798381 L128.587943,65.771523 L128.359069,65.8862307 L128.130128,66.0009385 L127.923735,66.1389128 L127.717721,66.2765079 L127.511708,66.437031 L127.328636,66.5979333 L127.145564,66.7584564 L126.9621,66.9648491 L126.801956,67.1486929 L126.641812,67.3321576 L126.504217,67.5385502 L126.367001,67.7682636 L126.252293,67.9746563 L126.160879,68.1814281 L126.046171,68.4107488 L125.977374,68.663011 L125.88596,68.8927244 L125.840049,69.1449866 L125.771252,69.397628 L125.748364,69.6498903 L125.702454,69.9025317 L125.702454,70.1777219 L125.679838,70.4532913 L125.702454,70.7284815 L125.702454,71.0040509 L125.748364,71.2792411 L125.771252,71.5318825 L125.840049,71.7841447 L125.88596,72.0367861 L125.977374,72.2661068 L126.069059,72.4958202 L126.160743,72.7251409 L126.275045,72.9548407 L126.389753,73.1612334 L126.526969,73.3676261 L126.664564,73.5743979 L126.824708,73.7807906 L127.00778,73.9642552 L127.190851,74.1480991 L127.374316,74.3086222 L127.557388,74.4691453 L127.763401,74.6300476 L127.969415,74.7676427 L128.175428,74.9052378 L128.404438,75.0199456 L128.633311,75.1120368 L128.885208,75.2037217 L129.114488,75.2954066 L129.365978,75.3642042 L129.617875,75.4330017 L129.892659,75.4789119 L130.167443,75.5248221 L130.442226,75.5477095 L130.71701,75.5705968 L131.014817,75.5705968 L131.381015,75.5705968 L131.724597,75.5477095 L132.045291,75.5017993 L132.388466,75.4789119 L132.686137,75.4101144 L132.983944,75.3642042 L133.281344,75.2725193 L133.579016,75.1808343 L133.830912,75.0891494 L134.105687,74.9741708 L134.334705,74.8594631 L134.586602,74.721868 L134.815476,74.5842729 L135.021462,74.423357 L135.227448,74.2628339 L135.410954,74.0793692 L135.501691,74.0334591 L134.72352,73.3217836 L134.654451,73.3676938 L134.493969,73.5056681 L134.333893,73.6432632 L134.150794,73.7808583 L133.944807,73.895566 L133.715798,74.0102738 L133.486789,74.102365 L133.234893,74.1940499 L132.960109,74.2857348 L132.479338,74.4233299 L131.975545,74.5150149 L131.494775,74.5842187 L131.014005,74.5842187 L130.579009,74.5842187 L130.143743,74.5150149 L129.73177,74.4462173 L129.365166,74.3315096 L128.998968,74.1709865 L128.655386,73.9871426 L128.335098,73.7807499 L128.037359,73.5284877 L127.762548,73.2758463 L127.533607,72.9777281 L127.350535,72.6562892 L127.16707,72.3348502 L127.029854,71.9908624 L126.938169,71.6006259 L126.869778,71.2103894 L126.823868,70.7972249 L136.005294,70.7972249 L136.028317,70.7284273 L136.05134,70.5220347 L136.074363,70.2693933 L136.074363,70.017131 L136.05134,69.7648688 L136.028317,69.5122274 L135.982271,69.2599652 L135.936226,69.0073238 L135.867157,68.7780031 L135.775066,68.5482897 L135.705998,68.3189691 L135.590884,68.0892692 L135.498792,67.8828766 L135.361604,67.6764839 L135.24649,67.469712 L135.086413,67.2633194 L134.949225,67.0794755 L134.788742,66.8960109 L134.605643,66.7125462 L134.422544,66.5520231 L134.216558,66.3911073 L134.033052,66.2535121 L133.827066,66.115917 L133.62108,65.9779427 L133.392206,65.863235 L133.18622,65.7715501 L132.957346,65.6798651 L132.476576,65.519342 L131.972782,65.4043635 L131.446102,65.3355659 L130.896534,65.3126785 L130.900245,65.3126921 Z M143.539114,65.3126921 L143.035727,65.3355794 L142.577438,65.404377 L142.142442,65.5193556 L141.730469,65.6569507 L141.54737,65.7486356 L141.363865,65.8403205 L141.180766,65.9550283 L140.997667,66.0700069 L140.837591,66.207602 L140.677108,66.3451971 L140.517032,66.5057202 L140.379437,66.666636 L140.379437,65.4963192 L139.303595,65.4963192 L139.303595,75.3871146 L140.379437,75.3871146 L140.379437,69.3287249 L140.379437,68.9843579 L140.425483,68.6629189 L140.494551,68.3648007 L140.586642,68.0662898 L140.700402,67.8140275 L140.860478,67.5384581 L141.020961,67.3091375 L141.226947,67.0794241 L141.455821,66.8959594 L141.684695,66.7354363 L141.959479,66.5978412 L142.234263,66.4598669 L142.531934,66.368182 L142.852222,66.2993844 L143.172916,66.276497 L143.539114,66.2536097 L143.882695,66.276497 L144.226277,66.3224072 L144.546565,66.3912048 L144.844371,66.4828897 L145.119155,66.620864 L145.393939,66.8043287 L145.645836,66.9877933 L145.874709,67.2175067 L146.057808,67.4468274 L146.240907,67.6994688 L146.378503,67.974659 L146.492262,68.2502284 L146.584353,68.5483466 L146.653422,68.8697856 L146.699468,69.1908453 L146.72249,69.5352123 L146.72249,75.3872094 L147.752964,75.3872094 L147.752964,69.8107844 L147.729941,69.3288224 L147.683895,68.8697883 L147.591804,68.4336958 L147.47669,68.0205313 L147.316614,67.6306739 L147.156538,67.2633654 L146.927664,66.9419265 L146.69879,66.6208667 L146.378096,66.3223557 L146.057402,66.0471655 L145.897326,65.9321869 L145.714227,65.8174792 L145.530722,65.7257943 L145.324735,65.6341094 L145.118749,65.5653118 L144.912763,65.4965143 L144.706776,65.4503332 L144.477902,65.404423 L144.019613,65.3356255 L143.538843,65.3127381 L143.539114,65.3126921 Z M152.034081,62.7423396 L150.98072,62.7423396 L150.98072,73.413604 L150.98072,73.6433174 L151.003743,73.872638 L151.049789,74.0794099 L151.095834,74.2628745 L151.164903,74.4463392 L151.256994,74.607255 L151.370754,74.7677782 L151.485868,74.8824859 L151.623056,74.9971936 L151.760652,75.1121722 L151.920728,75.1809698 L152.103827,75.2497673 L152.310219,75.3185649 L152.516206,75.364475 L152.745215,75.3873624 L152.997112,75.3873624 L153.523792,75.3873624 L153.523792,74.4004967 L152.836629,74.4004967 L152.65353,74.4004967 L152.493454,74.3545865 L152.355859,74.2629016 L152.242099,74.1481939 L152.150008,73.987278 L152.103962,73.8038134 L152.057917,73.5744927 L152.034894,73.3218513 L152.034894,66.4600592 L154.782218,66.4600592 L154.782218,65.5194423 L152.034894,65.5194423 L152.034894,62.7423153 L152.034081,62.7423396 Z M168.038694,66.2536896 L168.450667,66.2765769 L168.863046,66.3224871 L169.252132,66.414172 L169.618736,66.5521463 L169.961911,66.735611 L170.305493,66.9420037 L170.626187,67.1717171 L170.946474,67.4469073 L170.99252,67.5157048 L171.771097,66.8732061 L171.702029,66.8044086 L171.290056,66.4600416 L170.900564,66.1619234 L170.671691,66.0243283 L170.465704,65.9093497 L170.23683,65.7946419 L170.030844,65.6799342 L169.778947,65.6111367 L169.549938,65.5194517 L169.320929,65.4732707 L169.069033,65.4044731 L168.817136,65.3815858 L168.565239,65.3356756 L168.290456,65.3356756 L168.038559,65.3127882 L167.740888,65.3356756 L167.466104,65.3356756 L167.191726,65.3815858 L166.93983,65.4044731 L166.665046,65.4732707 L166.413149,65.5194517 L166.161252,65.6111367 L165.932243,65.6799342 L165.70337,65.7716191 L165.474496,65.8863269 L165.245622,66.0010346 L165.039229,66.1390089 L164.833243,66.276604 L164.627257,66.4371271 L164.444158,66.5980294 L164.261059,66.7585525 L164.077553,66.9420172 L163.917477,67.1487891 L163.780288,67.3322537 L163.642693,67.5386464 L163.505504,67.7454182 L163.39039,67.9747389 L163.276631,68.1815108 L163.184539,68.4108314 L163.092448,68.6630936 L163.02338,68.892807 L162.954311,69.1450692 L162.908266,69.3977107 L162.86222,69.6499729 L162.839197,69.9026143 L162.816175,70.1778045 L162.816175,70.4533739 L162.816175,70.7285641 L162.839197,71.0041335 L162.86222,71.2563957 L162.908266,71.5090371 L162.954311,71.7612993 L163.02338,72.0139408 L163.092448,72.2432614 L163.184539,72.4729748 L163.276631,72.7022955 L163.39039,72.9316161 L163.505504,73.138388 L163.642693,73.3447807 L163.780288,73.5515525 L163.917477,73.7350172 L164.077553,73.9414098 L164.261059,74.1023257 L164.444158,74.2857903 L164.650144,74.4463135 L164.833243,74.6072293 L165.039229,74.7448244 L165.268103,74.8824195 L165.474496,74.9971273 L165.70337,75.1121058 L165.932243,75.2037908 L166.18414,75.2954757 L166.413149,75.3642733 L166.665046,75.4330708 L166.93983,75.478981 L167.191726,75.5248912 L167.466104,75.5477785 L167.740888,75.5706659 L168.038559,75.5706659 L168.290456,75.5706659 L168.542352,75.5477785 L168.794249,75.5018684 L169.046145,75.478981 L169.298042,75.4101834 L169.526915,75.3642733 L169.778812,75.2725883 L170.007821,75.1809034 L170.236695,75.0892185 L170.442681,74.9742399 L170.671555,74.8595321 L170.877948,74.721937 L171.083934,74.5614139 L171.267033,74.4234396 L171.473019,74.239975 L171.656118,74.0565103 L171.74821,73.9873065 L170.992655,73.3218797 L170.94661,73.3677899 L170.626322,73.6663009 L170.305628,73.9185631 L169.962046,74.125335 L169.618871,74.2858581 L169.252267,74.4234532 L168.863182,74.5151381 L168.450803,74.5843419 L168.03883,74.5843419 L167.580947,74.5843419 L167.145951,74.5151381 L166.733572,74.4234532 L166.344487,74.2858581 L166.138501,74.2170605 L165.955402,74.1253756 L165.794919,74.0336907 L165.634843,73.9187121 L165.314149,73.6893914 L165.016748,73.413822 L164.764852,73.1157038 L164.535572,72.7942648 L164.352473,72.450277 L164.192397,72.0829685 L164.077283,71.7156736 L163.986546,71.302509 L163.9405,70.8667957 L163.917477,70.4307032 L163.9405,69.9945971 L163.986546,69.5584911 L164.077283,69.1453266 L164.192397,68.7784108 L164.352473,68.4111023 L164.535572,68.0667353 L164.764852,67.7456756 L165.016748,67.4471646 L165.314149,67.1719744 L165.634843,66.919333 L165.978424,66.7129403 L166.344622,66.5524172 L166.733708,66.4144429 L167.146087,66.322758 L167.581082,66.2768478 L168.038965,66.2539604 L168.038694,66.2536896 Z M178.29641,65.4732165 L178.021626,65.4732165 L177.746842,65.4965102 L177.494945,65.5193976 L177.243049,65.5653077 L177.014175,65.6341053 L176.762278,65.7029028 L176.533405,65.7945878 L176.327418,65.9092955 L176.121432,66.0242741 L175.915445,66.1389818 L175.709459,66.2765769 L175.525954,66.4371 L175.342855,66.5980024 L175.159756,66.781467 L174.99968,66.9878597 L174.839197,67.1946315 L174.839197,65.496479 L173.80913,65.496479 L173.80913,75.3872744 L174.839197,75.3872744 L174.839197,70.9353075 L174.86222,70.4304175 L174.908265,69.9484554 L174.977334,69.4894213 L175.068071,69.0533152 L175.205666,68.6630787 L175.365742,68.296163 L175.548841,67.951796 L175.777715,67.6307362 L176.029611,67.3551668 L176.281508,67.1258462 L176.556292,66.9190743 L176.854099,66.7356096 L177.15177,66.6209019 L177.472464,66.5288107 L177.792752,66.4600131 L178.136333,66.4371258 L178.159356,66.4371258 L178.800338,66.5059233 L179.14392,66.5521044 L179.304131,66.5749917 L179.327154,66.5749917 L179.510253,66.6209019 L179.510253,65.6340362 L179.441185,65.6111489 L178.983302,65.5652387 L178.663014,65.5193285 L178.434005,65.4731475 L178.29641,65.4731475 L178.29641,65.4732165 Z M186.790998,74.5843067 L186.333115,74.5843067 L185.898119,74.5151029 L185.66911,74.4691927 L185.463124,74.4232825 L185.280025,74.3773724 L185.09652,74.2856874 L184.890533,74.2168899 L184.730457,74.1252049 L184.547358,74.03352 L184.386875,73.9185414 L184.226799,73.8038337 L184.066723,73.689126 L183.929128,73.5515309 L183.791939,73.4135566 L183.540043,73.1154383 L183.311169,72.7939994 L183.127664,72.4500116 L182.967587,72.0827031 L182.853828,71.6924666 L182.784759,71.3022301 L182.738714,70.8665167 L182.715691,70.4304242 L182.738714,69.9713902 L182.784759,69.5582256 L182.853828,69.1450611 L182.967587,68.7552038 L183.127664,68.4108368 L183.311169,68.0664699 L183.540043,67.7454101 L183.791939,67.4468992 L184.066723,67.1717089 L184.387011,66.9190675 L184.730592,66.7126749 L185.09679,66.5521518 L185.486282,66.4141775 L185.898255,66.3224925 L186.33325,66.2765824 L186.791133,66.253695 L187.249016,66.2765824 L187.684283,66.3224925 L188.096255,66.4141775 L188.485341,66.5521518 L188.851945,66.7126749 L189.195526,66.9190675 L189.515814,67.1717089 L189.813486,67.4468992 L190.042359,67.7454101 L190.271369,68.0664699 L190.454468,68.4108368 L190.61495,68.7781453 L190.72871,69.1680027 L190.820801,69.5582392 L190.866847,69.9943452 L190.889869,70.4304513 L190.866847,70.8665438 L190.820801,71.3022572 L190.72871,71.6924937 L190.61495,72.0827302 L190.454468,72.4270971 L190.271369,72.7710849 L190.042359,73.0925239 L189.790463,73.3906421 L189.653274,73.5515444 L189.492792,73.6891395 L189.33258,73.8038472 L189.172504,73.918555 L188.85181,74.1253268 L188.485205,74.2858499 L188.09612,74.423445 L187.684147,74.51513 L187.248881,74.5843338 L186.790998,74.5843338 L186.790998,74.5843067 Z M186.790998,65.3126894 L186.493597,65.3355767 L186.218813,65.3355767 L185.94403,65.3814869 L185.692133,65.4043743 L185.440236,65.4731718 L185.18834,65.5193529 L184.936443,65.6110378 L184.70757,65.6798354 L184.455673,65.7945431 L184.249687,65.886228 L184.020813,66.0009357 L183.814827,66.1389101 L183.608434,66.2765052 L183.402447,66.4370283 L183.219348,66.5979306 L183.036249,66.7813952 L182.85315,66.9648599 L182.692668,67.1487037 L182.555479,67.3550964 L182.394997,67.5385611 L182.281237,67.7682745 L182.143642,67.9746671 L182.052905,68.204367 L181.960814,68.4107596 L181.870077,68.6630219 L181.801008,68.8927353 L181.73194,69.1449975 L181.685894,69.3976389 L181.639849,69.6499011 L181.616826,69.9025425 L181.593803,70.1777327 L181.593803,70.4533021 L181.593803,70.7284923 L181.616826,70.9811337 L181.639849,71.256324 L181.685894,71.5089654 L181.73194,71.7612276 L181.801008,72.013869 L181.870077,72.2431896 L181.960814,72.472903 L182.052905,72.7022237 L182.143642,72.9315444 L182.281237,73.1383162 L182.394997,73.3447089 L182.555479,73.5514807 L182.692668,73.7349454 L182.85315,73.9413381 L183.036249,74.1022539 L183.219348,74.2857186 L183.425335,74.4462417 L183.608434,74.6071575 L183.814827,74.7447526 L184.0437,74.8823477 L184.249687,74.9970555 L184.47856,75.1120341 L184.70757,75.203719 L184.959466,75.2954039 L185.18834,75.3642015 L185.440236,75.432999 L185.692133,75.4789092 L185.966917,75.5248194 L186.241701,75.5477068 L186.516078,75.5705941 L186.790862,75.5705941 L187.065646,75.5705941 L187.363453,75.5477068 L187.638237,75.5248194 L187.890134,75.4789092 L188.164917,75.432999 L188.416814,75.3642015 L188.668711,75.2954039 L188.89772,75.203719 L189.126594,75.1120341 L189.355603,74.9970555 L189.561589,74.8823477 L189.790463,74.7447526 L189.996449,74.6071575 L190.179548,74.4691832 L190.363053,74.3086601 L190.546152,74.1251955 L190.729251,73.9413516 L190.889734,73.757887 L191.026923,73.5514943 L191.186999,73.3447224 L191.302113,73.1383298 L191.415873,72.9315579 L191.530987,72.7022373 L191.623078,72.4729166 L191.713815,72.2432032 L191.782883,72.0138825 L191.851952,71.7612411 L191.897997,71.5089789 L191.944043,71.2563375 L191.967066,71.0040753 L191.990089,70.7285059 L191.990089,70.4533157 L191.967066,69.902556 L191.897997,69.3747244 L191.851952,69.145011 L191.782883,68.8927488 L191.713815,68.6401074 L191.644746,68.4107867 L191.55401,68.1814661 L191.438896,67.9746942 L191.325136,67.7683015 L191.187541,67.5385881 L191.050352,67.3551235 L190.912757,67.1487308 L190.752681,66.964887 L190.569582,66.7814223 L190.386483,66.6208992 L190.202977,66.4370554 L189.996991,66.2994602 L189.791005,66.1389371 L189.585018,66.0242294 L189.356144,65.8862551 L189.127135,65.7945702 L188.898261,65.6798624 L188.669252,65.6110649 L188.417356,65.51938 L188.165459,65.4731989 L187.890675,65.4044014 L187.638779,65.381514 L187.363995,65.3356038 L187.066188,65.3356038 L186.791404,65.3127164 L186.790998,65.3126894 Z M199.223853,66.2536855 L199.682143,66.2765729 L200.117138,66.322483 L200.552134,66.414168 L200.941219,66.5521423 L201.307823,66.7126654 L201.628517,66.9190581 L201.948805,67.1716995 L202.246612,67.4239617 L202.498508,67.7454006 L202.727518,68.0664604 L202.910617,68.3878994 L203.071099,68.7552079 L203.184859,69.1450652 L203.27695,69.5582297 L203.322996,69.9713942 L203.322996,70.4304283 L203.322996,70.8894624 L203.253927,71.3022477 L203.184859,71.7154122 L203.071099,72.1056487 L202.910617,72.4729572 L202.727518,72.816945 L202.498508,73.1154559 L202.269635,73.4135742 L201.971828,73.6891436 L201.65154,73.9414058 L201.307959,74.1252496 L200.941354,74.3087143 L200.552269,74.423422 L200.140296,74.5151069 L199.682413,74.5843108 L199.224124,74.5843108 L198.995115,74.5843108 L198.743218,74.5614234 L198.514209,74.5381298 L198.285335,74.4922196 L198.056326,74.423422 L197.827453,74.3546245 L197.621466,74.2858269 L197.392457,74.194142 L197.025853,74.0102981 L196.705565,73.8039055 L196.384871,73.5975128 L196.087199,73.3448714 L195.812416,73.0926092 L195.560519,72.8170398 L195.331645,72.5418496 L195.148546,72.2204106 L195.148546,70.9354267 L195.148546,70.4534646 L195.194592,69.9715026 L195.286683,69.5353965 L195.37742,69.0992904 L195.515015,68.7094331 L195.698114,68.3421246 L195.881213,67.9748296 L196.110087,67.6537699 L196.247682,67.492854 L196.407758,67.3323309 L196.544947,67.1947358 L196.705429,67.0567615 L196.888528,66.9191664 L197.071627,66.8044587 L197.255133,66.7127737 L197.438232,66.598066 L197.644218,66.5288622 L197.850205,66.4600646 L198.056191,66.3912671 L198.2852,66.3453569 L198.743083,66.2765593 L199.223853,66.253672 L199.223853,66.2536855 Z M199.292922,65.3126894 L198.972228,65.3355767 L198.65194,65.3584641 L198.354133,65.3813515 L198.056326,65.450149 L197.758655,65.5193529 L197.484277,65.6110378 L197.209493,65.7027227 L196.957597,65.8174305 L196.682813,65.9550256 L196.453804,66.0929999 L196.201907,66.253523 L195.973033,66.4369876 L195.74416,66.6208315 L195.538173,66.8272242 L195.331781,67.0565448 L195.148682,67.2862582 L195.148682,65.1978692 L194.095321,65.1978692 L194.095321,79.9083151 L194.095321,79.9312024 L194.118344,80 L195.148817,80 L195.148817,73.7348357 L195.354803,73.9641564 L195.583677,74.1938698 L195.835574,74.4002624 L196.08747,74.6070343 L196.385142,74.7904989 L196.682948,74.9510221 L196.98062,75.0889964 L197.323795,75.2265915 L197.781678,75.3641866 L198.262448,75.4788943 L198.743218,75.5476919 L199.247012,75.5705792 L199.544818,75.5705792 L199.819602,75.5476919 L200.094386,75.5248045 L200.36917,75.4788943 L200.621067,75.4329841 L200.872963,75.3641866 L201.12486,75.295389 L201.353869,75.2037041 L201.582743,75.1120192 L201.811616,74.9970406 L202.040626,74.8823328 L202.246612,74.7676251 L202.452598,74.63003 L202.635697,74.4691277 L202.84209,74.3086046 L203.025189,74.1480815 L203.185265,73.9642376 L203.345748,73.780773 L203.505824,73.5743803 L203.643013,73.3676085 L203.758127,73.1612158 L203.871886,72.9548231 L203.987,72.7251233 L204.079092,72.4958026 L204.169829,72.2660892 L204.238897,72.0367685 L204.307965,71.7841271 L204.354011,71.5318649 L204.423079,71.0040333 L204.446102,70.4532737 L204.423079,69.9025141 L204.354011,69.3517544 L204.240251,68.8468508 L204.103062,68.3878167 L204.010971,68.1584961 L203.91888,67.9287827 L203.80512,67.72239 L203.667525,67.5156182 L203.530336,67.3092255 L203.392741,67.1257608 L203.255552,66.941917 L203.072453,66.7584523 L202.888948,66.5749877 L202.705849,66.4140718 L202.52275,66.2764767 L202.316764,66.1388816 L202.110777,66.0009073 L201.881904,65.8861996 L201.652894,65.7714918 L201.423614,65.6798069 L201.171718,65.588122 L200.942844,65.5193244 L200.668466,65.4731434 L200.41657,65.4043458 L199.867002,65.3355483 L199.294411,65.3126609 L199.292922,65.3126894 Z M218.045225,70.0631604 L215.984738,69.5124008 L215.526856,69.3748057 L215.137364,69.2142826 L214.954265,69.1450787 L214.794053,69.0533938 L214.633571,68.9617089 L214.496382,68.8470011 L214.381268,68.7553162 L214.290531,68.6403376 L214.19844,68.5256299 L214.129371,68.4109222 L214.060303,68.2962144 L214.03728,68.1815067 L213.991235,68.0435324 L213.991235,67.9059373 L213.991235,67.7454142 L214.014257,67.5615703 L214.060303,67.4239752 L214.106349,67.2863801 L214.175417,67.148785 L214.267508,67.0338064 L214.358245,66.9190987 L214.473359,66.8274138 L214.610548,66.7357288 L214.748143,66.6669313 L214.908355,66.6210211 L215.068837,66.5522235 L215.251936,66.5289299 L215.457923,66.4830197 L215.686932,66.4830197 L215.915805,66.4601323 L217.724802,66.4601323 L218.04509,66.4830197 L218.342896,66.5059071 L218.61768,66.5520881 L218.892464,66.6208857 L219.121338,66.7125706 L219.350347,66.8272783 L219.533446,66.9648734 L219.716952,67.1257893 L219.762997,67.1716995 L220.702057,66.6209398 L220.656011,66.5521423 L220.404114,66.2995009 L220.129331,66.0931082 L219.831524,65.9092644 L219.488349,65.7716693 L219.121744,65.6569615 L218.709772,65.5652766 L218.274505,65.5193664 L217.793735,65.496479 L216.237001,65.496479 L215.847509,65.5193664 L215.481311,65.5422538 L215.114707,65.588164 L214.794419,65.6569615 L214.496612,65.7486465 L214.244716,65.8403314 L213.992819,65.9550391 L213.786833,66.0930134 L213.580846,66.2535365 L213.420364,66.4140596 L213.283175,66.6208315 L213.168061,66.8272242 L213.077324,67.0565448 L213.008256,67.3091862 L212.96221,67.5614484 L212.96221,67.8599594 L212.96221,68.0892801 L212.985233,68.2960519 L213.054301,68.5253726 L213.12337,68.7092164 L213.214107,68.9156091 L213.329221,69.0990737 L213.44298,69.2829176 L213.603463,69.4434407 L213.786562,69.6039638 L213.969661,69.7415589 L214.175647,69.8795332 L214.427544,70.0171283 L214.656553,70.1318361 L214.931337,70.2465438 L215.229008,70.338635 L215.549702,70.4303199 L217.518843,70.93521 L218.022229,71.0957331 L218.480519,71.2791978 L218.686505,71.3941764 L218.869604,71.4858613 L219.02968,71.600569 L219.190163,71.7152768 L219.303922,71.8528719 L219.419036,71.9678505 L219.532796,72.1054456 L219.601865,72.2430407 L219.670933,72.4035638 L219.716979,72.5415381 L219.740001,72.7020612 L219.740001,72.8625843 L219.740001,73.0693562 L219.716979,73.2298793 L219.670933,73.3904024 L219.601865,73.5513047 L219.509773,73.6888998 L219.419036,73.8264949 L219.303922,73.9412026 L219.166734,74.0332938 L219.006251,74.1249788 L218.846175,74.1937763 L218.640189,74.2625739 L218.434202,74.3084841 L218.205193,74.3543942 L217.953296,74.4003044 L217.678513,74.4003044 L217.403729,74.4003044 L215.732327,74.4003044 L215.434521,74.4003044 L215.159737,74.377417 L214.884953,74.3086195 L214.655943,74.2398219 L214.404047,74.148137 L214.198061,74.0101627 L213.992074,73.8725676 L213.831998,73.7120445 L213.76293,73.6661343 L212.847164,74.1939659 L212.893209,74.2856509 L213.030804,74.423246 L213.144564,74.5379537 L213.282159,74.675928 L213.419348,74.7676129 L213.556943,74.8592979 L213.717019,74.9509828 L213.900118,75.0426677 L214.060601,75.1118716 L214.426799,75.2265793 L214.839178,75.3182642 L215.274173,75.3641744 L215.732056,75.3870618 L216.785417,75.3870618 L217.266188,75.3641744 L217.724071,75.341287 L218.136043,75.2953768 L218.525129,75.2265793 L218.891733,75.1348944 L219.235314,75.0199158 L219.532715,74.8823207 L219.784611,74.7447256 L220.036508,74.5612609 L220.242494,74.377417 L220.402977,74.1480964 L220.563053,73.918383 L220.655144,73.6661208 L220.745881,73.4134794 L220.791927,73.1153611 L220.81495,72.7939222 L220.791927,72.5646015 L220.768904,72.3348881 L220.699836,72.1055674 L220.630767,71.8991748 L220.538676,71.6924029 L220.401487,71.4860103 L220.263892,71.3021664 L220.10368,71.1187018 L219.920581,70.9581786 L219.714595,70.7972628 L219.485586,70.6596677 L219.233689,70.5220726 L218.981793,70.3844775 L218.683986,70.2694989 L218.363292,70.1547912 L218.042598,70.0631062 L218.045225,70.0631604 Z M228.761216,74.5843067 L228.302927,74.5843067 L227.845044,74.5151029 L227.433071,74.423418 L227.043986,74.2858229 L226.86048,74.2170253 L226.677381,74.1253404 L226.494282,74.0336554 L226.3338,73.9186769 L226.173724,73.8039691 L226.013512,73.6892614 L225.85303,73.5516663 L225.715841,73.413692 L225.463944,73.1155738 L225.257958,72.7941348 L225.074859,72.450147 L224.914376,72.0828385 L224.800617,71.692602 L224.708525,71.3023655 L224.66248,70.8666522 L224.639457,70.4305597 L224.66248,69.9715256 L224.708525,69.5583611 L224.800617,69.1451965 L224.914376,68.7553392 L225.074859,68.4109723 L225.257958,68.0666053 L225.463944,67.7455455 L225.715841,67.4470346 L226.013512,67.1718444 L226.3338,66.919203 L226.677381,66.7128103 L227.043986,66.5522872 L227.433071,66.4143129 L227.845044,66.322628 L228.302927,66.2767178 L228.761216,66.2538304 L229.219099,66.2767178 L229.654094,66.322628 L230.04318,66.4143129 L230.432672,66.5522872 L230.79887,66.7128103 L231.142451,66.919203 L231.462739,67.1718444 L231.737523,67.4470346 L232.012307,67.7455455 L232.218293,68.0666053 L232.424686,68.4109723 L232.561875,68.7782808 L232.675634,69.1681381 L232.767725,69.5583746 L232.813771,69.9944807 L232.836794,70.4305867 L232.813771,70.8666793 L232.767725,71.2794646 L232.675634,71.6926291 L232.561875,72.0599376 L232.401663,72.4272461 L232.218158,72.7712339 L231.989148,73.0926728 L231.737252,73.3907911 L231.600063,73.5516934 L231.462468,73.6892885 L231.302256,73.8039962 L231.14218,73.9187039 L230.798599,74.1254758 L230.432401,74.2859989 L230.042909,74.423594 L229.630936,74.5152789 L229.195941,74.5844828 L228.760945,74.5844828 L228.760945,74.5844828 L228.761216,74.5843067 Z M228.761216,65.3126894 L228.463545,65.3355767 L228.188761,65.3355767 L227.913977,65.3814869 L227.66208,65.4043743 L227.387296,65.4731718 L227.1354,65.5193529 L226.883503,65.6110378 L226.654494,65.6798354 L226.425485,65.7945431 L226.196611,65.886228 L225.967602,66.0009357 L225.761616,66.1389101 L225.555629,66.2765052 L225.372124,66.4370283 L225.166138,66.5979306 L225.006061,66.7813952 L224.822962,66.9648599 L224.66248,67.1487037 L224.502268,67.3550964 L224.365079,67.5385611 L224.227484,67.7682745 L224.113725,67.9746671 L223.998611,68.204367 L223.906519,68.4107596 L223.815782,68.6630219 L223.746714,68.8927353 L223.677646,69.1449975 L223.6316,69.3976389 L223.585554,69.6499011 L223.562532,69.9025425 L223.539509,70.1777327 L223.539509,70.4533021 L223.539509,70.7284923 L223.562532,70.9811337 L223.585554,71.256324 L223.6316,71.5089654 L223.677646,71.7612276 L223.746714,72.013869 L223.815782,72.2431896 L223.906519,72.472903 L223.998611,72.7022237 L224.113725,72.9315444 L224.227484,73.1383162 L224.365079,73.3447089 L224.502268,73.5514807 L224.66248,73.7349454 L224.822962,73.9413381 L225.006061,74.1022539 L225.166138,74.2857186 L225.372124,74.4462417 L225.555629,74.6071575 L225.761616,74.7447526 L225.990489,74.8823477 L226.196476,74.9970555 L226.425349,75.1120341 L226.654359,75.203719 L226.883368,75.2954039 L227.135264,75.3642015 L227.387161,75.432999 L227.661945,75.4789092 L227.913841,75.5248194 L228.188625,75.5477068 L228.463409,75.5705941 L228.761081,75.5705941 L229.035458,75.5705941 L229.310242,75.5477068 L229.585026,75.5248194 L229.85981,75.4789092 L230.111707,75.432999 L230.363603,75.3642015 L230.6155,75.2954039 L230.844509,75.203719 L231.073518,75.1120341 L231.302392,74.9970555 L231.508378,74.8823477 L231.737252,74.7447526 L231.920757,74.6071575 L232.126744,74.4691832 L232.309843,74.3086601 L232.492942,74.1251955 L232.676041,73.9413516 L232.836523,73.757887 L232.973712,73.5514943 L233.111307,73.3447224 L233.248496,73.1383298 L233.36361,72.9315579 L233.47737,72.7022373 L233.569461,72.4729166 L233.660198,72.2432032 L233.729266,72.0138825 L233.798334,71.7612411 L233.84438,71.5089789 L233.913449,71.0040753 L233.936471,70.4533157 L233.913449,69.902556 L233.84438,69.3976524 L233.729266,68.8927623 L233.569054,68.4108003 L233.385955,67.9747078 L233.134059,67.5615432 L232.859275,67.1487579 L232.538581,66.7814494 L232.355482,66.6209263 L232.149495,66.4370824 L231.943103,66.2994873 L231.737116,66.1389642 L231.53113,66.0242565 L231.302121,65.8862822 L231.096135,65.7945973 L230.844238,65.6798895 L230.615229,65.611092 L230.363332,65.519407 L230.111436,65.473226 L229.859539,65.4044285 L229.584755,65.3815411 L229.309971,65.3356309 L229.035187,65.3356309 L228.76081,65.3127435 L228.761216,65.3126894 Z M236.660313,75.3873272 L237.713674,75.3873272 L237.713674,60.8377904 L236.660313,60.8377904 L236.660313,75.3873272 Z M247.788317,71.3485276 L247.788317,71.6925153 L247.742271,72.0368823 L247.673203,72.3579421 L247.581112,72.6335115 L247.467352,72.9316297 L247.329757,73.2071991 L247.169681,73.4594613 L246.986582,73.6891612 L246.757708,73.8955538 L246.505811,74.1023257 L246.231027,74.2628488 L245.956244,74.4004439 L245.658437,74.4921288 L245.338149,74.58422 L244.994567,74.6301302 L244.650986,74.6301302 L244.284788,74.6301302 L243.941207,74.58422 L243.620919,74.4921288 L243.323247,74.4004439 L243.048463,74.2628488 L242.77368,74.1023257 L242.521783,73.9184818 L242.315797,73.6891612 L242.132698,73.4594613 L241.949599,73.2071991 L241.812003,72.9316297 L241.698244,72.6564395 L241.606153,72.3579285 L241.537084,72.0368688 L241.514061,71.6925018 L241.491039,71.348514 L241.491039,65.5194504 L240.438084,65.5194504 L240.438084,71.0729419 L240.461107,71.554904 L240.507152,72.036866 L240.599243,72.4729721 L240.714357,72.8857574 L240.851546,73.2759939 L241.034645,73.6203609 L241.240632,73.9643487 L241.492528,74.2628596 L241.630123,74.4233827 L241.790335,74.5613571 L241.950817,74.6989522 L242.110894,74.8365473 L242.271105,74.951255 L242.454204,75.0659627 L242.63771,75.1580539 L242.843696,75.2268515 L243.049682,75.3185364 L243.255669,75.387334 L243.461655,75.4332442 L243.690664,75.4791543 L244.148953,75.5479519 L244.65234,75.5708393 L245.133111,75.5479519 L245.614287,75.4791543 L245.820274,75.4332442 L246.049283,75.387334 L246.255269,75.3185364 L246.461255,75.2268515 L246.644354,75.1580539 L246.82786,75.0430754 L247.010959,74.9513904 L247.194058,74.8366827 L247.354134,74.6990876 L247.514616,74.5614925 L247.674828,74.4235182 L247.812423,74.2629951 L248.063913,73.9415561 L248.270306,73.6204963 L248.453405,73.2532014 L248.590594,72.8629649 L248.705708,72.4501795 L248.796445,72.0140735 L248.84249,71.5550394 L248.865513,71.0730773 L248.865513,65.5195858 L247.789536,65.5195858 L247.789536,71.3486495 L247.788317,71.3485276 Z M252.642377,62.7423369 L251.589016,62.7423369 L251.589016,73.4136012 L251.589016,73.6433146 L251.612039,73.8726353 L251.658084,74.0794072 L251.70413,74.2628718 L251.773199,74.4463365 L251.86529,74.6072523 L251.979049,74.7677754 L252.094163,74.8824832 L252.231352,74.9971909 L252.368947,75.1121695 L252.529159,75.180967 L252.712258,75.2497646 L252.918651,75.3185622 L253.124637,75.3644723 L253.353646,75.3873597 L253.58252,75.3873597 L254.132088,75.3873597 L254.132088,74.400494 L253.444925,74.400494 L253.261826,74.400494 L253.078727,74.3545838 L253.009658,74.3086737 L252.94059,74.2627635 L252.894544,74.2168533 L252.825476,74.1480558 L252.756408,73.9871399 L252.687339,73.8036752 L252.641294,73.5743546 L252.641294,73.3217132 L252.641294,66.4599211 L255.388984,66.4599211 L255.388984,65.5193041 L252.641294,65.5193041 L252.641294,62.7421771 L252.642377,62.7423369 Z M258.435131,62.1686358 L258.274919,62.1915231 L258.114437,62.2144105 L258.000677,62.2836143 L257.908586,62.3524119 L257.817849,62.4440968 L257.771803,62.5588046 L257.725758,62.6963997 L257.702735,62.8573155 L257.725758,63.0178386 L257.771803,63.1554337 L257.817849,63.2930288 L257.908586,63.3851201 L258.000677,63.4539176 L258.114437,63.4998278 L258.274919,63.545738 L258.435131,63.545738 L258.595207,63.545738 L258.732802,63.4998278 L258.869991,63.4539176 L258.962082,63.3851201 L259.052819,63.2930288 L259.098865,63.1554337 L259.144911,63.0178386 L259.144911,62.8573155 L259.144911,62.7423369 L259.121888,62.6276292 L259.075842,62.5129215 L259.029796,62.3982137 L258.937705,62.3065288 L258.800516,62.237325 L258.640034,62.1914148 L258.434048,62.1685274 L258.435131,62.1686358 Z M257.885563,75.3873218 L258.984834,75.3873218 L258.984834,65.5194585 L257.885563,65.5194585 L257.885563,75.3873218 Z M267.090297,74.5843 L266.632007,74.5843 L266.197012,74.5150961 L265.762016,74.4234112 L265.395818,74.3087035 L265.189426,74.2170185 L265.029214,74.1253336 L264.846115,74.0336487 L264.685633,73.9186701 L264.525556,73.8039624 L264.365345,73.6892546 L264.22775,73.5516595 L264.067538,73.4136852 L263.815641,73.115567 L263.609655,72.794128 L263.426556,72.4501403 L263.266074,72.0828318 L263.152314,71.6925952 L263.060223,71.3023587 L263.014177,70.8666454 L262.991154,70.4305529 L263.014177,69.9715188 L263.060223,69.5583543 L263.152314,69.1451898 L263.266074,68.7553325 L263.426556,68.4109655 L263.609655,68.0665985 L263.815641,67.7455388 L264.067538,67.4470278 L264.365345,67.1718376 L264.685633,66.9191962 L265.029214,66.7128035 L265.395818,66.5522804 L265.784904,66.4143061 L266.196876,66.3226212 L266.631872,66.276711 L267.090161,66.2538236 L267.548044,66.276711 L267.98304,66.3226212 L268.395012,66.4143061 L268.784504,66.5522804 L269.150702,66.7128035 L269.494284,66.9191962 L269.791955,67.1718376 L270.089355,67.4470278 L270.341252,67.7455388 L270.570261,68.0665985 L270.753766,68.4109655 L270.913978,68.778274 L271.027738,69.1681313 L271.096806,69.5583678 L271.165874,69.9944739 L271.165874,70.43058 L271.165874,70.8666725 L271.096806,71.2794578 L271.027738,71.6926223 L270.913978,72.0599308 L270.753766,72.4272393 L270.570261,72.7712271 L270.341252,73.0926661 L270.089355,73.3907843 L269.791955,73.6892817 L269.471261,73.9186024 L269.127679,74.1253742 L268.784504,74.2858973 L268.395012,74.4234924 L267.98304,74.5151774 L267.548044,74.5843812 L267.090161,74.5843812 L267.090297,74.5843 Z M267.090297,65.3126826 L266.815513,65.33557 L266.540729,65.33557 L266.265945,65.3814801 L265.991161,65.4043675 L265.739264,65.4731651 L265.487368,65.5193461 L265.235471,65.611031 L265.006462,65.6798286 L264.754565,65.7945363 L264.548579,65.8862212 L264.31957,66.000929 L264.113584,66.1389033 L263.907597,66.2764984 L263.701205,66.4370215 L263.518106,66.5979238 L263.335007,66.7813885 L263.151908,66.9648531 L262.991425,67.148697 L262.854236,67.3550896 L262.69416,67.5385543 L262.579046,67.7682677 L262.465286,67.9746604 L262.350172,68.2043602 L262.258081,68.4107529 L262.167344,68.6630151 L262.098276,68.8927285 L262.029207,69.1449907 L261.983162,69.3976321 L261.937116,69.6498943 L261.914093,69.9025357 L261.89107,70.1777259 L261.89107,70.4532953 L261.89107,70.7284856 L261.914093,70.981127 L261.937116,71.2563172 L261.983162,71.5089586 L262.029207,71.7612208 L262.098276,72.0138622 L262.167344,72.2431829 L262.258081,72.4728963 L262.350172,72.7022169 L262.465286,72.9315376 L262.579046,73.1383095 L262.69416,73.3447021 L262.854236,73.551474 L262.991425,73.7349386 L263.151908,73.9413313 L263.335007,74.1022471 L263.518106,74.2857118 L263.724092,74.4462349 L263.907597,74.6071508 L264.113584,74.7447459 L264.342457,74.882341 L264.548444,74.9970487 L264.777453,75.1120273 L265.006327,75.2037122 L265.258223,75.2953971 L265.487097,75.3641947 L265.738993,75.4329923 L266.013777,75.4789024 L266.265674,75.5248126 L266.540458,75.5477 L266.815242,75.5705874 L267.090026,75.5705874 L267.387426,75.5705874 L267.66221,75.5477 L267.936994,75.5248126 L268.211778,75.4789024 L268.463675,75.4329923 L268.715571,75.3641947 L268.967468,75.2953971 L269.196341,75.2037122 L269.425351,75.1120273 L269.654224,74.9970487 L269.883233,74.882341 L270.08922,74.7447459 L270.295206,74.6071508 L270.478712,74.4691765 L270.684698,74.3086533 L270.867797,74.1251887 L271.027873,73.9413448 L271.188356,73.7578802 L271.348567,73.5514875 L271.486162,73.3676437 L271.599922,73.138323 L271.737517,72.9315511 L271.828254,72.7251585 L271.943368,72.4958378 L272.012436,72.2431964 L272.081505,72.0138757 L272.150573,71.7612343 L272.196619,71.5089721 L272.242665,71.2563307 L272.265687,71.0040685 L272.28871,70.7284991 L272.28871,70.4533089 L272.265687,69.9025493 L272.196619,69.3976456 L272.150573,69.1450042 L272.081505,68.892742 L272.012436,68.6630286 L271.943368,68.4107664 L271.737382,67.9746739 L271.485485,67.5615094 L271.187678,67.1487241 L270.866984,66.7814155 L270.683885,66.6208924 L270.500786,66.4370486 L270.294394,66.2994535 L270.088407,66.1389304 L269.882421,66.0242226 L269.653412,65.8862483 L269.424538,65.7945634 L269.195529,65.6798557 L268.966655,65.6110581 L268.714758,65.5193732 L268.462862,65.4731922 L268.210965,65.4043946 L267.936181,65.3815072 L267.661398,65.335597 L267.386614,65.335597 L267.089213,65.3127097 L267.090297,65.3126826 Z M279.225413,65.3126826 L278.744643,65.33557 L278.28676,65.4043675 L277.851764,65.5193461 L277.439385,65.6569412 L277.233399,65.7486261 L277.0503,65.8403111 L276.867201,65.9550188 L276.706718,66.0699974 L276.523619,66.2075925 L276.363543,66.3451876 L276.225948,66.5057107 L276.088759,66.6666266 L276.088759,65.4963098 L275.012511,65.4963098 L275.012511,75.3871051 L276.088759,75.3871051 L276.088759,69.3287154 L276.088759,68.9843484 L276.134805,68.6629094 L276.203873,68.3647912 L276.295964,68.0662803 L276.409724,67.8140181 L276.570207,67.5384487 L276.730418,67.309128 L276.936405,67.0794146 L277.165414,66.8959499 L277.394423,66.7354268 L277.64632,66.5978317 L277.944126,66.4598574 L278.21891,66.3681725 L278.539604,66.2993749 L278.88278,66.2764876 L279.226361,66.2536002 L279.569943,66.2764876 L279.913118,66.3223977 L280.233812,66.3911953 L280.531619,66.505903 L280.829019,66.6208816 L281.080916,66.8043463 L281.332812,66.9878109 L281.561686,67.2175243 L281.767672,67.446845 L281.928155,67.6994864 L282.088366,67.9746766 L282.20348,68.250246 L282.294217,68.5483642 L282.363286,68.8698032 L282.386308,69.190863 L282.409331,69.5352299 L282.409331,75.387227 L283.439805,75.387227 L283.439805,69.810802 L283.416782,69.32884 L283.370736,68.8698059 L283.301668,68.4337134 L283.187908,68.0205489 L283.027426,67.6306915 L282.844327,67.263383 L282.63834,66.9419441 L282.386444,66.6208843 L282.249255,66.4599685 L282.088773,66.3223734 L281.928561,66.1847782 L281.768078,66.0471831 L281.607867,65.9322046 L281.424768,65.8174968 L281.241669,65.7258119 L281.035276,65.634127 L280.82929,65.5653294 L280.623303,65.4965319 L280.417317,65.4503508 L280.188308,65.4044406 L279.730425,65.3356431 L279.226632,65.3127557 L279.225413,65.3126826 Z M291.337615,70.0631536 L289.300056,69.512394 L288.819286,69.3747989 L288.406907,69.2142758 L288.246695,69.145072 L288.063596,69.053387 L287.926001,68.9617021 L287.788812,68.8469944 L287.673698,68.7553094 L287.582961,68.6403308 L287.49087,68.5256231 L287.421802,68.4109154 L287.375756,68.2962077 L287.329711,68.1814999 L287.306688,68.0435256 L287.306688,67.9059305 L287.306688,67.7454074 L287.329711,67.5615635 L287.375756,67.4239684 L287.421802,67.2863733 L287.49087,67.1487782 L287.559939,67.0337996 L287.650676,66.9190919 L287.76579,66.827407 L287.879549,66.7357221 L288.040032,66.6669245 L288.177221,66.6210143 L288.36032,66.5522168 L288.543825,66.5289231 L288.749811,66.4830129 L288.955798,66.4830129 L289.207694,66.4601256 L290.993749,66.4601256 L291.314037,66.4830129 L291.611844,66.5059003 L291.909515,66.5520813 L292.161412,66.6208789 L292.413308,66.7125638 L292.619294,66.8272716 L292.825281,66.9648667 L293.00838,67.1257825 L293.054425,67.1716927 L293.970598,66.6209331 L293.924552,66.5521355 L293.672655,66.2994941 L293.420759,66.0931014 L293.100065,65.9092576 L292.779371,65.7716625 L292.390285,65.6569548 L292.0012,65.5652698 L291.565933,65.5193596 L291.085163,65.4964723 L289.528429,65.4964723 L289.11605,65.5193596 L288.749852,65.542247 L288.40627,65.5881572 L288.085983,65.6569548 L287.788311,65.7486397 L287.513527,65.8403246 L287.284518,65.9550323 L287.055644,66.0930066 L286.872545,66.2535298 L286.68904,66.4140529 L286.551851,66.6208247 L286.436737,66.8272174 L286.346,67.056538 L286.276932,67.3091795 L286.253909,67.5614417 L286.230886,67.8599526 L286.253909,68.0892733 L286.276932,68.2960451 L286.322978,68.5253658 L286.392046,68.7092097 L286.482783,68.9156023 L286.597897,69.099067 L286.735086,69.2829108 L286.895162,69.4434339 L287.055644,69.603957 L287.238743,69.7415522 L287.467753,69.8795265 L287.696626,70.0171216 L287.948523,70.1318293 L288.223307,70.246537 L288.521114,70.3386282 L288.818785,70.4303132 L290.787925,70.9352032 L291.314199,71.0957264 L291.772489,71.279191 L291.978475,71.3941696 L292.161574,71.4858545 L292.32165,71.6005623 L292.482133,71.71527 L292.595892,71.8528651 L292.733488,71.9678437 L292.824224,72.1054388 L292.893293,72.2430339 L292.962361,72.403557 L293.008407,72.5415313 L293.03143,72.7020544 L293.03143,72.8625775 L293.03143,73.0693494 L293.008407,73.2298725 L292.962361,73.3903956 L292.893293,73.5512979 L292.801202,73.688893 L292.710465,73.8264881 L292.595351,73.9411959 L292.458162,74.0332871 L292.297679,74.124972 L292.137603,74.1937696 L291.931617,74.2625671 L291.72563,74.3084773 L291.496621,74.3543875 L291.244725,74.4002976 L290.969941,74.4002976 L290.695157,74.4002976 L289.023756,74.4002976 L288.725949,74.4002976 L288.451165,74.3774103 L288.176381,74.3086127 L287.924484,74.2398152 L287.695475,74.1481302 L287.489489,74.0101559 L287.283502,73.8725608 L287.100403,73.7120377 L287.054358,73.6661275 L286.138592,74.1939592 L286.184638,74.2856441 L286.299752,74.4232392 L286.413511,74.5379469 L286.551106,74.6759212 L286.688295,74.7676062 L287.008989,74.9510708 L287.352571,75.1119867 L287.718769,75.2266944 L288.130742,75.3183793 L288.566143,75.3642895 L289.024026,75.3871769 L290.0545,75.3871769 L290.53527,75.3642895 L290.993153,75.3414021 L291.428149,75.2954919 L291.817234,75.2266944 L292.183838,75.1350095 L292.504533,75.0200309 L292.801933,74.8824358 L293.076717,74.7448407 L293.305726,74.561376 L293.511712,74.3775322 L293.695218,74.1482115 L293.832407,73.9184981 L293.947521,73.6662359 L294.038258,73.4135945 L294.084303,73.1154763 L294.084303,72.7940373 L294.084303,72.5647166 L294.038258,72.3350032 L293.992212,72.1056826 L293.923144,71.8992899 L293.808029,71.692518 L293.69427,71.4861254 L293.556675,71.3022815 L293.396463,71.1188169 L293.213364,70.9582938 L293.006971,70.7973779 L292.778098,70.6597828 L292.526201,70.5221877 L292.251823,70.3845926 L291.97704,70.269614 L291.656345,70.1549063 L291.335651,70.0632213 L291.337615,70.0631536 Z M62.4849528,53.3793719 L68.4611674,53.3793719 L68.4611674,8.83536409 L62.4849528,8.83536409 L62.4849528,53.3793719 Z M88.4269811,21.6406825 L87.9232287,21.6637689 L87.4424177,21.6867917 L86.9615933,21.7096791 L86.5037103,21.7555893 L86.0458274,21.8243868 L85.5879445,21.9162072 L85.1529895,22.0080275 L84.7176554,22.1227353 L84.2827005,22.237443 L83.8706736,22.398088 L83.4582675,22.5357914 L83.0691821,22.7193644 L82.6800967,22.9029374 L82.2906321,23.0865511 L81.9244748,23.2930927 L81.5579382,23.5225759 L81.5579382,22.0997287 L75.7422522,22.0997287 L75.7422522,53.3792622 L81.5579382,53.3792622 L81.5579382,34.5841525 L81.5579382,34.1480465 L81.5808256,33.75781 L81.6267358,33.3446454 L81.6726459,32.9544089 L81.7410372,32.5874932 L81.8327221,32.2431262 L81.9244071,31.8758177 L82.0387085,31.5547579 L82.1534162,31.210391 L82.2906321,30.9121509 L82.4282272,30.6138024 L82.6112992,30.315454 L82.7714431,30.0171461 L82.9774565,29.7646943 L83.1838492,29.4893145 L83.4127907,29.2368627 L83.6417321,29.0073795 L83.8936016,28.7778964 L84.1454846,28.5942827 L84.3973541,28.3877411 L84.6717859,28.2270961 L84.9695249,28.0664511 L85.2672639,27.9287748 L85.5650029,27.814067 L85.8856699,27.6992239 L86.2059578,27.6074035 L86.5495663,27.5155831 L86.8927822,27.4467856 L87.2593187,27.4008754 L87.6254761,27.3549652 L88.0149542,27.3319424 L88.4269676,27.3319424 L88.8164457,27.3319424 L89.1826031,27.3549652 L89.5491397,27.4008754 L89.915297,27.469673 L90.2589056,27.5384705 L90.602135,27.6302909 L90.922802,27.7449986 L91.243469,27.8827156 L91.5637568,28.020392 L91.8614958,28.181037 L92.1363069,28.3646506 L92.4340459,28.5482236 L92.6859153,28.7777474 L92.9607263,29.0072306 L93.1896678,29.2596824 L93.4415508,29.5350622 L93.6704923,29.810442 L93.8765057,30.0858218 L94.0825192,30.3841703 L94.2655911,30.7054603 L94.4261142,31.0267773 L94.5862581,31.3478371 L94.723474,31.6922041 L94.8381818,32.036571 L94.9295959,32.3805588 L95.0443036,32.7478673 L95.1131011,33.1381038 L95.1814924,33.5283403 L95.2274026,33.9411256 L95.2733128,34.3542902 L95.2733128,34.7674547 L95.2962001,35.2035472 L95.2962001,53.3792622 L101.066022,53.3792622 L101.066022,35.9607035 L101.043135,35.2035513 L100.997631,34.4460198 L100.951721,33.7347235 L100.860036,33.0234408 L100.745734,32.3346933 L100.608139,31.6463386 L100.470923,31.0038534 L100.287851,30.3612057 L100.081459,29.7416079 L99.8525172,29.1449381 L99.5777062,28.5712098 L99.3032743,27.9974816 L99.0055353,27.4696499 L98.6848683,26.9418183 L98.3416525,26.4369553 L97.9751159,25.9320517 L97.517233,25.4271887 L97.0593501,24.9452673 L96.5785391,24.4862738 L96.0747867,24.0731906 L95.5710342,23.683076 L95.0214121,23.338858 L94.4488621,23.017568 L93.8537633,22.7192195 L93.2582852,22.4667677 L92.6173169,22.2602261 L91.9763485,22.0766531 L91.3120729,21.9160081 L90.602307,21.8013004 L89.892541,21.70948 L89.1598471,21.6635698 L88.4271531,21.6406825 L88.4269811,21.6406825 Z M114.140067,14.2972018 L108.324381,14.2972018 L108.324381,46.2420076 L108.324381,46.6781137 L108.347268,47.0683502 L108.369884,47.4815147 L108.438682,47.8484305 L108.484592,48.238667 L108.576277,48.583034 L108.667691,48.9499497 L108.782399,49.2713887 L108.8967,49.6157557 L109.034296,49.9138739 L109.171511,50.2123848 L109.332035,50.5105031 L109.492178,50.7860725 L109.698192,51.0383347 L109.881264,51.2909761 L110.110205,51.5202967 L110.316219,51.7500101 L110.568088,51.9564028 L110.819958,52.1398675 L111.071827,52.3237113 L111.346638,52.4842344 L111.644377,52.6447575 L111.942116,52.7827318 L112.239855,52.920327 L112.560143,53.0120119 L112.903752,53.1267196 L113.246981,53.1955172 L113.613518,53.264721 L113.979675,53.3106312 L114.346211,53.3565414 L114.735297,53.3794287 L115.147703,53.3794287 L118.101411,53.3794287 L118.101411,47.6191626 L114.712367,47.6191626 L114.643976,47.6191626 L114.552291,47.5962753 L114.460877,47.5274777 L114.369192,47.41277 L114.323282,47.3206788 L114.277372,47.2289938 L114.231462,47.0913987 L114.208845,46.9308756 L114.162935,46.5177111 L114.140048,45.9898795 L114.140048,27.9290321 L121.421123,27.9290321 L121.421123,22.1688418 L114.140048,22.1688418 L114.140048,14.2972018 L114.140067,14.2972018 Z M132.480354,34.5380148 L132.571091,34.1940271 L132.663182,33.8496601 L132.778296,33.5056723 L132.892056,33.1842334 L133.029245,32.8627944 L133.16684,32.5417347 L133.304029,32.2432237 L133.464511,31.9451055 L133.64761,31.6465945 L133.807822,31.3714043 L133.991327,31.0729069 L134.197313,30.8204551 L134.4033,30.5450753 L134.632174,30.2926235 L134.861047,30.0401717 L135.090056,29.7877605 L135.410751,29.489412 L135.731038,29.2140322 L136.07462,28.9386524 L136.441089,28.7091286 L136.784264,28.4796454 L137.150733,28.2731038 L137.539818,28.1124588 L137.928904,27.9288858 L138.341283,27.7911688 L138.753255,27.6764611 L139.165228,27.5617533 L139.623111,27.4929558 L140.058377,27.4240228 L140.51626,27.3781126 L140.997031,27.3322025 L141.500824,27.3322025 L141.981594,27.3322025 L142.439477,27.3781126 L142.920247,27.4240228 L143.355243,27.4929558 L143.790238,27.5617533 L144.225505,27.6764611 L144.637478,27.7911688 L145.04945,27.9288858 L145.438942,28.1124588 L145.80514,28.2731038 L146.171744,28.4796454 L146.537942,28.7091286 L146.881524,28.9386524 L147.224699,29.2140322 L147.545393,29.489412 L147.866087,29.7877605 L148.32397,30.2926235 L148.758966,30.7974865 L148.942065,31.0729069 L149.12557,31.3714043 L149.308669,31.6465945 L149.468745,31.9451055 L149.789439,32.5417347 L150.041336,33.1842334 L150.270209,33.8496601 L150.453308,34.5380148 L132.479569,34.5380148 L132.480354,34.5380148 Z M141.524551,21.6408815 L140.700199,21.6637689 L139.875712,21.7096791 L139.074654,21.8014994 L138.296077,21.9391758 L137.540522,22.0998208 L136.784833,22.3063624 L136.075053,22.5358727 L135.365274,22.8112525 L134.678382,23.1095739 L134.014106,23.4538325 L133.373124,23.8439471 L132.732142,24.2570439 L132.136664,24.7159967 L131.541592,25.1979182 L130.992025,25.7257498 L130.442457,26.2765501 L129.938664,26.8502377 L129.457893,27.4469481 L129.00001,28.0665459 L128.588038,28.7091124 L128.221433,29.3746474 L127.878218,30.0401554 L127.557551,30.728632 L127.282739,31.4401856 L127.03087,32.1744099 L126.801929,32.9315622 L126.618857,33.6891072 L126.481262,34.469201 L126.36696,35.2726021 L126.275275,36.0985519 L126.229365,36.9478225 L126.206478,37.7970931 L126.229365,38.6689125 L126.275275,39.518183 L126.36696,40.3441329 L126.481262,41.1704619 L126.641785,41.9505557 L126.824857,42.7310288 L127.03087,43.4881811 L127.305681,44.2227845 L127.580492,44.9340808 L127.90078,45.6224355 L128.267316,46.3111695 L128.656402,46.9536682 L129.068781,47.5961534 L129.526664,48.2157106 L130.007434,48.7894117 L130.534115,49.3631129 L131.083276,49.9138725 L131.655867,50.4187761 L132.251345,50.9007382 L132.869439,51.3368307 L133.510828,51.7499953 L134.174697,52.116911 L134.838566,52.461278 L135.548346,52.7597889 L136.258125,53.0349792 L136.990792,53.264679 L137.746346,53.4710717 L138.524923,53.6315948 L139.3035,53.7463025 L140.127581,53.8383937 L140.951933,53.8843039 L141.799308,53.9071913 L142.829375,53.8843039 L143.836826,53.8383937 L144.798502,53.7463025 L145.737155,53.6087074 L146.63044,53.4481843 L147.523318,53.2417916 L147.935291,53.1268131 L148.370557,53.0121053 L148.78253,52.8745102 L149.171615,52.7369151 L149.583995,52.5759993 L149.97308,52.4154761 L150.339684,52.254953 L150.72877,52.0711092 L151.095374,51.8876445 L151.438549,51.6812519 L151.782131,51.47448 L152.125306,51.2680874 L152.468887,51.0383875 L152.789581,50.8090668 L153.109869,50.5797462 L153.430563,50.3271048 L153.72837,50.0519145 L154.026041,49.7992731 L154.300419,49.5240829 L154.575203,49.2255855 L155.765753,47.9635296 L151.530126,43.8096864 L150.293666,45.1405398 L149.972972,45.4849068 L149.606774,45.7834042 L149.194395,46.0815224 L148.736512,46.3800198 L148.232718,46.6322821 L147.683421,46.8849235 L147.110831,47.1142441 L146.492465,47.3435648 L145.897394,47.5274086 L145.301916,47.6879318 L144.706844,47.8255269 L144.134253,47.9405054 L143.538775,48.0321904 L142.966591,48.0781006 L142.371113,48.1240107 L141.798928,48.1240107 L141.272248,48.1240107 L140.768455,48.1011234 L140.264662,48.0552132 L139.783891,47.9635283 L139.326008,47.8947307 L138.868126,47.7797521 L138.409836,47.642157 L137.997864,47.5045619 L137.562868,47.320718 L137.173783,47.1372534 L136.784291,46.9308607 L136.395206,46.6782193 L136.028737,46.4259571 L135.685562,46.1503877 L135.34198,45.8751975 L135.021286,45.5537585 L134.769389,45.2785683 L134.517493,45.0259269 L134.288619,44.7278087 L134.082633,44.4522393 L133.876646,44.1537283 L133.67066,43.8556101 L133.510584,43.5341711 L133.327079,43.2131114 L133.167002,42.8916724 L133.029407,42.5473054 L132.892218,42.2033177 L132.778459,41.8360092 L132.663345,41.4687142 L132.571253,41.1017984 L132.480517,40.7115619 L132.388425,40.3213254 L156.17824,40.3213254 L156.544438,39.0134135 L156.613506,38.623177 L156.682575,38.2100125 L156.72862,37.7742991 L156.72862,37.3152651 L156.705598,36.4889225 L156.659552,35.6629727 L156.567461,34.8595716 L156.453701,34.0794778 L156.316106,33.3219328 L156.11012,32.5877085 L155.904133,31.853105 L155.652237,31.1418087 L155.35443,30.4533727 L155.033736,29.7648961 L154.690561,29.1223297 L154.301069,28.4797633 L153.889096,27.8601248 L153.431213,27.263455 L152.950443,26.6667852 L152.423762,26.1160256 L151.874195,25.5652253 L151.325033,25.0603623 L150.729555,24.6013689 L150.134077,24.1653441 L149.516118,23.7752295 L148.875136,23.4080428 L148.21086,23.0637842 L147.546991,22.7654629 L146.837212,22.5130111 L146.150319,22.2835279 L145.417653,22.0769862 L144.662098,21.9392828 L143.906409,21.8016064 L143.127832,21.7097861 L142.326367,21.6638759 L141.525309,21.6408815 L141.524551,21.6408815 Z M163.963252,53.3793719 L169.801875,53.3793719 L169.801875,8.83536409 L163.963252,8.83536409 L163.963252,53.3793719 Z M180.448676,12.6678076 L180.059591,12.6908304 L179.692986,12.7367406 L179.349811,12.828561 L179.029117,12.9203813 L178.73131,13.0580983 L178.456526,13.2187433 L178.205036,13.4023163 L177.975756,13.6088579 L177.76977,13.8613097 L177.586671,14.1137616 L177.426595,14.3891414 L177.288999,14.7104314 L177.198262,15.0317214 L177.129194,15.3759393 L177.083148,15.743126 L177.060126,16.1103126 L177.083148,16.5004272 L177.129194,16.8905825 L177.198262,17.2348005 L177.288999,17.5560905 L177.426595,17.8773805 L177.586671,18.1757289 L177.76977,18.4281401 L177.975756,18.6805919 L178.205036,18.8871335 L178.456526,19.0707471 L178.73131,19.2313921 L179.029117,19.3690685 L179.349811,19.4837762 L179.692986,19.5527092 L180.059591,19.5986194 L180.448676,19.6216422 L180.838168,19.5986194 L181.204366,19.5527092 L181.547947,19.4837762 L181.868641,19.3690685 L182.166042,19.2313921 L182.463848,19.0707471 L182.715745,18.8871335 L182.967642,18.6805919 L183.173628,18.4281401 L183.356727,18.1757289 L183.517209,17.8773805 L183.654398,17.5560905 L183.769512,17.2348005 L183.838581,16.8905825 L183.884626,16.5004272 L183.907649,16.1103126 L183.884626,15.743126 L183.838581,15.3759393 L183.769512,15.0317214 L183.654398,14.7104314 L183.517209,14.3891414 L183.356727,14.1137616 L183.173628,13.8613097 L182.967642,13.6088579 L182.715745,13.4023163 L182.463848,13.2187433 L182.166042,13.0580983 L181.868641,12.9203813 L181.547947,12.828561 L181.204366,12.7367406 L180.838168,12.6908304 L180.448676,12.6678076 Z M177.56377,53.3793719 L183.379452,53.3793719 L183.379452,22.1687118 L177.56377,22.1687118 L177.56377,53.3793719 Z M193.087938,10.6253613 L192.859064,10.8778131 L192.629784,11.1072963 L192.446685,11.3597481 L192.240699,11.6351279 L192.080622,11.8875797 L191.92014,12.1858875 L191.782951,12.461308 L191.645356,12.7596158 L191.531596,13.0809058 L191.439505,13.3792542 L191.348768,13.7234722 L191.2797,14.0447622 L191.233654,14.3890208 L191.187608,14.7332388 L191.164586,15.1004255 L191.164586,15.4676121 L191.164586,53.3793827 L197.140804,53.3793827 L197.140804,33.9643313 L211.634539,33.9643313 L211.634539,28.1813227 L197.140804,28.1813227 L197.140804,15.4217087 L197.140804,15.2840323 L197.140804,15.1463289 L197.163827,15.0545085 L197.209873,14.9398008 L197.30061,14.8710032 L197.415724,14.8020702 L197.5758,14.7332727 L197.781786,14.6873625 L214.381864,14.6873625 L214.381864,8.83540472 L197.850584,8.83540472 L197.484386,8.83540472 L197.140804,8.8582921 L196.797223,8.90420227 L196.476935,8.95011245 L196.133353,9.01891 L195.835682,9.08770756 L195.515394,9.17952791 L195.217588,9.29423565 L194.919916,9.40894338 L194.62211,9.54666037 L194.347326,9.68437736 L194.072948,9.84502236 L193.821051,10.0285954 L193.569155,10.2121684 L193.317258,10.41871 L193.088385,10.6252516 L193.087938,10.6253613 Z M223.746416,34.5380148 L223.838507,34.1940271 L223.952267,33.8496601 L224.044358,33.5056723 L224.181547,33.1842334 L224.296661,32.8627944 L224.43385,32.5417347 L224.594332,32.2432237 L224.754409,31.9451055 L224.91462,31.6465945 L225.098125,31.3714043 L225.281224,31.0729069 L225.487211,30.8204551 L225.693197,30.5450753 L225.899184,30.2926235 L226.128193,30.0401717 L226.357067,29.7877605 L226.677761,29.489412 L227.021342,29.2140322 L227.34163,28.9386524 L227.708234,28.7091286 L228.051409,28.4796454 L228.440901,28.2731038 L228.807099,28.1124588 L229.196591,27.9288858 L229.608564,27.7911688 L230.020536,27.6764611 L230.455803,27.5617533 L230.890798,27.4929558 L231.325794,27.4240228 L231.806564,27.3781126 L232.264447,27.3322025 L232.76824,27.3322025 L233.24901,27.3322025 L233.729781,27.3781126 L234.187664,27.4240228 L234.62293,27.4929558 L235.057926,27.5617533 L235.492921,27.6764611 L235.904894,27.7911688 L236.317273,27.9288858 L236.706358,28.1124588 L237.072963,28.2731038 L237.439161,28.4796454 L237.805359,28.7091286 L238.14894,28.9386524 L238.492522,29.2140322 L238.812809,29.489412 L239.133503,29.7877605 L239.591386,30.2926235 L240.003765,30.7974865 L240.392851,31.3714043 L240.736432,31.9451055 L241.05672,32.5417347 L241.308617,33.1842334 L241.423731,33.5056723 L241.53749,33.8496601 L241.629582,34.1940271 L241.720319,34.5380148 L223.746416,34.5380148 L223.746416,34.5380148 Z M232.813554,21.6408815 L231.96618,21.6637689 L231.142099,21.7096791 L230.340634,21.8014994 L229.562057,21.9391758 L228.806503,22.0998208 L228.073836,22.3063624 L227.34117,22.5358727 L226.654277,22.8112525 L225.967385,23.1095739 L225.303516,23.4538325 L224.63924,23.8439471 L224.021146,24.2570439 L223.40278,24.7159967 L222.830596,25.1979182 L222.258005,25.7257498 L221.708438,26.2765501 L221.204644,26.8502377 L220.723874,27.4469481 L220.288879,28.0665459 L219.876906,28.7091124 L219.48782,29.3746474 L219.144239,30.0401554 L218.823545,30.728632 L218.548761,31.4401856 L218.296864,32.1744099 L218.090878,32.9315622 L217.907779,33.6891072 L217.747703,34.469201 L217.632589,35.2726021 L217.56352,36.0985519 L217.517475,36.9478225 L217.494452,37.7970931 L217.517475,38.6689125 L217.56352,39.518183 L217.632589,40.3441329 L217.770184,41.1704619 L217.907373,41.9505557 L218.090472,42.7310288 L218.319345,43.4881811 L218.571242,44.2227845 L218.846026,44.9340808 L219.16672,45.6224355 L219.532918,46.3111695 L219.92241,46.9536682 L220.334382,47.5961534 L220.792265,48.2157106 L221.296059,48.7894117 L221.799852,49.3631129 L222.372442,49.9138725 L222.944627,50.4187761 L223.540105,50.9007382 L224.158199,51.3368307 L224.776565,51.7499953 L225.440434,52.116911 L226.104303,52.461278 L226.814083,52.7597889 L227.524269,53.0349792 L228.256935,53.264679 L229.012219,53.4710717 L229.790796,53.6315948 L230.569373,53.7463025 L231.39386,53.8383937 L232.217941,53.8843039 L233.065316,53.9071913 L234.095789,53.8843039 L235.10324,53.8383937 L236.064916,53.7463025 L237.003569,53.6087074 L237.919335,53.4481843 L238.789191,53.2417916 L239.224457,53.1268131 L239.63643,53.0121053 L240.048403,52.8745102 L240.460782,52.7369151 L240.849867,52.5759993 L241.238952,52.4154761 L241.628444,52.254953 L241.994642,52.0711092 L242.361246,51.8876445 L242.727444,51.6812519 L243.071026,51.47448 L243.414607,51.2680874 L243.734895,51.0383875 L244.078477,50.8090668 L244.376283,50.5797462 L244.696571,50.3271048 L244.994378,50.0519145 L245.292185,49.7992731 L245.566969,49.5240829 L245.841752,49.2255855 L247.032302,47.9635296 L242.796283,43.8096864 L241.582845,45.1405398 L241.239264,45.4849068 L240.873066,45.7834042 L240.461093,46.0815224 L240.00321,46.3800198 L239.522034,46.6322821 L238.972737,46.8849235 L238.400146,47.1142441 L237.782051,47.3435648 L237.186573,47.5274086 L236.591095,47.6879318 L235.996024,47.8255269 L235.400546,47.9405054 L234.805474,48.0321904 L234.232883,48.0781006 L233.637811,48.1240107 L233.065221,48.1240107 L232.53854,48.1240107 L232.034747,48.1011234 L231.530954,48.0552132 L231.050184,47.9635283 L230.592301,47.8947307 L230.134418,47.7797521 L229.699422,47.642157 L229.264156,47.5045619 L228.852183,47.320718 L228.463098,47.1372534 L228.050719,46.9308607 L227.684521,46.6782193 L227.317916,46.4259571 L226.974741,46.1503877 L226.63116,45.8751975 L226.310872,45.5537585 L226.058975,45.2785683 L225.807079,45.0259269 L225.57807,44.7278087 L225.371677,44.4522393 L225.142668,44.1537283 L224.959569,43.8556101 L224.77647,43.5341711 L224.615987,43.2131114 L224.432888,42.8916724 L224.2957,42.5473054 L224.158104,42.2033177 L224.044345,41.8360092 L223.929231,41.4687142 L223.815471,41.1017984 L223.72338,40.7115619 L223.654311,40.3213254 L247.444126,40.3213254 L247.787708,39.0134135 L247.878444,38.646105 L247.947513,38.2329405 L247.993558,37.7742856 L247.993558,37.3152515 L247.970536,36.488909 L247.92449,35.6629591 L247.855422,34.8595581 L247.718233,34.0794643 L247.580638,33.3219192 L247.397539,32.5876949 L247.168665,31.8530915 L246.916768,31.1417952 L246.641984,30.4533592 L246.321697,29.7648826 L245.955228,29.1223161 L245.566142,28.4797497 L245.153763,27.8601113 L244.69588,27.2634415 L244.21511,26.6667717 L243.68843,26.116012 L243.162155,25.5652118 L242.589565,25.0603488 L241.994087,24.6013554 L241.399015,24.1653306 L240.78065,23.7752159 L240.139668,23.4080293 L239.475798,23.0637707 L238.811523,22.7654493 L238.124631,22.5129975 L237.414851,22.2835143 L236.682184,22.0769727 L235.949518,21.9392693 L235.17094,21.8015929 L234.415386,21.7097725 L233.614328,21.6638624 L232.812864,21.6408815 L232.813554,21.6408815 Z M268.852773,22.0539783 L268.646787,22.0539783 L268.097219,22.0539783 L267.548058,22.0998885 L267.021377,22.1457987 L266.494697,22.2147317 L265.968016,22.306552 L265.487246,22.4212598 L264.983453,22.5361029 L264.502682,22.6967479 L264.0448,22.8573929 L263.564029,23.0409659 L263.129034,23.2475075 L262.671151,23.4769907 L262.258772,23.7294425 L261.823776,23.9818943 L261.411803,24.2802022 L261.022312,24.5785506 L261.022312,22.1689163 L255.252486,22.1689163 L255.252486,53.3795763 L261.022312,53.3795763 L261.022312,39.2428263 L261.022312,38.5544715 L261.045335,37.8661168 L261.09138,37.2236316 L261.160449,36.5807537 L261.229517,35.9841245 L261.320254,35.3874953 L261.435368,34.8137942 L261.572557,34.2630345 L261.710152,33.7352029 L261.870228,33.2532408 L262.053327,32.7712788 L262.236426,32.3122447 L262.442819,31.8761386 L262.671828,31.4404253 L262.923724,31.0501888 L263.198508,30.6829616 L263.449999,30.3387436 L263.724783,30.0403951 L263.999567,29.7420873 L264.297373,29.4667075 L264.572157,29.2142557 L264.869964,28.9847319 L265.167364,28.7782309 L265.488058,28.5946172 L265.808753,28.4339723 L266.129447,28.2962959 L266.449734,28.1585924 L266.793316,28.0667721 L267.136491,27.9749517 L267.480073,27.9290415 L267.846271,27.8831314 L268.212875,27.8601086 L269.678263,28.0437222 L270.548118,28.1584299 L270.960498,28.2272275 L271.097686,28.2502503 L271.166755,27.9748705 L271.143732,28.2502503 L273.364742,28.6403649 L273.364742,22.7195324 L271.876426,22.4900492 L270.731651,22.3294042 L269.861389,22.1917007 L269.220407,22.1229032 L268.853803,22.0539783 L268.852773,22.0539783 Z M293.695949,27.9289075 L293.695949,22.1687172 L286.437428,22.1687172 L286.437428,14.2972073 L280.598804,14.2972073 L280.598804,46.242013 L280.621827,46.6781191 L280.64485,47.0683556 L280.667873,47.4815201 L280.713919,47.8484359 L280.782987,48.2386724 L280.873724,48.5830394 L280.965815,48.9499552 L281.056552,49.2713941 L281.171666,49.5928331 L281.308855,49.9138928 L281.469337,50.2124038 L281.629549,50.510522 L281.789625,50.7860914 L281.97313,51.0383536 L282.179117,51.290995 L282.385103,51.5203157 L282.614112,51.7500291 L282.866009,51.9564218 L283.094883,52.1398864 L283.369667,52.3237303 L283.644451,52.4842534 L283.919234,52.6447765 L284.216635,52.7827508 L284.537329,52.8974585 L284.858023,53.0121663 L285.201198,53.126874 L285.54478,53.1956716 L285.888361,53.2648754 L286.254559,53.3107856 L286.644051,53.3566957 L287.033136,53.3795831 L287.445109,53.3795831 L290.375885,53.3795831 L290.375885,47.619317 L287.010168,47.619317 L286.941099,47.619317 L286.850362,47.5964297 L286.758271,47.5276321 L286.66618,47.4129244 L286.620134,47.3208332 L286.574089,47.2291482 L286.528043,47.0915531 L286.50502,46.93103 L286.458975,46.5178655 L286.435952,45.9900339 L286.435952,27.9291865 L293.694473,27.9291865 L293.695949,27.9289075 Z M42.2901963,79.4265128 L42.0612548,79.4265128 L41.7864438,79.4036254 L41.4657768,79.3344216 L41.0766914,79.265624 L40.1838535,79.0592314 L39.1304926,78.783662 L37.9169647,78.4167123 L36.5658566,77.9806117 L35.1004687,77.4757148 L33.520801,76.879087 L31.8723345,76.2365937 L30.1549566,75.5249223 L28.3919055,74.767766 L26.605959,73.9184994 L25.6901105,73.4827807 L24.7971562,73.023748 L23.8812698,72.5647166 L22.9883155,72.0827505 L22.0724291,71.6007857 L21.2023703,71.0958889 L20.309378,70.5680586 L19.4393179,70.0402283 L18.7524122,69.6041277 L18.0655066,69.1680284 L17.4015018,68.7093735 L16.7375242,68.2274115 L16.0964068,67.7683774 L15.4781768,67.2864153 L14.8599604,66.8044532 L14.264672,66.3224912 L13.0969418,65.358567 L11.9979009,64.3717013 L10.9675492,63.3852149 L10.0058732,62.4212907 L9.11292701,61.4802946 L8.31154386,60.5851544 L7.57884991,59.7133351 L6.91484518,58.887006 L6.36530441,58.1069122 L5.88448671,57.3952367 L5.67840012,57.0741769 L5.51813974,56.752738 L5.35784144,56.4775478 L5.24336394,56.2019784 L43.5266413,56.2019784 L43.7785108,56.2019784 L44.0074523,56.2478885 L44.2363937,56.3166861 L44.4653352,56.3854836 L44.6942766,56.5004622 L44.8773486,56.61517 L45.0608132,56.7527651 L45.2438851,56.9132882 L45.404029,57.097132 L45.5416242,57.2805967 L45.6559256,57.4873686 L45.7706333,57.6937612 L45.8620474,57.9230819 L45.9079576,58.1527817 L45.9538678,58.3821024 L45.9538678,58.6347438 L45.9538678,75.754633 L45.9538678,76.3283342 L45.8850702,76.8332378 L45.7936561,77.2922719 L45.6789484,77.6821292 L45.6101508,77.865973 L45.5187368,78.0264961 L45.4270518,78.1870193 L45.3356378,78.3249936 L45.22093,78.4625887 L45.1292451,78.5772964 L45.0149437,78.6920041 L44.8773486,78.8067119 L44.6254791,78.9676277 L44.3510473,79.1281508 L44.0303803,79.2198357 L43.7097132,79.3115207 L43.3894254,79.3807245 L43.0228888,79.4036119 L42.6792803,79.4265128 L42.2901949,79.4265128 L42.2901963,79.4265128 Z" id="intelifert_svg_text"></path>
        </g>
    </g>
</svg>