<?xml version="1.0" encoding="UTF-8"?>
<svg width="255px" height="80px" viewBox="0 0 255 80" version="1.1" xmlns="http://www.w3.org/2000/svg" xmlns:xlink="http://www.w3.org/1999/xlink">
    <title>procrop-logo</title>
    <g id="Page-1" stroke="none" stroke-width="1" fill="none" fill-rule="evenodd">
        <g id="procrop-logo" fill="#000000" fill-rule="nonzero">
            <path d="M3.86759175e-05,28.1814101 L39.6192863,28.1814101 L40.0555249,28.2033342 L40.4702983,28.2688254 L40.8628847,28.3780204 L41.233632,28.509106 L41.6047532,28.7056828 L41.9536745,28.9022983 L42.2807696,29.1426175 L42.5645606,29.4047629 L42.8479906,29.7105347 L43.0881294,30.0383518 L43.284603,30.3880078 L43.4588767,30.7372901 L43.6116853,31.1305984 L43.7208803,31.5239066 L43.7645841,31.9390539 L43.7863715,32.3538274 L43.7863715,45.9858249 L43.7863715,46.313642 L43.7208803,46.6196329 L43.655389,46.9034239 L43.546194,47.2094149 L43.4152116,47.4713798 L43.262764,47.7337056 L43.0662904,47.9738444 L42.8698167,48.192518 L42.6518779,48.4108178 L42.4117391,48.5854654 L42.1501352,48.7386349 L41.8663442,48.8696173 L41.5829142,48.9788123 L41.2772842,49.066091 L40.9720281,49.1097948 L40.6663981,49.1315822 L7.09046885,49.1315822 L6.52324785,49.1097948 L5.95598816,49.066091 L5.36696683,49.0005998 L4.7779094,48.9133211 L4.16702199,48.7823387 L3.57796457,48.6291563 L3.0107384,48.4326826 L2.46530612,48.2143828 L2.20352301,48.0830394 L1.96353379,47.952057 L1.72354456,47.8210745 L1.48355534,47.668266 L1.26539738,47.5150836 L1.0690333,47.340436 L0.872705319,47.1657885 L0.698171217,46.9689538 L0.545430994,46.7943063 L0.414558136,46.5756326 L0.283649179,46.3573329 L0.1745702,46.1390331 L0.109117655,45.8985333 L0.0436651109,45.6583946 L0.0218390014,45.3960687 L3.86759175e-05,45.1341038 L3.86759175e-05,28.1814101 L3.86759175e-05,28.1814101 Z M3.49072665,0 L3.75250975,0.0218261095 L4.07978408,0.0436908948 L4.42885228,0.0873817897 L4.84333951,0.174737795 L5.75967127,0.371357136 L6.85049974,0.655371158 L8.0722333,1.0049125 L9.42488226,1.44181242 L10.8866089,1.94427576 L12.4355859,2.51226642 L14.0500166,3.14582049 L15.7299038,3.84490317 L17.4752448,4.63134314 L19.2424158,5.46148046 L20.1369125,5.89841648 L21.009583,6.35718248 L21.9040409,6.837821 L22.7985375,7.31842084 L23.6929955,7.82088547 L24.5657047,8.34517621 L25.4383752,8.86950562 L26.311007,9.41562247 L27.5545796,10.2239234 L28.7545257,11.0322243 L29.8890837,11.8624028 L30.9798735,12.6925427 L32.0269982,13.5226826 L33.0086446,14.3528612 L33.9688129,15.2048272 L34.863129,16.0568319 L35.73598,16.9306627 L36.5429788,17.8045321 L37.3066735,18.7002019 L38.0485421,19.5958975 L38.7463845,20.4916059 L39.4009358,21.4309666 L40.0118219,22.3485012 L40.6008819,23.3097267 L2.31255249,23.3097267 L2.07256326,23.3097267 L1.85441098,23.2660233 L1.63625302,23.2005321 L1.41806412,23.1350408 L1.22173614,23.0258458 L1.02537206,22.9165219 L0.850837956,22.7854621 L0.676303853,22.6325375 L0.523599728,22.4577482 L0.392689483,22.2829975 L0.283610503,22.086382 L0.174531524,21.8897665 L0.109078979,21.6713121 L0.043626435,21.4528576 L0.0218003255,21.2343773 L2.86259294e-15,20.9940967 L2.86259294e-15,3.49538645 L0.0218003255,2.94922577 L0.0654654364,2.4686298 L0.109091871,2.25014438 L0.152718306,2.05352504 L0.218170851,1.8569057 L0.283623395,1.66032246 L0.34907594,1.50740046 L0.414528484,1.3326111 L0.501781354,1.20155517 L0.5890729,1.04863317 L0.698151879,0.939373706 L0.807230859,0.80831907 L0.916309838,0.699098279 L1.02538882,0.611703597 L1.26537804,0.436914234 L1.54899112,0.305859598 L1.83260421,0.196638807 L2.13804855,0.131070235 L2.4434929,0.0655403388 L2.79256111,0.0218494439 L3.14162931,0 L3.49069751,0 L3.49072665,0 Z" id="procrop_svg_over"></path>
            <path d="M56.9853741,64.7516431 L56.8325655,64.7734305 L56.701944,64.7952179 L56.592749,64.8607092 L56.5054704,64.9265871 L56.4181917,65.0138658 L56.3744879,65.1230608 L56.3307842,65.2540432 L56.3307842,65.3853867 L56.3307842,65.5381952 L56.3744879,65.6691776 L56.4181917,65.7783727 L56.5054704,65.8656513 L56.592749,65.9533167 L56.701944,65.9970205 L56.8325655,66.0407243 L56.9853741,66.0407243 L57.1381826,66.0407243 L57.269165,65.9970205 L57.3997865,65.9533167 L57.4870652,65.8656513 L57.5743438,65.7783727 L57.6180476,65.6691776 L57.6617514,65.5381952 L57.6617514,65.3853867 L57.6617514,65.2540432 L57.6180476,65.1230608 L57.5743438,65.0138658 L57.4870652,64.9265871 L57.3997865,64.8607092 L57.2909783,64.7952179 L57.1381697,64.7734305 L56.9853612,64.7516431 L56.9853741,64.7516431 Z M56.4836443,76.0681611 L57.5089428,76.0681611 L57.5089428,67.5699482 L56.4836443,67.5699482 L56.4836443,76.0681611 Z M63.5086683,67.4389657 L63.116082,67.4389657 L62.7231346,67.5044569 L62.3742134,67.5917356 L62.0249312,67.7009306 L61.6978361,67.8537391 L61.4144061,68.0287477 L61.1306151,68.2252213 L60.8686502,68.4657211 L60.8686502,67.548122 L59.8870038,67.548122 L59.8870038,76.068165 L60.8686502,76.068165 L60.8686502,70.8685269 L60.8904376,70.5847359 L60.912225,70.3224101 L60.9777163,70.0822713 L61.0649949,69.8417716 L61.1522736,69.6234718 L61.283256,69.404811 L61.4142385,69.2083374 L61.5885121,69.0336898 L61.7631597,68.8586813 L61.9814595,68.7276989 L62.1993983,68.5967164 L62.417698,68.5094378 L62.6793019,68.4217723 L62.9412668,68.3780686 L63.2246968,68.3343648 L63.5084878,68.3343648 L63.8137439,68.3561522 L64.0975349,68.3779396 L64.3591388,68.4438176 L64.5992776,68.5310963 L64.8394164,68.6402913 L65.0573552,68.7712737 L65.275655,68.9462822 L65.4503025,69.1209298 L65.6245762,69.3174035 L65.7555586,69.5360771 L65.8865411,69.7543769 L65.9738197,69.9948766 L66.0610984,70.2350154 L66.1044154,70.4973412 L66.1481192,70.7811322 L66.1481192,71.0652971 L66.1481192,76.0680979 L67.1519526,76.0680979 L67.1519526,71.2836007 L67.1301652,70.8684534 L67.0864614,70.4755061 L67.0209702,70.1040239 L66.9117752,69.7543678 L66.7807927,69.4265508 L66.6283452,69.1209208 L66.4318715,68.8149298 L66.2353978,68.5529649 L65.9737939,68.2906391 L65.690003,68.0723393 L65.3847468,67.8755047 L65.0572907,67.7226961 L64.7083695,67.5917137 L64.3372483,67.504435 L63.9446619,67.4389438 L63.5084234,67.4389438 L63.5086683,67.4389657 Z M70.795295,65.2322751 L69.7918225,65.2322751 L69.7918225,74.3421039 L69.7918225,74.5607775 L69.8136099,74.7572512 L69.8573137,74.9318987 L69.9010175,75.1069073 L69.9665087,75.2597158 L70.032,75.3906983 L70.1192786,75.5216807 L70.2280869,75.6311335 L70.3372819,75.7403286 L70.4682643,75.8276072 L70.6210729,75.9148859 L70.7735204,75.9585896 L70.948168,76.0240809 L71.1228155,76.0462551 L71.3189282,76.0680425 L71.537228,76.0680425 L72.0607968,76.0680425 L72.0607968,75.1504435 L71.4062455,75.1504435 L71.3189669,75.128656 L71.2101586,75.1068686 L71.1009636,75.0631648 L71.013685,74.9972868 L70.9264063,74.8880918 L70.8609151,74.7352833 L70.8172113,74.5388096 L70.7954239,74.2764838 L70.7954239,68.5092547 L73.1298223,68.5092547 L73.1298223,67.5698167 L70.7954239,67.5698167 L70.7954239,65.2321436 L70.795295,65.2322751 Z M83.296477,71.2618339 L76.4897566,71.2618339 L76.554861,70.955843 L76.6203523,70.650213 L76.7295473,70.3660481 L76.8387423,70.1040832 L76.9697247,69.8635835 L77.1439984,69.6234447 L77.3404721,69.382945 L77.5369457,69.1646452 L77.7767235,68.9899976 L78.0386884,68.8149891 L78.3221184,68.6621806 L78.6059094,68.5529856 L78.8893394,68.4437905 L79.2167955,68.3779126 L79.5438907,68.3342088 L79.8931729,68.3342088 L80.2420941,68.3342088 L80.5695502,68.3779126 L80.8966453,68.4437905 L81.2019015,68.5529856 L81.4856924,68.6621806 L81.7476573,68.8149891 L82.0092612,68.9899976 L82.227561,69.1646452 L82.4454998,69.382945 L82.6419735,69.6234447 L82.794782,69.8635835 L82.9475906,70.1040832 L83.0563988,70.3660481 L83.1655938,70.650213 L83.231085,70.955843 L83.2965763,71.2618339 L83.2965763,71.2618339 L83.296477,71.2618339 Z M79.9149474,67.4389657 L79.4350437,67.4607531 L78.9547791,67.5044569 L78.7368403,67.5481607 L78.5185405,67.6136519 L78.3220668,67.6791432 L78.1041281,67.7446344 L77.9076544,67.831913 L77.7111807,67.9195785 L77.536907,68.0287735 L77.3404334,68.1379685 L77.1657858,68.2471635 L77.0133383,68.3781459 L76.8386907,68.5313283 L76.6858822,68.6841369 L76.380626,68.9901278 L76.1404873,69.3394101 L76.0312923,69.5144186 L75.922484,69.7108922 L75.8352054,69.8855398 L75.7479267,70.0823744 L75.660648,70.2788481 L75.5951568,70.4975217 L75.551453,70.6939954 L75.5077492,70.9122952 L75.442258,71.3710947 L75.4204706,71.8298942 L75.442258,72.3105327 L75.5077492,72.7693322 L75.551453,72.987632 L75.6169443,73.1844666 L75.660648,73.4027664 L75.7479267,73.5996011 L75.8352054,73.7960747 L75.922484,73.9925484 L76.0312923,74.1675569 L76.1404873,74.3422045 L76.2714697,74.517213 L76.4024521,74.6918605 L76.5548997,74.8446691 L76.7077083,74.9974776 L76.8605168,75.15066 L77.0351644,75.2816425 L77.2094381,75.4126249 L77.3840856,75.5439683 L77.5587332,75.6531634 L77.7548458,75.7623584 L77.9513195,75.849637 L78.1696193,75.9151282 L78.5840317,76.0682978 L79.0421093,76.1555764 L79.5001869,76.2210676 L80.0022905,76.2428551 L80.6131766,76.2210676 L81.1803976,76.1555764 L81.4420015,76.1118726 L81.7039664,76.0463814 L81.9437313,75.9805034 L82.2056962,75.9150122 L82.423635,75.8277336 L82.6419348,75.7404549 L82.8602346,75.6312599 L83.0563472,75.521807 L83.2528209,75.3908246 L83.4492946,75.2598422 L83.6235682,75.1288597 L83.7763768,74.9756773 L83.8855718,74.8664823 L83.1437032,74.1893701 L83.0345082,74.2766488 L82.9257,74.4076312 L82.7728914,74.5170841 L82.6200829,74.6262791 L82.4672743,74.7135577 L82.2711617,74.8008364 L82.074688,74.888115 L81.8782143,74.9753937 L81.6384494,75.0412717 L81.223676,75.1504667 L80.8092635,75.2377453 L80.3948511,75.2814491 L80.0022647,75.3032365 L79.6311435,75.2814491 L79.2822223,75.2377453 L78.9329401,75.1722541 L78.6276839,75.0849754 L78.322054,74.953632 L78.0386239,74.8008235 L77.7548329,74.6261759 L77.515068,74.4075023 L77.2967683,74.1892025 L77.1224946,73.9487028 L76.947847,73.708564 L76.8168646,73.4243991 L76.7076696,73.1406082 L76.5984746,72.8346172 L76.5333701,72.5289872 L76.4896663,72.2011701 L84.2998579,72.2011701 L84.2998579,72.0919751 L84.3435617,71.8951405 L84.3653491,71.6986668 L84.3435617,71.2398673 L84.2780705,70.8028939 L84.1907918,70.3877466 L84.0383443,69.9947993 L83.8636967,69.6233171 L83.6453969,69.2736739 L83.383793,68.9462178 L83.100002,68.6402268 L82.7729069,68.356062 L82.4236247,68.1159232 L82.0747035,67.8972496 L81.6821171,67.744441 L81.2673437,67.6134586 L80.8311051,67.5042636 L80.3730275,67.4387723 L79.91495,67.4387723 L79.9149474,67.4389657 Z M87.005464,76.0681611 L88.0307625,76.0681611 L88.0307625,63.615734 L87.005464,63.615734 L87.005464,76.0681611 Z M90.6485949,76.0681611 L91.6524283,76.0681611 L91.6524283,63.615734 L90.6485949,63.615734 L90.6485949,76.0681611 Z M94.968468,64.7516431 L94.8156594,64.7734305 L94.684677,64.7952179 L94.5758687,64.8607092 L94.4885901,64.9265871 L94.4013114,65.0138658 L94.3576076,65.1230608 L94.3358202,65.2540432 L94.3140328,65.3853867 L94.3358202,65.5381952 L94.3576076,65.6691776 L94.4013114,65.7783727 L94.4885901,65.8656513 L94.5758687,65.9533167 L94.684677,65.9970205 L94.8156594,66.0407243 L94.968468,66.0407243 L95.1212765,66.0407243 L95.251898,65.9970205 L95.361093,65.9533167 L95.470288,65.8656513 L95.5357792,65.7783727 L95.6012704,65.6691776 L95.6230579,65.5381952 L95.6448453,65.3853867 L95.6448453,65.2977212 L95.6230579,65.1885262 L95.5793541,65.0793312 L95.5138628,64.9920526 L95.4265842,64.9047739 L95.3173892,64.8171085 L95.1645806,64.7734047 L94.968468,64.7516173 L94.968468,64.7516431 Z M94.4667382,76.0681611 L95.4920367,76.0681611 L95.4920367,67.5699482 L94.4667382,67.5699482 L94.4667382,76.0681611 Z M99.3534739,71.8079572 L99.3534739,71.436475 L99.3971777,71.0871928 L99.4626689,70.7375496 L99.5718639,70.4097326 L99.7028463,70.1041026 L99.8552939,69.8199377 L100.029941,69.5579728 L100.248241,69.3174731 L100.488006,69.0773343 L100.749971,68.8804997 L101.033401,68.7276911 L101.339031,68.5748826 L101.666126,68.4656876 L102.015408,68.3998096 L102.386156,68.3561058 L102.778742,68.3343184 L103.171689,68.3561058 L103.564276,68.3998096 L103.913197,68.5092624 L104.240653,68.6184574 L104.567748,68.793105 L104.851539,68.9899396 L105.113143,69.2300784 L105.375108,69.4924043 L105.549756,69.7761952 L105.724029,70.0821862 L105.876838,70.3878162 L105.986033,70.7374723 L106.073311,71.0871155 L106.138803,71.4582367 L106.182506,71.851545 L106.182506,72.2448533 L106.204294,73.4680823 L106.00782,73.7085821 L105.833173,73.9268818 L105.615234,74.1455426 L105.396934,74.3201901 L105.178634,74.5170248 L104.91703,74.6698333 L104.676892,74.8226419 L104.393462,74.9754504 L104.218814,75.0413284 L104.02234,75.1068196 L103.826228,75.1723108 L103.629754,75.2160146 L103.43328,75.2597184 L103.215342,75.2815058 L102.997042,75.3032933 L102.778742,75.3032933 L102.386156,75.2815058 L102.015408,75.237802 L101.666126,75.1723108 L101.339031,75.0631158 L101.033401,74.9099334 L100.749971,74.7571249 L100.46618,74.5388251 L100.226415,74.3201643 L100.029941,74.0800256 L99.8552939,73.8176997 L99.7028463,73.5339087 L99.5718639,73.2279177 L99.4626689,72.9001007 L99.3971777,72.5726446 L99.3534739,72.2011624 L99.3534739,71.8078541 L99.3534739,71.8078541 L99.3534739,71.8079572 Z M106.20422,69.011847 L106.029573,68.8150123 L105.854925,68.6403648 L105.680278,68.4657172 L105.484165,68.3125348 L105.287691,68.1815524 L105.091218,68.0505699 L104.895105,67.9413749 L104.676805,67.8319221 L104.458866,67.7446434 L104.240567,67.6573648 L104.000428,67.5918735 L103.760663,67.5263823 L103.520524,67.4826785 L103.25892,67.4608911 L102.996955,67.4391037 L102.734991,67.4391037 L102.233261,67.4391037 L101.775183,67.5045949 L101.317106,67.6137899 L100.902693,67.7447723 L100.70622,67.832051 L100.509746,67.9197164 L100.313633,68.006995 L100.138986,68.1161901 L99.9643381,68.2471725 L99.7900644,68.3781549 L99.6372558,68.5094984 L99.4844473,68.6623069 L99.3534648,68.8151155 L99.2010173,68.9682979 L99.0918223,69.1429454 L98.9608398,69.295754 L98.8516448,69.4925886 L98.7643662,69.6672362 L98.6770875,69.8637098 L98.5900667,70.0387183 L98.5245755,70.2570181 L98.4590842,70.4534918 L98.4153805,70.6721654 L98.3716767,70.8904652 L98.3279729,71.3492647 L98.3061855,71.8299032 L98.3279729,72.3105417 L98.3716767,72.7693413 L98.4153805,72.987641 L98.4590842,73.1844757 L98.5245755,73.4027754 L98.6118541,73.5996101 L98.6769586,73.7960837 L98.7642372,73.9925574 L98.8734322,74.1675659 L98.9826273,74.3422135 L99.0918223,74.517222 L99.2228047,74.6918696 L99.3752523,74.8446781 L99.5280608,74.9974867 L99.6808694,75.1506691 L99.8333169,75.2816515 L100.007964,75.412634 L100.182612,75.5439774 L100.379086,75.6531724 L100.553359,75.740451 L100.749833,75.849646 L100.968133,75.9151373 L101.164246,76.0024159 L101.382545,76.0682939 L101.600484,76.1119977 L101.818784,76.1557015 L102.298688,76.2211927 L102.778591,76.2429801 L103.23703,76.2211927 L103.673268,76.1557015 L104.087681,76.0684228 L104.502093,75.9370794 L104.698567,75.8498007 L104.895041,75.7406057 L105.134805,75.6096233 L105.39677,75.4346148 L105.636909,75.2599672 L105.833022,75.1071587 L106.029495,74.9539891 L106.182304,74.8011806 L106.204091,75.6096362 L106.182304,75.9807574 L106.1386,76.3522396 L106.073109,76.6800567 L105.98583,76.9856867 L105.876635,77.2916776 L105.723827,77.5536425 L105.549553,77.8159684 L105.353079,78.0561071 L105.13478,78.2747808 L104.873176,78.4712544 L104.611211,78.6244368 L104.305955,78.7554193 L103.978499,78.8646143 L103.651404,78.9518929 L103.280656,78.9955967 L102.909535,78.9955967 L102.473296,78.9955967 L102.058884,78.9518929 L101.644111,78.8864017 L101.229698,78.7991231 L100.837112,78.6899281 L100.444164,78.5585847 L100.051578,78.3839371 L99.6808307,78.1874634 L99.5498483,78.1219722 L99.200927,79.0828754 L99.3097353,79.126837 L99.8769563,79.3669758 L100.357221,79.5416233 L100.749807,79.6729668 L101.033237,79.7602454 L101.448011,79.8475241 L101.884249,79.9130153 L102.364153,79.9567191 L102.865883,79.9785065 L103.345786,79.9567191 L103.826051,79.8912278 L104.04399,79.8475241 L104.26229,79.8038203 L104.480228,79.7383291 L104.676702,79.6728378 L104.873176,79.5851724 L105.069288,79.4978938 L105.265762,79.3886988 L105.44041,79.2795038 L105.615057,79.1703087 L105.767505,79.0389653 L105.920313,78.8861568 L106.073122,78.7551743 L106.334726,78.4491834 L106.574865,78.1217273 L106.771338,77.7720712 L106.923786,77.3787629 L107.054768,76.9854546 L107.142047,76.5488422 L107.185751,76.0900426 L107.207538,75.6094041 L107.207538,67.5699933 L106.204066,67.5699933 L106.204066,69.0118921 L106.20422,69.011847 Z M114.320037,68.3343738 L114.668958,68.3561612 L114.996053,68.3779487 L115.323509,68.4656141 L115.628765,68.5528927 L115.912556,68.6620877 L116.195986,68.8148963 L116.436125,68.9899048 L116.676264,69.1645524 L116.894203,69.3828521 L117.06885,69.6233519 L117.243498,69.8634907 L117.374119,70.1039904 L117.483314,70.3877814 L117.592509,70.6501073 L117.658001,70.9557372 L117.723492,71.2617282 L110.916408,71.2617282 L110.960112,70.9557372 L111.04739,70.6501073 L111.134669,70.3659424 L111.265651,70.1039775 L111.396634,69.8416517 L111.570907,69.6015129 L111.767381,69.3828392 L111.963855,69.1863656 L112.203633,68.9898919 L112.443771,68.8148834 L112.727201,68.6620748 L113.010992,68.5528798 L113.316248,68.4656012 L113.643705,68.3779358 L113.9708,68.3561483 L114.320082,68.3343609 L114.320037,68.3343738 Z M114.341824,67.4389618 L113.86156,67.4607493 L113.381656,67.5044531 L112.945417,67.6136481 L112.531005,67.7446305 L112.334531,67.8319092 L112.138058,67.9195746 L111.941945,68.0287696 L111.767297,68.1379646 L111.59265,68.2471596 L111.418376,68.378142 L111.265568,68.5313245 L111.112759,68.684133 L110.95995,68.8369416 L110.807503,68.990124 L110.67652,69.1647715 L110.567325,69.3394191 L110.436343,69.5144276 L110.349064,69.7109013 L110.240256,69.8855488 L110.174765,70.0823835 L110.021956,70.4975308 L109.934678,70.9123042 L109.869186,71.3711037 L109.847399,71.8299032 L109.869186,72.3105417 L109.934678,72.7693413 L109.978381,72.987641 L110.022085,73.2063018 L110.087576,73.4027754 L110.174855,73.5996101 L110.262134,73.7960837 L110.349155,73.9925574 L110.45835,74.1675659 L110.567545,74.3422135 L110.698527,74.517222 L110.829509,74.6918696 L110.960131,74.8446781 L111.112939,74.9974867 L111.287587,75.1506691 L111.440396,75.2816515 L111.614669,75.412634 L111.789317,75.5439774 L111.98579,75.6531724 L112.160064,75.7623674 L112.356538,75.849646 L112.574838,75.9151373 L112.77095,76.0024159 L112.98925,76.0682939 L113.207189,76.1119977 L113.447328,76.1557015 L113.905405,76.2211927 L114.407135,76.2429801 L115.018021,76.2211927 L115.585242,76.1557015 L115.847207,76.1119977 L116.109172,76.0465065 L116.370776,75.9806285 L116.610914,75.9151373 L116.850679,75.8278586 L117.068979,75.7405799 L117.286918,75.6313849 L117.483392,75.5219321 L117.679865,75.3909497 L117.875978,75.2599672 L118.050626,75.1289848 L118.203434,74.9758024 L118.312629,74.8666073 L117.570761,74.1894952 L117.461566,74.2767738 L117.352371,74.4077563 L117.199923,74.4950349 L117.047114,74.6044878 L116.894306,74.7136828 L116.697832,74.8009614 L116.501719,74.8882401 L116.28342,74.9755187 L116.065481,75.0413967 L115.650707,75.1505917 L115.214469,75.2378704 L114.800056,75.2815742 L114.407109,75.3033616 L114.036349,75.2815742 L113.687428,75.2378704 L113.359972,75.1723792 L113.032876,75.0851005 L112.727246,74.9537571 L112.443816,74.8009485 L112.181852,74.626301 L111.920248,74.4076273 L111.701948,74.1893276 L111.5273,73.9488278 L111.353027,73.7086891 L111.222044,73.4245242 L111.112849,73.1407332 L111.025571,72.8347422 L110.960079,72.5291122 L110.916376,72.1794562 L118.705101,72.1794562 L118.726888,72.0921775 L118.770592,71.8953429 L118.770592,71.6988692 L118.748804,71.2400697 L118.705101,70.8030963 L118.595906,70.387949 L118.464923,69.9950017 L118.29065,69.6235195 L118.07235,69.2738763 L117.810746,68.9464202 L117.526955,68.6404292 L117.19986,68.3562644 L116.850578,68.1161256 L116.47983,67.897452 L116.087244,67.7446434 L115.67247,67.613661 L115.258058,67.504466 L114.79998,67.4389747 L114.341903,67.4389747 L114.341824,67.4389618 Z M125.053633,67.4389618 L124.661072,67.4389618 L124.289912,67.5044531 L123.919139,67.5917317 L123.59207,67.7009267 L123.264614,67.8537353 L122.959332,68.0287438 L122.697367,68.2252175 L122.435789,68.4657172 L122.435789,67.5481182 L121.410129,67.5481182 L121.410129,76.0681611 L122.435789,76.0681611 L122.435789,70.8685231 L122.435789,70.5847321 L122.479621,70.3224062 L122.523454,70.0822674 L122.61112,69.8417677 L122.698785,69.6234679 L122.829767,69.4048072 L122.982537,69.2083335 L123.135049,69.033686 L123.331523,68.8586774 L123.527997,68.727695 L123.746,68.5967125 L123.964261,68.5094339 L124.226226,68.4217685 L124.487804,68.3780647 L124.771556,68.3343609 L125.055051,68.3343609 L125.360719,68.3561483 L125.644085,68.3779358 L125.90605,68.4438138 L126.167628,68.5310924 L126.385889,68.6402874 L126.62568,68.7712699 L126.822153,68.9462784 L127.018627,69.1209259 L127.17101,69.3173996 L127.301993,69.5360732 L127.432975,69.754373 L127.520641,69.9948727 L127.608306,70.2350115 L127.652139,70.4973374 L127.695971,70.7811284 L127.695971,71.0652932 L127.695971,76.0680941 L128.677566,76.0680941 L128.677566,71.2835969 L128.65565,70.8684496 L128.633733,70.4755022 L128.546068,70.1040201 L128.458403,69.754364 L128.327807,69.4265469 L128.175037,69.1209169 L128.000351,68.8149259 L127.78209,68.5529611 L127.520512,68.2906352 L127.258547,68.0723354 L126.953265,67.8755008 L126.625809,67.7226922 L126.255036,67.5917098 L125.884262,67.5044312 L125.491315,67.4389399 L125.055051,67.4389399 L125.053633,67.4389618 Z M132.340627,65.2322713 L131.336858,65.2322713 L131.336858,74.3421 L131.336858,74.5607737 L131.358774,74.7354212 L131.38069,74.9318949 L131.44644,75.0850773 L131.512189,75.2597248 L131.577938,75.3907073 L131.665603,75.5216897 L131.775185,75.6311426 L131.883477,75.7403376 L132.01446,75.8276162 L132.16723,75.8931075 L132.32,75.9585987 L132.494299,76.0240899 L132.690773,76.0462641 L132.887246,76.0680515 L133.105121,76.0680515 L133.58496,76.0680515 L133.58496,75.1504525 L132.974396,75.1504525 L132.864814,75.1286651 L132.755233,75.1068776 L132.645651,75.0631738 L132.557985,74.9972959 L132.47032,74.8881008 L132.404571,74.7352923 L132.360738,74.5388186 L132.338822,74.2764928 L132.338822,68.5092637 L134.673223,68.5092637 L134.673223,67.5698257 L132.338822,67.5698257 L132.338822,65.2321527 L132.340627,65.2322713 Z M145.888581,68.3343725 L146.237825,68.3561599 L146.586811,68.3998637 L146.892479,68.4657417 L147.219549,68.5749367 L147.503301,68.7277453 L147.786796,68.9023928 L148.04876,69.0992275 L148.310339,69.3393662 L148.398004,69.4266449 L149.139937,68.7931978 L149.030355,68.7059192 L148.702899,68.3999282 L148.353913,68.1379633 L147.98314,67.9414896 L147.590193,67.744655 L147.197632,67.6136726 L146.783284,67.5044776 L146.34702,67.4607738 L145.888581,67.4389863 L145.408613,67.4607738 L144.950562,67.5044776 L144.49251,67.6136726 L144.077775,67.744655 L143.881688,67.8319337 L143.685214,67.9195991 L143.488741,68.0287941 L143.314441,68.1379891 L143.139755,68.2471841 L142.965069,68.3781665 L142.790769,68.531349 L142.638,68.6841575 L142.332331,68.9901485 L142.09254,69.3394307 L141.982958,69.5144392 L141.873377,69.7109129 L141.785711,69.8855604 L141.699335,70.0823951 L141.633586,70.3006948 L141.567837,70.4975295 L141.502088,70.7158292 L141.458255,70.934129 L141.392506,71.3711024 L141.392506,71.8299019 L141.392506,72.2887015 L141.458255,72.747501 L141.502088,72.9658007 L141.567837,73.1626354 L141.633586,73.3809351 L141.699335,73.5777698 L141.785711,73.7742434 L141.873377,73.948891 L141.982958,74.1457256 L142.09254,74.3203732 L142.332331,74.6700164 L142.638,74.9974725 L142.790769,75.1288159 L142.965069,75.2816244 L143.139755,75.4126069 L143.314441,75.5218019 L143.488741,75.6531453 L143.685214,75.740424 L143.881688,75.849619 L144.077775,75.9151102 L144.296036,76.0023888 L144.49251,76.0682668 L144.710513,76.1119706 L144.95069,76.1556744 L145.408742,76.2211656 L145.88871,76.242953 L146.325362,76.2211656 L146.761626,76.1556744 L146.9795,76.1119706 L147.175974,76.0464794 L147.372448,75.9806014 L147.568534,75.9151102 L147.961482,75.7404626 L148.332255,75.4999629 L148.681498,75.237998 L149.008568,74.932007 L149.096233,74.8447284 L148.398004,74.1894552 L148.310339,74.2767339 L148.04876,74.5172336 L147.786796,74.7355334 L147.503301,74.9101809 L147.197632,75.0415243 L146.89235,75.1507193 L146.564894,75.237998 L146.237825,75.2817018 L145.888581,75.3034892 L145.496021,75.2817018 L145.125248,75.237998 L144.776004,75.1725068 L144.448935,75.0633118 L144.143266,74.9101294 L143.859772,74.7354818 L143.597807,74.5390081 L143.358016,74.2985084 L143.139755,74.0583696 L142.965069,73.7960438 L142.790769,73.5122528 L142.681188,73.2062618 L142.571606,72.8784447 L142.505857,72.5509886 L142.462024,72.1795064 L142.440108,71.8080243 L142.462024,71.4365421 L142.505857,71.0872599 L142.571606,70.7594428 L142.681188,70.4316257 L142.790769,70.1259957 L142.965069,69.8418309 L143.139755,69.579866 L143.358016,69.3175401 L143.597807,69.0992403 L143.859772,68.9024057 L144.143266,68.7277582 L144.448935,68.5749496 L144.776004,68.4657546 L145.125248,68.3998766 L145.496021,68.3561728 L145.888581,68.3343854 L145.888581,68.3343725 Z M155.09519,67.6136081 L154.768121,67.5699043 L154.593435,67.5481169 L154.15717,67.5699043 L153.742822,67.6353955 L153.524561,67.6790993 L153.328474,67.7445906 L153.132001,67.8100818 L152.957314,67.8973604 L152.782628,67.9850258 L152.608329,68.0942208 L152.433643,68.2034159 L152.280873,68.3126109 L152.12849,68.4439543 L151.997507,68.5967628 L151.844737,68.7495714 L151.713755,68.9023799 L151.713755,67.5918271 L150.73216,67.5918271 L150.73216,76.0682101 L151.713755,76.0682101 L151.713755,72.2668096 L151.735671,71.8080101 L151.779504,71.4147018 L151.823337,71.0217545 L151.911002,70.6502723 L152.020584,70.3224552 L152.151566,70.0168252 L152.325866,69.7544993 L152.500552,69.4925345 L152.697026,69.2520347 L152.915029,69.0555611 L153.155206,68.8805525 L153.394997,68.7495701 L153.635174,68.6403751 L153.897139,68.5530964 L154.180505,68.5093926 L154.464257,68.4876052 L154.486173,68.4876052 L154.835159,68.531309 L155.118654,68.5750128 L155.29334,68.5968002 L155.424322,68.5968002 L155.6859,68.6622914 L155.6859,67.7010273 L155.577608,67.6792399 L155.293856,67.6355361 L155.097382,67.6137486 L155.09519,67.6136081 Z M161.836777,75.303368 L161.444216,75.2815806 L161.073056,75.2378768 L160.72407,75.1723856 L160.396614,75.0631906 L160.091332,74.9100082 L159.80758,74.7353606 L159.546002,74.538887 L159.305825,74.2983872 L159.08795,74.0582484 L158.913264,73.7959226 L158.738578,73.5121316 L158.607595,73.2061406 L158.521219,72.8783236 L158.45547,72.5508674 L158.389721,72.1793853 L158.389721,71.8079031 L158.389721,71.4364209 L158.45547,71.0871387 L158.521219,70.7374955 L158.629512,70.4315045 L158.739093,70.1258745 L158.91378,69.8417097 L159.088466,69.5797448 L159.30634,69.3174189 L159.546518,69.0991192 L159.808096,68.9022845 L160.091848,68.727637 L160.39713,68.5748284 L160.724586,68.4656334 L161.073572,68.3997554 L161.444732,68.3560517 L161.815505,68.3342642 L162.208065,68.3560517 L162.557309,68.3997554 L162.906295,68.4656334 L163.233751,68.5748284 L163.539033,68.727637 L163.822527,68.8804455 L164.084492,69.0991192 L164.324669,69.3174189 L164.542544,69.5797448 L164.71723,69.8417097 L164.87,70.1258745 L165.000596,70.4315045 L165.110177,70.7593216 L165.175926,71.0871387 L165.219759,71.4364209 L165.241675,71.8079031 L165.219759,72.1793853 L165.175926,72.5508674 L165.110177,72.8783236 L165.000596,73.1843145 L164.87,73.4899445 L164.71723,73.7740965 L164.542544,74.0364223 L164.324669,74.2983872 L164.084492,74.538887 L163.822527,74.7353606 L163.539033,74.9100082 L163.233751,75.0631906 L162.906295,75.1723856 L162.557309,75.2378768 L162.208065,75.2815806 L161.815505,75.303368 L161.837421,75.303368 L161.836777,75.303368 Z M161.836777,67.4389644 L161.335021,67.4607519 L160.876969,67.5044556 L160.636792,67.5481594 L160.440318,67.6136507 L160.222444,67.6791419 L160.02597,67.7446331 L159.63341,67.9196416 L159.26225,68.1379414 L159.08795,68.2471364 L158.913264,68.3781188 L158.760494,68.5313013 L158.585808,68.6841098 L158.302442,68.9901008 L158.040477,69.339383 L157.932185,69.5143915 L157.822603,69.7108652 L157.734938,69.8855127 L157.647272,70.0823474 L157.581523,70.3006471 L157.515774,70.4974818 L157.450025,70.7157815 L157.428109,70.9122552 L157.36236,71.3710547 L157.340443,71.8298542 L157.36236,72.2886538 L157.428109,72.7474533 L157.450025,72.965753 L157.515774,73.1625877 L157.581523,73.3808874 L157.647272,73.5777221 L157.734938,73.7741957 L157.822603,73.9488433 L157.932185,74.1456779 L158.040477,74.3203255 L158.302442,74.6699687 L158.585808,74.9974248 L158.760494,75.1287682 L158.913264,75.2815767 L159.08795,75.4125592 L159.26225,75.5217542 L159.436936,75.631207 L159.63341,75.740402 L159.829496,75.8276807 L160.02597,75.9149593 L160.222444,76.002238 L160.440318,76.068116 L160.658579,76.1118198 L160.87684,76.1555236 L161.334892,76.2210148 L161.814731,76.2428022 L162.316487,76.2210148 L162.774539,76.1555236 L163.21119,76.0682449 L163.625538,75.9150754 L163.821625,75.8277967 L164.018098,75.7405181 L164.192785,75.6313231 L164.389258,75.5218702 L164.563558,75.4126752 L164.738244,75.2816928 L164.891014,75.1288842 L165.043397,74.9975408 L165.196167,74.8447322 L165.327149,74.6700847 L165.458132,74.5172761 L165.588727,74.3422676 L165.698309,74.1676201 L165.807891,73.9707854 L165.895556,73.7743118 L165.983222,73.5778381 L166.114204,73.1845298 L166.20058,72.7475564 L166.266329,72.310583 L166.288246,71.8299445 L166.266329,71.371145 L166.20058,70.9123454 L166.114204,70.497572 L165.983222,70.0824247 L165.808535,69.7109425 L165.590274,69.3394603 L165.350484,69.0120042 L165.066731,68.6841872 L164.739662,68.4000223 L164.390676,68.1380574 L164.019516,67.9197576 L163.648743,67.7447491 L163.212479,67.6137667 L162.775828,67.5045717 L162.317776,67.4608679 L161.837937,67.4390805 L161.836777,67.4389644 Z M175.84317,71.8079559 L175.821253,72.2012642 L175.777421,72.5509074 L175.689755,72.9001896 L175.60209,73.2061806 L175.471108,73.5121716 L175.318724,73.7959626 L175.122251,74.0582884 L174.925777,74.2984272 L174.685986,74.5389269 L174.402234,74.7354006 L174.11874,74.9100481 L173.813071,75.0632306 L173.486002,75.1724256 L173.136758,75.2379168 L172.765985,75.2816206 L172.395212,75.303408 L172.176951,75.303408 L171.980477,75.2816206 L171.78439,75.2598331 L171.587916,75.2161294 L171.391443,75.1724256 L171.195356,75.1069343 L171.02067,75.0414431 L170.845983,74.9755651 L170.540702,74.8009176 L170.256949,74.648109 L169.995371,74.4512744 L169.755194,74.2548007 L169.515403,74.036501 L169.318929,73.8178402 L169.122456,73.5777015 L168.970073,73.3372017 L168.970073,72.2449551 L168.970073,71.8298078 L169.013905,71.4364995 L169.079654,71.0653783 L169.16732,70.7157222 L169.276901,70.3660662 L169.429671,70.0604362 L169.582441,69.7762713 L169.778528,69.4924803 L170.018706,69.2301545 L170.280284,68.9900157 L170.564036,68.7931811 L170.891105,68.6185335 L171.218561,68.5093385 L171.589335,68.3998856 L171.981895,68.3561819 L172.39663,68.3343944 L172.767403,68.3561819 L173.138176,68.3998856 L173.48742,68.4657636 L173.814489,68.5749586 L174.120158,68.7277672 L174.403652,68.8805757 L174.665617,69.0774104 L174.927195,69.3175491 L175.123669,69.579875 L175.298355,69.8418399 L175.472655,70.1260047 L175.603637,70.4316347 L175.691302,70.7594518 L175.778968,71.0872689 L175.822801,71.4365511 L175.844717,71.8080333 L175.84317,71.8079559 Z M172.439805,67.4389644 L172.17784,67.4389644 L171.916262,67.4607519 L171.654297,67.4825393 L171.41412,67.5262431 L171.174329,67.5917343 L170.934152,67.6572255 L170.716277,67.7445042 L170.498016,67.8317828 L170.279755,67.9412357 L170.061752,68.0504307 L169.865278,68.1814131 L169.668805,68.3123956 L169.494505,68.465578 L169.298031,68.6402255 L169.123345,68.8148731 L168.970962,69.0117077 L168.970962,67.3293105 L167.945277,67.3293105 L167.945277,79.8472301 L167.967193,79.9127213 L168.011026,80 L168.97122,80 L168.97122,74.7788942 L169.145519,74.9535418 L169.320206,75.1285503 L169.538467,75.2813589 L169.756341,75.4341674 L169.974602,75.5873498 L170.214393,75.7183323 L170.476358,75.8275273 L170.738323,75.9367223 L171.130883,76.0680657 L171.545231,76.1553444 L171.959966,76.2208356 L172.39623,76.242623 L172.876069,76.2208356 L173.356038,76.1553444 L173.574299,76.1116406 L173.792173,76.0679368 L174.010434,76.0020588 L174.206908,75.9147801 L174.402995,75.8492889 L174.599468,75.7400939 L174.795942,75.6528153 L174.992029,75.5436203 L175.166715,75.4122768 L175.319485,75.2812944 L175.493785,75.150312 L175.646554,74.9971295 L175.799324,74.844321 L175.930307,74.6915124 L176.060902,74.5168649 L176.191885,74.3418564 L176.301467,74.1672088 L176.389132,73.9922003 L176.476797,73.7957266 L176.564463,73.599253 L176.695059,73.1841057 L176.80464,72.7689584 L176.848473,72.3101589 L176.870389,71.8295203 L176.848473,71.3488818 L176.80464,70.8900823 L176.695059,70.4531089 L176.564463,70.0383355 L176.411693,69.6668533 L176.215219,69.2953711 L175.975429,68.967915 L175.691676,68.661924 L175.386394,68.3777592 L175.037151,68.1157943 L174.862851,68.0065993 L174.666378,67.9193206 L174.469904,67.8316552 L174.273817,67.7443765 L173.859082,67.6133941 L173.401031,67.5041991 L172.942979,67.4387079 L172.441223,67.4387079 L172.439805,67.4389644 Z M188.387652,71.4583063 L186.642311,70.9998678 L186.271538,70.8904149 L185.922681,70.7376064 L185.638929,70.6066239 L185.398751,70.4316154 L185.312375,70.3661242 L185.22471,70.2788455 L185.137044,70.1915669 L185.093212,70.0823719 L185.049379,69.9950932 L185.005546,69.8856404 L184.98363,69.7983617 L184.98363,69.6891667 L184.98363,69.5363581 L185.005546,69.4050147 L185.027463,69.2740323 L185.071295,69.1648373 L185.137044,69.0556423 L185.202793,68.9683636 L185.290459,68.8806982 L185.376835,68.7934196 L185.486417,68.7279283 L185.595999,68.6842245 L185.726981,68.6405208 L185.879751,68.596817 L186.185033,68.5313258 L186.555806,68.5095383 L188.083208,68.5095383 L188.366574,68.5313258 L188.606751,68.5531132 L188.846542,68.596817 L189.064803,68.6405208 L189.261277,68.7277994 L189.457364,68.8150781 L189.610133,68.9242731 L189.762903,69.0337259 L189.828652,69.1210046 L190.722968,68.5967138 L190.613387,68.4875188 L190.4173,68.2688581 L190.177122,68.0942105 L189.915544,67.941402 L189.609876,67.8100586 L189.304594,67.7008636 L188.95535,67.6353723 L188.56279,67.5916686 L188.170229,67.5698811 L186.8393,67.5698811 L186.490315,67.5916686 L186.184646,67.613456 L185.879364,67.6571598 L185.595612,67.7008636 L185.334034,67.7881422 L185.115773,67.8754209 L184.897512,67.9630863 L184.701425,68.0940687 L184.548655,68.2250512 L184.395885,68.3778597 L184.264902,68.5528682 L184.177237,68.7493419 L184.090861,68.9461765 L184.047028,69.1644763 L184.003195,69.3827761 L184.003195,69.6451019 L184.003195,69.8415756 L184.025112,70.0384102 L184.068944,70.2130578 L184.134694,70.3877053 L184.22107,70.5627139 L184.308735,70.7155224 L184.418317,70.868331 L184.549299,70.9996744 L184.702069,71.1524829 L184.876369,71.2834654 L185.051055,71.3926604 L185.247529,71.5021132 L185.465403,71.6113082 L185.70558,71.6985869 L185.967159,71.7858655 L186.229123,71.8731442 L187.908973,72.3101176 L188.345238,72.4411 L188.716397,72.5942825 L189.043467,72.76893 L189.305432,72.9435776 L189.413724,73.0530304 L189.50139,73.1622254 L189.589055,73.2714204 L189.654804,73.3806154 L189.698637,73.4898104 L189.74247,73.6211538 L189.764386,73.7521363 L189.764386,73.8831187 L189.764386,74.0362883 L189.74247,74.1890968 L189.698637,74.3200792 L189.654804,74.4292743 L189.567139,74.5606177 L189.50139,74.6478963 L189.393097,74.7570913 L189.283515,74.8225826 L189.152533,74.9098612 L189.02155,74.9753524 L188.846864,75.0190562 L188.672565,75.0630178 L188.497878,75.1067216 L188.279617,75.1285091 L188.061743,75.1285091 L187.821566,75.1502965 L186.403681,75.1502965 L186.163503,75.1285091 L185.923713,75.1067216 L185.705451,75.0630178 L185.48719,74.9971399 L185.312891,74.9098612 L185.116417,74.8225826 L184.963647,74.6916001 L184.810877,74.5606177 L184.745128,74.4947397 L183.872213,75.0190304 L183.981795,75.1284833 L184.06946,75.2376783 L184.177753,75.3468733 L184.287334,75.4560683 L184.418317,75.5437337 L184.680282,75.6965423 L184.963647,75.8493508 L185.291103,75.9366295 L185.63996,76.0239081 L186.010733,76.0678697 L186.403681,76.0678697 L187.297997,76.0678697 L187.712474,76.0678697 L188.105421,76.0460823 L188.476194,76.0021207 L188.80365,75.9366295 L189.13072,75.8493508 L189.414214,75.7620722 L189.676179,75.6528771 L189.89444,75.5215337 L190.112314,75.3687252 L190.287001,75.1940776 L190.417983,75.0190691 L190.548966,74.8225954 L190.635342,74.6042957 L190.723007,74.3637959 L190.744924,74.101831 L190.76684,73.8395052 L190.76684,73.6212054 L190.723007,73.4243708 L190.679174,73.2278971 L190.613425,73.0532496 L190.527049,72.878241 L190.439384,72.7035935 L190.308401,72.5507849 L190.177419,72.3757764 L190.002733,72.244794 L189.828433,72.1138115 L189.63196,71.9828291 L189.413698,71.8514857 L189.173908,71.7422907 L188.93373,71.6330957 L188.672152,71.545817 L188.3884,71.4581516 L188.387652,71.4583063 Z M194.954604,69.3174705 L195.194781,69.0991707 L195.456359,68.9023361 L195.740112,68.7276885 L196.045394,68.57488 L196.37285,68.4876013 L196.721835,68.3999359 L197.092608,68.3562321 L197.463768,68.3344447 L197.856329,68.3562321 L198.227102,68.3999359 L198.554558,68.4876013 L198.881628,68.57488 L199.187296,68.7276885 L199.470791,68.9023361 L199.732756,69.0991707 L199.972546,69.3174705 L200.190807,69.5797964 L200.365494,69.8417612 L200.517877,70.1259261 L200.648859,70.4315561 L200.758441,70.7593732 L200.82419,71.0871902 L200.868023,71.4583115 L200.889939,71.8079546 L200.868023,72.1794368 L200.82419,72.5290929 L200.758441,72.8783751 L200.648859,73.1843661 L200.517877,73.4899961 L200.365494,73.774148 L200.16902,74.0364739 L199.972546,74.2984388 L199.710968,74.5389385 L199.449003,74.7354122 L199.165509,74.9100597 L198.85984,75.0414032 L198.554558,75.1505982 L198.205315,75.2378768 L197.856329,75.2815806 L197.463768,75.303368 L197.070821,75.2815806 L196.700048,75.2378768 L196.351062,75.1505982 L196.023606,75.0414032 L195.718324,74.9100597 L195.434572,74.7354122 L195.194781,74.5389385 L194.954604,74.2984388 L194.736343,74.0583 L194.540256,73.7959742 L194.387486,73.5121832 L194.256503,73.2061922 L194.168838,72.8783751 L194.081173,72.550919 L194.03734,72.2012758 L194.03734,71.8079675 L194.03734,71.4364853 L194.081173,71.0872031 L194.168838,70.7375599 L194.256503,70.431569 L194.387486,70.125939 L194.540256,69.8417741 L194.736343,69.5579831 L194.954604,69.3174834 L194.954604,69.3174834 L194.954604,69.3174705 Z M197.463639,67.4389644 L196.983413,67.4607519 L196.525362,67.5044556 L196.285571,67.5481594 L196.06731,67.6136507 L195.870836,67.6791419 L195.652962,67.7446331 L195.456488,67.8319117 L195.260015,67.9195772 L195.063928,68.0287722 L194.889241,68.1379672 L194.714555,68.2471622 L194.540256,68.3781446 L194.387486,68.531327 L194.234716,68.6841356 L194.081946,68.8369441 L193.95135,68.9901266 L193.820368,69.1647741 L193.689386,69.3394217 L193.471511,69.7109038 L193.296825,70.082386 L193.165843,70.4975333 L193.078177,70.9123068 L193.012428,71.3711063 L192.990512,71.8299058 L193.012428,72.3105443 L193.078177,72.7475177 L193.165843,73.1844911 L193.296825,73.5777994 L193.38449,73.7742731 L193.472156,73.9707468 L193.580448,74.1457553 L193.69003,74.3204028 L193.821013,74.4950504 L193.951995,74.6700589 L194.082591,74.8447065 L194.235361,74.997515 L194.38813,75.1506974 L194.562817,75.2816799 L194.7152,75.4126623 L194.889886,75.5218573 L195.08636,75.6532007 L195.260659,75.7404794 L195.457133,75.8496744 L195.675394,75.9151656 L195.871481,76.0024443 L196.089742,76.0683223 L196.308003,76.112026 L196.526006,76.1557298 L196.984058,76.221221 L197.464284,76.2430085 L197.96604,76.221221 L198.424091,76.1557298 L198.642352,76.112026 L198.860227,76.0683223 L199.078488,76.0024443 L199.274962,75.9151656 L199.471048,75.8496744 L199.667522,75.7404794 L199.842208,75.6532007 L200.038295,75.5218573 L200.212982,75.4126623 L200.365751,75.2816799 L200.540051,75.1506974 L200.692821,74.997515 L200.976573,74.6700589 L201.238151,74.3422418 L201.347733,74.1457682 L201.435398,73.9707596 L201.523064,73.774286 L201.610729,73.5778123 L201.763241,73.184504 L201.850907,72.7475306 L201.916656,72.3105572 L201.938572,71.8299187 L201.916656,71.3711192 L201.850907,70.9123197 L201.763241,70.4975462 L201.632646,70.0823989 L201.457959,69.7109167 L201.239698,69.3394346 L200.999908,69.0119785 L200.716155,68.6841614 L200.389086,68.3999965 L200.039842,68.1380316 L199.865543,68.0288366 L199.669069,67.9196416 L199.472596,67.8319762 L199.276509,67.7446976 L198.861774,67.6137151 L198.42551,67.5045201 L197.967458,67.4608163 L197.465702,67.4390289 L197.463639,67.4389644 Z M204.139374,76.0681598 L205.142885,76.0681598 L205.142885,63.6157327 L204.139374,63.6157327 L204.139374,76.0681598 Z M213.607947,72.594579 L213.586031,72.87837 L213.564115,73.1625348 L213.498365,73.4244997 L213.432616,73.6868256 L213.323035,73.9269643 L213.214742,74.1456251 L213.08376,74.3420987 L212.93099,74.5389334 L212.734516,74.735407 L212.516642,74.8882156 L212.298381,75.019198 L212.080506,75.1286509 L211.818541,75.2159295 L211.556577,75.2814207 L211.273082,75.3251245 L210.967413,75.3251245 L210.662131,75.3251245 L210.378379,75.2814207 L210.116801,75.2159295 L209.854836,75.1286509 L209.636833,75.019198 L209.418572,74.8882156 L209.200311,74.735407 L209.026011,74.5389334 L208.851325,74.3420987 L208.720343,74.1456251 L208.61205,73.9269643 L208.502468,73.6868256 L208.436719,73.4463258 L208.392886,73.1625348 L208.349054,72.900209 L208.349054,72.594579 L208.349054,67.5699469 L207.345543,67.5699469 L207.345543,72.3759105 L207.367459,72.7910578 L207.411292,73.1843661 L207.477041,73.5558483 L207.564706,73.9051305 L207.695689,74.2547866 L207.848458,74.5607775 L208.044545,74.8445685 L208.241019,75.1068944 L208.372002,75.2597029 L208.502984,75.3688979 L208.63358,75.4998804 L208.786349,75.6093332 L209.092018,75.8058069 L209.419088,75.9586154 L209.768331,76.0899588 L210.139104,76.1772375 L210.553452,76.2209413 L210.9678,76.2427287 L211.404451,76.2209413 L211.797012,76.1554501 L212.189572,76.0681714 L212.538816,75.9587186 L212.865885,75.784071 L213.171554,75.6094235 L213.455048,75.3689237 L213.695226,75.1069588 L213.913229,74.844633 L214.109703,74.560842 L214.262473,74.2330249 L214.393455,73.9052078 L214.479831,73.5559256 L214.567497,73.1844434 L214.611329,72.7911351 L214.611329,72.3759878 L214.611329,67.5700242 L213.607818,67.5700242 L213.607818,72.5946563 L213.607947,72.594579 Z M217.818672,65.2322739 L216.814903,65.2322739 L216.814903,74.3421026 L216.814903,74.5607762 L216.836819,74.7572499 L216.880652,74.9318975 L216.924484,75.106906 L216.990234,75.2597145 L217.055983,75.390697 L217.143648,75.5216794 L217.25323,75.6311323 L217.361522,75.7403273 L217.492505,75.8276059 L217.645275,75.9148846 L217.798045,75.9585884 L217.972344,76.0240796 L218.14703,76.0462538 L218.343504,76.0680412 L218.561507,76.0680412 L219.085437,76.0680412 L219.085437,75.1504422 L218.452699,75.1504422 L218.343117,75.1286547 L218.233535,75.1068673 L218.123954,75.0631635 L218.036288,74.9972855 L217.948623,74.8880905 L217.882874,74.735282 L217.839041,74.5388083 L217.817125,74.2764825 L217.817125,68.5092534 L220.151526,68.5092534 L220.151526,67.5698154 L217.817125,67.5698154 L217.817125,65.2321424 L217.818672,65.2322739 Z M222.683586,64.7516353 L222.531074,64.7734228 L222.400092,64.7952102 L222.29051,64.8607014 L222.202845,64.9265794 L222.115179,65.0138581 L222.071347,65.1230531 L222.027514,65.2540355 L222.027514,65.3853789 L222.027514,65.5381875 L222.071347,65.6691699 L222.115179,65.7783649 L222.202845,65.8656436 L222.29051,65.953309 L222.400092,65.9970128 L222.531074,66.0407166 L222.683586,66.0407166 L222.836356,66.0407166 L222.967339,65.9970128 L223.098321,65.953309 L223.184697,65.8656436 L223.272363,65.7783649 L223.316196,65.6691699 L223.360028,65.5381875 L223.360028,65.3853789 L223.360028,65.2540355 L223.316196,65.1230531 L223.272363,65.0138581 L223.184697,64.9265794 L223.098321,64.8607014 L222.967339,64.7952102 L222.836356,64.7734228 L222.683586,64.7516353 Z M222.181831,76.0681534 L223.207129,76.0681534 L223.207129,67.5699404 L222.181831,67.5699404 L222.181831,76.0681534 Z M230.036046,68.3343686 L230.428607,68.3561561 L230.79938,68.3998599 L231.148623,68.4657378 L231.475693,68.5749328 L231.781361,68.7277414 L232.064856,68.902389 L232.326821,69.0992236 L232.566611,69.3175234 L232.763085,69.5580231 L232.959559,69.8418141 L233.111942,70.125979 L233.242924,70.4316089 L233.33059,70.759426 L233.396339,71.0872431 L233.440171,71.4365253 L233.462088,71.8080075 L233.440171,72.1794897 L233.396339,72.5291458 L233.33059,72.878428 L233.221008,73.1844189 L233.111426,73.4900489 L232.959043,73.7742009 L232.762569,74.0583658 L232.566096,74.2985045 L232.304517,74.5390043 L232.042553,74.7354779 L231.759058,74.9101255 L231.453389,75.0633079 L231.12632,75.1725029 L230.777077,75.2379941 L230.428091,75.2816979 L230.03553,75.3034854 L229.66437,75.2816979 L229.293597,75.2379941 L228.944612,75.1725029 L228.617155,75.0633079 L228.311874,74.9101255 L228.028121,74.7354779 L227.766543,74.5390043 L227.526366,74.2985045 L227.308105,74.0583658 L227.133805,73.7960399 L226.981035,73.5122489 L226.850053,73.2062579 L226.762387,72.8784409 L226.674722,72.5509848 L226.630889,72.2013416 L226.630889,71.8080333 L226.630889,71.4365511 L226.674722,71.0872689 L226.762387,70.7376257 L226.850053,70.4098086 L226.981035,70.1260176 L227.133805,69.8418528 L227.308105,69.5580618 L227.526366,69.317562 L227.766543,69.0992623 L228.028121,68.9024276 L228.311874,68.7277801 L228.617155,68.5749715 L228.944612,68.4657765 L229.293597,68.3998985 L229.66437,68.3561948 L230.03553,68.3344073 L230.036046,68.3343686 Z M230.036046,67.4389567 L229.556207,67.4607441 L229.097768,67.5044479 L228.661504,67.6136429 L228.247156,67.7446254 L228.050682,67.831904 L227.854209,67.9195694 L227.658122,68.0287644 L227.483435,68.1379594 L227.308749,68.2471544 L227.13445,68.3781369 L226.98168,68.5313193 L226.82891,68.6841279 L226.67614,68.8369364 L226.523628,68.9901188 L226.392646,69.1647664 L226.283064,69.3394139 L226.152081,69.5144225 L226.065705,69.7108961 L225.956123,69.8855437 L225.890374,70.0823783 L225.802709,70.3006781 L225.73696,70.4975127 L225.693127,70.7158125 L225.649294,70.9341122 L225.583545,71.3710857 L225.561629,71.8298852 L225.583545,72.3105237 L225.649294,72.7474971 L225.693127,72.9657969 L225.73696,73.1626315 L225.802709,73.3809313 L225.890374,73.5777659 L225.956123,73.7742396 L226.065705,73.9707132 L226.152081,74.1457218 L226.283064,74.3203693 L226.392646,74.4950169 L226.523628,74.6700254 L226.67614,74.8228339 L226.82891,74.9974815 L226.98168,75.1288249 L227.13445,75.2816335 L227.308749,75.4126159 L227.483435,75.5218109 L227.658122,75.6531543 L227.854209,75.740433 L228.050682,75.849628 L228.247156,75.9151192 L228.443243,76.0023979 L228.661504,76.0682758 L228.879765,76.1119796 L229.097639,76.1556834 L229.556078,76.2211746 L230.035917,76.2429621 L230.537673,76.2211746 L230.995724,76.1556834 L231.213985,76.1119796 L231.43186,76.0682758 L231.650121,76.0023979 L231.846595,75.9151192 L232.042681,75.849628 L232.239155,75.740433 L232.435629,75.6531543 L232.609928,75.5218109 L232.784615,75.4126159 L232.959301,75.2816335 L233.111684,75.1288249 L233.28637,74.9974815 L233.417353,74.8446729 L233.570122,74.6700254 L233.700718,74.5172168 L233.8103,74.3422083 L233.919882,74.1457347 L234.029463,73.9707261 L234.117129,73.7742525 L234.204794,73.5777788 L234.270543,73.3809442 L234.336292,73.1844705 L234.402041,72.9657969 L234.445874,72.7474971 L234.489707,72.3105237 L234.511623,71.8298852 L234.489707,71.3710857 L234.445874,70.9122861 L234.336292,70.4975127 L234.205697,70.0823654 L234.03101,69.7108832 L233.834537,69.339401 L233.572959,69.0119449 L233.289206,68.6841279 L232.983924,68.399963 L232.634681,68.1379981 L232.438594,68.0288031 L232.263908,67.9196081 L232.067434,67.8319427 L231.871347,67.744664 L231.434696,67.6136816 L230.998432,67.5044866 L230.54038,67.4607828 L230.038624,67.4389954 L230.036046,67.4389567 Z M240.355284,67.4389567 L239.962723,67.4389567 L239.569776,67.5044479 L239.22079,67.5917266 L238.871546,67.7009216 L238.544477,67.8537301 L238.260983,68.0287386 L237.97723,68.2252123 L237.737053,68.4657121 L237.737053,67.548113 L236.711754,67.548113 L236.711754,76.0681559 L237.737053,76.0681559 L237.737053,70.8685179 L237.737053,70.606553 L237.780886,70.3442272 L237.824718,70.0822623 L237.912384,69.8417625 L238.000049,69.6234628 L238.131032,69.404802 L238.283801,69.2083284 L238.436313,69.0336808 L238.632787,68.8586723 L238.829261,68.7276898 L239.047135,68.5967074 L239.265396,68.5094287 L239.526974,68.4217633 L239.788939,68.3780595 L240.072434,68.3343558 L240.356186,68.3343558 L240.661468,68.3561432 L240.94522,68.3779306 L241.206798,68.4438086 L241.468763,68.5310873 L241.687024,68.6402823 L241.926815,68.7712647 L242.123289,68.9462732 L242.297975,69.1209208 L242.472274,69.3173944 L242.603257,69.5360681 L242.734239,69.7543678 L242.821905,69.9948676 L242.90957,70.2350064 L242.953403,70.4973322 L242.997235,70.7811232 L243.019152,71.0652881 L243.019152,76.0680889 L244.001133,76.0680889 L244.001133,71.2835917 L243.979217,70.8684444 L243.935384,70.4754971 L243.869635,70.1040149 L243.760053,69.7543588 L243.629071,69.4265417 L243.476559,69.1209118 L243.301873,68.8149208 L243.105399,68.5529559 L242.843821,68.29063 L242.560069,68.0723303 L242.254787,67.8754956 L241.905543,67.7226871 L241.556558,67.5917046 L241.185784,67.504426 L240.77105,67.4389348 L240.356702,67.4389348 L240.355284,67.4389567 Z M250.652682,71.4582986 L248.907341,70.99986 L248.536568,70.8904072 L248.187324,70.7594247 L247.903959,70.6066162 L247.685698,70.4534338 L247.577405,70.3661551 L247.48974,70.2788765 L247.423991,70.1915978 L247.358242,70.0824028 L247.314409,69.9951241 L247.292493,69.8856713 L247.270576,69.7983926 L247.270576,69.6891976 L247.270576,69.5363891 L247.292493,69.4050457 L247.314409,69.2740632 L247.358242,69.1648682 L247.423991,69.0556732 L247.48974,68.9683946 L247.555489,68.8807291 L247.663781,68.7934505 L247.751447,68.7279593 L247.882429,68.6842555 L248.013412,68.6405517 L248.144394,68.5968479 L248.471464,68.5313567 L248.842237,68.5095693 L250.347813,68.5095693 L250.631307,68.5313567 L250.871485,68.5531441 L251.111275,68.5968479 L251.329536,68.6405517 L251.52601,68.7278304 L251.722097,68.815109 L251.874867,68.924304 L252.027637,69.0337569 L252.093386,69.1210355 L252.987702,68.5967448 L252.87812,68.4875498 L252.660246,68.268889 L252.441985,68.0942415 L252.180407,67.9414329 L251.874738,67.8100895 L251.569456,67.7008945 L251.220213,67.6354033 L250.827652,67.5916995 L250.435091,67.5699121 L249.104163,67.5699121 L248.754919,67.5916995 L248.42785,67.6134869 L248.122568,67.6571907 L247.860603,67.7008945 L247.598638,67.7881732 L247.358848,67.8754518 L247.162374,67.9631172 L246.966287,68.0940997 L246.791601,68.2250821 L246.660618,68.3778907 L246.529636,68.5528992 L246.441971,68.7493728 L246.355594,68.9462075 L246.311762,69.1645072 L246.267929,69.382807 L246.267929,69.6451329 L246.267929,69.8416065 L246.289845,70.0384412 L246.333678,70.2130887 L246.399427,70.3877363 L246.485803,70.5627448 L246.573469,70.7155534 L246.68305,70.8683619 L246.83582,70.9997053 L246.966803,71.1525139 L247.141102,71.2617089 L247.315788,71.3926913 L247.53405,71.5021442 L247.730136,71.6113392 L247.970314,71.6986178 L248.231892,71.7858965 L248.493857,71.8731751 L250.173707,72.3101485 L250.609971,72.441131 L250.981131,72.5943134 L251.3082,72.7689609 L251.570165,72.9436085 L251.678458,73.0530613 L251.788039,73.1622564 L251.853789,73.2714514 L251.919538,73.3806464 L251.985287,73.4898414 L252.007203,73.6211848 L252.029119,73.7521672 L252.051036,73.8831497 L252.029119,74.0363192 L252.007203,74.1891277 L251.985287,74.3201102 L251.919538,74.4293052 L251.853789,74.5606486 L251.788039,74.6479273 L251.678458,74.7571223 L251.570165,74.8226135 L251.439183,74.9098921 L251.3082,74.9753834 L251.133514,75.0190872 L250.959215,75.0630488 L250.784528,75.1067526 L250.566267,75.12854 L250.348264,75.12854 L250.108087,75.1503274 L248.690202,75.1503274 L248.450024,75.12854 L248.209847,75.1067526 L247.970056,75.0630488 L247.773582,74.9971708 L247.577495,74.9098921 L247.402809,74.8226135 L247.228123,74.6916311 L247.075353,74.5606486 L247.009604,74.4947706 L246.137075,74.9972353 L246.224741,75.1285787 L246.334323,75.2377737 L246.442615,75.3469687 L246.552197,75.4561637 L246.683179,75.5438291 L246.945144,75.6966377 L247.250426,75.8494462 L247.556095,75.9367249 L247.90508,76.0240035 L248.297641,76.0679651 L248.690588,76.0679651 L249.541201,76.0679651 L249.977465,76.0679651 L250.370412,76.0461777 L250.719398,76.0022161 L251.068642,75.9367249 L251.395711,75.8494462 L251.679077,75.7621676 L251.941041,75.6529725 L252.159303,75.5216291 L252.377306,75.3688206 L252.551992,75.194173 L252.704762,75.0191645 L252.835358,74.8226908 L252.923023,74.6043911 L252.988772,74.3638913 L253.032605,74.1019264 L253.054521,73.8396006 L253.054521,73.6213008 L253.010688,73.4244662 L252.966856,73.2279925 L252.901107,73.053345 L252.81473,72.8783364 L252.705149,72.7036889 L252.595567,72.5508803 L252.442797,72.3758718 L252.290027,72.2448894 L252.115728,72.1139069 L251.897467,71.9829245 L251.700993,71.8515811 L251.461202,71.7423861 L251.199237,71.6331911 L250.937659,71.5459124 L250.653907,71.458247 L250.652682,71.4582986 Z M70.402706,30.8688075 L70.9044487,30.8464941 L71.3843524,30.8247067 L71.8646171,30.8029192 L72.3008556,30.737428 L72.7589332,30.6719368 L73.1733456,30.5846581 L73.5881191,30.4754631 L74.0025315,30.3441197 L74.3732789,30.2131373 L74.7662262,30.0603287 L75.1151474,29.8856812 L75.4640687,29.6888465 L75.8133509,29.4923729 L76.118607,29.2738539 L76.4460631,29.0335347 L76.7294931,28.7713893 L77.0351231,28.5092439 L77.296727,28.2252338 L77.5586919,27.9193846 L77.7766307,27.5916707 L77.9949305,27.2639954 L78.1914041,26.9363201 L78.3656778,26.5867801 L78.5403254,26.2153753 L78.6713078,25.8221701 L78.7805028,25.4289263 L78.8893111,25.0138563 L78.9765897,24.5987864 L79.0420809,24.1618516 L79.0857847,23.7030908 L79.1075722,23.24433 L79.1075722,22.7636914 L79.1075722,22.3049306 L79.0857847,21.8461698 L79.0420809,21.4092737 L78.9983771,20.972339 L78.9110985,20.557269 L78.8240777,20.1640381 L78.736799,19.7707942 L78.6058166,19.3994281 L78.4748341,19.049888 L78.3220256,18.700348 L78.169578,18.3508079 L77.9949305,18.0231327 L77.7984568,17.7172835 L77.580518,17.4114343 L77.3403792,17.1274242 L77.1006143,16.8434527 L76.8386495,16.5594426 L76.5548585,16.3191233 L76.2714284,16.1006688 L75.9661723,15.8822143 L75.6605423,15.6855989 L75.3334472,15.4889834 L75.0059911,15.3360588 L74.6570699,15.1831342 L74.2859487,15.0520358 L73.9151884,14.9428408 L73.5226021,14.8554332 L73.1078286,14.7680256 L72.6934162,14.7243218 L72.2790037,14.6806181 L71.8209262,14.6588306 L71.3843137,14.6369143 L64.1413483,14.6369143 L63.8575573,14.7025344 L63.6177795,14.789942 L63.464971,14.899137 L63.3339885,15.0302355 L63.2467099,15.161321 L63.2030061,15.3142456 L63.1812187,15.4889963 L63.1812187,15.663747 L63.1812187,30.8688075 L70.4027176,30.8688075 L70.402706,30.8688075 Z M58.250765,51.0541543 L58.250765,12.4959431 L58.250765,9.98366379 L58.4472838,9.98366379 L58.9926787,9.96174744 L59.7778514,9.93996001 L60.7380197,9.93996001 L61.7633183,9.91804365 L62.7449646,9.89625622 L63.6178156,9.89625622 L64.2723668,9.89625622 L71.4061798,9.89625622 L72.1043832,9.91804365 L72.8025996,9.96174744 L73.4571508,10.0272387 L74.111702,10.1365626 L74.7444143,10.2457576 L75.3771265,10.3986822 L75.9876516,10.5952976 L76.5767116,10.7918744 L77.1439327,11.0321937 L77.6896885,11.2943391 L78.2350834,11.5783492 L78.7368132,11.8841984 L79.238543,12.2337384 L79.7402728,12.6051046 L80.1983503,12.9983484 L80.6564279,13.4134184 L81.0712013,13.8721792 L81.4856138,14.3528177 L81.856374,14.8334176 L82.2056562,15.3358822 L82.5109124,15.8601729 L82.8165424,16.3845024 L83.0781463,16.9524969 L83.318285,17.5204914 L83.5147587,18.1103507 L83.6890324,18.7220361 L83.8418409,19.3337216 L83.9728234,19.967246 L84.0820184,20.6445 L84.1471228,21.2998892 L84.1908266,21.9989306 L84.1908266,22.6980107 L84.1908266,23.4189169 L84.1253354,24.117997 L84.0383146,24.7952123 L83.9291196,25.4506015 L83.776311,26.1059907 L83.6016635,26.7613799 L83.3837247,27.3730654 L83.1217598,27.9847508 L82.8383298,28.5746101 L82.5108737,29.1644307 L82.1619525,29.7323479 L81.7693661,30.2784776 L81.3545927,30.8246074 L80.8965151,31.327072 L80.4166114,31.8513628 L79.8930427,32.3320013 L79.413139,32.7253096 L78.9328743,33.0967918 L78.4093055,33.4464349 L77.8639106,33.773891 L77.2966896,34.079882 L76.7076296,34.3418469 L76.0967435,34.5823466 L75.4640313,34.8006464 L74.8094801,34.997481 L74.1334637,35.1721286 L73.4352602,35.303111 L72.6933917,35.4344545 L71.9515231,35.5217331 L71.1881894,35.5872243 L70.3808297,35.6309281 L69.5734699,35.6309281 L63.1811619,35.6309281 L63.1811619,51.0541543 L58.250765,51.0541543 L58.250765,51.0541543 Z M87.2233834,51.14158 L87.2233834,22.8509353 L92.001347,22.8509353 L92.001347,25.538004 L92.3939333,25.2103287 L92.7868806,24.9044795 L93.2012931,24.5986304 L93.6375317,24.3364463 L94.0737702,24.074301 L94.5322088,23.8558465 L94.9902863,23.637392 L95.47019,23.4626027 L95.9500937,23.287852 L96.4518235,23.1567664 L96.9535533,23.0475714 L97.477483,22.9383764 L98.0228779,22.8509688 L98.5682728,22.807265 L99.1136677,22.7635612 L99.6808887,22.7635612 L99.7463799,22.7635612 L99.8334007,22.7635612 L100.182683,22.807265 L100.771743,22.8946726 L101.600568,23.0038676 L102.691719,23.1567922 L103.804347,23.3315815 L103.804347,28.1376908 L102.124498,27.8318417 L102.146027,27.6789171 L102.10271,27.8318417 L101.949902,27.8100542 L101.535489,27.7663505 L100.684464,27.6571555 L99.2662158,27.5042309 L98.8954685,27.5042309 L98.5247083,27.5479347 L98.153587,27.5916384 L97.8046658,27.679046 L97.4557446,27.7664536 L97.1282885,27.8975392 L96.7793672,28.028599 L96.4737372,28.2033883 L96.1466421,28.378139 L95.8410121,28.5747545 L95.535756,28.8150737 L95.251965,29.0553543 L94.968535,29.3174997 L94.684744,29.6015099 L94.401314,29.9075008 L94.1393491,30.256783 L93.8777452,30.6064391 L93.6376064,30.9779213 L93.3978415,31.3708686 L93.2013679,31.786003 L93.0048942,32.2229764 L92.8306205,32.681776 L92.677812,33.1624145 L92.5250034,33.6648791 L92.394021,34.1673437 L92.284826,34.7134735 L92.1978052,35.2814293 L92.1323139,35.8493852 L92.0668227,36.4391671 L92.0231189,37.0729752 L92.0013315,37.7064222 L92.0013315,38.3616954 L92.0013315,51.14158 L87.2233834,51.14158 L87.2233834,51.14158 Z M119.010653,27.0016708 L118.464897,27.0016708 L117.941329,27.0454004 L117.439599,27.0891042 L116.959695,27.1765118 L116.479792,27.2639194 L116.021714,27.3950049 L115.563275,27.5260647 L115.127037,27.6789893 L114.712624,27.8756048 L114.298212,28.0722202 L113.905265,28.3125395 L113.534517,28.5528201 L113.163757,28.8368302 L112.814475,29.1208404 L112.465554,29.4486188 L112.138097,29.7760749 L111.832841,30.1475571 L111.54905,30.4972132 L111.287446,30.8686954 L111.047308,31.2616427 L110.829369,31.654951 L110.632895,32.0700983 L110.458248,32.5070717 L110.283974,32.9440451 L110.152992,33.4024836 L110.022009,33.8612831 L109.912814,34.3419217 L109.825535,34.8443863 L109.760044,35.3468509 L109.71634,35.8711417 L109.694811,36.4172714 L109.673023,36.9637621 L109.694811,37.5098919 L109.71634,38.0560216 L109.760044,38.5803123 L109.825535,39.082777 L109.912814,39.5852416 L110.022009,40.0658672 L110.152992,40.5246667 L110.283974,40.9831053 L110.436422,41.4200787 L110.632895,41.8570521 L110.829369,42.2721994 L111.047308,42.6655077 L111.287446,43.058816 L111.54905,43.4299372 L111.832841,43.8014194 L112.138097,44.1510626 L112.465554,44.4785187 L112.792649,44.8063357 L113.141931,45.1123267 L113.512678,45.3742916 L113.905265,45.6366175 L114.298212,45.8549172 L114.690798,46.073217 L115.105211,46.2482255 L115.541449,46.4010341 L115.999888,46.5538426 L116.457965,46.6632955 L116.937869,46.7724905 L117.417773,46.8379817 L117.941342,46.8816855 L118.46491,46.9253893 L119.010666,46.9253893 L119.534235,46.9253893 L120.035978,46.8816855 L120.537707,46.8379817 L121.017611,46.7724905 L121.475689,46.6632955 L121.933766,46.5538426 L122.370366,46.4010341 L122.80663,46.2482255 L123.220978,46.0513909 L123.613925,45.8549172 L124.006486,45.6147785 L124.377259,45.3742787 L124.748419,45.0904877 L125.097405,44.7844967 L125.424474,44.4785058 L125.75193,44.1292236 L126.057212,43.7795675 L126.340964,43.4080853 L126.602543,43.014777 L126.864507,42.6218297 L127.082769,42.2285214 L127.278855,41.813387 L127.475329,41.3764136 L127.628099,40.9394402 L127.780482,40.5024668 L127.890064,40.0222021 L127.999646,39.5415636 L128.087311,39.0609251 L128.15306,38.5584604 L128.218809,38.0341697 L128.240726,37.509879 L128.240726,36.9637492 L128.240726,36.4172585 L128.218809,35.8711288 L128.15306,35.346838 L128.087311,34.8443734 L128.021562,34.3419088 L127.91198,33.8612703 L127.780998,33.4024707 L127.650402,32.9440322 L127.475716,32.5070588 L127.30103,32.0700854 L127.104943,31.6549381 L126.886682,31.2616298 L126.624717,30.8686825 L126.363139,30.4972003 L126.101174,30.1257181 L125.795892,29.7760749 L125.468436,29.4266767 L125.141366,29.1208275 L124.792381,28.8149783 L124.421221,28.5527943 L124.050448,28.3125137 L123.657887,28.0721945 L123.26494,27.875579 L122.850463,27.6789635 L122.414199,27.5260389 L121.95576,27.3949791 L121.497682,27.2638936 L121.039605,27.176486 L120.537875,27.0890784 L120.036145,27.0453746 L119.534403,27.0016708 L119.010834,27.0016708 L119.010653,27.0016708 Z M119.010653,51.6221037 L118.22512,51.6002776 L117.461425,51.5565738 L116.719556,51.4692952 L115.999875,51.3601002 L115.279833,51.2072916 L114.603455,51.0322831 L113.927078,50.8358094 L113.272527,50.5734836 L112.639801,50.3115187 L112.00745,50.0055277 L111.41839,49.6562455 L110.82933,49.2847633 L110.283935,48.891455 L109.738179,48.4544816 L109.214611,47.9738431 L108.712881,47.4713785 L108.232977,46.9470877 L107.7749,46.400958 L107.360487,45.8548283 L106.96754,45.2650463 L106.618619,44.6752644 L106.291163,44.0636434 L105.985894,43.4298354 L105.723929,42.7745622 L105.50599,42.119289 L105.28769,41.4418158 L105.113043,40.7428775 L104.982421,40.0221131 L104.873226,39.3009749 L104.785947,38.5583715 L104.742244,37.793581 L104.742244,37.0073254 L104.742244,36.2425349 L104.785947,35.4781054 L104.873226,34.735141 L104.982421,33.9925376 L105.113043,33.2932383 L105.28769,32.5943001 L105.484164,31.9171879 L105.723929,31.2397147 L105.985894,30.6062676 L106.291163,29.9728206 L106.618619,29.3610191 L106.96754,28.7493337 L107.360487,28.1813392 L107.7749,27.6133447 L108.211138,27.0671891 L108.691042,26.5428984 L109.192772,26.0404338 L109.71634,25.5816729 L110.262096,25.1447382 L110.829317,24.7296683 L111.418377,24.3583021 L112.007437,24.008762 L112.639789,23.7029129 L113.272514,23.4189027 L113.927065,23.1786221 L114.603442,22.960129 L115.27982,22.7853783 L115.999862,22.6324537 L116.719544,22.5232587 L117.461412,22.4358512 L118.225107,22.3921474 L119.01064,22.3703599 L119.773974,22.3921474 L120.537669,22.4358512 L121.279537,22.5232587 L122.021045,22.6543185 L122.719274,22.7854041 L123.417503,22.9820196 L124.093816,23.200474 L124.748342,23.4407933 L125.38108,23.7247648 L126.013431,24.0306139 L126.602465,24.380154 L127.191499,24.7515588 L127.758746,25.1666288 L128.304463,25.6035248 L128.828006,26.0841633 L129.329762,26.586628 L129.787814,27.1109187 L130.224078,27.6352094 L130.638813,28.2032426 L131.031373,28.7712372 L131.380359,29.3610578 L131.686028,29.9728593 L131.969522,30.6063063 L132.231487,31.2397534 L132.471278,31.9172265 L132.667752,32.5943387 L132.820521,33.2714509 L132.973291,33.9925892 L133.059667,34.7351926 L133.147333,35.478157 L133.191166,36.2425865 L133.213082,37.0073769 L133.191166,37.7936326 L133.147333,38.5584231 L133.059667,39.3010265 L132.951375,40.0439908 L132.820392,40.7647552 L132.645706,41.4418674 L132.449233,42.1411667 L132.209442,42.7964398 L131.947477,43.451713 L131.664111,44.063695 L131.336655,44.697142 L130.98767,45.286924 L130.595109,45.8548798 L130.180374,46.4228357 L129.74411,46.9471264 L129.264271,47.4714172 L128.762515,47.9738818 L128.26076,48.4545203 L127.715429,48.8914937 L127.148182,49.284802 L126.580549,49.6562842 L125.969985,50.0055664 L125.359034,50.3115574 L124.726296,50.5735223 L124.071771,50.8358481 L123.395458,51.0323218 L122.719016,51.2073303 L121.999,51.3601389 L121.279318,51.4693339 L120.53745,51.5566125 L119.773755,51.6003163 L119.010421,51.6221037 L119.010653,51.6221037 Z M174.796071,51.141589 L174.796071,22.8509417 L179.573655,22.8509417 L179.573655,25.5380104 L179.966603,25.2103351 L180.359163,24.904486 L180.773511,24.5986368 L181.210162,24.3364528 L181.646427,24.0743074 L182.082691,23.8558529 L182.56253,23.6373985 L183.020582,23.4626091 L183.500808,23.2878584 L184.002564,23.1567728 L184.504319,23.0475778 L185.027862,22.9383828 L185.551405,22.8509752 L186.096865,22.8072715 L186.664111,22.7635677 L187.231358,22.7635677 L187.319024,22.7635677 L187.384773,22.7635677 L187.733758,22.8072715 L188.344709,22.894679 L189.173921,23.003874 L190.26471,23.1567986 L191.377288,23.331588 L191.377288,28.1595646 L189.697438,27.8318507 L189.697438,27.6789261 L189.675522,27.8318507 L189.522752,27.8100633 L189.086487,27.7663595 L188.257276,27.6571645 L186.861217,27.5042399 L186.468656,27.5042399 L186.097496,27.5479437 L185.726723,27.5916475 L185.37748,27.679055 L185.028494,27.7664626 L184.701425,27.8975482 L184.352181,28.028608 L184.046899,28.2033974 L183.719443,28.378148 L183.414161,28.5747635 L183.108493,28.8150828 L182.824998,29.0553634 L182.519329,29.3175087 L182.235964,29.6015189 L181.973999,29.9075098 L181.690504,30.2567921 L181.450327,30.6064481 L181.188749,30.9779303 L180.970488,31.3708776 L180.774014,31.7860121 L180.577927,32.2229855 L180.403241,32.681785 L180.250471,33.1624235 L180.098088,33.6648881 L179.967106,34.1673528 L179.857524,34.7134825 L179.769858,35.2814383 L179.704109,35.8493942 L179.63836,36.4391761 L179.594528,37.0729842 L179.572611,37.7064313 L179.572611,38.3617044 L179.572611,51.141589 L174.795027,51.141589 L174.796071,51.141589 Z M208.328311,27.0016644 L207.78298,27.0016644 L207.259437,27.0454069 L206.757682,27.0891106 L206.255926,27.1765182 L205.7757,27.2639258 L205.317648,27.3950114 L204.881384,27.5260712 L204.44512,27.6789957 L204.030385,27.8756112 L203.616037,28.0722267 L203.223476,28.3125459 L202.852316,28.5528265 L202.481543,28.8368367 L202.132558,29.1208468 L201.783314,29.4486252 L201.456245,29.7760813 L201.150576,30.1475635 L200.888998,30.4972196 L200.627033,30.8687018 L200.387242,31.2616491 L200.147065,31.6549574 L199.950591,32.0701047 L199.776292,32.5070781 L199.623522,32.9440515 L199.470752,33.4024901 L199.33977,33.8612896 L199.253393,34.3419281 L199.165728,34.8443927 L199.099979,35.3468574 L199.056146,35.8711481 L199.012313,36.4172778 L199.012313,36.9637686 L199.012313,37.5098983 L199.056146,38.056028 L199.099979,38.5803188 L199.165728,39.0827834 L199.253393,39.585248 L199.33977,40.0658737 L199.470752,40.5246732 L199.623522,40.9831117 L199.776292,41.4200851 L199.972379,41.8570585 L200.168852,42.2722058 L200.387113,42.6655141 L200.626904,43.0588224 L200.888869,43.4299436 L201.172363,43.8014258 L201.478032,44.151069 L201.805101,44.4785251 L202.132558,44.8063422 L202.481543,45.1123332 L202.852316,45.374298 L203.223476,45.6366239 L203.616037,45.8549237 L204.008597,46.0732234 L204.445248,46.248232 L204.859596,46.4010405 L205.317648,46.5538491 L205.7757,46.6633019 L206.255926,46.7724969 L206.735765,46.8379881 L207.259308,46.8816919 L207.782851,46.9253957 L208.328182,46.9253957 L208.851725,46.9253957 L209.35348,46.8816919 L209.855236,46.8379881 L210.335462,46.7724969 L210.815301,46.6633019 L211.251565,46.5538491 L211.709617,46.4010405 L212.123965,46.248232 L212.5387,46.0513973 L212.953048,45.8549237 L213.323821,45.6147849 L213.716768,45.3742852 L214.065625,45.0904942 L214.414869,44.7845032 L214.763854,44.4785122 L215.090924,44.12923 L215.396592,43.7795739 L215.680087,43.4080917 L215.942052,43.0147835 L216.181842,42.6218361 L216.400104,42.2285278 L216.618365,41.8133934 L216.792664,41.37642 L216.96735,40.9394466 L217.12012,40.5024732 L217.229702,40.0222085 L217.339284,39.54157 L217.42566,39.0609315 L217.513325,38.5584669 L217.557158,38.0341761 L217.579074,37.5098854 L217.600991,36.9637557 L217.579074,36.417265 L217.557158,35.8711352 L217.513325,35.3468445 L217.447576,34.8443798 L217.359911,34.3637413 L217.251618,33.8831028 L217.120636,33.4024643 L216.967866,32.9440257 L216.815096,32.5070523 L216.619009,32.091905 L216.422536,31.6767577 L216.204274,31.2616233 L215.964484,30.868676 L215.702519,30.4971938 L215.419024,30.1257116 L215.113356,29.7760685 L214.786286,29.4266702 L214.45883,29.1208211 L214.109845,28.8149719 L213.739071,28.5527879 L213.367912,28.3125073 L212.975351,28.072188 L212.58279,27.8755725 L212.168056,27.6789571 L211.731791,27.5260325 L211.295527,27.3949727 L210.837475,27.2638871 L210.357636,27.1764795 L209.87741,27.089072 L209.375654,27.0453682 L208.852111,27.0016644 L208.328568,27.0016644 L208.328311,27.0016644 Z M208.328311,51.6220844 L207.542803,51.6002841 L206.779469,51.5565803 L206.037665,51.4693016 L205.317648,51.3601066 L204.597632,51.2072981 L203.921577,51.0322896 L203.245135,50.8358159 L202.590609,50.57349 L201.957871,50.3115252 L201.34705,50.0055342 L200.736099,49.656252 L200.147065,49.2847698 L199.601734,48.8914615 L199.056275,48.4544881 L198.532732,47.9738496 L198.009189,47.4713849 L197.529221,46.9470942 L197.09257,46.4009645 L196.678222,45.8548347 L196.285661,45.2650528 L195.936418,44.6752708 L195.609348,44.0636498 L195.30368,43.4298418 L195.042102,42.7745686 L194.82384,42.1192954 L194.605837,41.4418223 L194.431151,40.742884 L194.300169,40.0221196 L194.190587,39.3009813 L194.102921,38.5583779 L194.059089,37.7935874 L194.059089,37.0073318 L194.059089,36.2425413 L194.102921,35.4781118 L194.190587,34.7351475 L194.300169,33.9925441 L194.431151,33.2932448 L194.605837,32.5943065 L194.82384,31.9171943 L195.042102,31.2397212 L195.30368,30.6062741 L195.609348,29.972827 L195.936418,29.3610256 L196.285661,28.7493402 L196.678222,28.1813456 L197.09257,27.6133511 L197.529221,27.0671956 L198.009189,26.5429048 L198.532732,26.0404402 L199.056275,25.5816794 L199.601734,25.1447446 L200.147065,24.7296747 L200.736099,24.3583085 L201.34705,24.0087685 L201.957871,23.7029193 L202.590609,23.4189092 L203.245135,23.1786286 L203.921577,22.9601354 L204.597632,22.7853848 L205.317648,22.6324602 L206.037665,22.5232652 L206.779469,22.4358576 L207.542803,22.3921538 L208.328311,22.3703664 L209.092031,22.3921538 L209.855365,22.4358576 L210.597298,22.5232652 L211.339231,22.654325 L212.03746,22.7854105 L212.735302,22.982026 L213.411744,23.2004805 L214.06627,23.4407997 L214.699008,23.7247712 L215.309829,24.0306204 L215.92078,24.3801604 L216.509814,24.7515653 L217.055145,25.1666352 L217.622391,25.6035313 L218.145934,26.0841698 L218.64769,26.5866344 L219.105742,27.1109252 L219.56418,27.6352159 L219.956741,28.2032491 L220.349301,28.7712436 L220.698545,29.3610643 L221.003827,29.9728657 L221.287579,30.6063128 L221.549157,31.2397598 L221.789335,31.895394 L221.985808,32.5943323 L222.138192,33.2714445 L222.290961,33.9925827 L222.400543,34.7133471 L222.466292,35.4781376 L222.510125,36.2425671 L222.532041,37.0073576 L222.510125,37.7936132 L222.466292,38.5584037 L222.400543,39.3010071 L222.290961,40.0439715 L222.138192,40.7647359 L221.963892,41.4418481 L221.767418,42.1411473 L221.549157,42.7964205 L221.287579,43.4516937 L220.981911,44.0636756 L220.654841,44.6971227 L220.305598,45.2869047 L219.934825,45.8548605 L219.520477,46.4228163 L219.062425,46.9471071 L218.603986,47.4713978 L218.102231,47.9738625 L217.578688,48.454501 L217.033228,48.8914744 L216.487898,49.2847827 L215.898864,49.6562649 L215.309829,50.0055471 L214.677091,50.311538 L214.044353,50.5735029 L213.389828,50.8358288 L212.735302,51.0323024 L212.03746,51.207311 L211.339231,51.3601195 L210.597298,51.4693145 L209.855365,51.5565932 L209.092031,51.600297 L208.328311,51.6220844 L208.328311,51.6220844 Z M231.301535,41.4418262 L231.541326,41.7914693 L231.781503,42.1411254 L232.043081,42.4904076 L232.305046,42.8182247 L232.566624,43.1242157 L232.872293,43.4298457 L233.177575,43.7358366 L233.483243,44.0196276 L233.810313,44.3037925 L234.137769,44.5657574 L234.486755,44.8280832 L234.857528,45.0904091 L235.228688,45.3305478 L235.599461,45.5488476 L235.992021,45.7675213 L236.406756,45.985821 L236.886595,46.2044947 L237.388351,46.4009683 L237.890106,46.5537769 L238.413649,46.6851203 L238.937192,46.7943153 L239.482523,46.881594 L240.027853,46.9252977 L240.57357,46.9252977 L241.118901,46.9252977 L241.642444,46.881594 L242.165987,46.8378902 L242.667742,46.7723989 L243.147582,46.6632039 L243.605633,46.5537511 L244.064072,46.4009425 L244.500336,46.248134 L244.914684,46.0731255 L245.329032,45.8548257 L245.72198,45.6365259 L246.092753,45.3742001 L246.463526,45.1122352 L246.812769,44.8280832 L247.139839,44.5002661 L247.467295,44.17281 L247.772577,43.823154 L248.034542,43.4735108 L248.29612,43.1023896 L248.536297,42.7090813 L248.754301,42.315773 L248.950774,41.9006257 L249.12546,41.4636523 L249.300147,41.0270398 L249.430742,40.5682403 L249.561725,40.1094408 L249.671307,39.6288023 L249.758972,39.1263376 L249.824721,38.6020469 L249.868554,38.0777562 L249.89047,37.5316264 L249.912386,36.9636706 L249.89047,36.4171799 L249.868554,35.8710501 L249.824721,35.3467594 L249.758972,34.8224687 L249.671307,34.3418301 L249.561725,33.8393655 L249.430742,33.380566 L249.300147,32.9221274 L249.12546,32.485154 L248.950774,32.0481806 L248.732771,31.6330462 L248.51451,31.2397379 L248.274332,30.8464296 L248.012754,30.4753084 L247.750789,30.1038262 L247.445507,29.7541701 L247.118051,29.4266109 L246.769066,29.098897 L246.42008,28.8149255 L246.070836,28.5309153 L245.678276,28.2905961 L245.285329,28.0721416 L244.892768,27.8536871 L244.47842,27.6788978 L244.042156,27.5259732 L243.583717,27.3730486 L243.125665,27.2638536 L242.645697,27.176446 L242.143942,27.0890385 L241.642186,27.0453347 L241.118643,27.0016309 L240.573313,27.0016309 L240.006066,27.0016309 L239.460349,27.0453347 L238.915018,27.1108259 L238.391475,27.1982335 L237.88972,27.3074285 L237.40988,27.460353 L236.951829,27.6132776 L236.515564,27.8098931 L236.078913,28.0283476 L235.664565,28.2686668 L235.272005,28.5308122 L234.900845,28.8366614 L234.551859,29.1425105 L234.202873,29.4921279 L233.875417,29.8636101 L233.570135,30.2565574 L233.286383,30.6498657 L233.024805,31.043174 L232.784627,31.4801474 L232.566366,31.8952947 L232.370279,32.3537333 L232.173806,32.8125328 L232.021036,33.2931713 L231.868524,33.7956359 L231.737541,34.3199267 L231.62796,34.8442174 L231.518378,35.3903471 L231.452629,35.936464 L231.38688,36.5047808 L231.343047,37.0945628 L231.321131,37.6843447 L231.299214,38.3177918 L231.299214,41.441723 L231.301535,41.4418262 Z M227.243258,59.3121963 L226.479924,59.2904088 L226.458008,57.1055495 L226.458008,22.0426769 L231.301445,22.0426769 L231.301445,25.8875943 L231.781284,25.4725243 L232.283039,25.0574544 L232.784795,24.7079143 L233.308338,24.3583743 L233.853668,24.0525251 L234.398999,23.746676 L234.966246,23.4845306 L235.55528,23.2660375 L236.144314,23.047583 L236.755265,22.8728323 L237.388003,22.7199077 L238.020741,22.5888092 L238.675266,22.5014017 L239.351708,22.4359105 L240.027763,22.3922067 L240.704205,22.3704192 L241.511629,22.3922067 L242.297137,22.4359105 L243.060471,22.523318 L243.802404,22.632513 L244.52242,22.7854376 L245.22065,22.9601883 L245.896705,23.1786815 L246.573146,23.418962 L247.205884,23.7029722 L247.816706,24.0088213 L248.427657,24.3364966 L248.994903,24.7079014 L249.56215,25.1229714 L250.085693,25.5380413 L250.587449,26.0186412 L251.089204,26.4992797 L251.547643,27.0235704 L251.961991,27.5478999 L252.354551,28.0940167 L252.725711,28.6620499 L253.074697,29.2518705 L253.380366,29.8637364 L253.66386,30.4753574 L253.904038,31.1306306 L254.143828,31.8077428 L254.318515,32.4852159 L254.493201,33.1841542 L254.623796,33.9271186 L254.733378,34.669722 L254.799127,35.4345125 L254.84296,36.2207681 L254.864876,37.0073847 L254.84296,37.7936403 L254.799127,38.5802698 L254.733378,39.3228732 L254.623796,40.0658376 L254.471413,40.786602 L254.318643,41.4855403 L254.100382,42.1848395 L253.882379,42.8401127 L253.620414,43.4953859 L253.33692,44.1291939 L253.009464,44.7408149 L252.660607,45.3305968 L252.26766,45.8985527 L251.853312,46.4665085 L251.417047,46.9907993 L250.958995,47.51509 L250.45724,48.0175546 L249.93331,48.4763542 L249.38798,48.9133276 L248.820733,49.3066359 L248.253486,49.678118 L247.642535,50.0055742 L247.031714,50.3115651 L246.399363,50.5953561 L245.744837,50.8358559 L245.068395,51.0323295 L244.370166,51.2291642 L243.650149,51.3601466 L242.908603,51.4693416 L242.16667,51.5566203 L241.381162,51.600324 L240.596041,51.6221115 L239.919599,51.600324 L239.243286,51.5566203 L238.566845,51.491129 L237.912319,51.381934 L237.257794,51.2509516 L236.625056,51.0759431 L235.992318,50.8794694 L235.381496,50.6611696 L234.792849,50.4206699 L234.247131,50.1805311 L233.701801,49.9182053 L233.200045,49.6340404 L232.69829,49.3284104 L232.218451,49.0005933 L231.760399,48.6731372 L231.302347,48.323494 L231.302347,59.3121963 L227.24407,59.3121963 L227.243258,59.3121963 Z M155.575494,51.3601969 L155.030163,51.3601969 L154.50662,51.3383192 L153.98269,51.3165318 L153.459147,51.272828 L152.957392,51.2291242 L152.433849,51.1632462 L151.932093,51.0759676 L151.452125,50.9886889 L150.95037,50.9014102 L150.470144,50.7922152 L149.990304,50.6612328 L149.532253,50.5298894 L149.052284,50.3989069 L148.594233,50.2242594 L148.157582,50.071077 L147.69953,49.8964294 L147.263265,49.6999558 L146.827001,49.5031211 L146.39035,49.2848214 L145.976002,49.0661477 L145.561654,48.8260089 L145.169093,48.5855092 L144.754359,48.3235443 L144.361798,48.0393795 L143.969238,47.7774146 L143.598078,47.4714236 L143.227304,47.1657936 L142.856531,46.8598026 L142.485371,46.5319856 L142.136386,46.2045295 L141.787142,45.8548734 L141.438157,45.4833912 L141.111087,45.134109 L140.805419,44.7626268 L140.500137,44.3911446 L140.194468,43.9978363 L139.911102,43.6267151 L139.649138,43.2115678 L139.387173,42.8182595 L139.125595,42.4031122 L138.885417,42.0098039 L138.645626,41.5731915 L138.427365,41.1580442 L138.209362,40.7210708 L138.012888,40.2840974 L137.816415,39.847124 L137.641728,39.3883244 L137.467429,38.9295249 L137.314659,38.4707254 L137.161889,38.0122869 L137.009377,37.5316483 L136.878395,37.0510227 L136.768813,36.5703842 L136.659231,36.0679196 L136.549649,35.5654549 L136.463273,35.0629903 L136.397524,34.5605257 L136.331775,34.0362349 L136.266026,33.5119442 L136.222193,32.9876535 L136.178361,32.4415237 L136.156444,31.895394 L136.134528,31.3489033 L136.134528,30.8027864 L136.134528,30.2566567 L136.156444,29.710527 L136.178361,29.1644359 L136.222193,28.6401452 L136.266026,28.1158544 L136.331775,27.591525 L136.397524,27.089099 L136.4839,26.5647696 L136.571566,26.062305 L136.659231,25.5817052 L136.768813,25.0792405 L136.899795,24.5986407 L137.030778,24.1180022 L137.183161,23.6374023 L137.335931,23.1786415 L137.488701,22.7198806 L137.663,22.2610811 L137.859474,21.8023203 L138.055948,21.3654242 L138.252034,20.9284895 L138.470296,20.4915934 L138.688557,20.0764848 L138.928347,19.6614149 L139.168525,19.2463449 L139.430103,18.831275 L139.713855,18.438044 L139.975433,18.0448002 L140.259186,17.651595 L140.564468,17.2583512 L140.870136,16.886985 L141.197206,16.5155802 L141.524662,16.144214 L141.873647,15.794674 L142.222891,15.4451339 L142.571877,15.1174587 L142.920733,14.7897447 L143.291893,14.4838956 L143.662666,14.1780464 L144.055227,13.8940749 L144.426387,13.6100648 L144.818947,13.3479194 L145.233295,13.085774 L145.626243,12.8454548 L146.04072,12.6051355 L146.455068,12.3866811 L146.891719,12.1682266 L147.306067,11.9716111 L147.764119,11.7749956 L148.200383,11.6002063 L148.637034,11.4472817 L149.095086,11.2943571 L149.553138,11.1414325 L150.032977,11.0103727 L150.512945,10.8792872 L150.993171,10.7700922 L151.47301,10.6826846 L151.952978,10.595277 L152.454734,10.5296569 L152.956489,10.4641657 L153.480032,10.3986744 L153.981788,10.3767581 L154.505718,10.3330543 L155.051048,10.3112669 L155.574591,10.3112669 L156.076347,10.3112669 L156.578102,10.3330543 L157.057942,10.3767581 L157.53791,10.4204619 L158.017749,10.4641657 L158.497975,10.5296569 L158.977814,10.6170645 L159.435866,10.704472 L159.915834,10.7918796 L160.373886,10.9012035 L160.832324,11.0322633 L161.268589,11.1633618 L161.72664,11.3162864 L162.162905,11.4910371 L162.599556,11.6439616 L163.03582,11.8405771 L163.450168,12.0371926 L163.886433,12.233808 L164.301167,12.4522625 L164.715515,12.6925818 L165.129863,12.932901 L165.522811,13.1731816 L165.937159,13.4571918 L166.329719,13.7193371 L167.09344,14.3091965 L167.85716,14.9427209 L168.227933,15.2922609 L168.598706,15.641801 L168.969866,15.991341 L169.318852,16.3627072 L170.475133,17.586078 L166.3299,20.928532 L165.348305,19.8580729 L164.824762,19.3337821 L164.301219,18.8313175 L163.777676,18.3943828 L163.232345,17.9574867 L162.664712,17.5642429 L162.097465,17.2147028 L161.508431,16.9088537 L160.919397,16.6030045 L160.308833,16.3626853 L159.676095,16.1442308 L159.021569,15.9694801 L158.367044,15.8165169 L157.690602,15.7073219 L156.992373,15.6199143 L156.294144,15.5542941 L155.574514,15.5542941 L154.789006,15.5542941 L154.025285,15.6199143 L153.283739,15.6854055 L152.563723,15.8164653 L151.865493,15.9694285 L151.18918,16.1441792 L150.512739,16.3626337 L149.880001,16.602953 L149.247649,16.8869631 L148.658615,17.2146384 L148.069581,17.5641784 L147.502334,17.9574223 L146.956617,18.3724922 L146.411287,18.8312531 L145.909531,19.3118529 L145.407775,19.8361823 L144.949724,20.3823121 L144.513459,20.9503453 L144.120512,21.5183398 L143.749739,22.1081604 L143.400753,22.7198845 L143.073297,23.3534089 L142.811719,24.0087981 L142.549754,24.6641873 L142.331493,25.3632674 L142.135406,26.0623089 L141.982636,26.8050928 L141.851654,27.5478766 L141.742072,28.3124866 L141.655696,29.0989228 L141.611863,29.9292045 L141.611863,30.7591252 L141.611863,31.5894069 L141.655696,32.3978625 L141.742072,33.2059571 L141.829737,33.9707476 L141.96072,34.7351771 L142.135406,35.4563154 L142.331493,36.1770798 L142.549754,36.854192 L142.789931,37.5316651 L143.073426,38.1869383 L143.379095,38.8203854 L143.72808,39.4320063 L144.098853,40.0221621 L144.491801,40.6119441 L144.928065,41.1580738 L145.386117,41.7042036 L145.887872,42.2284943 L146.389628,42.7309589 L146.935345,43.1897585 L147.480676,43.6049058 L148.047922,43.9978531 L148.636957,44.3474963 L149.225991,44.6753133 L149.858342,44.9591043 L150.49108,45.1996041 L151.167393,45.4179039 L151.843835,45.6147385 L152.542064,45.767547 L153.283997,45.876742 L154.025543,45.9640207 L154.789264,46.0077245 L155.574772,46.0295119 L156.272614,46.0077245 L156.970843,45.9640207 L157.647156,45.876742 L158.301682,45.7457596 L158.956207,45.5929511 L159.588945,45.3961164 L160.221683,45.1778166 L160.832634,44.9154908 L161.443584,44.6098608 L162.032619,44.2820437 L162.599865,43.9105615 L163.167112,43.5172532 L163.734359,43.0806408 L164.279818,42.6000023 L164.803361,42.0975377 L165.348821,41.5295818 L166.810358,39.956337 L169.625023,44.9591391 L168.795812,45.811247 L168.075795,46.4883591 L167.355778,47.0999672 L166.985005,47.4059582 L166.614232,47.690123 L166.243072,47.973914 L165.872299,48.2362399 L165.479739,48.4982048 L165.086791,48.7387045 L164.694231,48.9570043 L164.30167,49.197504 L163.908723,49.3939777 L163.494375,49.5904513 L163.101814,49.787286 L162.68708,49.9619335 L162.272732,50.1365811 L161.858384,50.2897635 L161.422119,50.4425721 L161.007384,50.5735545 L160.57112,50.7048979 L160.134856,50.8140929 L159.698591,50.9232879 L159.240153,51.0105666 L158.803888,51.0978452 L158.345837,51.1633365 L157.909572,51.2292144 L157.451134,51.2729182 L156.971295,51.316622 L156.513243,51.3384094 L156.055191,51.3601969 L155.575223,51.3601969 L155.575494,51.3601969 Z M40.2956649,75.6093461 L40.0773652,75.6093461 L39.8157613,75.5875355 L39.5101313,75.5216575 L39.139371,75.4561663 L38.2883462,75.2596926 L37.2848737,74.9973668 L36.1285927,74.6480845 L34.8413292,74.2329372 L33.4452833,73.7523245 L31.9397123,73.1843648 L30.369015,72.572749 L28.7327169,71.8952797 L27.052831,71.1745114 L25.3511138,70.3660597 L24.4784433,69.9512811 L23.6275989,69.5143077 L22.7549284,69.0773343 L21.9040582,68.6185348 L21.0313877,68.1597353 L20.2023823,67.6791096 L19.3515121,67.176645 L18.522468,66.6741804 L17.8679941,66.2590331 L17.2134816,65.8438858 L16.5807951,65.4072734 L15.9481087,64.9484738 L15.3372226,64.5115004 L14.7481626,64.0527009 L14.1591026,63.5939014 L13.5918687,63.1351019 L12.4792141,62.2175028 L11.4320121,61.2780648 L10.4502626,60.3389877 L9.53396562,59.4213887 L8.68312122,58.5256158 L7.91952969,57.6734951 L7.2213907,56.8435743 L6.58870426,56.0569578 L6.06507101,55.3143544 L5.60692383,54.6368812 L5.41059584,54.3312512 L5.25785562,54.0252602 L5.1051515,53.7632954 L4.99607252,53.5009695 L41.4737721,53.5009695 L41.713537,53.5009695 L41.9318367,53.5446733 L42.1501365,53.6101645 L42.3680753,53.6756557 L42.5863751,53.7851086 L42.7610226,53.8943036 L42.9352963,54.025286 L43.1099439,54.1780946 L43.2627524,54.3531031 L43.3933739,54.5277507 L43.5025689,54.7245853 L43.6117639,54.9210589 L43.6990426,55.1393587 L43.7427463,55.3580195 L43.7864501,55.5763192 L43.7864501,55.816819 L43.7864501,72.1139456 L43.7864501,72.6600753 L43.7209589,73.1407139 L43.6336803,73.5776873 L43.5244852,73.9488085 L43.458994,74.123817 L43.3719732,74.2766256 L43.2846946,74.4294341 L43.1974159,74.5607775 L43.0882209,74.69176 L43.0009422,74.800955 L42.8917472,74.91015 L42.7611258,75.019345 L42.520987,75.1725274 L42.2590221,75.325336 L41.953766,75.4126146 L41.648136,75.4998933 L41.3428799,75.5657712 L40.9939586,75.5875587 L40.6665025,75.6093461 L40.2957552,75.6093461 L40.2956649,75.6093461 Z" id="procrop_svg_text"></path>
        </g>
    </g>
</svg>