<?xml version="1.0" encoding="UTF-8"?>
<svg width="152px" height="51px" viewBox="0 0 152 51" version="1.1" xmlns="http://www.w3.org/2000/svg" xmlns:xlink="http://www.w3.org/1999/xlink">
    <title>windfield-united-logo</title>
    <g id="Page-1" stroke="none" stroke-width="1" fill="none" fill-rule="evenodd">
        <g id="windfield-united-logo" transform="translate(0.792343, 0.792340)" fill-rule="nonzero">
            <path d="M22.7425021,17.4716818 L17.9750016,17.4716818 L14.4025031,4.87252782 L14.3116696,4.87252782 L10.7875024,17.4716818 L6.01833248,17.4716818 L0,-1.25664202e-15 L4.37416561,-1.25664202e-15 L8.3458338,13.0016514 L8.41333361,13.0016514 L12.0391664,-1.25664202e-15 L16.7483353,-1.25664202e-15 L20.3233353,13.0016514 L20.3933354,13.0016514 L24.302501,-1.25664202e-15 L28.7875006,-1.25664202e-15 L22.7425123,17.4716818 L22.7425021,17.4716818 Z M30.939199,3.30498373 L34.9925325,3.30498373 L34.9925325,17.4716818 L30.939199,17.4716818 L30.939199,3.30498373 Z M52.4233477,17.4716818 L43.5075092,8.11837069 L43.4391758,8.11837069 L43.4391758,17.4716818 L39.3841727,17.4716818 L39.3841727,3.3033425 L44.0850053,3.3033425 L53.0441949,12.6575025 L53.0900282,12.6575025 L53.0900282,3.3033425 L57.1466951,3.3033425 L57.1466951,17.4716818 L52.4233607,17.4716818 L52.4233477,17.4716818 Z M65.3725363,3.25750126 L65.3725363,6.81583426 L75.1158942,6.81583426 L75.1158942,10.0183373 L65.3725363,10.0183373 L65.3725363,17.4716705 L61.3192028,17.4716705 L61.3192028,0.0574883125 L79.4000638,0.0574883125 L79.4000638,3.25748994 L65.3725873,3.25748994 L65.3725363,3.25750126 Z M82.3216846,3.30250129 L86.3750181,3.30250129 L86.3750181,17.4708406 L82.3216846,17.4708406 L82.3216846,3.30250129 L82.3216846,3.30250129 Z M90.558337,17.4716895 L90.558337,3.3033502 L105.945827,3.3033502 L105.945827,6.50751716 L94.6150039,6.50751716 L94.6150039,8.80918326 L102.307504,8.80918326 L102.307504,12.0116863 L94.6150039,12.0116863 L94.6150039,14.2700183 L106.496658,14.2700183 L106.496658,17.4716895 L90.558337,17.4716895 L90.558337,17.4716895 Z M110.240008,17.4717121 L110.240008,3.3033502 L114.294185,3.3033502 L114.294185,14.2700466 L125.189176,14.2700466 L125.189176,17.4717121 L110.240008,17.4717121 L110.240008,17.4717121 Z M142.935012,10.6075012 C142.935012,8.28083182 141.069177,6.50583631 138.490013,6.50583631 L132.52669,6.50583631 L132.52669,14.2699844 L138.514178,14.2699844 C141.002515,14.2699844 142.935012,12.5874863 142.935012,10.6074842 L142.935012,10.6075012 Z M147.152513,10.6525012 C147.152513,12.7275022 146.255015,14.4525025 144.481678,15.7675009 C143.028347,16.8275032 141.002509,17.4708369 138.768331,17.4708369 L128.471653,17.4708369 L128.471653,3.30334658 L138.284961,3.30334658 C143.765796,3.30334658 147.152513,6.23001556 147.152513,10.6524899 L147.152513,10.6525012 Z M148.365846,4.46914028 L148.549179,4.46914028 C148.760013,4.46914028 148.932513,4.40080684 148.932513,4.22747375 C148.932513,4.07414045 148.822513,3.97330727 148.578346,3.97330727 C148.476679,3.97330727 148.405846,3.98414063 148.365846,3.99497393 L148.365846,4.46914045 L148.365846,4.46914028 Z M148.355013,5.40997234 L147.970846,5.40997234 L147.970846,3.75080803 C148.122513,3.72080805 148.335846,3.70080803 148.608345,3.70080803 C148.923345,3.70080803 149.064178,3.75080803 149.18668,3.82247464 C149.275847,3.89330785 149.347513,4.02497465 149.347513,4.18664143 C149.347513,4.368308 149.205847,4.50997498 149.00418,4.57247471 L149.00418,4.59164138 C149.16668,4.65164134 149.25668,4.77330796 149.30668,4.99664139 C149.358347,5.24914118 149.38918,5.35164163 149.427514,5.40997489 L149.013347,5.40997489 C148.962514,5.35164163 148.932514,5.1991414 148.882514,5.00664158 C148.852514,4.82414137 148.750014,4.74330798 148.538347,4.74330798 L148.355014,4.74330798 L148.355014,5.40997546 L148.355013,5.40997234 Z M147.333347,4.53997349 C147.333347,5.27913804 147.880014,5.86747359 148.629183,5.86747359 C149.358347,5.86747359 149.89418,5.27913804 149.89418,4.55080561 C149.89418,3.81247299 149.358347,3.21496919 148.619183,3.21496919 C147.880018,3.21496919 147.333347,3.81246733 147.333347,4.53996783 L147.333347,4.53997349 Z M150.31918,4.53997349 C150.31918,5.48247508 149.580847,6.22163963 148.619177,6.22163963 C147.669177,6.22163963 146.909174,5.48247508 146.909174,4.53997349 C146.909174,3.61997373 147.669177,2.88164111 148.619177,2.88164111 C149.580841,2.88164111 150.31918,3.61997373 150.31918,4.53997349 Z M22.8160109,17.5424738 L18.0476786,17.5424738 L14.4751801,4.94331982 L14.3835134,4.94331982 L10.8593463,17.5424738 L6.09101394,17.5424738 L0.0718325464,0.0724898305 L4.44599815,0.0724898305 L8.41766634,13.0749901 L8.48599979,13.0749901 L12.1110007,0.0724898305 L16.8201695,0.0724898305 L20.396839,13.0749901 L20.4651725,13.0749901 L24.3760076,0.0724898305 L28.8618448,0.0724898305 L22.8160075,17.5424738 L22.8160109,17.5424738 Z M31.011859,3.37747356 L35.0635286,3.37747356 L35.0635286,17.5424738 L31.011859,17.5424738 L31.011859,3.37747356 Z M52.4943664,17.5424738 L43.5802258,8.19080392 L43.5127259,8.19080392 L43.5127259,17.5424738 L39.4585605,17.5424738 L39.4585605,3.37747356 L44.1585611,3.37747356 L53.1169018,12.7299923 L53.1635685,12.7299923 L53.1635685,3.37747356 L57.2194035,3.37747356 L57.2194035,17.5424738 L52.4943995,17.5424738 L52.4943664,17.5424738 Z M65.4443474,3.32999109 L65.4443474,6.88832409 L75.1893464,6.88832409 L75.1893464,10.0899896 L65.4443474,10.0899896 L65.4443474,17.5433227 L61.3918458,17.5433227 L61.3918458,0.12914055 L79.4727068,0.12914055 L79.4727068,3.32997411 L65.4443813,3.32997411 L65.4443474,3.32999109 Z M82.3934956,3.37749111 L86.4476611,3.37749111 L86.4476611,17.5424913 L82.3934956,17.5424913 L82.3934956,3.37749111 Z M90.6309969,17.542497 L90.6309969,3.37749111 L106.018487,3.37749111 L106.018487,6.57832467 L94.6868149,6.57832467 L94.6868149,8.8816603 L102.379315,8.8816603 L102.379315,12.0849953 L94.6868149,12.0849953 L94.6868149,14.3424954 L106.570166,14.3424954 L106.570166,17.542497 L90.6309969,17.542497 L90.6309969,17.542497 Z M110.31183,17.5424913 L110.31183,3.37749111 L114.365996,3.37749111 L114.365996,14.3424897 L125.262685,14.3424897 L125.262685,17.5424913 L110.31183,17.5424913 L110.31183,17.5424913 Z M143.008543,10.679152 C143.008543,8.35165065 141.143518,6.57831901 138.564354,6.57831901 L132.59854,6.57831901 L132.59854,14.3424671 L138.586878,14.3424671 C141.074377,14.3424671 143.008543,12.6608009 143.008543,10.679135 L143.008543,10.679152 Z M147.22519,10.724152 C147.22519,12.7999849 146.327692,14.5258171 144.553523,15.8399893 C143.099354,16.8999916 141.074354,17.5424877 138.840176,17.5424877 L128.544347,17.5424877 L128.544347,3.37748749 L138.358504,3.37748749 C143.838507,3.37748749 147.22519,6.30165501 147.22519,10.7241407 L147.22519,10.724152 Z M148.438523,4.54163996 L148.62019,4.54163996 C148.833523,4.54163996 149.00519,4.47163982 149.00519,4.29913979 C149.00519,4.1474732 148.893523,4.04664001 148.65019,4.04664001 C148.549356,4.04664001 148.479356,4.05580667 148.438523,4.06747333 L148.438523,4.54163985 L148.438523,4.54163996 Z M148.428523,5.48414155 L148.043523,5.48414155 L148.043523,3.82247577 C148.196856,3.79247579 148.40769,3.77247577 148.681022,3.77247577 C148.996022,3.77247577 149.136022,3.82247577 149.259357,3.89497602 C149.349357,3.96497616 149.42019,4.09664296 149.42019,4.25747611 C149.42019,4.44164301 149.279357,4.58247636 149.076023,4.64414302 L149.076023,4.66247634 C149.238523,4.724143 149.329357,4.84580962 149.379356,5.06914305 C149.43019,5.32164284 149.46019,5.42247659 149.501857,5.48414325 L149.08519,5.48414325 C149.036023,5.42247659 149.00519,5.27164306 148.954357,5.07914323 C148.924357,4.89664303 148.824356,4.81497657 148.61019,4.81497657 L148.428523,4.81497657 L148.428523,5.48414551 L148.428523,5.48414155 Z M147.404356,4.61247317 C147.404356,5.35163772 147.95269,5.93997327 148.700192,5.93997327 C149.430194,5.93997327 149.966859,5.35163772 149.966859,4.62330529 C149.966859,3.88497267 149.430192,3.285805 148.691861,3.285805 C147.952697,3.285805 147.404362,3.88497267 147.404362,4.61247317 L147.404356,4.61247317 Z M150.391858,4.61247317 C150.391858,5.55497476 149.652694,6.29330737 148.691855,6.29330737 C147.740191,6.29330737 146.98269,5.55497476 146.98269,4.61247317 C146.98269,3.69247341 147.740191,2.95247126 148.691855,2.95247126 C149.652688,2.95247126 150.391858,3.69247341 150.391858,4.61247317 Z" id="wusa_svg_over" fill="#000000"></path>
            <path d="M37.8557935,35.8099894 L28.9424451,26.4583195 L28.8757784,26.4583195 L28.8757784,35.8099894 L24.8199434,35.8099894 L24.8199434,21.6458381 L29.519944,21.6458381 L38.4791336,30.9966591 L38.5241336,30.9966591 L38.5241336,21.6458381 L42.5799686,21.6458381 L42.5799686,35.8099894 L37.8558023,35.8099894 L37.8557935,35.8099894 Z M45.924135,21.6458381 L49.9783004,21.6458381 L49.9783004,35.8099894 L45.924135,35.8099894 L45.924135,21.6458381 Z M73.289149,35.8099894 L73.289149,21.6441403 L88.6749977,21.6441403 L88.6749977,24.8466434 L77.3441747,24.8466434 L77.3441747,27.1491414 L85.0350333,27.1491414 L85.0350333,30.3516445 L77.3441747,30.3516445 L77.3441747,32.6091445 L89.2258283,32.6091445 L89.2258283,35.8099894 L73.289149,35.8099894 L73.289149,35.8099894 Z M17.2266122,21.6458381 L21.1841192,21.6458381 L21.1841192,30.3950069 C21.1866149,32.7416767 20.0841119,34.2258406 18.0216126,35.1675103 C15.7524428,36.2075122 13.3282787,36.3875098 10.8624557,36.2150109 C9.21328591,36.0991775 7.6074559,35.7725111 6.14245471,34.9991767 C4.34078639,34.0466749 3.35411875,32.717511 3.35744373,30.5541779 L3.35744373,21.6792003 L7.30411705,21.6792003 L7.30411705,29.9658819 C7.30411705,31.2075514 7.72245064,32.3250477 9.16411694,32.7775517 C11.2657851,33.4392162 13.4199499,33.4475525 15.5207691,32.7075515 C17.0374351,32.1733845 17.2266009,30.99005 17.2266009,30.0508818 L17.2266009,21.6458381 L17.2266122,21.6458381 Z M53.3941067,21.6641714 L70.3407648,21.6641714 L70.3407648,24.8433408 L63.8932791,24.8433408 L63.8932791,35.7917007 L59.8416095,35.7917007 L59.8416095,24.8975579 L53.3941067,24.8975579 L53.3941067,21.6641714 L53.3941067,21.6641714 Z M106.756645,28.9474958 C106.756645,26.6199945 104.889096,24.8466628 102.310758,24.8466628 L96.3482839,24.8466628 L96.3482839,32.6091697 L102.33498,32.6091697 C104.822479,32.6091697 106.756645,30.9275035 106.756645,28.9475015 L106.756645,28.9474958 Z M110.971595,28.9924958 C110.971595,31.0658273 110.074929,32.7916651 108.303261,34.1066636 C106.84826,35.1658283 104.822428,35.809162 102.588273,35.809162 L92.2940845,35.809162 L92.2940845,21.645803 L102.107393,21.645803 C107.586559,21.645803 110.971595,24.5699705 110.971595,28.9924562 L110.971595,28.9924958 Z M37.9283868,35.882491 L29.0142461,26.5308211 L28.948413,26.5308211 L28.948413,35.882491 L24.892578,35.882491 L24.892578,21.7174908 L29.5925786,21.7174908 L38.5500704,31.0691607 L38.5975704,31.0691607 L38.5975704,21.7174908 L42.6525734,21.7174908 L42.6525734,35.882491 L37.9284071,35.882491 L37.9283868,35.882491 Z M45.9975771,21.7174908 L50.0500787,21.7174908 L50.0500787,35.882491 L45.9975771,35.882491 L45.9975771,21.7174908 Z M73.3608368,35.8824967 L73.3608368,21.7174908 L88.7467421,21.7174908 L88.7467421,24.9199939 L77.4167113,24.9199939 L77.4167113,27.220828 L85.1067211,27.220828 L85.1067211,30.4233311 L77.4167113,30.4233311 L77.4167113,32.6816631 L89.298365,32.6816631 L89.298365,35.8824967 L73.3608368,35.8824967 L73.3608368,35.8824967 Z M17.2975643,21.7174664 L21.2559032,21.7174664 L21.2559032,30.4666596 C21.2583989,32.8141613 20.1575654,34.2974933 18.0933965,35.2416588 C15.8233949,36.2791592 13.4008946,36.4599944 10.9350886,36.2874899 C9.28508688,36.1716564 7.67841928,35.84499 6.21425568,35.0708237 C4.41258736,34.11749 3.42508779,32.789158 3.4275845,30.6249873 L3.4275845,21.7491609 L7.37675561,21.7491609 L7.37675561,30.0374837 C7.37675561,31.280817 7.79425557,32.397487 9.23509163,32.8491534 C11.3375917,33.510818 13.4925941,33.5191543 15.5934416,32.78082 C17.1101076,32.2466529 17.2976096,31.0624865 17.2976096,30.1224864 L17.2976096,21.7174664 L17.2975643,21.7174664 Z M53.466734,21.7366575 L70.4134147,21.7366575 L70.4134147,24.9158268 L63.965929,24.9158268 L63.965929,35.8624889 L59.9134274,35.8624889 L59.9134274,24.9683461 L53.466734,24.9683461 L53.466734,21.7366575 L53.466734,21.7366575 Z M106.828469,29.0183406 C106.828469,26.6925088 104.962617,24.9175076 102.383453,24.9175076 L96.4201301,24.9175076 L96.4201301,32.6816557 L102.408468,32.6816557 C104.895134,32.6816557 106.828469,31.0008215 106.828469,29.0183236 L106.828469,29.0183406 Z M111.043452,29.0650073 C111.043452,31.1383387 110.146786,32.8650085 108.373449,34.1775112 C106.920949,35.2391773 104.895117,35.882511 102.660951,35.882511 L92.3651214,35.882511 L92.3651214,21.7175108 L102.17843,21.7175108 C107.658433,21.7175108 111.043452,24.6425103 111.043452,29.0650129 L111.043452,29.0650073 Z" id="wusa_svg_under" fill="#4F7227"></path>
            <path d="M6.04831039,49.9991553 C5.16580989,49.9991553 4.23414608,49.8033221 3.57914265,49.5058221 L3.86747614,48.1733191 C4.56747756,48.3916524 5.27997496,48.5408192 6.07247947,48.5408192 C6.9558119,48.5408192 7.1283108,48.3683192 7.1283108,47.7266505 C7.1283108,47.0374812 7.09331078,46.9566478 5.84247529,46.6816513 C3.99330752,46.2799847 3.71914294,45.9124862 3.71914294,44.2591511 C3.71914294,42.7299835 4.25747644,42.1233171 6.3583081,42.1233171 C7.02580752,42.1233171 7.82830655,42.1924836 8.67914263,42.3749838 L8.50580898,43.8216485 C7.6341406,43.6724816 7.0699764,43.6033151 6.38163903,43.6033151 C5.61247393,43.6033151 5.44080697,43.7424818 5.44080697,44.3041485 C5.44080697,45.0383158 5.47580699,45.0508174 6.67997496,45.3383156 C8.74747721,45.8324825 8.85080676,46.2341496 8.85080676,47.737482 C8.85080676,49.254148 8.35663988,49.9991553 6.04830529,49.9991553 L6.04831039,49.9991553 Z M13.1707943,47.7841575 L13.1707943,46.3933229 C13.1707943,45.8658226 12.8957943,45.5674901 12.2982939,45.5674901 C11.7016277,45.5674901 11.4249617,45.8658238 11.4249617,46.3933229 L11.4249617,47.7841575 C11.4249617,48.3108241 11.7016283,48.6099903 12.2982939,48.6099903 C12.8957921,48.6099903 13.1707943,48.3108235 13.1707943,47.7841575 Z M9.77245851,47.7374908 L9.77245851,46.4399913 C9.77245851,45.2908249 10.3116251,44.1774883 12.2982939,44.1774883 C14.2841252,44.1774883 14.8241294,45.2908192 14.8241294,46.4399913 L14.8241294,47.7374908 C14.8241294,48.8858252 14.2841292,49.9999938 12.2982939,49.9999938 C10.3116251,49.9999938 9.77245851,48.8858252 9.77245851,47.7374908 Z M17.628289,44.2924876 L17.628289,47.9899912 C17.628289,48.2433246 17.7441225,48.3916578 18.0307893,48.3916578 C18.329956,48.3916578 18.8799559,48.1858244 19.2366233,47.9899912 L19.2366233,44.2924876 L20.8899585,44.2924876 L20.8899585,49.8841569 L19.6616226,49.8841569 L19.4891226,49.4599902 C18.7991213,49.7924876 17.9041249,49.9991567 17.2616231,49.9991567 C16.3082894,49.9991567 15.9757876,49.2866593 15.9757876,48.2074886 L15.9757876,44.2924876 L17.6282907,44.2924876 L17.628289,44.2924876 Z M24.2566496,49.9991607 C23.1891486,49.9991607 22.5699805,49.5974896 22.5699805,48.5641555 L22.5699805,45.6258225 L21.8108156,45.6258225 L21.8108156,44.2924876 L22.5699805,44.2924876 L22.5699805,42.94999 L24.2224837,42.7216565 L24.2224837,44.2924887 L25.4966495,44.2924887 L25.4041493,45.6258236 L24.2224809,45.6258236 L24.2224809,48.3341581 C24.2224809,48.5641584 24.3591478,48.6458248 24.5658143,48.6458248 C24.7508142,48.6458248 25.0158145,48.6216582 25.2574794,48.5408246 L25.4516459,49.7924942 C25.082479,49.9183279 24.6349813,49.9991607 24.2566439,49.9991607 L24.2566496,49.9991607 Z M29.7816511,49.8841863 L29.7816511,46.1874903 C29.7816511,45.9341569 29.6666513,45.7866568 29.3791508,45.7866568 C29.0816508,45.7866568 28.5308162,46.0149903 28.1741487,46.1991567 L28.1741487,49.8841863 L26.5216455,49.8841863 L26.5216455,42.0083504 L28.1516469,41.7775171 L28.1516469,44.6950178 C28.8274826,44.3841842 29.507478,44.1775177 30.1491479,44.1775177 C31.1024816,44.1775177 31.4349834,44.8900151 31.4349834,45.9691859 L31.4349834,49.8841863 L29.7816483,49.8841863 L29.7816511,49.8841863 Z M37.2499817,46.9566554 L39.0074839,46.9566554 L38.1341517,43.7524885 L37.2499873,46.9566554 L37.2499817,46.9566554 Z M41.6241473,49.8841564 L39.8333111,49.8841564 L39.4191445,48.3916561 L36.8583113,48.3916561 L36.4458114,49.8841564 L34.6541433,49.8841564 L36.9866418,42.2383466 L39.2816411,42.2383466 L41.6241473,49.8841564 L41.6241473,49.8841564 Z M45.6574804,43.236667 C45.4283138,43.191667 45.1183138,43.1550005 44.9233131,43.1550005 C44.3949798,43.1550005 44.3608128,43.3858338 44.3608128,43.7524987 L44.3608128,44.4074964 L45.6799822,44.4074964 L45.5649824,45.7624956 L44.3608179,45.7624956 L44.3608179,49.8841609 L42.7074828,49.8841609 L42.7074828,45.7624956 L41.8566467,45.7624956 L41.8566467,44.4074964 L42.7074828,44.4074964 L42.7074828,43.5683301 C42.7074828,42.4216652 43.2466493,41.7774939 44.6008166,41.7774939 C45.0724834,41.7774939 45.4166492,41.8458273 45.8649822,41.938327 L45.6574821,43.2366585 L45.6574804,43.236667 Z M48.2674826,46.4741679 L48.2674826,49.8841677 L46.6133156,49.8841677 L46.6133156,44.2924983 L47.9899847,44.2924983 L48.1058181,44.8324985 C48.4499851,44.6033319 49.1608175,44.2691651 49.6083186,44.1775007 L49.7474852,45.7383328 C49.254152,45.934166 48.6224846,46.2216664 48.2674866,46.4741639 L48.2674826,46.4741679 Z M50.577485,44.2924983 L52.2291506,44.2924983 L52.2291506,49.8841677 L50.577485,49.8841677 L50.577485,44.2924983 Z M50.577485,41.8358322 L52.2291506,41.8358322 L52.2291506,43.5924969 L50.577485,43.5924969 L50.577485,41.8358322 Z M55.032484,47.7483337 C55.032484,48.3224981 55.2724839,48.5875 55.9391502,48.5875 C56.3641506,48.5875 56.6849816,48.5408334 57.0866527,48.4500001 L57.2933192,49.828333 C56.7316525,49.9533331 56.3291534,50 55.9391519,50 C54.1258196,50 53.3783187,49.3216685 53.3783187,47.7266649 L53.3783187,46.4524991 C53.3783187,44.8558317 54.1258196,44.1775002 55.9391519,44.1775002 C56.3291522,44.1775002 56.7316508,44.2233335 57.2933192,44.3491671 L57.0866527,45.7275001 C56.7424857,45.6475003 56.259988,45.5900001 55.9391502,45.5900001 C55.2724827,45.5900001 55.032484,45.8550004 55.032484,46.4275026 L55.032484,47.7483359 L55.032484,47.7483337 Z M61.0857917,47.8766671 L60.2932928,47.8766671 C59.9374595,47.8766671 59.7991259,47.9675007 59.7991259,48.2783337 C59.7991259,48.5875006 59.9257927,48.7125006 60.2474595,48.7125006 C60.5924596,48.7125006 60.8332936,48.6333339 61.0857939,48.5183341 L61.0857939,47.8766699 L61.0857917,47.8766671 Z M61.3832917,49.8841682 L61.269125,49.5275013 C60.6266232,49.8841682 60.0524588,49.9991681 59.6732895,49.9991681 C58.6399543,49.9991681 58.215787,49.2541687 58.215787,48.300003 C58.215787,47.1741704 58.7316204,46.7275013 59.8807862,46.7275013 L61.0857883,46.7275013 L61.0857883,46.3016679 C61.0857883,45.7275035 60.9832884,45.5325028 60.0982887,45.5325028 C59.6041218,45.5325028 59.1099572,45.590836 58.5832866,45.6925028 L58.3641196,44.4541668 C58.8932866,44.2925 59.7299509,44.1775002 60.3724527,44.1775002 C62.313286,44.1775002 62.7382852,44.7633343 62.7382852,46.3141661 L62.7382852,49.8841688 L61.3832861,49.8841688 L61.3832917,49.8841682 Z" id="wusa_svg_text" fill="#6E7278"></path>
        </g>
    </g>
</svg>