<?xml version="1.0" encoding="utf-8"?>
<!DOCTYPE svg PUBLIC "-//W3C//DTD SVG 20010904//EN" "http://www.w3.org/TR/2001/REC-SVG-20010904/DTD/svg10.dtd">
<svg version="1.0" xmlns="http://www.w3.org/2000/svg" width="64px" height="120px" viewBox="0 0 64 120" preserveAspectRatio="xMidYMid meet">
 <g fill="#ffffff">
  <path d="M0 74 l0 -46 2.7 0 c3.5 0 10.3 7.1 14.2 14.9 3.6 7 8.8 24 9.7 31.4 l0.6 5.2 -2.6 -4 c-2.9 -4.8 -7 -7.5 -8.8 -5.7 -0.8 0.8 -0.5 1.4 1.3 2 1.3 0.6 3.2 1.8 4.1 2.9 5.5 6.1 9.6 24.7 8.9 40.6 -0.1 2.7 -0.1 2.7 -7.6 2.7 -4.3 0 -7.5 0.4 -7.5 1 0 0.6 -3.2 1 -7.5 1 l-7.5 0 0 -46z"/>
  <path d="M47.5 119 c-0.3 -0.5 -3.8 -1 -7.7 -1 l-7.1 0 0.6 -10.2 c1 -17.5 5.9 -32.3 11.8 -35.6 3.1 -1.8 3.8 -3.2 1.5 -3.2 -2.1 0 -6.5 3.9 -8.3 7.3 -2.5 4.9 -2.6 1.8 -0.3 -7.4 6.6 -26.3 13.2 -38.1 22.9 -40.9 l3.1 -0.9 0 46.5 0 46.4 -7.9 0 c-4.4 0 -8.3 -0.4 -8.6 -1z"/>
  <path d="M27.5 67.3 c-5.6 -25.6 -16.9 -43 -26.8 -41.4 -0.4 0 -0.7 -5.7 -0.7 -12.9 l0 -13 7.3 0 c6.8 0 7.5 0.2 10.1 2.9 5 5.2 8.4 22.4 11.6 58.4 0.7 7.1 1 13.1 0.7 13.3 -0.3 0.3 -1.2 -3 -2.2 -7.3z"/>
  <path d="M34.1 68.2 c-0.2 -12.5 4.6 -47.1 8.1 -57.7 2.9 -8.9 5 -10.5 14.3 -10.5 l7.5 0 0 12.9 0 12.9 -2.4 0 c-9.3 0 -18.1 13.1 -24.7 36.7 -2.4 8.8 -2.8 9.5 -2.8 5.7z"/>
  <path d="M30.9 57.9 c-0.1 -9.3 -3.3 -33.5 -5.5 -42.1 -1.8 -7.1 -4 -12.4 -5.4 -13.3 -3 -1.8 0.1 -2.5 12 -2.5 l13 0 -2.5 4 c-4 6.4 -7.3 23.2 -10 51 -0.7 7.7 -1.5 9.1 -1.6 2.9z"/>
 </g>
 <g fill="#1ffe1f">
  <path d="M15 119 c0 -0.6 3.2 -1 7.5 -1 7.5 0 7.5 0 7.6 -2.7 0.7 -15.9 -3.4 -34.5 -8.9 -40.6 -0.9 -1.1 -2.8 -2.3 -4.1 -2.9 -1.8 -0.6 -2.1 -1.2 -1.3 -2 1.8 -1.8 5.9 0.9 8.8 5.7 l2.6 4 -0.6 -5.2 c-0.9 -7.4 -6.1 -24.4 -9.7 -31.4 -3.9 -7.9 -10.7 -14.9 -14.3 -14.9 -1.5 0 -2.6 -0.5 -2.4 -1.1 0.2 -0.6 0.7 -1 1.1 -1 0.4 0.1 1.6 0.1 2.7 0.1 1.1 0 4.1 1.9 6.6 4.2 7 6.4 13.1 19.9 16.9 37.1 1 4.3 1.9 7.6 2.2 7.3 0.3 -0.2 0 -6.2 -0.7 -13.3 -3.2 -36 -6.6 -53.2 -11.6 -58.4 -2.3 -2.5 -2.5 -2.9 -0.9 -2.9 4.8 0 9.1 11.8 11.9 33.1 1.9 14.2 2.4 19.2 2.5 24.8 0.1 6.2 0.9 4.8 1.6 -2.9 1.5 -15.4 3.7 -31.1 5.5 -38.7 2.1 -8.7 6 -16.3 8.5 -16.3 2.1 0 1.9 1.3 -0.3 2.7 -2.3 1.3 -5.6 11.6 -7.7 23.3 -1.8 10.2 -4.5 36.3 -4.4 42.2 0 3.8 0.4 3.1 2.8 -5.7 3.8 -13.5 7.4 -22 11.9 -28 3.8 -5.1 11.2 -9.8 13.8 -8.8 2 0.7 0.9 1.9 -2.4 2.6 -8.4 1.7 -15.9 15.4 -22.2 40.6 -2.3 9.2 -2.2 12.3 0.3 7.4 1.8 -3.4 6.2 -7.3 8.3 -7.3 2.3 0 1.6 1.4 -1.5 3.2 -5.9 3.3 -10.8 18.1 -11.8 35.6 l-0.6 10.2 7.1 0 c3.9 0 7.4 0.5 7.7 1 0.4 0.7 -5.2 1 -15.9 1 -10.4 0 -16.6 -0.4 -16.6 -1z"/>
 </g>
 <g fill="#d7fedd">
 </g>
</svg>