<?xml version="1.0" encoding="UTF-8"?>
<svg width="545px" height="102px" viewBox="0 0 545 102" version="1.1" xmlns="http://www.w3.org/2000/svg" xmlns:xlink="http://www.w3.org/1999/xlink">
    <title>vf-logo</title>
    <g id="vf-logo" stroke="none" stroke-width="1" fill="none" fill-rule="evenodd">
        <g id="Group" transform="translate(0.117664, 0.720000)" fill-rule="nonzero">
            <g id="Spruitjie" fill="#65A30D">
                <path d="M12.3529199,99.1666667 C12.3529199,98.6666667 15.0195866,98.3333333 18.6029199,98.3333333 C24.8529199,98.3333333 24.8529199,98.3333333 24.9362532,96.0833333 C25.5195866,82.8333333 22.1029199,67.3333333 17.5195866,62.25 C16.7695866,61.3333333 15.1862532,60.3333333 14.1029199,59.8333333 C12.6029199,59.3333333 12.3529199,58.8333333 13.0195866,58.1666667 C14.5195866,56.6666667 17.9362532,58.9166667 20.3529199,62.9166667 L22.5195866,66.25 L22.0195866,61.9166667 C21.2695866,55.75 16.9362532,41.5833333 13.9362532,35.75 C10.6862532,29.1666667 5.01958655,23.3333333 2.01958655,23.3333333 C0.769586553,23.3333333 -0.147080113,22.9166667 0.0195865532,22.4166667 C0.18625322,21.9166667 0.602919887,21.5833333 0.93625322,21.5833333 C1.26958655,21.6666667 2.26958655,21.6666667 3.18625322,21.6666667 C4.10291989,21.6666667 6.60291989,23.25 8.68625322,25.1666667 C14.5195866,30.5 19.6029199,41.75 22.7695866,56.0833333 C23.6029199,59.6666667 24.3529199,62.4166667 24.6029199,62.1666667 C24.8529199,62 24.6029199,57 24.0195866,51.0833333 C21.3529199,21.0833333 18.5195866,6.75 14.3529199,2.41666667 C12.4362532,0.333333333 12.2695866,0 13.6029199,0 C17.6029199,0 21.1862532,9.83333333 23.5195866,27.5833333 C25.1029199,39.4166667 25.5195866,43.5833333 25.6029199,48.25 C25.6862532,53.4166667 26.3529199,52.25 26.9362532,45.8333333 C28.1862532,33 30.0195866,19.9166667 31.5195866,13.5833333 C33.2695866,6.33333333 36.5195866,0 38.6029199,0 C40.3529199,0 40.1862532,1.08333333 38.3529199,2.25 C36.4362532,3.33333333 33.6862532,11.9166667 31.9362532,21.6666667 C30.4362532,30.1666667 28.1862532,51.9166667 28.2695866,56.8333333 C28.2695866,60 28.6029199,59.4166667 30.6029199,52.0833333 C33.7695866,40.8333333 36.7695866,33.75 40.5195866,28.75 C43.6862532,24.5 49.8529199,20.5833333 52.0195866,21.4166667 C53.6862532,22 52.7695866,23 50.0195866,23.5833333 C43.0195866,25 36.7695866,36.4166667 31.5195866,57.4166667 C29.6029199,65.0833333 29.6862532,67.6666667 31.7695866,63.5833333 C33.2695866,60.75 36.9362532,57.5 38.6862532,57.5 C40.6029199,57.5 40.0195866,58.6666667 37.4362532,60.1666667 C32.5195866,62.9166667 28.4362532,75.25 27.6029199,89.8333333 L27.1029199,98.3333333 L33.0195866,98.3333333 C36.2695866,98.3333333 39.1862532,98.75 39.4362532,99.1666667 C39.7695866,99.75 35.1029199,100 26.1862532,100 C17.5195866,100 12.3529199,99.6666667 12.3529199,99.1666667 Z"></path>
            </g>
            <path d="M100.674336,76.28 C100.674336,76.28 118.170336,25.88 118.170336,25.88 L109.170336,25.88 L109.170336,25.88 C109.170336,25.88 108.906442,26.6716832 108.452543,28.0333783 L108.246598,28.6512143 C108.029451,29.3026565 107.779343,30.0529783 107.502093,30.8847304 L107.21601,31.7429796 C106.823076,32.9217797 106.385335,34.2350044 105.916572,35.6412923 L105.559399,36.7128113 C105.317693,37.4379284 105.069094,38.1837263 104.815325,38.9450348 L104.431008,40.097984 C103.138464,43.975616 101.738208,48.176384 100.445664,52.054016 L100.061348,53.2069652 C99.8075782,53.9682737 99.5589789,54.7140716 99.3172732,55.4391887 L98.9601002,56.5107077 C98.4913376,57.9169956 98.053596,59.2302203 97.6606626,60.4090204 L97.3745796,61.2672696 C97.0973289,62.0990217 96.8472216,62.8493435 96.6300742,63.5007857 L96.4241289,64.1186217 C95.9702305,65.4803168 95.7063361,66.272 95.7063361,66.272 C95.7063361,66.272 82.3143361,25.88 82.3143361,25.88 L73.2423361,25.88 L73.2423361,25.88 C73.2423361,25.88 77.6163361,38.48 81.9903361,51.08 L82.5149362,52.5911936 C86.7072577,64.66784 90.7383361,76.28 90.7383361,76.28 L100.674336,76.28 L100.674336,76.28 Z M127.028316,34.88 C128.396316,34.88 129.548316,34.376 130.556316,33.368 C131.492316,32.432 131.996316,31.28 131.996316,29.912 C131.996316,28.544 131.492316,27.392 130.556316,26.384 C129.620316,25.448 128.396316,24.944 127.028316,24.944 C125.660316,24.944 124.436316,25.448 123.500316,26.384 C122.564316,27.392 122.060316,28.544 122.060316,29.912 C122.060316,31.28 122.564316,32.432 123.572316,33.368 C124.508316,34.376 125.660316,34.88 127.028316,34.88 Z M130.916316,76.28 L130.916316,40.28 L130.916316,40.28 L123.140316,40.28 L123.140316,40.28 L123.140316,76.28 L123.140316,76.28 L130.916316,76.28 L130.916316,76.28 Z M147.766295,76.28 L147.766295,58.136 L147.766295,58.136 C147.766295,54.464 148.846295,51.8 151.078295,50.144 C153.310295,48.56 155.902295,47.84 158.854295,48.056 L158.854295,39.632 L158.854295,39.632 C153.454295,39.632 149.710295,41.864 147.766295,46.328 L147.766295,40.28 L147.766295,40.28 L139.990295,40.28 L139.990295,40.28 L139.990295,76.28 L139.990295,76.28 L147.766295,76.28 L147.766295,76.28 Z M184.776275,76.28 L184.776275,69.296 L184.776275,69.296 C182.832275,69.368 181.176275,69.368 179.880275,69.296 C178.512275,69.224 177.504275,68.864 176.856275,68.216 C176.208275,67.568 175.848275,66.56 175.848275,65.048 L175.848275,47.768 L175.848275,47.768 L184.776275,47.768 L184.776275,47.768 L184.776275,40.28 L184.776275,40.28 L175.848275,40.28 L175.848275,40.28 L175.848275,30.2 L175.848275,30.2 C175.848275,30.2 168.072275,32.504 168.072275,32.504 L168.072275,40.28 L168.072275,40.28 L161.448275,40.28 L161.448275,40.28 L161.448275,47.768 L161.448275,47.768 L168.072275,47.768 L168.072275,47.768 L168.072275,65.048 L168.072275,65.048 C168.072275,69.728 169.368275,72.968 171.960275,74.696 C174.552275,76.496 178.800275,77 184.776275,76.28 Z M205.370254,77.216 C210.482254,77.216 214.154254,75.344 216.530254,71.672 L216.530254,76.28 L216.530254,76.28 L224.306254,76.28 L224.306254,76.28 L224.306254,40.28 L224.306254,40.28 L216.530254,40.28 L216.530254,40.28 L216.530254,59.576 L216.530254,59.576 C216.530254,63.104 215.666254,65.696 214.010254,67.352 C212.354254,69.08 210.122254,69.944 207.386254,69.944 C204.866254,69.944 202.922254,69.224 201.482254,67.784 C200.042254,66.344 199.322254,64.256 199.322254,61.592 L199.322254,40.28 L199.322254,40.28 L191.546254,40.28 L191.546254,40.28 L191.546254,62.384 L191.546254,62.384 C191.546254,66.992 192.842254,70.592 195.362254,73.256 C197.882254,75.92 201.266254,77.216 205.370254,77.216 Z M249.364234,77.216 C254.836234,77.216 259.012234,75.2 261.964234,71.096 L261.964234,76.28 L261.964234,76.28 L269.740234,76.28 L269.740234,76.28 L269.740234,40.28 L269.740234,40.28 L261.964234,40.28 L261.964234,40.28 L261.964234,45.392 L261.964234,45.392 C259.012234,41.36 254.836234,39.344 249.364234,39.344 C244.396234,39.344 240.220234,41.144 236.692234,44.816 C233.164234,48.488 231.436234,52.952 231.436234,58.28 C231.436234,63.536 233.164234,68 236.692234,71.672 C240.220234,75.344 244.396234,77.216 249.364234,77.216 Z M250.588234,69.8 C247.348234,69.8 244.612234,68.72 242.452234,66.488 C240.292234,64.328 239.212234,61.592 239.212234,58.28 C239.212234,54.968 240.292234,52.232 242.452234,50 C244.612234,47.84 247.348234,46.76 250.588234,46.76 C253.828234,46.76 256.564234,47.84 258.724234,50 C260.884234,52.232 261.964234,54.968 261.964234,58.28 C261.964234,61.592 260.884234,64.328 258.724234,66.488 C256.564234,68.72 253.828234,69.8 250.588234,69.8 Z M286.662213,76.28 L286.662213,23.72 L286.662213,23.72 L278.886213,23.72 L278.886213,23.72 L278.886213,76.28 L278.886213,76.28 L286.662213,76.28 L286.662213,76.28 Z M322.594172,76.28 L322.594172,55.832 L322.594172,55.832 L343.114172,55.832 L343.114172,55.832 L343.114172,47.912 L343.114172,47.912 L322.594172,47.912 L322.594172,47.912 L322.594172,33.8 L322.594172,33.8 L343.834172,33.8 L343.834172,33.8 L343.834172,25.88 L343.834172,25.88 L314.314172,25.88 L314.314172,25.88 L314.314172,76.28 L314.314172,76.28 L322.594172,76.28 L322.594172,76.28 Z M367.092152,77.216 C372.564152,77.216 376.740152,75.2 379.692152,71.096 L379.692152,76.28 L379.692152,76.28 L387.468152,76.28 L387.468152,76.28 L387.468152,40.28 L387.468152,40.28 L379.692152,40.28 L379.692152,40.28 L379.692152,45.392 L379.692152,45.392 C376.740152,41.36 372.564152,39.344 367.092152,39.344 C362.124152,39.344 357.948152,41.144 354.420152,44.816 C350.892152,48.488 349.164152,52.952 349.164152,58.28 C349.164152,63.536 350.892152,68 354.420152,71.672 C357.948152,75.344 362.124152,77.216 367.092152,77.216 Z M368.316152,69.8 C365.076152,69.8 362.340152,68.72 360.180152,66.488 C358.020152,64.328 356.940152,61.592 356.940152,58.28 C356.940152,54.968 358.020152,52.232 360.180152,50 C362.340152,47.84 365.076152,46.76 368.316152,46.76 C371.556152,46.76 374.292152,47.84 376.452152,50 C378.612152,52.232 379.692152,54.968 379.692152,58.28 C379.692152,61.592 378.612152,64.328 376.452152,66.488 C374.292152,68.72 371.556152,69.8 368.316152,69.8 Z M404.390131,76.28 L404.390131,58.136 L404.390131,58.136 C404.390131,54.464 405.470131,51.8 407.702131,50.144 C409.934131,48.56 412.526131,47.84 415.478131,48.056 L415.478131,39.632 L415.478131,39.632 C410.078131,39.632 406.334131,41.864 404.390131,46.328 L404.390131,40.28 L404.390131,40.28 L396.614131,40.28 L396.614131,40.28 L396.614131,76.28 L396.614131,76.28 L404.390131,76.28 L404.390131,76.28 Z M429.088111,76.28 L429.088111,56.12 L429.088111,56.12 C429.088111,53.024 429.808111,50.648 431.320111,48.992 C432.832111,47.408 434.704111,46.616 437.080111,46.616 C439.240111,46.616 440.896111,47.264 442.120111,48.632 C443.272111,50 443.848111,51.944 443.848111,54.464 L443.848111,76.28 L443.848111,76.28 L451.624111,76.28 L451.624111,76.28 L451.624111,56.12 L451.624111,56.12 C451.624111,52.952 452.344111,50.576 453.784111,48.992 C455.152111,47.408 457.096111,46.616 459.472111,46.616 C461.632111,46.616 463.360111,47.264 464.584111,48.632 C465.808111,50 466.456111,51.944 466.456111,54.464 L466.456111,76.28 L466.456111,76.28 L474.232111,76.28 L474.232111,76.28 L474.232111,53.96 L474.232111,53.96 C474.232111,49.496 473.008111,45.968 470.488111,43.304 C467.968111,40.64 464.728111,39.344 460.624111,39.344 C455.656111,39.344 451.984111,41.216 449.608111,45.032 C447.376111,41.216 443.992111,39.344 439.384111,39.344 C434.848111,39.344 431.392111,41.072 429.088111,44.6 L429.088111,40.28 L429.088111,40.28 L421.312111,40.28 L421.312111,40.28 L421.312111,76.28 L421.312111,76.28 L429.088111,76.28 L429.088111,76.28 Z M500.22609,77.216 C507.21009,77.216 512.46609,74.624 515.99409,69.368 C515.99409,69.368 509.58609,65.624 509.58609,65.624 C507.49809,68.576 504.40209,70.088 500.29809,70.088 C497.34609,70.088 494.82609,69.368 492.73809,67.856 C490.65009,66.416 489.35409,64.328 488.77809,61.592 L517.43409,61.592 L517.43409,61.592 C517.65009,60.224 517.72209,59.144 517.72209,58.352 C517.72209,53.096 516.06609,48.56 512.68209,44.888 C509.29809,41.216 504.90609,39.344 499.65009,39.344 C494.10609,39.344 489.49809,41.144 485.97009,44.744 C482.44209,48.416 480.64209,52.88 480.64209,58.28 C480.64209,63.752 482.44209,68.288 486.04209,71.816 C489.64209,75.416 494.39409,77.216 500.22609,77.216 Z M509.87409,55.256 L488.70609,55.256 L488.70609,55.256 C489.21009,52.52 490.43409,50.36 492.37809,48.776 C494.32209,47.192 496.69809,46.4 499.57809,46.4 C502.09809,46.4 504.33009,47.12 506.27409,48.632 C508.14609,50.144 509.37009,52.304 509.87409,55.256 Z M532.41207,76.28 L532.41207,58.136 L532.41207,58.136 C532.41207,54.464 533.49207,51.8 535.72407,50.144 C537.95607,48.56 540.54807,47.84 543.50007,48.056 L543.50007,39.632 L543.50007,39.632 C538.10007,39.632 534.35607,41.864 532.41207,46.328 L532.41207,40.28 L532.41207,40.28 L524.63607,40.28 L524.63607,40.28 L524.63607,76.28 L524.63607,76.28 L532.41207,76.28 L532.41207,76.28 Z" id="Type" fill="#1C1917"></path>
        </g>
    </g>
</svg>