<?xml version="1.0" encoding="UTF-8"?>
<svg width="335px" height="335px" viewBox="0 0 335 335" version="1.1" xmlns="http://www.w3.org/2000/svg" xmlns:xlink="http://www.w3.org/1999/xlink">
    <title>meridian-avatar</title>
    <g id="meridian-avatar" stroke="none" stroke-width="1" fill="none" fill-rule="evenodd">
        <g id="meridian-logo" transform="translate(19.000000, 127.000000)" fill-rule="nonzero">
            <path d="M3.65008893e-05,26.4955158 L37.3912056,26.4955158 L37.8029113,26.5160779 L38.194359,26.5777645 L38.5648673,26.6804536 L38.9147649,26.8036928 L39.2650152,26.9679955 L39.5943141,27.1733981 L39.9030143,27.3993021 L40.1708456,27.6457805 L40.4383363,27.933225 L40.6649703,28.2415845 L40.8503949,28.5495912 L41.0148679,28.8988073 L41.1590829,29.2682815 L41.2621371,29.6380963 L41.3033831,30.0281692 L41.3239452,30.4185949 L41.3239452,43.2146033 L41.3239452,43.52261 L41.2621371,43.810018 L41.2003289,44.0977667 L41.0972747,44.364576 L40.9736584,44.631726 L40.829784,44.8782774 L40.6443595,45.1042179 L40.458935,45.3095597 L40.2532525,45.4943029 L40.0266185,45.679046 L39.7797264,45.8229204 L39.5118951,45.946196 L39.2444044,46.0488852 L38.9559622,46.1103284 L38.6678729,46.1515744 L38.3794307,46.1721365 L6.6917202,46.1721365 L6.15639816,46.1721365 L5.62103961,46.1308905 L5.06514324,46.0694474 L4.50921279,45.9667582 L3.93268003,45.864069 L3.37674958,45.699596 L2.84142268,45.5354637 L2.32666402,45.3301219 L2.07960288,45.2068462 L1.85311,45.0835705 L1.62661711,44.9602949 L1.40012423,44.8164205 L1.19423488,44.6522882 L1.00891378,44.5084138 L0.823626749,44.3439408 L0.65890797,44.1591977 L0.514757441,43.9744545 L0.391244515,43.7893707 L0.267697522,43.5840288 L0.164752847,43.378687 L0.102981176,43.1527465 L0.041209504,42.926806 L0.0206108355,42.6802546 L3.65008893e-05,42.4340561 L3.65008893e-05,26.4955158 L3.65008893e-05,26.4955158 Z M3.29441769,3.55271368e-15 L3.54147883,3.55271368e-15 L3.85034814,0.0411000013 L4.1797857,0.0821635018 L4.57096329,0.143764836 L5.43576305,0.34917359 L6.46524629,0.616184896 L7.61827288,0.944798752 L8.89485255,1.33504801 L10.2743757,1.807434 L11.7362424,2.3619908 L13.259882,2.95765002 L14.8452969,3.61487652 L16.4924847,4.35430788 L18.1602748,5.13477355 L19.0044674,5.54555699 L19.8280613,5.97687583 L20.6722173,6.42875684 L21.5164099,6.88061352 L22.360566,7.35299586 L23.1841964,7.84595254 L24.0077903,8.33890921 L24.8313476,8.83182939 L26.0049851,9.6123279 L27.1374495,10.3722643 L28.2082031,11.1527628 L29.2376498,11.9332613 L30.2258871,12.7137233 L31.1523283,13.4942218 L32.0584994,14.2952582 L32.9025216,15.096258 L33.7262859,15.91782 L34.4879012,16.739382 L35.2086478,17.5609441 L35.9087957,18.4030439 L36.5673934,19.2657181 L37.1851345,20.1283558 L37.761666,21.0115313 L38.3175989,21.915269 L2.18250132,21.915269 L1.9560133,21.8947064 L1.75012396,21.8741443 L1.54423461,21.8125794 L1.33831606,21.7510146 L1.15302902,21.6483254 L0.967707926,21.5456363 L0.802989147,21.4223971 L0.638270367,21.2786201 L0.494153906,21.1143174 L0.370605696,20.9500148 L0.267661021,20.7651378 L0.164716346,20.5802973 L0.102944675,20.3749189 L0.0411730031,20.1695162 L0.0205743346,19.9436122 L0,19.7176717 L0,3.28634917 L0.0205743346,2.77286074 L0.0617838386,2.32100894 L0.102956842,2.11563425 L0.144129845,1.93075968 L0.205901516,1.74591917 L0.267673188,1.56107867 L0.32944486,1.41730653 L0.391216531,1.25296493 L0.473562537,1.12972576 L0.555945045,0.985953626 L0.658889719,0.883288791 L0.761834394,0.760049622 L0.864779069,0.657348287 L0.967723743,0.575172618 L1.19421663,0.410866298 L1.46188008,0.287627129 L1.72954354,0.184962295 L2.01781053,0.102786626 L2.30607752,0.0617231254 L2.63551508,0.0206231241 L2.96495264,3.55271368e-15 L3.29439019,3.55271368e-15 L3.29441769,3.55271368e-15 Z" id="meridian_svg_over" fill="#252858"></path>
            <path d="M154.794459,16.308086 L154.485783,16.308086 L154.176743,16.2669616 L153.888629,16.2052751 L153.641396,16.1231481 L153.394528,16.0204589 L153.167858,15.8972198 L152.941552,15.7739806 L152.756128,15.6096779 L152.591266,15.4248374 L152.447087,15.2194226 L152.323836,14.9935186 L152.220417,14.7675781 L152.137681,14.5005619 L152.07563,14.2335457 L152.034262,13.9460039 L152.034262,13.6379242 L152.034262,13.3298446 L152.07563,13.0423027 L152.137681,12.7752865 L152.220417,12.5288082 L152.323836,12.3028677 L152.447087,12.0769637 L152.591266,11.8715489 L152.756128,11.7072462 L152.941552,11.5429435 L153.147174,11.3991665 L153.394407,11.2759274 L153.641274,11.1732382 L153.888507,11.1116733 L154.176621,11.0499868 L154.485662,11.0088625 L154.794338,10.9883003 L155.123941,11.0088625 L155.432616,11.0499868 L155.72073,11.1116733 L155.988525,11.1732382 L156.235758,11.2759274 L156.482625,11.3991665 L156.688612,11.5429435 L156.873672,11.7072462 L157.059096,11.8715489 L157.203275,12.0769637 L157.326891,12.3028677 L157.450142,12.5288082 L157.532878,12.7752865 L157.594929,13.0423027 L157.615613,13.3298446 L157.636297,13.6379242 L157.615613,13.9460039 L157.594929,14.2335457 L157.532878,14.5005619 L157.450142,14.7675781 L157.326891,14.9935186 L157.203275,15.2194226 L157.059096,15.4248374 L156.873672,15.6096779 L156.688612,15.7739806 L156.482625,15.8972198 L156.235758,16.0204589 L155.988525,16.1231481 L155.72073,16.2052751 L155.432616,16.2669616 L155.123941,16.308086 L154.794338,16.308086 L154.794338,16.308086 L154.794459,16.308086 Z M203.469076,16.308086 L203.160036,16.308086 L202.85136,16.2669616 L202.583565,16.2052751 L202.316013,16.1231481 L202.068781,16.0204589 L201.84211,15.8972198 L201.636367,15.7739806 L201.450942,15.6096779 L201.265883,15.4248374 L201.121704,15.2194226 L200.998088,14.9935186 L200.894669,14.7675781 L200.811933,14.5005619 L200.749882,14.2335457 L200.708514,13.9460039 L200.708514,13.6379242 L200.708514,13.3298446 L200.749882,13.0423027 L200.811933,12.7752865 L200.894669,12.5288082 L200.998088,12.3028677 L201.121704,12.0769637 L201.265883,11.8715489 L201.43038,11.7072462 L201.615805,11.5429435 L201.84211,11.3991665 L202.068781,11.2759274 L202.316013,11.1732382 L202.583565,11.1116733 L202.85136,11.0499868 L203.160036,11.0088625 L203.469076,10.9883003 L203.798436,11.0088625 L204.107112,11.0499868 L204.395591,11.1116733 L204.663142,11.1732382 L204.910375,11.2759274 L205.157243,11.3991665 L205.363229,11.5429435 L205.548654,11.7072462 L205.733713,11.8715489 L205.877892,12.0769637 L206.001508,12.3028677 L206.125124,12.5288082 L206.20786,12.7752865 L206.269911,13.0423027 L206.311279,13.3298446 L206.311279,13.6379242 L206.311279,13.9460039 L206.269911,14.2335457 L206.20786,14.5005619 L206.125124,14.7675781 L206.001508,14.9935186 L205.877892,15.2194226 L205.733713,15.4248374 L205.548654,15.6096779 L205.363229,15.7739806 L205.157243,15.8972198 L204.910375,16.0204589 L204.663142,16.1231481 L204.395591,16.2052751 L204.107112,16.2669616 L203.798436,16.308086 L203.469076,16.308086 L203.469076,16.308086 Z M129.757343,45.5762814 L129.757343,19.2246421 L134.328058,19.2246421 L134.328058,21.8331185 L134.719469,21.504501 L135.110515,21.2169591 L135.542807,20.9294173 L135.954537,20.6624011 L136.407757,20.4159228 L136.860733,20.1899823 L137.313587,19.984604 L137.787125,19.799727 L138.281226,19.6559499 L138.775326,19.5121729 L139.29011,19.3889703 L139.804773,19.3068433 L140.340119,19.2247163 L140.875466,19.1631514 L141.431374,19.1425893 L142.007967,19.1220271 L142.152145,19.1220271 L142.481748,19.1835919 L143.078538,19.2451568 L143.922925,19.3683959 L144.993618,19.5121729 L146.043627,19.6559499 L146.043627,24.0513347 L144.169805,23.743255 L143.840445,23.7226929 L143.325661,23.6610064 L142.60489,23.5788794 L141.616689,23.4556402 L141.246205,23.4762024 L140.875356,23.5173267 L140.504872,23.558451 L140.15495,23.640578 L139.804663,23.722705 L139.475425,23.8459442 L139.125504,23.9691834 L138.816463,24.1129604 L138.487103,24.2978009 L138.178062,24.4826414 L137.889948,24.6880562 L137.580908,24.9345346 L137.292794,25.1809764 L137.00468,25.4479926 L136.736885,25.7561088 L136.469334,26.0641884 L136.201539,26.3928059 L135.974868,26.7419856 L135.728001,27.1116666 L135.522014,27.501922 L135.336955,27.9128733 L135.15153,28.3441556 L135.007352,28.7960488 L134.863173,29.2682 L134.739922,29.7406918 L134.616305,30.2540403 L134.53357,30.7677295 L134.450835,31.3222875 L134.388783,31.8768455 L134.368099,32.4520022 L134.326732,33.0474169 L134.326732,33.6637831 L134.326732,45.5762814 L129.756017,45.5762814 L129.757343,45.5762814 Z M152.508932,19.2246421 L157.121184,19.2246421 L157.121184,45.5762814 L152.508932,45.5762814 L152.508932,19.2246421 Z M201.183549,19.2246421 L205.816071,19.2246421 L205.816071,45.5762814 L201.183549,45.5762814 L201.183549,19.2246421 Z M266.535739,45.5763289 L266.535739,30.1719681 L266.535739,29.7818952 L266.515055,29.4120804 L266.473687,29.0422656 L266.43232,28.6727914 L266.349584,28.3235752 L266.287533,27.974359 L266.184114,27.6457172 L266.080694,27.3170997 L265.957443,27.00902 L265.813265,26.7009039 L265.669086,26.3928242 L265.504589,26.1052823 L265.319164,25.8177405 L265.113177,25.5507243 L264.907434,25.304246 L264.680764,25.0372298 L264.433531,24.790788 L264.186663,24.5648475 L263.918868,24.338907 L263.651317,24.1335286 L263.362838,23.969226 L263.074724,23.784349 L262.765684,23.640572 L262.457008,23.496795 L262.127648,23.3735558 L261.798045,23.2708666 L261.448123,23.1887396 L261.098201,23.1271748 L260.727352,23.0654883 L260.356868,23.0243639 L259.965822,23.0038018 L259.574411,22.9832396 L259.183243,23.0038018 L258.792197,23.0243639 L258.400786,23.0654883 L258.030302,23.1066126 L257.68038,23.1682991 L257.330093,23.2504261 L257.000733,23.3325531 L256.671373,23.4352423 L256.362333,23.5584815 L256.074219,23.6817206 L255.765178,23.8460233 L255.497627,23.9898003 L255.229832,24.1746408 L254.96228,24.3594813 L254.715047,24.5648961 L254.46818,24.7908367 L254.241509,25.0167407 L254.035523,25.263219 L253.850463,25.5096973 L253.665039,25.7561757 L253.500176,26.0231918 L253.335679,26.3107337 L253.212063,26.5982755 L253.088446,26.8858174 L252.985027,27.193897 L252.882824,27.5019767 L252.800089,27.8305212 L252.738038,28.1591387 L252.69667,28.5083549 L252.655302,28.8781697 L252.634618,29.2476439 L252.634618,29.6174587 L252.634618,45.5763289 L248.001755,45.5763289 L248.001755,19.1836211 L252.634618,19.1836211 L252.634618,20.8267573 L252.98454,20.580279 L253.355389,20.3338007 L253.725873,20.1284223 L254.11692,19.9230197 L254.52865,19.7381792 L254.940745,19.5738765 L255.352475,19.4300995 L255.784767,19.2863225 L256.217059,19.1630833 L256.670278,19.0603941 L257.123133,18.9782671 L257.596671,18.9165806 L258.070209,18.8550158 L258.56431,18.8138915 L259.05841,18.7933293 L259.573194,18.7727671 L260.252719,18.7933293 L260.932244,18.8344536 L261.570523,18.8960185 L262.208923,18.9987076 L262.805713,19.1219468 L263.402867,19.2862495 L263.979338,19.47109 L264.514685,19.6765048 L265.050031,19.9024088 L265.564693,20.169425 L266.058794,20.4775047 L266.532697,20.7856208 L266.985551,21.134764 L267.438406,21.5044815 L267.850136,21.9152625 L268.241547,22.3465814 L268.591469,22.7573624 L268.920829,23.1886812 L269.209307,23.6200001 L269.497421,24.0924189 L269.765216,24.5648012 L269.991521,25.0577579 L270.197508,25.5712159 L270.403495,26.0847104 L270.567992,26.6187306 L270.712171,27.1732886 L270.835787,27.7483845 L270.939206,28.3441398 L271.001258,28.9395545 L271.063309,29.5559207 L271.104677,30.1719462 L271.104677,30.829169 L271.125361,45.5763289 L266.534048,45.5763289 L266.535739,45.5763289 Z M75.0292922,45.6380981 L74.6587839,45.6175274 L74.3088863,45.5762814 L73.9792468,45.4941544 L73.649948,45.3708788 L73.3409071,45.2270044 L73.0322069,45.0628721 L72.7441176,44.8575303 L72.4762862,44.6109911 L72.2293942,44.3438411 L71.9821615,44.0564331 L71.7349288,43.7072169 L71.5292463,43.3580007 L71.3232231,42.9679157 L71.1381393,42.5366334 L70.9527147,42.0847524 L70.8084997,41.5916619 L62.4283421,14.9730112 L62.4283421,45.6380981 L57.6722032,45.6380981 L57.6722032,11.3375567 L57.6722032,10.8857 L57.7340114,10.4338433 L57.8163817,10.0230623 L57.9399981,9.6533448 L58.0014412,9.4685043 L58.0838116,9.2836273 L58.1661819,9.11932463 L58.2692361,8.95502196 L58.3722903,8.81124495 L58.4753444,8.66746795 L58.5986201,8.52369095 L58.7222365,8.40045178 L58.8664515,8.27721261 L59.0106665,8.15397344 L59.1545408,8.05128427 L59.3193667,7.9485951 L59.6486655,7.78429243 L60.0195146,7.64051543 L60.4106216,7.51727626 L60.8429381,7.43514926 L61.2958533,7.39402493 L61.7903187,7.37346276 L62.0578094,7.39402493 L62.3462516,7.41458709 L62.6343409,7.45571143 L62.9430411,7.49683576 L63.2314833,7.57896277 L63.5401835,7.70220193 L63.8286257,7.8254411 L64.116715,7.98974377 L64.3845464,8.17458428 L64.6726358,8.40052478 L64.9198684,8.66754095 L65.1667605,8.97562063 L65.3933945,9.30426247 L65.5994177,9.69448131 L65.8051002,10.1052623 L65.969926,10.5776812 L75.0292874,39.3940942 L84.0889918,10.5776812 L84.2538177,10.1052623 L84.4595002,9.67394347 L84.6861342,9.30426247 L84.9124154,8.95508279 L85.1596481,8.66754095 L85.4271387,8.40052478 L85.7155809,8.17458428 L86.0036825,7.98974377 L86.2921246,7.8254411 L86.580214,7.70220193 L86.8892549,7.57896277 L87.1773442,7.49683576 L87.4863851,7.45571143 L87.7744744,7.41458709 L88.0629166,7.39402493 L88.351006,7.37346276 L88.8245198,7.39402493 L89.277435,7.43514926 L89.6894936,7.51727626 L90.0806006,7.64051543 L90.451109,7.78429243 L90.7807485,7.9485951 L91.0894487,8.15397344 L91.35728,8.40045178 L91.6041721,8.66746795 L91.8101952,8.95500979 L91.9956198,9.2836273 L92.1394941,9.63280697 L92.2631104,10.0230623 L92.3454808,10.4133177 L92.3867268,10.8651743 L92.407289,11.317031 L92.407289,45.5556341 L87.650807,45.5556341 L87.650807,14.9113831 L79.2709924,41.5916704 L79.1061666,42.0847609 L78.9207421,42.5366419 L78.7356582,42.9679242 L78.529635,43.3580092 L78.303001,43.7278241 L78.0767198,44.0564416 L77.8294872,44.3438496 L77.5825951,44.6109996 L77.2941529,44.8575388 L77.0266623,45.0628806 L76.7176214,45.2270129 L76.4089212,45.3708873 L76.0796224,45.4941629 L75.7499828,45.5762899 L75.4000853,45.617536 L75.0292363,45.6380981 L75.0292922,45.6380981 Z M118.926824,29.9666275 L118.845305,29.5968126 L118.76257,29.2681951 L118.659151,28.9189789 L118.555732,28.5903614 L118.432115,28.2823548 L118.308864,27.9537373 L118.164685,27.6456941 L118.020507,27.3581522 L117.855644,27.0706104 L117.670585,26.7830686 L117.505723,26.4955267 L117.299736,26.2285106 L117.094114,25.9614944 L116.888128,25.715016 L116.661822,25.4685377 L116.435152,25.2220959 L116.147038,24.9550797 L115.837997,24.7086014 L115.529321,24.462123 L115.199718,24.2567447 L114.870419,24.051342 L114.54078,23.8665015 L114.190882,23.7021988 L113.820374,23.5584218 L113.449525,23.4146448 L113.079016,23.3119557 L112.687909,23.2092665 L112.276204,23.1271395 L111.864145,23.065453 L111.431829,23.0243287 L110.978913,23.0037665 L110.525998,22.9832043 L110.093682,23.0037665 L109.640426,23.0243287 L109.22872,23.065453 L108.817014,23.1271395 L108.405309,23.2092665 L108.013861,23.3119557 L107.622754,23.4146448 L107.252246,23.5584218 L106.881397,23.7021988 L106.531499,23.8665015 L106.181589,24.051342 L105.85195,24.2567447 L105.522651,24.462123 L105.21361,24.7086014 L104.90491,24.9756175 L104.616821,25.2426337 L104.369588,25.4685377 L104.142954,25.715016 L103.937271,25.9820322 L103.731248,26.2285106 L103.545824,26.4955267 L103.36074,26.7830686 L103.175315,27.0706104 L103.0311,27.3581522 L102.866627,27.6456941 L102.722412,27.9537373 L102.598796,28.2823548 L102.47518,28.5903614 L102.37249,28.9189789 L102.269436,29.2681951 L102.187066,29.5968126 L102.104696,29.9666275 L118.926471,29.9666275 L118.926824,29.9666275 Z M110.814506,46.0283863 L110.0941,46.0076064 L109.373354,45.9667254 L108.673206,45.8845984 L107.993657,45.7815442 L107.335059,45.6380105 L106.696719,45.4735375 L106.058379,45.2887943 L105.440638,45.0628538 L104.843494,44.8163852 L104.266961,44.5289772 L103.71103,44.2209657 L103.175703,43.8717495 L102.640375,43.501931 L102.125651,43.0912498 L101.63153,42.6599662 L101.15801,42.2080804 L100.705093,41.7355909 L100.293038,41.22224 L99.9019302,40.7085447 L99.5314242,40.1745915 L99.2017811,39.6200347 L98.8930833,39.0448756 L98.6252483,38.4697152 L98.3783587,37.8536946 L98.1517247,37.2373284 L97.9666409,36.6007042 L97.801815,35.9434814 L97.6781987,35.2656477 L97.5751445,34.587814 L97.5133363,33.8691237 L97.4518931,33.1500927 L97.4518931,32.4107915 L97.4518931,31.6917605 L97.5133363,30.9730701 L97.5751445,30.2952365 L97.6781987,29.5968041 L97.801815,28.9395813 L97.9666409,28.2823584 L98.1517247,27.6662356 L98.3577479,27.0295384 L98.6046399,26.4338804 L98.8724713,25.8587845 L99.1605606,25.2836887 L99.4902001,24.7291307 L99.8400977,24.1745727 L100.231545,23.6610782 L100.643251,23.1476201 L101.075568,22.6546635 L101.549081,22.2028068 L102.022595,21.7509501 L102.537319,21.3401691 L103.052042,20.9704516 L103.587364,20.6212719 L104.143297,20.2926544 L104.69923,20.0051126 L105.29636,19.7586342 L105.893502,19.5327302 L106.511244,19.3273276 L107.149583,19.1630249 L107.808522,19.0192479 L108.46746,18.9165587 L109.146669,18.8344317 L109.846816,18.7933074 L110.567575,18.7727452 L111.246772,18.7933074 L111.926321,18.8344317 L112.60587,18.9165587 L113.264808,19.0192479 L113.882549,19.1424871 L114.520889,19.3067897 L115.117679,19.4916302 L115.714821,19.7175707 L116.291413,19.9640491 L116.868006,20.2515909 L117.403352,20.5596706 L117.938699,20.8882881 L118.453483,21.2580056 L118.947583,21.648261 L119.442049,22.0795798 L119.915587,22.5314365 L120.347879,23.0038553 L120.780171,23.4967755 L121.150655,24.0102578 L121.521504,24.5237402 L121.850864,25.0577604 L122.159905,25.6123184 L122.427335,26.1874142 L122.674567,26.7830357 L122.880189,27.3786572 L123.086176,27.9949139 L123.230354,28.6315381 L123.374168,29.2681623 L123.477587,29.9253851 L123.539638,30.6032188 L123.581006,31.3016511 L123.60169,32.0000835 L123.581006,32.3901685 L123.560322,32.7393847 L123.498271,33.0886008 L123.436219,33.3966075 L123.209914,34.2385735 L102.064037,34.2385735 L102.125845,34.6289992 L102.208216,35.019072 L102.290586,35.3888869 L102.39364,35.7381031 L102.496329,36.0873192 L102.640544,36.4365354 L102.764161,36.7651529 L102.928987,37.0937704 L103.072861,37.4223879 L103.258285,37.7303946 L103.44371,38.0178026 L103.649393,38.3055513 L103.855416,38.5929593 L104.08205,38.8601093 L104.308343,39.1269186 L104.555576,39.3734578 L104.864276,39.6612065 L105.173317,39.9280158 L105.502616,40.1745671 L105.831915,40.4211063 L106.182165,40.6264482 L106.552673,40.8111913 L106.923182,40.9962752 L107.294031,41.1398088 L107.705736,41.2836832 L108.096843,41.4069588 L108.52916,41.509648 L108.961817,41.591775 L109.394134,41.6535832 L109.867648,41.6944642 L110.341161,41.7357102 L110.814675,41.7357102 L111.329399,41.715148 L111.864721,41.6945858 L112.379444,41.6331427 L112.914766,41.5510157 L113.450088,41.4483265 L114.006021,41.3250508 L114.541343,41.1811765 L115.076665,41.0167035 L115.653209,40.8319603 L116.188555,40.6060198 L116.683021,40.3800793 L117.156559,40.133528 L117.568289,39.8873295 L117.959457,39.6201795 L118.309744,39.3327715 L118.618419,39.024412 L119.421561,38.1618473 L122.612931,41.2632439 L121.809789,42.0849519 L121.315689,42.5777017 L120.800905,43.0089841 L120.265559,43.4200084 L119.70965,43.8100813 L119.112495,44.1592974 L118.494779,44.4879149 L117.835816,44.7756636 L117.177218,45.042473 L116.456447,45.2684135 L115.735676,45.4737553 L114.994635,45.6382283 L114.212069,45.781762 L113.388645,45.8848161 L112.564881,45.9669431 L111.70026,46.0078241 L110.814687,46.0283863 L110.814506,46.0283863 Z M178.678853,22.9833345 L178.143506,23.0038967 L177.60816,23.0244588 L177.093376,23.0860237 L176.59891,23.1477102 L176.125372,23.2503994 L175.672518,23.3530885 L175.219663,23.4968655 L174.787371,23.6406425 L174.355079,23.8049452 L173.963668,24.0103479 L173.572622,24.2157262 L173.181454,24.4622045 L172.831167,24.7086829 L172.481245,24.9962247 L172.131323,25.2837666 L171.822282,25.5918462 L171.513606,25.9204881 L171.245812,26.2696312 L170.978382,26.6188109 L170.731149,26.9884919 L170.525162,27.3582094 L170.319419,27.7484648 L170.133994,28.1591484 L169.969497,28.5701728 L169.825319,29.0014551 L169.701702,29.4533361 L169.578086,29.9052293 L169.495351,30.3567697 L169.433299,30.8498602 L169.391931,31.3429507 L169.350564,31.8562992 L169.350564,32.3696477 L169.350564,32.8833369 L169.391931,33.3966854 L169.433299,33.9100339 L169.495351,34.3825257 L169.578086,34.8550176 L169.681505,35.3275094 L169.805121,35.7587918 L169.9493,36.1900741 L170.113797,36.6213564 L170.299222,37.0117821 L170.505209,37.401855 L170.71083,37.79194 L170.958063,38.1411561 L171.204931,38.4903723 L171.472725,38.8395885 L171.760839,39.1475952 L172.090442,39.4556018 L172.419802,39.7639613 L172.769724,40.0307707 L173.140573,40.2773098 L173.511057,40.5238612 L173.902103,40.729203 L174.314198,40.9345449 L174.74649,41.0990179 L175.178782,41.2425515 L175.631758,41.3658272 L176.105297,41.4891029 L176.578835,41.5712299 L177.0733,41.6536002 L177.588084,41.6944812 L178.123431,41.7150434 L178.679339,41.7356055 L179.235248,41.7150434 L179.770594,41.6737974 L180.305941,41.6123542 L180.841287,41.509665 L181.356071,41.3863894 L181.850172,41.222257 L182.344272,41.0371732 L182.838372,40.8318314 L183.250102,40.6264895 L183.641514,40.4211477 L184.03256,40.1952072 L184.423606,39.9692667 L184.794455,39.7433262 L185.144377,39.4761762 L185.494299,39.2299777 L185.823902,38.9628277 L186.132578,38.6754197 L186.441618,38.387671 L186.729732,38.100263 L187.017846,37.7919156 L187.285641,37.4632981 L187.532873,37.1346806 L187.779741,36.8060631 L188.006412,36.4568469 L187.965044,33.6225979 L187.94436,33.0680399 L187.923676,32.4928832 L187.882309,31.9589239 L187.799573,31.4249645 L187.716838,30.9112753 L187.634102,30.3979268 L187.510851,29.905177 L187.387235,29.4326852 L187.222372,28.9601933 L187.05751,28.5083123 L186.872451,28.07703 L186.666464,27.666249 L186.440158,27.2554679 L186.192926,26.8446869 L185.945693,26.4750059 L185.657579,26.1052884 L185.348538,25.7355709 L185.019179,25.3658899 L184.669257,25.0372481 L184.298408,24.7291684 L183.927924,24.4621522 L183.536756,24.1951361 L183.125026,23.969232 L182.692369,23.7638294 L182.260077,23.5789889 L181.807222,23.4352119 L181.313122,23.2914349 L180.819021,23.1887457 L180.324921,23.1066187 L179.789575,23.0450539 L179.233666,23.0039295 L178.677758,22.9833345 L178.678853,22.9833345 Z M178.658169,46.0281685 L177.87559,46.0076064 L177.113938,45.9667254 L176.372605,45.8845984 L175.651834,45.7815442 L174.951625,45.6380105 L174.272465,45.4735375 L173.59294,45.2887943 L172.954662,45.0628538 L172.316383,44.8163025 L171.719228,44.5288945 L171.122074,44.2208878 L170.545481,43.8716717 L169.989573,43.5018568 L169.454226,43.0911731 L168.939564,42.6598908 L168.466026,42.2080098 L167.992487,41.7355179 L167.560195,41.2221694 L167.148465,40.7084803 L166.777616,40.1745331 L166.427694,39.6199751 L166.098334,39.0448184 L165.83054,38.4696617 L165.562988,37.8536362 L165.336318,37.23727 L165.150893,36.6006458 L164.986396,35.943423 L164.842217,35.2655893 L164.738798,34.5877556 L164.656063,33.8690653 L164.614695,33.1500343 L164.594011,32.4107331 L164.614695,31.6714441 L164.656063,30.9318022 L164.738798,30.2337106 L164.842217,29.5352782 L164.965834,28.8574445 L165.130331,28.2002217 L165.315755,27.5429623 L165.542426,26.9267665 L165.768731,26.3106071 L166.05721,25.735487 L166.365886,25.1603911 L166.695246,24.6058331 L167.045533,24.0923751 L167.436579,23.5788806 L167.868871,23.0859239 L168.32209,22.6135416 L168.795629,22.1411227 L169.310291,21.7098039 L169.825075,21.3195485 L170.380984,20.9293297 L170.957576,20.6006879 L171.534047,20.2720704 L172.151764,20.0050542 L172.789799,19.738038 L173.428078,19.5120975 L174.107603,19.327257 L174.787128,19.1629543 L175.507534,19.0191773 L176.228305,18.9164882 L176.9902,18.8343612 L177.751852,18.7932368 L178.554993,18.7726747 L179.234518,18.7932368 L179.913678,18.8343612 L180.57264,18.895926 L181.231603,18.9986152 L181.869882,19.1013043 L182.487599,19.2656435 L183.105315,19.4299462 L183.702105,19.6147867 L184.278697,19.8407272 L184.834606,20.1077434 L185.390515,20.3747595 L185.925861,20.6828392 L186.461207,21.0114567 L186.976235,21.3606364 L187.470335,21.7508917 L187.964436,22.1411106 L187.964436,7.76370593 L192.576359,7.76370593 L192.576359,45.5761938 L187.964436,45.5761938 L187.964436,42.8652192 L187.490897,43.1938368 L187.037678,43.5224543 L186.543578,43.8304609 L186.028793,44.1178689 L185.493447,44.4056176 L184.958101,44.652169 L184.381508,44.8983674 L183.804916,45.124308 L183.187199,45.3299905 L182.569847,45.5147336 L181.931447,45.678866 L181.293168,45.8021416 L180.654889,45.9048308 L179.995926,45.966639 L179.336964,46.00752 L178.657804,46.0281685 L178.658169,46.0281685 Z M226.385418,22.9833345 L225.850071,23.0038967 L225.314725,23.0244588 L224.820624,23.0860237 L224.326524,23.1477102 L223.832059,23.2503994 L223.379204,23.3530885 L222.92635,23.4968655 L222.494058,23.6406425 L222.082328,23.8049452 L221.670233,24.0103479 L221.279187,24.2157262 L220.908703,24.4622045 L220.537853,24.7086829 L220.187932,24.9962247 L219.858572,25.2837666 L219.549531,25.5918462 L219.240855,25.9204881 L218.952377,26.2696312 L218.705509,26.6188109 L218.458276,26.9884919 L218.231971,27.3582094 L218.046546,27.7484648 L217.861122,28.1591484 L217.696624,28.5701728 L217.552446,29.0014551 L217.428829,29.4533361 L217.305213,29.9052293 L217.222478,30.3567697 L217.160426,30.8498602 L217.119059,31.3429507 L217.077691,31.8562992 L217.077691,32.3696477 L217.077691,32.8833369 L217.098375,33.3966854 L217.160426,33.9100339 L217.222478,34.3825257 L217.305213,34.8756162 L217.408632,35.3275094 L217.532249,35.7793904 L217.676427,36.2106728 L217.840924,36.6213564 L218.005787,37.0320401 L218.211773,37.4224658 L218.438079,37.79194 L218.66475,38.1411561 L218.911617,38.4903723 L219.200096,38.8189898 L219.48821,39.1476073 L219.817813,39.455614 L220.147172,39.7639735 L220.497094,40.0307828 L220.847381,40.277322 L221.217865,40.5238734 L221.608911,40.7292152 L222.021006,40.9139584 L222.453298,41.0990422 L222.885591,41.2425759 L223.338567,41.3658515 L223.812105,41.4891272 L224.286008,41.5712542 L224.780108,41.6536245 L225.315455,41.6945055 L225.830239,41.7150677 L226.386148,41.7356299 L226.942056,41.7150677 L227.477403,41.6738217 L228.012749,41.6123785 L228.548095,41.5096894 L229.062879,41.3864137 L229.577542,41.2222814 L230.071642,41.0371975 L230.565743,40.8318557 L230.977473,40.6265139 L231.368884,40.421172 L231.760052,40.1952315 L232.130536,39.969291 L232.501385,39.7433505 L232.851307,39.4762005 L233.201229,39.230002 L233.530832,38.962852 L233.839508,38.675444 L234.148548,38.3876953 L234.436662,38.1002873 L234.725141,37.79194 L234.992692,37.4633225 L235.239925,37.134705 L235.486793,36.8060874 L235.713463,36.4568713 L235.651412,33.6226222 L235.651412,33.0680642 L235.630728,32.4929075 L235.568676,31.9589482 L235.506625,31.4249889 L235.423889,30.9112997 L235.341154,30.3979512 L235.217903,29.9052013 L235.094286,29.4327095 L234.929424,28.9602176 L234.764562,28.5083366 L234.579502,28.0770543 L234.373516,27.6662733 L234.14721,27.2554923 L233.92054,26.8447113 L233.65311,26.4750303 L233.385315,26.1053128 L233.055955,25.7355953 L232.726352,25.3659142 L232.397114,25.0372724 L232.026265,24.7291927 L231.655781,24.4621766 L231.244051,24.1951604 L230.832321,23.9692564 L230.420226,23.7638537 L229.967372,23.5790132 L229.514517,23.4352362 L229.040979,23.2914592 L228.546879,23.18877 L228.032216,23.106643 L227.49687,23.0450782 L226.961523,23.0039539 L226.385053,22.9833345 L226.385418,22.9833345 Z M226.385418,46.0281685 L225.602839,46.0076064 L224.841187,45.9667254 L224.099854,45.8845984 L223.379083,45.7815442 L222.658677,45.6380105 L221.979152,45.4735375 L221.320189,45.2887943 L220.661226,45.0628538 L220.04351,44.8163025 L219.425793,44.5288945 L218.829004,44.2208878 L218.252411,43.8716717 L217.717065,43.5018568 L217.181718,43.0911731 L216.666691,42.6598908 L216.17259,42.2080098 L215.699052,41.7355179 L215.26676,41.2221694 L214.85503,40.7084803 L214.484181,40.1745331 L214.134259,39.6199751 L213.825583,39.0448184 L213.537105,38.4696617 L213.269553,37.8536362 L213.042883,37.23727 L212.857458,36.6006458 L212.692961,35.943423 L212.548782,35.2655893 L212.445363,34.5877556 L212.362628,33.8690653 L212.32126,33.1500343 L212.300576,32.4107331 L212.32126,31.6714441 L212.362628,30.9318022 L212.445363,30.2337106 L212.548782,29.5352782 L212.672399,28.8574445 L212.836896,28.2002217 L213.02232,27.5429623 L213.248991,26.9267665 L213.495859,26.3106071 L213.763653,25.735487 L214.072329,25.1603911 L214.401932,24.6058331 L214.772416,24.0923751 L215.163584,23.5788806 L215.575314,23.0859239 L216.028534,22.6135416 L216.522634,22.1411227 L217.016734,21.7098039 L217.552081,21.3195485 L218.087427,20.9293297 L218.663898,20.6006879 L219.261052,20.2720704 L219.858207,20.0050542 L220.496242,19.738038 L221.155205,19.5120975 L221.814168,19.327257 L222.514255,19.1629543 L223.235026,19.0191773 L223.955432,18.9164882 L224.717449,18.8343612 L225.479101,18.7932368 L226.282242,18.7726747 L226.961767,18.7932368 L227.640927,18.8343612 L228.299889,18.895926 L228.938168,18.9986152 L229.576569,19.1013043 L230.194285,19.2450813 L230.812002,19.4299583 L231.409157,19.6147988 L231.985749,19.8407394 L232.56222,20.0872177 L233.117763,20.3747595 L233.653475,20.6623014 L234.168137,20.9909189 L234.6828,21.3606364 L235.1769,21.7303174 L235.650438,22.1410984 L235.650438,19.2040081 L240.282961,19.2040081 L240.282961,45.5761817 L235.650438,45.5761817 L235.650438,42.8446048 L235.197462,43.1938209 L234.723924,43.5224384 L234.229459,43.8304451 L233.735358,44.1178531 L233.200012,44.4056018 L232.664666,44.6521531 L232.088195,44.8983516 L231.511602,45.1242921 L230.894251,45.3299746 L230.276534,45.5147178 L229.638134,45.6788501 L228.999733,45.8021258 L228.361454,45.904815 L227.702491,45.9666232 L227.043894,46.0075042 L226.384931,46.0281685 L226.385418,46.0281685 Z M98.2134647,58.0230749 L97.8429564,58.0230749 L97.472448,58.0436371 L97.1221976,58.0848831 L96.7723001,58.1257641 L96.4426606,58.1875723 L96.1133617,58.2696993 L95.8046615,58.3518263 L95.4956207,58.4545155 L95.1869205,58.5777911 L94.9190891,58.7010668 L94.6309876,58.8449411 L94.3631563,59.0090735 L94.1162642,59.1735465 L93.8690316,59.3582896 L93.6427504,59.5636315 L93.4161164,59.7689733 L93.2100932,59.9949138 L93.0044107,60.2208543 L92.8189861,60.4467948 L92.6541603,60.6933462 L92.4896873,60.9398853 L92.3660709,61.2066947 L92.2218559,61.4738447 L92.1188017,61.7612527 L92.0157476,62.0490014 L91.9130584,62.3364094 L91.8512502,62.644416 L91.7894421,62.9527755 L91.7276339,63.281393 L91.7070717,63.6100106 L91.6865096,63.9386281 L91.6865096,64.2878442 L91.6865096,64.6367197 L91.7070717,64.9656779 L91.7276339,65.3145534 L91.7894421,65.6229129 L91.8512502,65.9515304 L91.9130584,66.2595371 L91.9954287,66.5469451 L92.0981179,66.8346938 L92.2217343,67.1221018 L92.3453506,67.3892518 L92.4689669,67.6560611 L92.63344,67.9026125 L92.7982658,68.1491638 L92.9630917,68.3751043 L93.1687742,68.6010448 L93.3747973,68.8063867 L93.5808205,69.0117285 L93.8277126,69.2170703 L94.0749452,69.4021542 L94.3218373,69.5662865 L94.5896686,69.7307595 L94.877758,69.8742932 L95.1455893,69.9975688 L95.4542895,70.100258 L95.7633304,70.2029472 L96.0720306,70.3056363 L96.4013294,70.3674445 L96.7515798,70.4288877 L97.1014773,70.4906959 L97.4517277,70.511258 L97.822236,70.5315769 L98.2133431,70.552139 L98.6250488,70.5315769 L99.057706,70.511258 L99.448813,70.4494499 L99.8605187,70.3880067 L100.231368,70.3056363 L100.601876,70.2029472 L100.972384,70.0796715 L101.322635,69.9361378 L101.81676,69.6895987 L102.310884,69.4224487 L102.763799,69.1350407 L103.216715,68.8064232 L103.62842,68.457207 L104.019868,68.0873921 L104.390376,67.6973071 L104.740286,67.2660248 L104.719724,65.0886604 L104.699162,64.7191862 L104.6786,64.3493714 L104.658037,63.9795565 L104.617156,63.630681 L104.555348,63.3020635 L104.49354,62.9528473 L104.41117,62.6242298 L104.308116,62.3158825 L104.205061,62.0078758 L104.081786,61.7204678 L103.958169,61.4124611 L103.813954,61.1453111 L103.669739,60.8781611 L103.505266,60.6113518 L103.319842,60.3648004 L103.134417,60.1182491 L102.908136,59.8514398 L102.681502,59.6254993 L102.43461,59.3995588 L102.166779,59.1942169 L101.898947,59.0091331 L101.631457,58.8450007 L101.343014,58.6805277 L101.034314,58.5572521 L100.725614,58.4339764 L100.395975,58.3110414 L100.066676,58.2286711 L99.7164254,58.1465441 L99.345917,58.1052981 L98.9754086,58.0644171 L98.6045596,58.0438549 L98.2134526,58.0232927 L98.2134647,58.0230749 Z M98.3782906,80 L97.8429685,80 L97.3282452,79.9794378 L96.8341205,79.9385568 L96.3606066,79.8973108 L95.8867399,79.8355027 L95.4338247,79.7740595 L95.0015081,79.6919325 L94.5898025,79.5892433 L94.3219711,79.5274352 L94.0132709,79.424746 L93.6427625,79.3220568 L93.230704,79.1781825 L92.7777888,79.0140501 L92.2836641,78.8495771 L91.7277312,78.6442353 L91.130601,78.4182948 L90.6776858,78.2335516 L91.5423189,75.7073141 L92.1806586,76.0565303 L92.530909,76.2412735 L92.9014173,76.4054058 L93.2719257,76.5492801 L93.6427747,76.6931545 L94.0132831,76.8164302 L94.3837914,76.9397058 L94.7748985,77.0626287 L95.1663462,77.144999 L95.5574532,77.2476882 L95.9691589,77.3091313 L96.3606066,77.3709395 L96.7723123,77.4323827 L97.184018,77.4736287 L97.6163345,77.4941908 L98.0283931,77.5145097 L98.4607096,77.5145097 L98.831218,77.5145097 L99.1811276,77.4941908 L99.531378,77.4736287 L99.8812877,77.4118205 L100.210927,77.3503773 L100.519627,77.2885692 L100.828328,77.2064422 L101.137368,77.103753 L101.425458,77.0010638 L101.693289,76.8777881 L101.96078,76.7339138 L102.228611,76.5903801 L102.454892,76.4259071 L102.702125,76.241164 L102.928759,76.0564208 L103.134442,75.8507383 L103.319866,75.6453965 L103.505291,75.4400546 L103.669764,75.2141141 L103.813979,74.9881736 L103.958194,74.7416223 L104.08181,74.4748129 L104.205086,74.2282616 L104.30814,73.9408536 L104.411194,73.6737036 L104.493564,73.3862956 L104.555373,73.0779482 L104.617181,72.7699416 L104.658062,72.4619349 L104.678624,72.1333174 L104.699186,71.8046999 L104.719748,71.4554837 L104.719748,70.6543865 L104.493467,70.8188595 L104.246234,70.9829919 L103.999342,71.1680757 L103.75211,71.3528189 L103.175578,71.7020351 L102.681453,71.9894431 L102.434561,72.1127187 L102.207927,72.2154079 L102.001904,72.2975349 L101.796222,72.3593431 L101.363564,72.5032174 L100.931248,72.6261524 L100.498931,72.7085227 L100.046016,72.7906497 L99.593101,72.8520929 L99.1401858,72.8933389 L98.6663191,72.9345849 L98.2134039,72.9345849 L97.6780819,72.9345849 L97.1839572,72.8933389 L96.6898324,72.8520929 L96.2163064,72.7906497 L95.7427925,72.7085227 L95.2692787,72.5852471 L94.8366215,72.4825579 L94.4043049,72.3386836 L93.9719884,72.1745512 L93.5808814,71.9894674 L93.1688228,71.7841256 L92.7983145,71.5787837 L92.4278061,71.3528432 L92.0775557,71.0856932 L91.7276461,70.8188839 L91.3983472,70.5311352 L91.0893063,70.2231285 L90.801217,69.894511 L90.5333856,69.5658935 L90.2864936,69.237276 L90.0598596,68.8880598 L89.8538364,68.518245 L89.6687526,68.1487708 L89.5039267,67.7583451 L89.3391009,67.3682723 L89.2158252,66.9778466 L89.112771,66.5465643 L89.0097168,66.1152819 L88.9479087,65.6839996 L88.8861005,65.2321186 L88.8655383,64.7802376 L88.8449762,64.3077457 L88.8655383,63.8355946 L88.8861005,63.3837136 L88.9479087,62.9318325 L89.0097168,62.4799515 L89.0920872,62.0486692 L89.1951414,61.6379855 L89.318417,61.2269612 L89.462632,60.8368883 L89.6274579,60.4464627 L89.8125417,60.0769885 L90.0185649,59.7071737 L90.2451989,59.3579575 L90.4714801,59.02934 L90.7393115,58.7007225 L91.0068022,58.3927158 L91.315843,58.1049671 L91.6245432,57.7969604 L91.9747936,57.5301511 L92.3247033,57.2835998 L92.6746008,57.0370484 L93.0660485,56.8317066 L93.4571555,56.6263648 L93.8482626,56.4412809 L94.2805791,56.2771486 L94.7132363,56.1332742 L95.1661515,56.0099986 L95.6190667,55.9073094 L96.0925806,55.8251824 L96.5867053,55.7633742 L97.08083,55.7019311 L97.616152,55.6813689 L98.1308754,55.6608067 L98.6250001,55.6813689 L99.0988668,55.7019311 L99.5723807,55.7633742 L100.025296,55.8251824 L100.478211,55.9073094 L100.910528,56.0099986 L101.342844,56.1332742 L101.754903,56.2771486 L102.166608,56.4412809 L102.557715,56.6263648 L102.949163,56.8317066 L103.319671,57.0370484 L103.69018,57.2835998 L104.04043,57.5301511 L104.369729,57.7969604 L104.719627,58.1049671 L104.719627,55.9485481 L107.478675,55.9485481 L107.478675,71.4555324 L107.458113,71.9280242 L107.437551,72.3799052 L107.376108,72.8317862 L107.3143,73.2836794 L107.231929,73.6943631 L107.128875,74.1256454 L107.005259,74.5157183 L106.881642,74.9061439 L106.717169,75.2962168 L106.531745,75.6660316 L106.34632,76.0152478 L106.120039,76.364464 L105.893405,76.6930815 L105.646513,77.0010882 L105.378682,77.3090948 L105.111191,77.6171015 L104.781552,77.9048502 L104.452253,78.1716595 L104.122613,78.4182108 L103.752105,78.6441514 L103.381596,78.8700919 L103.010747,79.0754337 L102.599042,79.2399067 L102.187336,79.404039 L101.755019,79.5479134 L101.322703,79.671189 L100.869447,79.7738782 L100.395933,79.8560052 L99.9018085,79.9178134 L99.4076838,79.9586944 L98.9135591,80 L98.3782249,80 L98.3782906,80 Z M233.241659,72.9346397 L232.726875,72.9346397 L232.232775,72.8933937 L231.738675,72.8521477 L231.265136,72.7907045 L230.791598,72.7085775 L230.338744,72.5853018 L229.906087,72.4620262 L229.473794,72.3181518 L229.062064,72.1540195 L228.650334,71.9895465 L228.258923,71.7842046 L227.867877,71.5582641 L227.497393,71.311725 L227.147106,71.0655265 L226.797184,70.7777778 L226.467824,70.4903698 L226.158784,70.1820103 L225.87067,69.8533928 L225.582191,69.5247753 L225.335324,69.1961578 L225.108653,68.8472823 L224.882347,68.4774674 L224.696923,68.1076526 L224.532061,67.7175797 L224.367198,67.3271541 L224.243947,66.937069 L224.120331,66.5260447 L224.037595,66.0947624 L223.95486,65.66348 L223.913492,65.2321977 L223.892808,64.7803167 L223.872125,64.3078248 L223.892808,63.8562845 L223.913492,63.4044035 L223.95486,62.9525225 L224.037595,62.5212401 L224.120331,62.1102158 L224.243947,61.6995321 L224.367198,61.2888484 L224.532061,60.8984228 L224.696923,60.5083499 L224.882347,60.1385351 L225.108653,59.7893189 L225.335324,59.4401027 L225.582191,59.0908866 L225.87067,58.762269 L226.158784,58.4336515 L226.467824,58.1256449 L226.797184,57.8382369 L227.147106,57.5504882 L227.497393,57.3042897 L227.867877,57.0577505 L228.258923,56.83181 L228.650334,56.6264682 L229.062064,56.4413843 L229.473794,56.277252 L229.906087,56.1333777 L230.338744,56.010102 L230.791598,55.9074128 L231.265136,55.8252858 L231.738675,55.7634777 L232.232775,55.7020345 L232.726875,55.6814723 L233.241659,55.6609102 L233.715198,55.6814723 L234.168417,55.7020345 L234.641955,55.7634777 L235.09481,55.8252858 L235.527102,55.9074128 L235.959394,56.010102 L236.392051,56.1539763 L236.803781,56.2978507 L237.215511,56.461983 L237.606557,56.6470669 L237.997969,56.8524087 L238.389015,57.0783492 L238.759499,57.3245477 L239.130348,57.5916977 L239.48027,57.8588477 L239.830192,58.1668544 L240.283046,58.5981367 L238.327158,60.1385339 L237.85362,59.8099164 L237.606387,59.6045745 L237.359519,59.3992327 L237.112287,59.2141488 L236.844735,59.0294057 L236.57694,58.8652733 L236.309389,58.721399 L236.02091,58.5981233 L235.732796,58.4748477 L235.444318,58.3721585 L235.156204,58.2694693 L234.847163,58.2076612 L234.538487,58.146218 L234.209128,58.0847748 L233.900087,58.0435288 L233.570849,58.0229667 L233.241246,58.0229667 L232.870762,58.0229667 L232.500278,58.0435288 L232.149991,58.0847748 L231.800069,58.146218 L231.470466,58.2076612 L231.16179,58.2694693 L230.83243,58.3721585 L230.52339,58.4748477 L230.235276,58.5775368 L229.946797,58.7214112 L229.679246,58.8652855 L229.411451,59.0088192 L229.143899,59.193903 L228.896667,59.3786462 L228.670361,59.583988 L228.443691,59.7893299 L228.21702,60.0152704 L228.031961,60.2412109 L227.846536,60.4671514 L227.681674,60.7137027 L227.517176,60.960254 L227.372998,61.2270634 L227.249381,61.4942134 L227.145962,61.7610227 L227.04376,62.0487714 L226.940341,62.3567781 L226.878289,62.6441861 L226.816238,62.9525456 L226.77487,63.2811631 L226.733502,63.6097806 L226.712818,63.9383981 L226.712818,64.2876143 L226.712818,64.6162318 L226.733502,64.965448 L226.77487,65.2734546 L226.816238,65.6020721 L226.878289,65.9100788 L226.940341,66.2180855 L227.04376,66.5058342 L227.145962,66.7932422 L227.249381,67.0603922 L227.372998,67.3478002 L227.517176,67.5943515 L227.681674,67.8408907 L227.846536,68.0870892 L228.031961,68.3336284 L228.21702,68.5595689 L228.443691,68.7649107 L228.670361,68.9908512 L228.896667,69.175935 L229.143899,69.3606782 L229.411451,69.5454214 L229.658684,69.7098944 L229.946797,69.853428 L230.235276,69.9767037 L230.52339,70.0999794 L230.83243,70.2026686 L231.141106,70.2850389 L231.470344,70.3671659 L231.799947,70.4286091 L232.149869,70.4904172 L232.500156,70.5109794 L232.87064,70.5312982 L233.241124,70.5518604 L233.570727,70.5312982 L233.899965,70.5109794 L234.209006,70.4697334 L234.538366,70.4284874 L234.847042,70.3670442 L235.156082,70.2849172 L235.444196,70.181863 L235.732675,70.0791739 L236.020789,69.9562389 L236.309267,69.8329632 L236.576819,69.6684902 L236.844614,69.5043579 L237.112165,69.3398849 L237.359398,69.134543 L237.606265,68.9497999 L237.853498,68.7238594 L238.20342,68.3746432 L240.242068,69.9971077 L239.788848,70.4077914 L239.438926,70.7161509 L239.089005,71.0035589 L238.738718,71.2707089 L238.347672,71.5169074 L237.977188,71.7428479 L237.585776,71.9485304 L237.19473,72.1332736 L236.783,72.2974059 L236.37127,72.4618789 L235.938613,72.5851546 L235.506321,72.6878438 L235.074028,72.7699708 L234.621174,72.8520978 L234.16832,72.8933438 L233.694417,72.9346397 L233.241562,72.9346397 L233.241659,72.9346397 Z M205.980824,62.911414 L205.857208,62.4183234 L205.713029,61.9255736 L205.52797,61.4736926 L205.301299,61.0424103 L205.054432,60.6317266 L204.765953,60.2413009 L204.436593,59.8714861 L204.086306,59.5226106 L203.860001,59.3581376 L203.63333,59.1733944 L203.386463,59.02952 L203.13923,58.8653877 L202.892362,58.742112 L202.624568,58.6188364 L202.357016,58.4955607 L202.089221,58.3928715 L201.801107,58.3107445 L201.512629,58.2283742 L201.203953,58.166931 L200.915474,58.125685 L200.586115,58.084804 L200.256512,58.043558 L199.927152,58.0229959 L199.597792,58.0229959 L199.268189,58.0229959 L198.938829,58.043558 L198.609226,58.084804 L198.300551,58.125685 L197.99151,58.166931 L197.682834,58.2283742 L197.39472,58.3107445 L197.106241,58.3928715 L196.83869,58.4955607 L196.570895,58.6188364 L196.303344,58.742112 L196.056111,58.8653877 L195.808878,59.02952 L195.56201,59.1733944 L195.33534,59.3581376 L195.129597,59.5226106 L194.758748,59.8714861 L194.429388,60.2413009 L194.264526,60.4260441 L194.120712,60.6317266 L193.997096,60.8370684 L193.873479,61.0424103 L193.749863,61.2477521 L193.646444,61.4736926 L193.544241,61.6996331 L193.461506,61.9255736 L193.378771,62.1721249 L193.296035,62.4183234 L193.233984,62.6648748 L193.192616,62.911414 L205.979011,62.911414 L205.980824,62.911414 Z M199.803779,72.9346397 L199.289116,72.9346397 L198.774332,72.8933937 L198.280232,72.8521477 L197.806694,72.7907045 L197.312593,72.7085775 L196.859739,72.6058883 L196.406519,72.4826127 L195.974227,72.3387383 L195.541935,72.174606 L195.130205,71.9895221 L194.738794,71.804779 L194.347748,71.5788385 L193.956701,71.352898 L193.606415,71.085748 L193.256493,70.8189386 L192.906571,70.5311899 L192.59753,70.2231833 L192.288854,69.8945658 L192.021059,69.5659483 L191.753508,69.2373308 L191.506275,68.8881146 L191.300532,68.5182997 L191.094545,68.1488256 L190.929683,67.7583999 L190.765185,67.3683271 L190.641569,66.9779014 L190.517953,66.546619 L190.435217,66.1153367 L190.352482,65.6840544 L190.311114,65.2321733 L190.269747,64.7802923 L190.269747,64.3078005 L190.269747,63.8562602 L190.311114,63.4043791 L190.352482,62.9727561 L190.414533,62.5212158 L190.517953,62.1101914 L190.621372,61.6995078 L190.76555,61.2888241 L190.909364,60.8983984 L191.094788,60.5289243 L191.280213,60.1384986 L191.485956,59.7892824 L191.733189,59.4400662 L191.980057,59.0908501 L192.247851,58.7622325 L192.556527,58.433615 L192.865568,58.1256084 L193.194928,57.8382004 L193.545215,57.5504517 L193.895137,57.3042532 L194.265621,57.057714 L194.63647,56.8317735 L195.0482,56.6264317 L195.439246,56.4413478 L195.871538,56.2772155 L196.283633,56.1333412 L196.736487,56.0100655 L197.189342,55.9073763 L197.642318,55.8252493 L198.136418,55.7634412 L198.609956,55.701998 L199.124619,55.6814358 L199.639403,55.6608737 L200.133869,55.6814358 L200.607407,55.701998 L201.080945,55.7634412 L201.554483,55.8252493 L202.007338,55.9073763 L202.460192,56.0100655 L202.892849,56.1333412 L203.304579,56.2566168 L203.716309,56.421102 L204.107477,56.605833 L204.498888,56.7905762 L204.889934,57.0165167 L205.239856,57.2424572 L205.590143,57.4890085 L205.940065,57.7561585 L206.269425,58.0435665 L206.599028,58.3309745 L206.887141,58.659592 L207.17562,58.9679394 L207.422488,59.2965569 L207.649158,59.6454324 L207.875464,59.9946486 L208.060888,60.3644634 L208.246313,60.7342783 L208.390491,61.1037524 L208.534305,61.4941781 L208.637724,61.9048618 L208.741143,62.3155455 L208.803195,62.7265698 L208.865246,63.1578521 L208.906614,63.5891345 L208.906614,64.0410155 L208.906614,64.2875668 L208.88593,64.4929087 L208.844562,64.7188492 L208.803195,64.9035923 L208.699776,65.2322098 L193.154327,65.3143368 L193.195694,65.5814869 L193.257746,65.8486369 L193.319797,66.1154462 L193.381849,66.3825962 L193.485268,66.6291475 L193.568003,66.875346 L193.670206,67.1012865 L193.793822,67.3478379 L193.917439,67.5531797 L194.061617,67.7791202 L194.205431,67.9844621 L194.370293,68.1898039 L194.535155,68.3954864 L194.699653,68.5802296 L194.885077,68.7855714 L195.091064,68.9500444 L195.317369,69.1553863 L195.54404,69.3195186 L195.790908,69.4839916 L196.058702,69.6481239 L196.305935,69.7919983 L196.594049,69.9152739 L196.861844,70.0385496 L197.17052,70.1412388 L197.458633,70.2439279 L197.767674,70.3260549 L198.097034,70.3878631 L198.426637,70.4493063 L198.755996,70.4905523 L199.105918,70.5111145 L199.456205,70.5314333 L199.806127,70.5519955 L200.197173,70.5314333 L200.588584,70.5111145 L200.979631,70.4698684 L201.391361,70.4286224 L201.782772,70.3464954 L202.17394,70.2643684 L202.58567,70.1819981 L202.9974,70.0590631 L203.409495,69.9357874 L203.821225,69.7919131 L204.191709,69.6480388 L204.541996,69.4839064 L204.871355,69.2988226 L205.159469,69.1140794 L205.427264,68.9293363 L205.653935,68.7239944 L206.024419,68.3747782 L208.103923,70.0384486 L207.671631,70.4491323 L207.321344,70.757139 L206.95086,71.024289 L206.559814,71.2910983 L206.168767,71.5376496 L205.73611,71.7635902 L205.303818,71.968932 L204.83028,72.1540158 L204.356742,72.3181482 L203.842079,72.4620225 L203.327295,72.5852982 L202.791948,72.6879873 L202.23604,72.7906765 L201.659448,72.8521197 L201.062293,72.8933657 L200.444576,72.9346397 L199.806176,72.9346397 L199.803779,72.9346397 Z M65.6200273,58.0230749 L65.2285796,58.0230749 L64.8786699,58.0436371 L64.5081615,58.0848831 L64.1579112,58.1257641 L63.8286123,58.1875723 L63.4989728,58.2696993 L63.1902726,58.3518263 L62.8815724,58.4545155 L62.5931302,58.5777911 L62.3050409,58.7010668 L62.0165987,58.8449411 L61.749108,59.0090735 L61.5018753,59.1735465 L61.2549833,59.3582896 L61.0283493,59.5636315 L60.8017152,59.7689733 L60.5960327,59.9949138 L60.3900095,60.2208543 L60.204585,60.4467948 L60.040112,60.6933462 L59.8752862,60.9398853 L59.7310712,61.2066947 L59.6077955,61.4738447 L59.5047413,61.7612527 L59.4016871,62.0490014 L59.2986329,62.3364094 L59.2368248,62.644416 L59.1750166,62.9527755 L59.1337706,63.281393 L59.0925246,63.6100106 L59.0719624,63.9386281 L59.0719624,64.2878442 L59.0719624,64.6367197 L59.0925246,64.9656779 L59.1337706,65.3145534 L59.1750166,65.6229129 L59.2368248,65.9515304 L59.2986329,66.2595371 L59.3810033,66.5469451 L59.4840575,66.8346938 L59.6076738,67.1221018 L59.7309495,67.3892518 L59.8751645,67.6560611 L60.0193795,67.9026125 L60.1838525,68.1491638 L60.369277,68.3751043 L60.5547016,68.6010448 L60.7603841,68.8063867 L60.9870181,69.0117285 L61.2136521,69.2170703 L61.4605441,69.4021542 L61.7077768,69.5662865 L61.9752675,69.7307595 L62.2637097,69.8742932 L62.551799,69.9975688 L62.8402412,70.100258 L63.1489414,70.2029472 L63.4782403,70.3056363 L63.8078798,70.3674445 L64.1371787,70.4288877 L64.487429,70.4906959 L64.8579374,70.511258 L65.2284458,70.5315769 L65.6198935,70.552139 L65.9904018,70.5315769 L66.3815088,70.511258 L66.7523579,70.4494499 L67.1228662,70.3880067 L67.4933746,70.3056363 L67.843625,70.2029472 L68.1935347,70.0796715 L68.5228335,69.9361378 L69.0993651,69.6689878 L69.6346871,69.3609812 L70.1288118,69.0529745 L70.6023378,68.6831597 L70.808361,68.4984165 L71.034995,68.3133326 L71.2200789,68.1079908 L71.4261021,67.902649 L71.7966104,67.4919653 L72.12625,67.0194735 L72.1056878,65.0886543 L72.0851256,64.7191801 L72.0645635,64.3493653 L72.0440013,64.0001491 L72.0027553,63.6306749 L71.9409471,63.3020574 L71.8791389,62.9528412 L71.7967686,62.6444817 L71.6940794,62.3158642 L71.5910253,62.0078576 L71.4879711,61.7204496 L71.3437561,61.4327009 L71.1995411,61.1452929 L71.0556667,60.8781429 L70.8908409,60.6113335 L70.7054164,60.3647822 L70.5203325,60.1182309 L70.2936985,59.8514215 L70.0670645,59.625481 L69.8201725,59.3995405 L69.5729398,59.1941987 L69.3054491,59.0091148 L69.0170069,58.8449825 L68.7289175,58.6805095 L68.4198767,58.5572338 L68.1111765,58.4339582 L67.7818776,58.3110232 L67.4522381,58.2286528 L67.1023406,58.1465258 L66.7524309,58.1052798 L66.3815818,58.0643988 L65.9904748,58.0438366 L65.6199665,58.0232745 L65.6199665,58.0232745 L65.6200273,58.0230749 Z M65.5994651,72.9346397 L65.0847417,72.9346397 L64.5696777,72.8933937 L64.075553,72.8521477 L63.602027,72.7907045 L63.1285131,72.7085775 L62.6755979,72.5853018 L62.2226827,72.4826127 L61.7903662,72.3387383 L61.3577089,72.174606 L60.9666019,71.9895221 L60.5754949,71.7841803 L60.1840472,71.5788385 L59.8135388,71.352898 L59.4636413,71.085748 L59.1133909,70.8189386 L58.8046907,70.5311899 L58.4959906,70.2231833 L58.2075484,69.8945658 L57.919459,69.5659483 L57.6722263,69.2373308 L57.4455923,68.8881146 L57.2399098,68.5182997 L57.0544853,68.1488256 L56.8896594,67.7583999 L56.7251864,67.3683271 L56.6015701,66.9779014 L56.4779537,66.546619 L56.3955834,66.1153367 L56.3337752,65.6840544 L56.2723321,65.2321733 L56.2517699,64.7802923 L56.2312077,64.3078005 L56.2517699,63.8356493 L56.2723321,63.3837683 L56.3135781,62.9318873 L56.3957051,62.4800063 L56.4780754,62.048724 L56.5811296,61.6380403 L56.7047459,61.2270159 L56.8489609,60.8369431 L57.0134339,60.4465174 L57.1988585,60.0770432 L57.4048816,59.7072284 L57.6311628,59.3580122 L57.8783955,59.0293947 L58.1252875,58.7007772 L58.4137297,58.3927705 L58.7224299,58.1050219 L59.0314708,57.7970152 L59.3607696,57.5302059 L59.7106672,57.2836545 L60.0815162,57.0371032 L60.4520245,56.8317613 L60.8431316,56.6264195 L61.2551901,56.4413357 L61.6875066,56.2772033 L62.1198232,56.133329 L62.5521397,56.0100533 L63.0256536,55.9073642 L63.4991796,55.8252372 L63.9730463,55.763429 L64.4877697,55.7019858 L65.0024931,55.6814237 L65.5172165,55.6608615 L66.0113412,55.6814237 L66.484855,55.7019858 L66.9583689,55.763429 L67.4112841,55.8252372 L67.8641993,55.9073642 L68.2968565,56.0100533 L68.729173,56.133329 L69.1408787,56.2772033 L69.5525844,56.4413357 L69.9440321,56.6264195 L70.3351392,56.8317613 L70.7056475,57.0371032 L71.0764966,57.2836545 L71.4264063,57.5302059 L71.7557051,57.7970152 L72.1059555,58.1050219 L72.1059555,55.9486029 L74.8444006,55.9486029 L74.8444006,72.6467681 L72.1059555,72.6467681 L72.1059555,70.6750874 L71.7763159,70.9216387 L71.4264184,71.1681901 L71.0765087,71.4143886 L70.685061,71.6200711 L70.293954,71.8254129 L69.8822483,72.0307548 L69.4705426,72.1948871 L69.0172867,72.3593601 L68.605581,72.5032344 L68.1938753,72.6261694 L67.7821696,72.7085398 L67.3495124,72.7906668 L66.9171959,72.8521099 L66.4848794,72.8933559 L66.0525628,72.9346397 L65.5996476,72.9346397 L65.5994651,72.9346397 Z M269.026985,72.6469786 L269.026985,62.8499513 L269.006301,62.3568608 L268.94425,61.8637703 L268.861515,61.41223 L268.717701,60.9806069 L268.634966,60.7752651 L268.55223,60.5699233 L268.448811,60.3645814 L268.345392,60.1798383 L268.098524,59.8100234 L267.810046,59.4608073 L267.645548,59.2760641 L267.480686,59.1115911 L267.315824,58.9680574 L267.130764,58.8241831 L266.94534,58.7009074 L266.739353,58.5776317 L266.554293,58.4749426 L266.327623,58.3928156 L266.121636,58.3106886 L265.895331,58.2283182 L265.66866,58.1668751 L265.442355,58.1256291 L265.195122,58.0847481 L264.92757,58.0641859 L264.680338,58.0436237 L264.412786,58.0230616 L264.083183,58.0436237 L263.79507,58.0641859 L263.486029,58.0847481 L263.218477,58.1256291 L262.929998,58.1874372 L262.662447,58.2695642 L262.415214,58.3516912 L262.168347,58.4338182 L261.921114,58.5570939 L261.694443,58.6803696 L261.468138,58.8036452 L261.262151,58.9475196 L261.056529,59.1116519 L260.850543,59.2967358 L260.665118,59.4814789 L260.480059,59.6662221 L260.315196,59.8715639 L260.171018,60.0772464 L260.026839,60.2825883 L259.883026,60.4879301 L259.75941,60.7138706 L259.65599,60.9398111 L259.552571,61.1863625 L259.471053,61.432561 L259.388317,61.6791123 L259.326266,61.9462623 L259.264214,62.1928136 L259.222846,62.459623 L259.181479,62.7473717 L259.160795,63.0347797 L259.140111,63.3221877 L259.140111,63.6099363 L259.140111,72.6469786 L256.422267,72.6469786 L256.422267,48.4724287 L259.140111,48.4724287 L259.140111,57.6124837 L259.387344,57.3865432 L259.675457,57.1606027 L259.963936,56.9552609 L260.25205,56.7499191 L260.540529,56.585446 L260.849204,56.4213137 L261.178564,56.2774394 L261.508167,56.133565 L261.837527,56.0102894 L262.16713,55.9076002 L262.517052,55.8254732 L262.887536,55.763665 L263.258385,55.7022219 L263.628869,55.6609759 L264.019915,55.640657 L264.411326,55.640657 L264.843618,55.640657 L265.275911,55.6609759 L265.687641,55.722784 L266.099371,55.7842272 L266.490782,55.8665975 L266.861266,55.9487245 L267.23175,56.0720002 L267.602599,56.1952759 L267.931959,56.3594082 L268.261197,56.5238812 L268.5908,56.7086244 L268.878913,56.8933676 L269.167392,57.1193081 L269.455506,57.3658472 L269.723301,57.6123986 L269.970168,57.8792079 L270.176155,58.1257592 L270.382142,58.3929093 L270.567201,58.6803173 L270.732064,58.9474673 L270.896926,59.2554739 L271.040861,59.5428819 L271.18504,59.8714994 L271.288459,60.1798468 L271.391878,60.529063 L271.474613,60.8576805 L271.556132,61.2271546 L271.618183,61.5763708 L271.659551,61.9461857 L271.700919,62.3362707 L271.721603,62.7266963 L271.721603,63.1167692 L271.721603,72.6469786 L269.024369,72.6469786 L269.026985,72.6469786 Z M172.234012,72.646891 L171.760474,72.6263288 L171.328182,72.5854478 L170.916452,72.5236397 L170.545603,72.4209505 L170.195681,72.2774168 L169.887005,72.1335425 L169.722143,72.0308533 L169.577964,71.9487263 L169.454348,71.8460371 L169.331097,71.7227615 L169.20748,71.5994858 L169.083864,71.4762101 L168.980445,71.3529345 L168.897709,71.2090601 L168.71265,70.9216521 L168.568471,70.5930346 L168.465052,70.2644171 L168.382317,69.8739914 L168.340949,69.4839186 L168.320265,69.0526363 L168.320265,51.5530246 L171.078978,51.5530246 L171.078978,55.9486163 L175.753051,55.9486163 L175.753051,58.3515805 L171.078978,58.3515805 L171.078978,68.9087595 L171.078978,69.1553108 L171.099662,69.3606527 L171.14103,69.524785 L171.182397,69.689258 L171.223765,69.8125337 L171.285817,69.9152228 L171.347868,70.017912 L171.40992,70.0793552 L171.471971,70.1411633 L171.554706,70.1820443 L171.616758,70.2026065 L171.698277,70.2231687 L171.821893,70.2437308 L171.945509,70.2437308 L173.613308,70.2437308 L173.613308,72.646891 L172.233611,72.646891 L172.234012,72.646891 Z M123.374311,72.646891 L123.374311,55.9487258 L126.092155,55.9487258 L126.092155,57.8998041 L126.35995,57.6532528 L126.627502,57.4273123 L126.91598,57.2219705 L127.224656,57.0166286 L127.533697,56.8524963 L127.842373,56.6880233 L128.171976,56.5238909 L128.501336,56.4006153 L128.851258,56.2773396 L129.201544,56.1746504 L129.572028,56.0925234 L129.942512,56.0101531 L130.313361,55.9692721 L130.704408,55.9280261 L131.116138,55.9074639 L131.528233,55.8869018 L131.795784,55.9281478 L132.207514,55.9693938 L132.784107,56.0515208 L133.52544,56.1336478 L133.957732,56.1954559 L134.061151,58.6804876 L133.031704,58.5163553 L132.805034,58.4957931 L132.455112,58.4545471 L131.940449,58.4136661 L131.240241,58.3312957 L130.972811,58.3312957 L130.705016,58.3518579 L130.457783,58.3931039 L130.210916,58.4339849 L129.963683,58.4957931 L129.716815,58.5779201 L129.490145,58.6600471 L129.263839,58.7627363 L129.037169,58.8860119 L128.810498,59.0092876 L128.604877,59.1531619 L128.378206,59.3172943 L128.172584,59.4817673 L127.98716,59.6665104 L127.781173,59.8718523 L127.596114,60.0775348 L127.410689,60.3034753 L127.245827,60.5294158 L127.081329,60.7756143 L126.937151,61.0427643 L126.792972,61.3095736 L126.669356,61.5973223 L126.567154,61.905329 L126.463734,62.2133357 L126.380999,62.5419532 L126.298264,62.8705707 L126.236212,63.2197868 L126.174161,63.569003 L126.132793,63.9388179 L126.112109,64.3288907 L126.091425,64.7193164 L126.091425,65.1300001 L126.091425,72.6472475 L123.373581,72.6472475 L123.374311,72.646891 Z M147.876446,55.9487258 L150.594278,55.9487258 L150.594278,72.646891 L147.876446,72.646891 L147.876446,55.9487258 Z M149.214593,53.6892939 L149.008849,53.6892939 L148.843987,53.6687318 L148.658562,53.6278508 L148.494065,53.5866048 L148.349887,53.5251616 L148.22627,53.4633534 L148.082092,53.3812264 L147.979889,53.2785373 L147.87647,53.1758481 L147.793735,53.0525724 L147.710999,52.9292968 L147.648948,52.8060211 L147.60758,52.6418888 L147.566212,52.4980144 L147.545529,52.3335414 L147.545529,52.1487982 L147.545529,51.9846659 L147.566212,51.8201929 L147.60758,51.6557199 L147.648948,51.5121862 L147.710999,51.3889106 L147.793735,51.2450362 L147.87647,51.1423471 L147.979889,51.0396579 L148.082092,50.9369687 L148.22627,50.8548417 L148.349887,50.7930335 L148.494065,50.7315904 L148.658562,50.6903444 L148.823425,50.6494634 L149.008849,50.6289012 L149.214593,50.6289012 L149.400017,50.6289012 L149.585442,50.6494634 L149.770501,50.6903444 L149.935364,50.7315904 L150.079542,50.7930335 L150.223356,50.8548417 L150.367534,50.9369687 L150.470953,51.0396579 L150.59457,51.1423471 L150.677305,51.2450362 L150.76004,51.3889106 L150.822092,51.5121862 L150.884143,51.6557199 L150.904827,51.8201929 L150.925511,51.9846659 L150.946195,52.1487982 L150.925511,52.3335414 L150.904827,52.4980144 L150.884143,52.6418888 L150.822092,52.8060211 L150.76004,52.9292968 L150.677305,53.0525724 L150.59457,53.1758481 L150.470953,53.2785373 L150.367534,53.3812264 L150.223356,53.4633534 L150.079542,53.5251616 L149.935364,53.5866048 L149.770501,53.6278508 L149.585442,53.6687318 L149.400017,53.6892939 L149.214593,53.6892939 Z M38.0295867,71.0858903 L37.8235635,71.0655715 L37.5766715,71.0450093 L37.2882293,71.0037633 L36.9383196,70.9423201 L36.135126,70.7572752 L35.1880873,70.4904696 L34.09683,70.1618557 L32.8819551,69.7714349 L31.5644117,69.3195478 L30.1435099,68.8061969 L28.6611443,68.2310377 L27.1168671,67.5944136 L25.5314534,66.8959812 L23.9254362,66.1566861 L23.1018423,65.7662653 L22.2988471,65.3555816 L21.4752532,64.944898 L20.6722336,64.5136156 L19.8486397,64.0617346 L19.0662553,63.6098414 L18.2632358,63.1579604 L17.4808015,62.6648687 L16.863131,62.2953921 L16.2454277,61.8843677 L15.6483267,61.4736877 L15.0512244,61.0630065 L14.4746917,60.6519821 L13.9187612,60.2206986 L13.362832,59.789415 L12.8275039,59.3581315 L11.7774171,58.4749608 L10.7891044,57.5917902 L9.86256583,56.7292231 L8.99780136,55.8666559 L8.19480978,55.024348 L7.47416056,54.2029856 L6.81528544,53.4224858 L6.21818443,52.6828488 L5.72399402,51.9847596 L5.29161142,51.3683946 L5.10632427,51.0603843 L4.96217386,50.7932355 L4.81805777,50.5264298 L4.71511309,50.2798785 L39.1414062,50.2798785 L39.3676874,50.3004407 L39.5737106,50.3413217 L39.7797337,50.3825677 L39.9854163,50.4646947 L40.1914394,50.5468217 L40.3562653,50.6700973 L40.5207383,50.793373 L40.6855641,50.9372473 L40.8297792,51.0811217 L40.9530548,51.245254 L41.056109,51.4303379 L41.1591632,51.615081 L41.2415335,51.8204229 L41.2827795,52.0257647 L41.3240255,52.2517052 L41.3240255,52.4776457 L41.3240255,67.7998917 L41.3240255,68.3132402 L41.2622174,68.7651212 L41.179847,69.1555469 L41.0767928,69.525021 L41.0149847,69.6688954 L40.9328577,69.8333684 L40.8504873,69.976902 L40.768117,70.1001777 L40.6650628,70.2234534 L40.5826925,70.3261425 L40.4796383,70.4288317 L40.3563626,70.5112021 L40.1297286,70.6753344 L39.8824959,70.7986101 L39.5944066,70.9012992 L39.3059644,70.9627424 L39.017875,71.0245506 L38.6885762,71.0657966 L38.3795353,71.0861154 L38.0296378,71.0861154 L38.0295867,71.0858903 Z" id="meridian_svg_text" fill="#505050"></path>
        </g>
    </g>
</svg>