<?xml version="1.0" encoding="UTF-8"?>
<svg width="203px" height="84px" viewBox="0 0 203 84" version="1.1" xmlns="http://www.w3.org/2000/svg" xmlns:xlink="http://www.w3.org/1999/xlink">
    <title>Group</title>
    <g id="Page-1" stroke="none" stroke-width="1" fill="none" fill-rule="evenodd">
        <g id="Group" fill-rule="nonzero">
            <path d="M202.3,20.9 C202.3,32.4 192.5,41.8 180.4,41.8 C168.3,41.8 158.5,32.5 158.5,20.9 C158.5,9.4 168.3,0 180.4,0 C192.5,0 202.3,9.4 202.3,20.9" id="Path_4" fill="#EC2227"></path>
            <path d="M188.6,20.9 L180.4,13.1 L172.2,20.9 L180.4,28.7 L188.6,20.9 Z M180.4,35.4 L165.1,20.9 L180.4,6.4 L195.7,20.9 L180.4,35.4 Z" id="Path_5" fill="#FFFFFF"></path>
            <path d="M60.8,30.9 L37.5,79.1 C36.3,81.8 33.5,83.5 30.5,83.3 C27.5,83.5 24.7,81.8 23.5,79.1 L0,30.9 L10.8,30.9 L30.4,71.3 L50.2,30.9 L60.8,30.9 Z" id="Path_6" fill="#095DA9"></path>
            <path d="M71.1,82.7 L60.8,82.7 L60.8,30.9 L71.1,30.9 L71.1,82.7 L71.1,82.7 Z M72.7,19.1 C72.7,20.7 71.9,22.2 70.6,23.2 C69.3,24.4 67.5,25 65.7,25 C64,25 62.3,24.4 60.9,23.3 C59.6,22.3 58.9,20.8 58.9,19.2 C58.9,17.6 59.6,16 60.8,15 C62.1,13.8 63.9,13.2 65.6,13.2 C67.4,13.1 69.1,13.8 70.5,14.9 C71.9,15.9 72.7,17.5 72.7,19.1" id="Path_7" fill="#095DA9"></path>
            <rect id="Rectangle_20" fill="#095DA9" x="77.9" y="12.6" width="10.3" height="70.1"></rect>
            <rect id="Rectangle_21" fill="#095DA9" x="95" y="12.6" width="10.3" height="70.1"></rect>
            <path d="M149.6,68 L149.6,58.1 C149.6,57 148.8,56.5 147.2,56.5 L127.2,56.5 C122.2,56.5 119.8,58.6 119.8,62.9 L119.8,68 C119.8,69.7 120.6,71.3 122,72.3 C123.6,73.4 125.5,74 127.4,73.9 L142.4,73.9 C147.2,73.8 149.6,71.8 149.6,68 M159.9,69.7 C160,73.2 158.6,76.7 156,79.1 C153.4,81.5 149.8,82.7 145.3,82.7 L125.5,82.7 C120.7,82.7 117,81.7 114.1,79.6 C111.1,77.5 109.4,74 109.5,70.3 L109.5,61 C109.5,56.9 110.9,53.8 113.6,51.5 C116.3,49.2 120.1,48.1 124.9,48.1 L149.7,48.1 C149.6,45.2 149.1,43.1 148.2,41.9 C147.1,40.4 144.9,39.6 141.6,39.6 L115.7,39.6 L115.7,30.9 L143,30.9 C154.3,30.9 159.9,35.3 159.9,44 L159.9,69.7 L159.9,69.7 Z" id="Path_8" fill="#095DA9"></path>
        </g>
    </g>
</svg>