<?xml version="1.0" encoding="UTF-8"?>
<svg width="223px" height="223px" viewBox="0 0 223 223" version="1.1" xmlns="http://www.w3.org/2000/svg" xmlns:xlink="http://www.w3.org/1999/xlink">
    <title>villa-avator</title>
    <g id="villa-avator" stroke="none" stroke-width="1" fill="none" fill-rule="evenodd">
        <g id="Group-Copy" transform="translate(14.000000, 72.000000)" fill-rule="nonzero">
            <path d="M194.248583,20.0681927 C194.248583,31.1104997 184.838617,40.1363854 173.220189,40.1363854 C161.601762,40.1363854 152.191796,31.2065197 152.191796,20.0681927 C152.191796,9.0258857 161.601762,0 173.220189,0 C184.838617,0 194.248583,9.0258857 194.248583,20.0681927" id="Path_4" fill="#EC2227"></path>
            <path d="M181.093834,20.0681927 L173.220189,12.5786279 L165.346544,20.0681927 L173.220189,27.5577574 L181.093834,20.0681927 Z M173.220189,33.9911015 L158.52912,20.0681927 L173.220189,6.14528388 L187.911259,20.0681927 L173.220189,33.9911015 Z" id="Path_5" fill="#FFFFFF"></path>
            <path d="M58.3801969,29.6701987 L36.0075227,75.951868 C34.855282,78.5444096 32.1667203,80.1767507 29.2861185,79.9847105 C26.4055167,80.1767507 23.716955,78.5444096 22.5647143,75.951868 L0,29.6701987 L10.3701666,29.6701987 L29.1900984,68.4623033 L48.2020705,29.6701987 L58.3801969,29.6701987 Z" id="Path_6" fill="#095DA9"></path>
            <path d="M68.2702631,79.4085902 L58.3801969,79.4085902 L58.3801969,29.6701987 L68.2702631,29.6701987 L68.2702631,79.4085902 L68.2702631,79.4085902 Z M69.8065841,18.3398316 C69.8065841,19.8761526 69.0384236,21.3164535 67.7901628,22.2766541 C66.541902,23.4288948 64.8135409,24.0050152 63.0851799,24.0050152 C61.4528388,24.0050152 59.8204978,23.4288948 58.4762169,22.3726741 C57.2279562,21.4124735 56.5558157,19.9721726 56.5558157,18.4358516 C56.5558157,16.8995307 57.2279562,15.3632097 58.3801969,14.4030091 C59.6284577,13.2507684 61.3568188,12.674648 62.9891598,12.674648 C64.7175209,12.5786279 66.3498619,13.2507684 67.6941428,14.306989 C69.0384236,15.2671896 69.8065841,16.8035106 69.8065841,18.3398316" id="Path_7" fill="#095DA9"></path>
            <rect id="Rectangle_20" fill="#095DA9" x="74.7996273" y="12.0985276" width="9.89006625" height="67.3100625"></rect>
            <rect id="Rectangle_21" fill="#095DA9" x="91.2190576" y="12.0985276" width="9.89006625" height="67.3100625"></rect>
            <path d="M143.646011,65.2936412 L143.646011,55.7876552 C143.646011,54.7314346 142.87785,54.2513343 141.341529,54.2513343 L122.137517,54.2513343 C117.336514,54.2513343 115.032033,56.2677555 115.032033,60.3966182 L115.032033,65.2936412 C115.032033,66.9259823 115.800193,68.4623033 117.144474,69.4225039 C118.680795,70.4787245 120.505176,71.0548449 122.329557,70.9588248 L136.732566,70.9588248 C141.341529,70.8628048 143.646011,68.9424036 143.646011,65.2936412 M153.536077,66.9259823 C153.632097,70.2866844 152.287816,73.6473865 149.791295,75.951868 C147.294773,78.2563494 143.838051,79.4085902 139.517148,79.4085902 L120.505176,79.4085902 C115.896213,79.4085902 112.343471,78.4483896 109.558889,76.4319683 C106.678287,74.415547 105.045946,71.0548449 105.141966,67.5021026 L105.141966,58.572237 C105.141966,54.6354145 106.486247,51.6587926 109.078789,49.4503312 C111.671331,47.2418698 115.320093,46.1856492 119.929056,46.1856492 L143.742031,46.1856492 C143.646011,43.4010674 143.16591,41.3846461 142.30173,40.2324054 C141.245509,38.7921045 139.133068,38.023944 135.964406,38.023944 L111.09521,38.023944 L111.09521,29.6701987 L137.308687,29.6701987 C148.158954,29.6701987 153.536077,33.8950814 153.536077,42.2488267 L153.536077,66.9259823 L153.536077,66.9259823 Z" id="Path_8" fill="#095DA9"></path>
        </g>
    </g>
</svg>