<?xml version="1.0" encoding="UTF-8"?>
<svg width="161px" height="45px" viewBox="0 0 161 45" version="1.1" xmlns="http://www.w3.org/2000/svg" xmlns:xlink="http://www.w3.org/1999/xlink">
    <title>intelligro</title>
    <g id="Page-1" stroke="none" stroke-width="1" fill="none" fill-rule="evenodd">
        <g id="intelligro" transform="translate(0.538141, 0.536925)" fill-rule="nonzero">
            <path d="M1.76562034e-05,16.3649605 L23.0896126,16.3649605 L23.3438469,16.3776602 L23.5855716,16.4157525 L23.8143659,16.4791646 L24.0304328,16.5552891 L24.2467175,16.6694534 L24.4500644,16.7836402 L24.6406913,16.9231843 L24.8060811,17.0754108 L24.9712605,17.2529947 L25.1112103,17.4434112 L25.2257127,17.6463373 L25.3272772,17.8492634 L25.416332,18.0776295 L25.4799695,18.3059956 L25.5054395,18.5470892 L25.518137,18.7879649 L25.518137,26.7041064 L25.518137,26.894305 L25.4799695,27.0719941 L25.4418021,27.2369631 L25.3781646,27.4144418 L25.3018297,27.5666908 L25.2129852,27.7189399 L25.0984828,27.8584615 L24.9839805,27.9852631 L24.8569685,28.112275 L24.7170187,28.2136291 L24.5645592,28.3024737 L24.3991694,28.3785982 L24.23399,28.4420103 L24.0558727,28.4928751 L23.8779733,28.5181198 L23.6998561,28.5308172 L4.13223042,28.5308172 L3.80166121,28.5181198 L3.47106946,28.4928751 L3.1277953,28.4547077 L2.7845001,28.4039931 L2.42848267,28.3278685 L2.08518748,28.239024 L1.75461526,28.1249424 L1.43674425,27.9979304 L1.28418038,27.9218059 L1.1443177,27.8456814 L1.00445502,27.7695568 L0.864592348,27.6809227 L0.737452657,27.5920782 L0.623014163,27.4905137 L0.508596706,27.3891596 L0.406880445,27.2748676 L0.317865381,27.1733031 L0.241594339,27.0465015 L0.16530226,26.9196999 L0.101732414,26.7928983 L0.0635875017,26.6533767 L0.0254425891,26.5136448 L0.0127226094,26.3613957 L1.76562034e-05,26.2093646 L1.76562034e-05,16.3649605 L1.76562034e-05,16.3649605 Z M2.03434648,0 L2.18691035,0.0127351565 L2.37764167,0.0254175699 L2.58107419,0.0507974231 L2.82263209,0.101542103 L3.35665862,0.21570486 L3.99237961,0.380630329 L4.70439043,0.583596276 L5.49269709,0.837324934 L6.34457359,1.12909407 L7.24729695,1.45894576 L8.18816748,1.82683793 L9.16718367,2.23276982 L10.1843463,2.68948546 L11.2142311,3.17154039 L11.7355324,3.42526905 L12.2441137,3.69167786 L12.7653924,3.97076609 L13.2866937,4.24985431 L13.8079725,4.54162495 L14.3165763,4.84609303 L14.8251576,5.15056111 L15.3337164,5.46768906 L16.0584547,5.93708862 L16.7577681,6.40646564 L17.4189741,6.8885401 L18.0546726,7.37059202 L18.6649311,7.85266648 L19.2370221,8.3347184 L19.796596,8.82947527 L20.3177921,9.32423214 L20.8264786,9.83167142 L21.2967873,10.3391107 L21.7418588,10.8592474 L22.1742104,11.3793616 L22.5809042,11.8994983 L22.9623683,12.4449999 L23.318385,12.9777965 L23.6616817,13.5359729 L1.34773332,13.5359729 L1.20787064,13.5359729 L1.08073095,13.5105781 L0.953590507,13.4724857 L0.826429028,13.4343934 L0.712011571,13.3709814 L0.597573076,13.3075693 L0.495856816,13.2314673 L0.394140555,13.1426679 L0.305146528,13.041186 L0.228854449,12.9396816 L0.165284603,12.8255174 L0.101714758,12.7113306 L0.0635698454,12.5844914 L0.0254249329,12.4576297 L0.0127049532,12.330768 L-1.66828285e-15,12.1912239 L-1.66828285e-15,2.02974737 L0.0127049532,1.71259688 L0.0381524259,1.4335079 L0.0635773587,1.3066432 L0.0890022916,1.19248044 L0.127147204,1.0782959 L0.165292117,0.964133139 L0.203437029,0.875329949 L0.241581942,0.773825563 L0.292431808,0.69772357 L0.343304213,0.60892038 L0.406874059,0.545478261 L0.470443904,0.469376267 L0.53401375,0.405934148 L0.597583595,0.355189468 L0.737446271,0.25370687 L0.902732377,0.17758384 L1.06801848,0.11416426 L1.24602757,0.0761019932 L1.42403591,0.0380397267 L1.62746844,0.0126824133 L1.83090096,0 L2.03433348,0 L2.03434648,0 Z" id="inteligro_svg_over" fill="#00AF09"></path>
            <path d="M35.1176607,34.3157092 L35.0286058,34.3157092 L34.9522709,34.3282564 L34.8886335,34.3664238 L34.8377686,34.4043659 L34.7869037,34.4552308 L34.7616591,34.5186428 L34.7489616,34.5820549 L34.7362642,34.6708994 L34.7489616,34.7597439 L34.7616591,34.8356581 L34.7869037,34.8992956 L34.8377686,34.9500102 L34.8886335,35.0007248 L34.9522709,35.0261948 L35.0286058,35.0388923 L35.1176607,35.0515897 L35.2065052,35.0388923 L35.2828401,35.0261948 L35.359175,35.0007248 L35.4100399,34.9500102 L35.4607546,34.8992956 L35.498922,34.8356581 L35.5116195,34.7597439 L35.5243169,34.6708994 L35.5116195,34.6074873 L35.498922,34.5438499 L35.473452,34.4804378 L35.4355099,34.4297232 L35.3846451,34.3790086 L35.3210076,34.3408411 L35.2319527,34.3155965 L35.1176607,34.3155965 L35.1176607,34.3157092 Z M34.8377686,41.40701 L35.41007,41.40701 L35.41007,36.0915559 L34.8377686,36.0915559 L34.8377686,41.40701 Z M39.2624364,35.9902002 L39.0082021,36.0028977 L38.7539678,36.0408397 L38.5249631,36.0915544 L38.2961688,36.1803989 L38.1943864,36.2312638 L38.0928219,36.2819784 L37.9910395,36.3453905 L37.9019846,36.4088025 L37.8131401,36.4722146 L37.7240852,36.5483391 L37.6350304,36.6371836 L37.5586954,36.7133082 L37.5586954,36.0790898 L36.9866044,36.0790898 L36.9866044,41.4070543 L37.5586954,41.4070543 L37.5586954,38.1469175 L37.5713929,37.9692285 L37.5840903,37.7915394 L37.6222578,37.6267808 L37.6731227,37.4745392 L37.7367601,37.3350176 L37.813095,37.1952782 L37.9146595,37.0684766 L38.0164419,36.941675 L38.1436642,36.8401105 L38.2706762,36.751266 L38.423346,36.6753518 L38.563078,36.6117144 L38.7284678,36.5609997 L38.8936472,36.5355297 L39.0844844,36.5102851 L39.2623838,36.4975877 L39.4532211,36.5102851 L39.643848,36.5355297 L39.8092378,36.5736972 L39.9744172,36.6244118 L40.127087,36.7005363 L40.2668265,36.7893809 L40.4067763,36.8909453 L40.5212786,37.0177469 L40.6355706,37.1445485 L40.7246255,37.2713501 L40.8009604,37.4235992 L40.8645979,37.5758483 L40.9153125,37.7280973 L40.95348,37.9057864 L40.97895,38.083265 L40.97895,38.273674 L40.97895,41.40701 L41.5385239,41.40701 L41.5385239,38.4131978 L41.5258265,38.1468747 L41.5003564,37.9057811 L41.462189,37.6646875 L41.3985515,37.4490414 L41.3222166,37.2461153 L41.2206521,37.0431892 L41.1061498,36.8655001 L40.9661999,36.7005311 L40.889865,36.6116866 L40.8137405,36.535562 L40.7246856,36.4594375 L40.6356307,36.3960254 L40.5465759,36.3326134 L40.4450114,36.2692013 L40.343229,36.2184867 L40.2414466,36.1676218 L40.0126523,36.0914973 L39.7838579,36.0407826 L39.5294057,36.0028406 L39.2624439,35.9901431 L39.2624364,35.9902002 Z M43.8652193,34.6199887 L43.2929179,34.6199887 L43.2929179,40.3415017 L43.2929179,40.4683033 L43.3056153,40.5951049 L43.3310854,40.7093969 L43.3565554,40.810751 L43.3947228,40.8995955 L43.4455877,40.98844 L43.4964526,41.0772845 L43.5600901,41.1406966 L43.6362146,41.2041086 L43.7125495,41.2548233 L43.8016044,41.3056882 L43.9033868,41.3436302 L44.0049513,41.3691002 L44.1194536,41.3943448 L44.246676,41.4070423 L44.3736879,41.4070423 L44.6660897,41.4070423 L44.6660897,40.8869056 L44.297353,40.8869056 L44.1957885,40.8743584 L44.1067336,40.8488884 L44.0303987,40.8107209 L43.9795338,40.7473089 L43.9288192,40.6584643 L43.8906518,40.5571102 L43.8779543,40.4428182 L43.8652569,40.3032967 L43.8652569,36.6116565 L45.3400044,36.6116565 L45.3400044,36.0915198 L43.8652569,36.0915198 L43.8652569,34.6199526 L43.8652193,34.6199887 Z M49.6885124,36.4976155 L49.9173068,36.5103129 L50.1333736,36.5355575 L50.3369309,36.573725 L50.5402777,36.6371371 L50.7181771,36.7132616 L50.8962944,36.8148261 L51.0489642,36.9161802 L51.2141436,37.0431922 L51.341366,37.1827137 L51.4683779,37.3349628 L51.5701603,37.486994 L51.6592152,37.664683 L51.7353397,37.842372 L51.7989772,38.0198507 L51.8498421,38.2229872 L51.8880095,38.4259133 L47.4887862,38.4259133 L47.5142562,38.2229872 L47.5651211,38.0198507 L47.6287585,37.842372 L47.7048831,37.664683 L47.8066654,37.486994 L47.9084478,37.3349628 L48.0354598,37.1827137 L48.1754096,37.0431922 L48.3280794,36.9161802 L48.4932588,36.8148261 L48.6586486,36.7132616 L48.8492755,36.6371371 L49.0399024,36.573725 L49.2561871,36.5355575 L49.472254,36.5103129 L49.6885387,36.4976155 L49.6885124,36.4976155 Z M49.7010596,35.9901987 L49.3959304,36.0028962 L49.1035286,36.0408382 L48.9637891,36.0790057 L48.8238393,36.1042503 L48.696617,36.1424177 L48.569605,36.1931324 L48.4423827,36.243847 L48.3153707,36.3074845 L48.2008684,36.3708965 L48.086366,36.4343086 L47.972074,36.5104331 L47.8702916,36.5992776 L47.7685093,36.6879118 L47.6667269,36.7767563 L47.5651624,36.8783208 L47.4761075,36.9796749 L47.3997726,37.0812394 L47.3234377,37.195321 L47.2473132,37.309613 L47.1836757,37.4236946 L47.1328108,37.5379866 L47.0819459,37.6647882 L47.031081,37.7915898 L46.9929136,37.9186018 L46.9549715,38.0454033 L46.9295015,38.1849249 L46.9168041,38.3244465 L46.891334,38.4639681 L46.891334,38.6034896 L46.891334,38.7557312 L46.891334,38.9079803 L46.9040315,39.0475018 L46.9167289,39.1997509 L46.9294264,39.3267629 L46.9675938,39.4662844 L46.9928384,39.605806 L47.0310059,39.7326076 L47.0818708,39.8594092 L47.1327357,39.9864212 L47.1963731,40.1005028 L47.2600106,40.2145844 L47.3361351,40.3288764 L47.41247,40.4304409 L47.5015249,40.5445225 L47.5905798,40.646087 L47.6921443,40.7347211 L47.7811992,40.8362856 L47.8957015,40.9124101 L47.9974839,41.0012546 L48.1117759,41.0773792 L48.2262783,41.1407912 L48.3532902,41.2042033 L48.4677926,41.2549179 L48.5950149,41.3057828 L48.7347469,41.3564975 L48.8619692,41.3944395 L49.001919,41.432607 L49.1416585,41.458077 L49.2943283,41.4706242 L49.4467877,41.4960942 L49.5994575,41.4960942 L49.751917,41.4960942 L49.9427542,41.4960942 L50.1333811,41.4960942 L50.3114984,41.4706242 L50.4893978,41.458077 L50.6675151,41.4199095 L50.8326945,41.3944395 L50.9853643,41.3564975 L51.1378238,41.3057828 L51.2904936,41.2549179 L51.4302255,41.1915059 L51.5574479,41.1280938 L51.6846702,41.0646817 L51.8116822,40.9885572 L51.9261845,40.8997127 L52.0406869,40.8108682 L52.1422514,40.7095141 L52.1804188,40.6840441 L51.7480672,40.3034289 L51.7228226,40.3288989 L51.6337677,40.4050234 L51.5447128,40.481148 L51.4429305,40.54456 L51.341366,40.6079721 L51.2141436,40.6713842 L51.0869213,40.7222491 L50.9471894,40.7729637 L50.8072395,40.8109058 L50.5402777,40.8870303 L50.2733159,40.9378952 L50.0063541,40.9758372 L49.751902,40.9758372 L49.5103876,40.9758372 L49.2815933,40.9503672 L49.0653086,40.8996526 L48.8619617,40.8362405 L48.6586148,40.760116 L48.4804975,40.6585515 L48.3025981,40.5444699 L48.1499283,40.4176683 L48.0099785,40.2654267 L47.8829665,40.1131777 L47.7684642,39.9482086 L47.6794093,39.77073 L47.6032848,39.580321 L47.5524199,39.3773948 L47.501555,39.1744687 L47.476085,38.9461026 L52.4473956,38.9461026 L52.4600931,38.9079352 L52.4855631,38.7938536 L52.4855631,38.654332 L52.4728656,38.375071 L52.4346982,38.1087478 L52.4092282,37.9819462 L52.3712861,37.8551446 L52.3331187,37.7281326 L52.2949512,37.601331 L52.2313138,37.4870391 L52.1804489,37.3729574 L52.1168114,37.2588758 L52.0406869,37.1445838 L51.8880171,36.9416577 L51.6973902,36.7512487 L51.4938329,36.5737701 L51.2777586,36.421521 L51.0489642,36.2947194 L50.794512,36.1804274 L50.5402777,36.1043029 L50.2733159,36.0408908 L49.9936342,36.0029488 L49.7010145,35.9902513 L49.7010596,35.9901987 Z M54.2402298,41.4070085 L54.8123209,41.4070085 L54.8123209,33.5799241 L54.2402298,33.5799241 L54.2402298,41.4070085 Z M56.5669598,41.4070085 L57.1392612,41.4070085 L57.1392612,33.5799241 L56.5669598,33.5799241 L56.5669598,41.4070085 Z M59.2624302,34.3157077 L59.1735857,34.3157077 L59.0972508,34.3282549 L59.0336133,34.3664223 L58.9827484,34.4043644 L58.9318835,34.4552293 L58.9064135,34.5186413 L58.8809435,34.5820534 L58.8809435,34.6708979 L58.8809435,34.7597424 L58.9064135,34.8356566 L58.9318835,34.8992941 L58.9827484,34.9500087 L59.0336133,35.0007233 L59.0972508,35.0261933 L59.1735857,35.0388908 L59.2624302,35.0515882 L59.3514851,35.0388908 L59.44054,35.0261933 L59.5041774,35.0007233 L59.554892,34.9500087 L59.6057569,34.8992941 L59.6312269,34.8356566 L59.656697,34.7597424 L59.656697,34.6708979 L59.656697,34.6074858 L59.6439995,34.5438484 L59.6185295,34.4804363 L59.5803621,34.4297217 L59.5294972,34.3790071 L59.4660851,34.3408396 L59.3770302,34.315595 L59.2625279,34.315595 L59.2624302,34.3157077 Z M58.9954684,41.4070085 L59.5548319,41.4070085 L59.5548319,36.0915544 L58.9954684,36.0915544 L58.9954684,41.4070085 Z M65.9122583,37.2588428 L66.0265502,37.4363214 L66.1410526,37.6267304 L66.2301075,37.8296566 L66.3064424,38.0453027 L66.3698545,38.2736688 L66.4080219,38.5020348 L66.4334919,38.755638 L66.4461894,39.0221716 L66.4461894,39.7959107 L66.331687,39.9481598 L66.204675,40.1004089 L66.0774527,40.2272104 L65.9249933,40.3542224 L65.7850434,40.468304 L65.619864,40.5823856 L65.4544742,40.6839501 L65.2892948,40.7727946 L65.1620725,40.8235093 L65.0348501,40.8616767 L64.9078382,40.8996188 L64.7806158,40.9250888 L64.640666,40.9503334 L64.513654,40.9630308 L64.3737042,40.9757283 L64.2339723,40.9757283 L63.9795201,40.9757283 L63.7380058,40.9377862 L63.5092114,40.8869213 L63.2929267,40.8235093 L63.1022998,40.7346648 L62.9116729,40.6205831 L62.822618,40.5698685 L62.7462831,40.5064565 L62.6699482,40.4303319 L62.5936133,40.3542074 L62.4538814,40.2019583 L62.339379,40.0369893 L62.2378145,39.8465803 L62.1614796,39.6563816 L62.0978421,39.4407355 L62.0469772,39.2250894 L62.0215072,38.9839958 L62.0088098,38.7429023 L62.0215072,38.5020266 L62.0469772,38.260933 L62.0978421,38.0452869 L62.1614796,37.8423608 L62.2378145,37.6519518 L62.339379,37.4617531 L62.4666013,37.2967841 L62.6063333,37.131815 L62.7590031,36.9922935 L62.9241825,36.8654919 L63.1150198,36.7511999 L63.3056467,36.6625657 L63.5219314,36.5991537 L63.7380058,36.5482888 L63.9795201,36.5103467 L64.2339723,36.4976493 L64.4882066,36.5103467 L64.7424409,36.5482888 L64.9712352,36.6117008 L65.18752,36.6878254 L65.2893023,36.7386903 L65.3908668,36.8021023 L65.4926492,36.8655144 L65.5817041,36.9289265 L65.6705486,37.005051 L65.7468835,37.0811755 L65.8232184,37.1700201 L65.9122733,37.2588646 L65.9122583,37.2588428 Z M66.4461819,37.0557063 L66.3316795,36.9289047 L66.230115,36.8148231 L66.1156126,36.7005311 L65.9883903,36.599177 L65.8613783,36.4976125 L65.734156,36.408768 L65.607144,36.3326434 L65.4671942,36.2565189 L65.3272444,36.2058043 L65.1747849,36.1423922 L65.0221151,36.1042247 L64.8696557,36.0662827 L64.7042659,36.0281152 L64.5390865,36.0154178 L64.3736967,36.0028706 L64.1957973,35.9901732 L63.8906681,36.0028706 L63.5980484,36.0408127 L63.445589,36.0662827 L63.3183666,36.1042247 L63.1786347,36.1423922 L63.0514124,36.1931068 L62.92419,36.2438215 L62.7971781,36.2946863 L62.6826757,36.3580984 L62.5683837,36.4342229 L62.4666013,36.5103475 L62.364819,36.586472 L62.2630366,36.6753165 L62.1614721,36.7639507 L62.0724172,36.8655152 L61.9833623,36.9543597 L61.9070274,37.0684413 L61.8309029,37.1700058 L61.7672654,37.2840874 L61.703628,37.3983794 L61.6527631,37.512461 L61.6018982,37.6392626 L61.5511835,37.7662745 L61.5130161,37.8930761 L61.4875461,38.0198777 L61.4620761,38.1593993 L61.4239086,38.4511699 L61.4112112,38.7556606 L61.4112112,38.9079096 L61.4239086,39.0474312 L61.4366061,39.1996803 L61.4620761,39.3392018 L61.4875461,39.4662138 L61.5257135,39.6057354 L61.563881,39.732537 L61.6145956,39.8593386 L61.6654605,39.9863505 L61.7163254,40.1004321 L61.7799629,40.2145138 L61.8562978,40.3288057 L61.9324223,40.4303702 L62.0087572,40.5444519 L62.0978121,40.6460163 L62.186867,40.7346505 L62.2884315,40.836215 L62.3902138,40.9123395 L62.4919962,41.001184 L62.6062882,41.0773086 L62.7207906,41.1407206 L62.8352929,41.2041327 L62.9623049,41.2548473 L63.0895272,41.3057122 L63.2167496,41.3564268 L63.3437615,41.3943689 L63.4837114,41.4325363 L63.6234433,41.4580064 L63.7761131,41.4705535 L63.9160629,41.4960235 L64.0685224,41.4960235 L64.2339122,41.4960235 L64.5135939,41.4960235 L64.7932757,41.4580815 L65.0602375,41.4072166 L65.3144718,41.3310921 L65.4289742,41.2803774 L65.568924,41.2042529 L65.7213834,41.1154084 L65.8867732,41.0013268 L66.0519526,40.8745252 L66.2046225,40.7602332 L66.3316344,40.6461516 L66.4461368,40.5445871 L66.4461368,41.1535683 L66.4334393,41.3944515 L66.4079693,41.6228176 L66.3698019,41.8384637 L66.3063898,42.0416002 L66.2300549,42.2317989 L66.141,42.4094879 L66.0264977,42.5742466 L65.8994857,42.7264956 L65.7468159,42.8662276 L65.5816365,42.9803092 L65.4035192,43.0943908 L65.2128923,43.1705153 L65.009335,43.2466399 L64.7932682,43.2848073 L64.5517539,43.3100519 L64.3100292,43.3227494 L64.0303474,43.3227494 L63.7633856,43.2975048 L63.4964238,43.2593373 L63.229462,43.1959252 L62.9750098,43.1325132 L62.7207755,43.0436687 L62.4792612,42.929587 L62.2502565,42.8152951 L62.1995419,42.7900504 L62.0087046,43.3354243 L62.0468721,43.3481217 L62.4156087,43.5003708 L62.7080105,43.6019353 L62.9495248,43.6905694 L63.1276421,43.7414343 L63.3818764,43.7921489 L63.6615582,43.8428636 L63.9666874,43.8683336 L64.2845366,43.8683336 L64.4499264,43.8683336 L64.6025962,43.8556361 L64.7423282,43.8429387 L64.894998,43.8302412 L65.0347374,43.8049966 L65.1746873,43.7668292 L65.3016992,43.7288871 L65.4289216,43.6780222 L65.5561439,43.6273076 L65.6704359,43.576593 L65.7849383,43.5131809 L65.8994406,43.4497688 L66.0137326,43.3736443 L66.115515,43.2847998 L66.2045699,43.2086753 L66.3063522,43.1071108 L66.3824768,43.0182663 L66.4715317,42.9296321 L66.5478666,42.8280676 L66.611504,42.713986 L66.6749161,42.6124215 L66.7385536,42.4981295 L66.7894184,42.3713279 L66.8275859,42.2572463 L66.9166408,42.0034328 L66.9675057,41.7371096 L67.0054477,41.445339 L67.0054477,41.1535683 L67.0054477,36.0917159 L66.4460842,36.0917159 L66.4460842,37.0558686 L66.4461819,37.0557063 Z M71.5701601,36.4976125 L71.7989394,36.5103099 L72.0152467,36.5355545 L72.2186311,36.573722 L72.4219404,36.637134 L72.6000802,36.7132586 L72.7779947,36.8148231 L72.9433619,36.9161772 L73.0958063,37.0431892 L73.2357787,37.1827107 L73.3502811,37.3349598 L73.4518606,37.486991 L73.5536655,37.66468 L73.6300004,37.842369 L73.6810907,38.0198477 L73.732181,38.2229842 L73.7704987,38.4259103 L69.3712791,38.4259103 L69.3967491,38.2229842 L69.447614,38.0198477 L69.5112514,37.842369 L69.5875863,37.66468 L69.6893687,37.486991 L69.7909332,37.3349598 L69.9181555,37.1827107 L70.0578875,37.0431892 L70.1978373,36.9161772 L70.3632271,36.8148231 L70.5411265,36.7132586 L70.7317534,36.637134 L70.9225907,36.573722 L71.138665,36.5355545 L71.3549723,36.5103099 L71.5710542,36.4976125 L71.5701601,36.4976125 Z M71.5701601,35.9901957 L71.2777433,36.0028932 L70.985334,36.0408352 L70.8453842,36.0790027 L70.7056523,36.1042473 L70.5784299,36.1424147 L70.4512076,36.1931294 L70.3241956,36.243844 L70.1969733,36.3074815 L70.0824709,36.3708935 L69.9681789,36.4343056 L69.8536766,36.5104301 L69.7518942,36.5992746 L69.6503297,36.6879088 L69.5485473,36.7767533 L69.446765,36.8783178 L69.3579204,36.9796719 L69.2815855,37.0812364 L69.2052506,37.195318 L69.1289157,37.30961 L69.0652783,37.4236916 L69.0145636,37.5379836 L68.9636987,37.6647852 L68.9128339,37.7915868 L68.8746664,37.9185987 L68.836499,38.0454003 L68.8110289,38.1849219 L68.7855589,38.3244435 L68.7728615,38.4639651 L68.760164,38.6034866 L68.760164,38.7557282 L68.760164,38.9079773 L68.7728615,39.0474988 L68.7855589,39.1997479 L68.8110289,39.3267599 L68.836499,39.4662814 L68.8746664,39.605803 L68.9128339,39.7326046 L68.9636987,39.8594062 L69.0145636,39.9864182 L69.0779757,40.1004998 L69.1416132,40.2145814 L69.2052506,40.3288734 L69.2815855,40.4304379 L69.3704301,40.5445195 L69.4594849,40.646084 L69.5612673,40.7347181 L69.6630497,40.8362826 L69.7646142,40.9124071 L69.8791165,41.0012516 L69.9936189,41.0773762 L70.1079109,41.1407882 L70.2224132,41.2042003 L70.3496356,41.2549149 L70.4766475,41.3057798 L70.6038699,41.3564945 L70.7436018,41.3944365 L70.8835517,41.432604 L71.0235015,41.458074 L71.1759609,41.4706211 L71.3286307,41.4960912 L71.4810751,41.4960912 L71.633745,41.4960912 L71.8243568,41.4960912 L72.0151941,41.4960912 L72.1931085,41.4706211 L72.3712483,41.458074 L72.5363902,41.4199065 L72.7017574,41.3944365 L72.8668993,41.3564945 L73.0195691,41.3057798 L73.1593161,41.2549149 L73.2992884,41.1915029 L73.4390354,41.1280908 L73.5662352,41.0646787 L73.6807376,40.9885542 L73.8077871,40.8997097 L73.909592,40.8108652 L74.0240944,40.7095111 L74.0496395,40.684041 L73.6300229,40.3034259 L73.6044778,40.3288959 L73.5154454,40.4050204 L73.4266385,40.481145 L73.3248336,40.544557 L73.2230287,40.6079691 L73.0958289,40.6586837 L72.9688545,40.7223212 L72.8416547,40.7730358 L72.6892103,40.8109779 L72.4220381,40.8871024 L72.1550913,40.9379673 L71.8881446,40.9759094 L71.6338952,40.9759094 L71.3924185,40.9759094 L71.1634138,40.9504393 L70.9473394,40.8997247 L70.7437821,40.8363127 L70.5529599,40.7600717 L70.3623345,40.6585042 L70.1969425,40.5444256 L70.0317623,40.4176247 L69.8918147,40.2653794 L69.7645901,40.1131333 L69.6630219,39.948165 L69.5739648,39.7706864 L69.4849076,39.5802736 L69.4340427,39.3773475 L69.3958753,39.1617014 L69.3704053,38.9460553 L74.3419286,38.9460553 L74.3419286,38.9078878 L74.3674737,38.7938062 L74.3674737,38.6542847 L74.3547011,38.3750236 L74.3163834,38.1087005 L74.2525206,37.8550973 L74.1761857,37.6012837 L74.1123228,37.4869917 L74.0619838,37.3729101 L73.998121,37.2588285 L73.9217861,37.157264 L73.7566442,36.9416179 L73.5785044,36.7512089 L73.3751199,36.5737302 L73.1588127,36.4214812 L72.9300334,36.2946796 L72.675784,36.1803876 L72.4213093,36.1042631 L72.1543625,36.040851 L71.8747183,36.0029089 L71.5696041,35.9902115 L71.5701601,35.9901957 Z M78.3978966,35.9901957 L78.1309498,36.0028932 L77.8892477,36.0408352 L77.6477709,36.0915498 L77.431689,36.1803944 L77.2281543,36.2819589 L77.0247699,36.4087604 L76.9357375,36.4721725 L76.8467052,36.548297 L76.7705957,36.6371416 L76.6815633,36.7132661 L76.6815633,36.0790478 L76.1221998,36.0790478 L76.1221998,41.4070122 L76.6815633,41.4070122 L76.6815633,38.1468754 L76.6943359,37.9691864 L76.7198811,37.7914974 L76.7581988,37.6267387 L76.8092891,37.4744971 L76.8724006,37.3349756 L76.9487355,37.1952361 L77.0505404,37.0684345 L77.1523453,36.9416329 L77.2793197,36.8400684 L77.4065195,36.7512239 L77.5462665,36.6753098 L77.6989363,36.6116723 L77.8513807,36.5609577 L78.0295206,36.5354877 L78.207435,36.510243 L78.3982722,36.4975456 L78.5888841,36.510243 L78.7797214,36.5354877 L78.9448632,36.5736551 L79.1102305,36.6243697 L79.2626749,36.7004943 L79.4026473,36.7893388 L79.5423942,36.8909033 L79.6568966,37.0177049 L79.7713989,37.1445065 L79.8604313,37.2713081 L79.9365408,37.4235571 L80.0004037,37.5758062 L80.0514939,37.7280553 L80.0770391,37.9057443 L80.1025842,38.0832229 L80.1153568,38.2736319 L80.1153568,41.4069679 L80.6747204,41.4069679 L80.6747204,38.4131558 L80.6619478,38.1468326 L80.6364026,37.905739 L80.5980849,37.6646454 L80.5349734,37.4489993 L80.445941,37.2333532 L80.3569087,37.0431546 L80.2424063,36.8654656 L80.1026594,36.7004965 L80.0263245,36.611652 L79.9499896,36.5355275 L79.8611826,36.4594029 L79.7721503,36.3959909 L79.6831179,36.3325788 L79.581313,36.2691667 L79.4797335,36.2184521 L79.3779286,36.1675872 L79.1491492,36.0914627 L78.9201445,36.0407481 L78.6658952,36.002806 L78.3989484,35.9901086 L78.3978966,35.9901957 Z M82.9877431,34.6199842 L82.4283796,34.6199842 L82.4283796,40.3414972 L82.4283796,40.4682988 L82.4411521,40.5951004 L82.4666973,40.7093923 L82.4922424,40.8107465 L82.5305601,40.899591 L82.5816504,40.9884355 L82.6319894,41.07728 L82.6958523,41.1406921 L82.7721872,41.2041041 L82.8485221,41.2548188 L82.937329,41.3056837 L83.0391339,41.3436257 L83.1409388,41.3690957 L83.2554412,41.3943403 L83.3697182,41.4070378 L83.5096905,41.4070378 L83.7894099,41.4070378 L83.7894099,40.8869011 L83.4206582,40.8869011 L83.3188533,40.8743539 L83.2300463,40.8488839 L83.1537114,40.8107164 L83.1026211,40.7473043 L83.0515308,40.6584598 L83.0132131,40.5571057 L83.0004405,40.4428137 L82.987668,40.3032922 L82.987668,36.611652 L84.4753496,36.611652 L84.4753496,36.0915153 L82.987668,36.0915153 L82.987668,34.6199481 L82.9877431,34.6199842 Z M91.6464504,36.497611 L91.8625323,36.5103084 L92.0786142,36.5482505 L92.2949215,36.5991154 L92.4855333,36.6625274 L92.6763706,36.7511616 L92.8669824,36.8654535 L93.0323497,36.9922551 L93.1975667,37.1445042 L93.2358844,37.1826717 L93.6428035,36.8272936 L93.6044858,36.7893516 L93.5026809,36.700507 L93.4011014,36.5991529 L93.286599,36.5230284 L93.1847941,36.4469039 L92.9560148,36.3073823 L92.714538,36.1930903 L92.5873382,36.1551482 L92.4601384,36.1042834 L92.3203915,36.0790387 L92.1931917,36.0408713 L91.9135475,36.0029292 L91.6339033,35.9902318 L91.328789,36.0029292 L91.0363723,36.0408713 L90.8963999,36.0790387 L90.7564275,36.1042834 L90.6294531,36.1424508 L90.5022533,36.1931654 L90.3752038,36.2438801 L90.248004,36.3075175 L90.1335016,36.3709296 L90.0192247,36.4343417 L89.9047223,36.5104662 L89.8029174,36.5993107 L89.7013379,36.6879448 L89.599533,36.7767894 L89.5105006,36.8783538 L89.4214683,36.979708 L89.3326613,37.0812725 L89.2563264,37.1953541 L89.1924636,37.3096461 L89.1286007,37.4237277 L89.0647378,37.5380197 L89.0143989,37.6648213 L88.9760811,37.7916228 L88.9377634,37.9186348 L88.8994457,38.0454364 L88.8739006,38.184958 L88.8483554,38.3244795 L88.8355828,38.4640011 L88.8228103,38.6035227 L88.8228103,38.7557642 L88.8228103,38.8952858 L88.8355828,39.0475274 L88.8483554,39.1870489 L88.8739006,39.3267884 L88.8994457,39.45359 L88.9377634,39.5931116 L88.9760811,39.7199132 L89.0143989,39.8467148 L89.0647378,39.9610067 L89.1286007,40.0878083 L89.1924636,40.2021003 L89.2563264,40.3161819 L89.3326613,40.4177464 L89.4214683,40.531828 L89.5105006,40.6333925 L89.599533,40.7347467 L89.7013379,40.8235912 L89.8029174,40.9124357 L89.9174198,40.9885602 L90.0192247,41.0646847 L90.1461991,41.1408093 L90.2607014,41.2042213 L90.3876758,41.254936 L90.5021782,41.3058009 L90.6421506,41.3565155 L90.769125,41.3944575 L90.9090973,41.432625 L91.0490697,41.458095 L91.1888167,41.4706422 L91.328789,41.4961122 L91.4812334,41.4961122 L91.6339033,41.4961122 L91.7736502,41.4961122 L91.9136226,41.4961122 L92.053595,41.4706422 L92.1805694,41.458095 L92.3205417,41.4199276 L92.4475913,41.3944575 L92.5747911,41.3437429 L92.7019909,41.3058009 L92.8162678,41.254936 L92.9434676,41.1915239 L93.05797,41.1281118 L93.1722469,41.0519873 L93.2867493,40.9758628 L93.3885542,40.8870183 L93.5028312,40.7983841 L93.6046361,40.6968196 L93.6429538,40.6586522 L93.2360347,40.3034845 L93.1977169,40.3289545 L93.0325,40.4812036 L92.8671327,40.6207251 L92.6765208,40.7222896 L92.4856836,40.8236438 L92.2822991,40.8870558 L92.0787644,40.9379207 L91.8626826,40.9758628 L91.6466007,40.9758628 L91.3923514,40.9758628 L91.1506492,40.9379207 L90.9218699,40.8870558 L90.7184855,40.8236438 L90.5149508,40.7347992 L90.3243389,40.6207176 L90.1589716,40.493916 L90.0065272,40.341667 L89.8665549,40.1894254 L89.7520525,40.0117364 L89.650473,39.8342577 L89.5614406,39.6311212 L89.4975778,39.4281951 L89.4592601,39.212549 L89.4337149,38.9841829 L89.4209423,38.7430893 L89.4337149,38.5022137 L89.4592601,38.2738476 L89.4975778,38.0582015 L89.5614406,37.8552753 L89.650473,37.6521388 L89.7520525,37.4746602 L89.8665549,37.2969712 L90.0065272,37.1320021 L90.1589716,36.9924805 L90.3371115,36.8656789 L90.5277233,36.751387 L90.7185606,36.6627528 L90.9346425,36.5993408 L91.1634218,36.5484759 L91.3924265,36.5105338 L91.6466758,36.4978364 L91.6464504,36.497611 Z M97.1771247,36.0663188 L97.0246802,36.0790162 L96.8847079,36.0915634 L96.7449609,36.1042608 L96.6177611,36.1297308 L96.4780141,36.1676729 L96.3508143,36.2058403 L96.236312,36.256555 L96.1092624,36.3074198 L95.9947601,36.3708319 L95.8929552,36.434244 L95.7786782,36.5230885 L95.6768733,36.599213 L95.5750684,36.6878472 L95.486036,36.7894117 L95.3972291,36.9034933 L95.3081967,37.0050578 L95.3081967,36.0915829 L94.7488332,36.0915829 L94.7488332,41.407037 L95.3081967,41.407037 L95.3081967,39.0222076 L95.3209693,38.7429466 L95.3465145,38.4766234 L95.3848322,38.2355299 L95.4359225,38.0071638 L95.512032,37.7915177 L95.6010643,37.5885915 L95.7028692,37.4111129 L95.8171462,37.2461438 L95.9571186,37.0939023 L96.0970909,36.9671007 L96.2368379,36.8528087 L96.4022052,36.7639642 L96.5674221,36.6878397 L96.7327894,36.637125 L96.9107038,36.611655 L97.0888436,36.5991078 L97.1143888,36.5991078 L97.444973,36.6370499 L97.6355849,36.6625199 L97.7246172,36.6752173 L97.7373898,36.6752173 L97.8264221,36.700462 L97.8264221,36.1550881 L97.7881044,36.1550881 L97.5464023,36.1169207 L97.3684878,36.0914507 L97.241288,36.0789035 L97.1774252,36.0662061 L97.1771247,36.0663188 Z M101.767189,40.9757133 L101.525712,40.9757133 L101.28401,40.9377712 L101.055231,40.8869063 L100.851846,40.8234942 L100.648312,40.7346497 L100.470397,40.6205681 L100.381365,40.5571561 L100.292333,40.493744 L100.216223,40.4176195 L100.139888,40.3414949 L99.9999158,40.1892534 L99.8854134,40.0115643 L99.7838339,39.8340857 L99.707499,39.6309492 L99.6436362,39.4280231 L99.5925459,39.212377 L99.5670007,38.9840109 L99.5542282,38.7429173 L99.5670007,38.5020416 L99.5925459,38.2736755 L99.6436362,38.0580294 L99.707499,37.8551033 L99.7838339,37.6519668 L99.8854134,37.4744881 L99.9999158,37.2967991 L100.139888,37.1318301 L100.292333,36.9923085 L100.470472,36.8655069 L100.661084,36.7512149 L100.851922,36.6625808 L101.068003,36.5991687 L101.284085,36.5483038 L101.525787,36.5103618 L101.767264,36.4976643 L102.021514,36.5103618 L102.250518,36.5483038 L102.479298,36.5991687 L102.682607,36.6625808 L102.886142,36.7512149 L103.064056,36.8655069 L103.229423,36.9923085 L103.394565,37.1318301 L103.521765,37.2967991 L103.648739,37.4744881 L103.737772,37.6519668 L103.826804,37.8551033 L103.890667,38.0580294 L103.941757,38.2736755 L103.967302,38.5020416 L103.967302,38.7429173 L103.967302,38.9840109 L103.941757,39.212377 L103.890667,39.4280231 L103.826804,39.6309492 L103.737772,39.8213582 L103.635967,40.0115568 L103.52169,40.1765259 L103.381717,40.3414949 L103.229273,40.493744 L103.051133,40.6205456 L102.873219,40.7346272 L102.669684,40.8234717 L102.4663,40.8868838 L102.250218,40.9377487 L102.008516,40.9756907 L101.767039,40.9756907 L101.767189,40.9757133 Z M101.767189,35.9901957 L101.462075,36.0028932 L101.182356,36.0408352 L101.042383,36.0663052 L100.902411,36.1042473 L100.775436,36.1424147 L100.648237,36.1931294 L100.521262,36.243844 L100.394062,36.3074815 L100.27956,36.3708935 L100.165283,36.4343056 L100.050781,36.5104301 L99.9489758,36.5992746 L99.8473963,36.6879088 L99.7455913,36.7767533 L99.6437864,36.8783178 L99.5547541,36.9796719 L99.4786446,37.0812364 L99.4023097,37.195318 L99.3259748,37.2968825 L99.2621119,37.4236841 L99.198249,37.5379761 L99.1479101,37.6647777 L99.1095924,37.7915793 L99.0712746,37.9185912 L99.0329569,38.0453928 L99.0074118,38.1849144 L98.9818666,38.324436 L98.9690941,38.4639575 L98.9563215,38.6034791 L98.9563215,38.7557207 L98.9563215,38.8952422 L98.9690941,39.0474838 L98.9818666,39.1870054 L99.0074118,39.3267448 L99.0329569,39.4662664 L99.0712746,39.593068 L99.1095924,39.7198696 L99.1479101,39.8466712 L99.198249,39.9736831 L99.2621119,40.0877648 L99.3259748,40.2020567 L99.4023097,40.3161384 L99.4786446,40.4177029 L99.5547541,40.5317845 L99.6437864,40.633349 L99.7455913,40.7221935 L99.8473963,40.8235476 L99.9489758,40.9123921 L100.050781,40.9885166 L100.165283,41.0646412 L100.27956,41.1407657 L100.394062,41.2041778 L100.521262,41.2548924 L100.648237,41.3057573 L100.775436,41.3564719 L100.902411,41.394414 L101.042383,41.419884 L101.182356,41.4580514 L101.322102,41.4705986 L101.462075,41.483296 L101.614519,41.4959935 L101.767189,41.4959935 L101.919633,41.4959935 L102.072303,41.483296 L102.224973,41.4705986 L102.36472,41.4580514 L102.504692,41.419884 L102.644439,41.394414 L102.771639,41.3564719 L102.898839,41.3057573 L103.025813,41.2548924 L103.153013,41.2041778 L103.267516,41.1407657 L103.381793,41.0646412 L103.496295,40.9885166 L103.5981,40.9123921 L103.699679,40.8235476 L103.801484,40.7221935 L103.903289,40.633349 L103.979399,40.5317845 L104.068431,40.4304303 L104.144766,40.3161384 L104.208629,40.2020567 L104.272492,40.0877648 L104.335603,39.9736831 L104.386693,39.8466712 L104.463028,39.593068 L104.526891,39.3267448 L104.565209,39.0474838 L104.577982,38.7557132 L104.565209,38.4639425 L104.526891,38.1848919 L104.501346,38.0453703 L104.463028,37.9058487 L104.424711,37.7790471 L104.386393,37.6520352 L104.272116,37.4236691 L104.144916,37.195303 L103.992246,36.9796569 L103.814332,36.7767308 L103.712527,36.6878862 L103.610722,36.5992521 L103.496445,36.5104076 L103.39464,36.4342831 L103.267666,36.370871 L103.153163,36.3074589 L103.038661,36.2438215 L102.911687,36.1931068 L102.771714,36.1423922 L102.644515,36.1042247 L102.504768,36.0662827 L102.364795,36.0408127 L102.072378,36.0028706 L101.767264,35.9901732 L101.767189,35.9901957 Z M108.493143,36.4976125 L108.73462,36.5103099 L108.976322,36.548252 L109.192404,36.5991169 L109.408486,36.6625289 L109.612021,36.7511631 L109.789935,36.8654551 L109.968075,36.9922566 L110.120519,37.1317782 L110.260492,37.2967473 L110.374994,37.4744363 L110.476573,37.6519149 L110.565606,37.8423239 L110.616696,38.0579701 L110.667786,38.2736162 L110.693332,38.5019822 L110.706104,38.7428579 L110.693332,38.9839515 L110.667786,39.2250451 L110.616696,39.4406912 L110.552833,39.6436173 L110.476498,39.8465435 L110.374919,40.0242325 L110.260416,40.2019215 L110.120444,40.3541706 L109.968,40.5064121 L109.802632,40.6204937 L109.612021,40.7345754 L109.408486,40.8234199 L109.205101,40.8868319 L108.976322,40.9376968 L108.73462,40.9756389 L108.493143,40.9756389 L108.353396,40.9756389 L108.226196,40.9629414 L108.098997,40.950244 L107.972022,40.9249994 L107.85752,40.8995294 L107.73032,40.8615873 L107.616043,40.8234199 L107.488843,40.7727052 L107.298231,40.6711407 L107.120092,40.5570591 L106.942177,40.4427671 L106.789507,40.3159656 L106.64976,40.176444 L106.509788,40.0369224 L106.382588,39.8719534 L106.268311,39.7069843 L106.268311,39.0093689 L106.281084,38.7555554 L106.306629,38.5019522 L106.344947,38.2608586 L106.40881,38.0324925 L106.485144,37.8168464 L106.574177,37.6139203 L106.675756,37.4362313 L106.802956,37.2587526 L106.879291,37.1699081 L106.955626,37.0810636 L107.044433,37.0049391 L107.133465,36.9288145 L107.222498,36.8654025 L107.324303,36.8019904 L107.413109,36.7385783 L107.527612,36.6877134 L107.629417,36.6497714 L107.743694,36.6116039 L107.858196,36.5736619 L107.972698,36.5481919 L108.226948,36.5102498 L108.493895,36.4975524 L108.493143,36.4976125 Z M108.518688,35.9901957 L108.340774,36.0028932 L108.175407,36.0154403 L108.01019,36.0281378 L107.85752,36.0663052 L107.692153,36.1042473 L107.539708,36.1424147 L107.399736,36.2058268 L107.259989,36.2565414 L107.120016,36.332666 L106.98027,36.4087905 L106.85307,36.497635 L106.72587,36.5991995 L106.611593,36.7005536 L106.497091,36.8148456 L106.382588,36.9289272 L106.268311,37.0557288 L106.268311,35.9268205 L105.696025,35.9268205 L105.696025,43.8427501 L105.72157,43.8554475 L105.734343,43.893615 L106.268462,43.893615 L106.268462,40.5189758 L106.382739,40.6459878 L106.509938,40.7727894 L106.649911,40.886871 L106.789658,40.9884355 L106.942327,41.07728 L107.107544,41.1661245 L107.272912,41.2547587 L107.463524,41.3183961 L107.705075,41.4070303 L107.95955,41.4578952 L108.226497,41.4958372 L108.493444,41.4958372 L108.646114,41.4958372 L108.798558,41.4958372 L108.951228,41.4703672 L109.090975,41.45782 L109.230947,41.43235 L109.370919,41.3941826 L109.510666,41.3562405 L109.637866,41.3055259 L109.764916,41.254661 L109.879418,41.2039464 L110.006618,41.1405343 L110.120895,41.0771222 L110.2227,41.0009977 L110.337202,40.9121532 L110.438782,40.8360286 L110.527814,40.7344642 L110.629619,40.64583 L110.705954,40.5442655 L110.794836,40.4301839 L110.871171,40.3286194 L110.935034,40.2143274 L110.998897,40.1002458 L111.062759,39.9861642 L111.113098,39.8591522 L111.189433,39.6055491 L111.253296,39.3265059 L111.291614,39.0472449 L111.304386,38.7554742 L111.291614,38.4509836 L111.253296,38.159213 L111.202206,37.8928898 L111.113173,37.6390763 L111.011594,37.3982006 L110.884394,37.1698345 L110.731724,36.9669083 L110.55381,36.7637718 L110.464778,36.6751377 L110.363198,36.5862932 L110.261393,36.5101687 L110.146891,36.4340441 L110.032614,36.3579196 L109.918111,36.2945075 L109.790912,36.2436426 L109.663862,36.192928 L109.409387,36.1040835 L109.129668,36.0406714 L108.824554,36.0027294 L108.51944,35.9900319 L108.518688,35.9901957 Z M118.652147,38.5527164 L117.545929,38.2609458 L117.29168,38.1848212 L117.075598,38.0959767 L116.973793,38.0452621 L116.897458,37.9945475 L116.808576,37.9436826 L116.744713,37.8929679 L116.680851,37.8422533 L116.616988,37.7788413 L116.57867,37.7279764 L116.540352,37.6645643 L116.514807,37.5884398 L116.489262,37.5250277 L116.476489,37.4616156 L116.476489,37.3854911 L116.476489,37.2966466 L116.489262,37.2078021 L116.502035,37.1189576 L116.540352,37.0430509 L116.565897,36.9794134 L116.616988,36.9160014 L116.668078,36.8652868 L116.731941,36.8018747 L116.795804,36.7637072 L116.871913,36.7257652 L116.948248,36.6875977 L117.050053,36.6623531 L117.139085,36.6368831 L117.253362,36.6241857 L117.367865,36.6114882 L117.495065,36.6114882 L118.47406,36.6114882 L118.651974,36.6241857 L118.817341,36.6368831 L118.957088,36.6623531 L119.109758,36.7002952 L119.236808,36.7510098 L119.35131,36.8146473 L119.453115,36.8780593 L119.554694,36.9669038 L119.58024,36.9921485 L120.088964,36.7003778 L120.050646,36.6496632 L119.923446,36.5228616 L119.771002,36.4085696 L119.605635,36.3197251 L119.42772,36.231091 L119.224185,36.1802261 L119.008104,36.1295114 L118.766552,36.1040414 L118.512302,36.091344 L117.673039,36.091344 L117.456957,36.1040414 L117.253423,36.1167389 L117.075508,36.1422089 L116.897368,36.1801509 L116.732151,36.2183184 L116.592179,36.269033 L116.465205,36.3451575 L116.350702,36.4085696 L116.2362,36.4974141 L116.147393,36.5862586 L116.071058,36.7003402 L116.007195,36.8019047 L115.956105,36.9287063 L115.93056,37.0682279 L115.905015,37.2077495 L115.905015,37.3599985 L115.905015,37.4868001 L115.917787,37.6010921 L115.943332,37.7151737 L115.98165,37.8294657 L116.03274,37.9308198 L116.096603,38.0323843 L116.172713,38.1212288 L116.249048,38.2100734 L116.33808,38.2987075 L116.452582,38.374832 L116.566859,38.4509566 L116.694059,38.514594 L116.821259,38.5780061 L116.973703,38.6414182 L117.126373,38.6921328 L117.304287,38.7428474 L118.359617,39.009381 L118.639262,39.0982255 L118.880738,39.1995796 L118.995241,39.2629917 L119.097046,39.3138566 L119.186078,39.3772686 L119.262188,39.4406807 L119.338522,39.5040928 L119.402385,39.5802173 L119.453476,39.6436294 L119.491793,39.7197539 L119.530111,39.7958784 L119.555656,39.8847229 L119.568429,39.9735674 L119.568429,40.049692 L119.568429,40.1637736 L119.555656,40.2526181 L119.530111,40.3414626 L119.491793,40.4175871 L119.453476,40.4937117 L119.402385,40.5698362 L119.338522,40.6332483 L119.262188,40.6839629 L119.173305,40.7346775 L119.084273,40.772845 L118.982468,40.810787 L118.867966,40.8362571 L118.740991,40.8617271 L118.601019,40.8744245 L118.461272,40.8869717 L118.308602,40.8869717 L117.405942,40.8869717 L117.240575,40.8869717 L117.08813,40.8617271 L116.948158,40.8362571 L116.821108,40.798315 L116.693909,40.7346775 L116.579406,40.6712655 L116.465129,40.5951409 L116.376097,40.5190164 L116.337779,40.4937718 L115.82913,40.7728149 L115.880221,40.8235296 L115.931311,40.8869416 L116.007646,40.9630662 L116.071509,41.0139311 L116.147844,41.0773431 L116.223953,41.1280577 L116.312985,41.1787724 L116.402018,41.2169398 L116.503597,41.2548819 L116.694435,41.3310064 L116.923214,41.3691739 L117.152219,41.3944185 L117.406468,41.4071159 L117.965832,41.4071159 L118.220081,41.4071159 L118.474556,41.3818713 L118.703335,41.3564013 L118.919417,41.3184592 L119.110254,41.2675943 L119.288168,41.2168797 L119.453536,41.1407552 L119.593283,41.0646307 L119.720482,40.9757861 L119.834985,40.8617045 L119.936564,40.7474125 L120.012899,40.6333309 L120.06399,40.4938094 L120.11508,40.3542878 L120.140625,40.1893187 L120.153398,40.0243497 L120.140625,39.8975481 L120.127852,39.7707465 L120.089535,39.6437345 L120.051217,39.5296529 L120.000127,39.4153609 L119.936264,39.3140068 L119.860154,39.2124423 L119.771122,39.1235978 L119.669317,39.0347533 L119.554815,38.9461192 L119.42784,38.8699946 L119.300641,38.7938701 L119.148196,38.730458 L118.995526,38.6543335 L118.830309,38.6034686 L118.652169,38.552754 L118.652147,38.5527164 Z M124.437273,40.9757133 L124.183024,40.9757133 L123.941547,40.9377712 L123.72524,40.8869063 L123.509158,40.8234942 L123.305623,40.7346497 L123.127709,40.6205681 L123.038677,40.5571561 L122.962342,40.493744 L122.87346,40.4176195 L122.797125,40.3414949 L122.669925,40.1892534 L122.542951,40.0115643 L122.441146,39.8340857 L122.364811,39.6309492 L122.300948,39.4280231 L122.250609,39.212377 L122.225064,38.9840109 L122.212291,38.7429173 L122.225064,38.5020416 L122.250609,38.2736755 L122.300948,38.0580294 L122.364811,37.8551033 L122.441146,37.6519668 L122.542951,37.4744881 L122.669925,37.2967991 L122.797125,37.1318301 L122.962342,36.9923085 L123.140482,36.8655069 L123.318396,36.7512149 L123.521931,36.6625808 L123.725315,36.5991687 L123.954094,36.5483038 L124.183099,36.5103618 L124.437348,36.4976643 L124.678825,36.5103618 L124.90783,36.5483038 L125.136609,36.5991687 L125.339994,36.6625808 L125.543528,36.7512149 L125.721443,36.8655069 L125.88681,36.9923085 L126.052027,37.1318301 L126.179227,37.2967991 L126.306427,37.4744881 L126.408006,37.6519668 L126.497039,37.8551033 L126.560901,38.0580294 L126.599219,38.2736755 L126.637537,38.5020416 L126.637537,38.7429173 L126.637537,38.9840109 L126.599219,39.199657 L126.560901,39.4153031 L126.497039,39.6184396 L126.408006,39.8213657 L126.306427,39.9988444 L126.179227,40.1765334 L126.052027,40.3415024 L125.88681,40.4937515 L125.721443,40.6205531 L125.530831,40.7346347 L125.339994,40.8234792 L125.136609,40.8868913 L124.90783,40.9377562 L124.678825,40.9756982 L124.437348,40.9756982 L124.437273,40.9757133 Z M124.437273,35.9901957 L124.132159,36.0028932 L123.839742,36.0408352 L123.69977,36.0663052 L123.57272,36.1042473 L123.432748,36.1424147 L123.305548,36.1931294 L123.178499,36.243844 L123.063996,36.3074815 L122.936797,36.3708935 L122.82252,36.4343056 L122.708017,36.5104301 L122.606212,36.5992746 L122.504633,36.6879088 L122.402828,36.7767533 L122.301023,36.8783178 L122.212141,36.9796719 L122.135806,37.0812364 L122.059471,37.195318 L121.983136,37.2968825 L121.919273,37.4236841 L121.868934,37.5379761 L121.817844,37.6647777 L121.766754,37.7915793 L121.728436,37.9185912 L121.690118,38.0453928 L121.664573,38.1849144 L121.651801,38.324436 L121.626256,38.4639575 L121.626256,38.6034791 L121.613483,38.7557207 L121.626256,38.8952422 L121.626256,39.0474838 L121.651801,39.1870054 L121.664573,39.3267448 L121.690118,39.4662664 L121.728436,39.593068 L121.766754,39.7198696 L121.817844,39.8466712 L121.868934,39.9736831 L121.919273,40.0877648 L121.983136,40.2020567 L122.059471,40.3161384 L122.135806,40.4177029 L122.212141,40.5317845 L122.301023,40.633349 L122.402828,40.7221935 L122.504633,40.8235476 L122.606212,40.9123921 L122.708017,40.9885166 L122.82252,41.0646412 L122.936797,41.1407657 L123.063996,41.2041778 L123.178499,41.2548924 L123.305548,41.3057573 L123.432748,41.3564719 L123.57272,41.394414 L123.69977,41.419884 L123.839742,41.4580514 L123.979489,41.4705986 L124.132159,41.483296 L124.284829,41.4959935 L124.437273,41.4959935 L124.589943,41.4959935 L124.742388,41.483296 L124.88236,41.4705986 L125.022107,41.4580514 L125.162079,41.419884 L125.302052,41.394414 L125.441799,41.3564719 L125.568998,41.3057573 L125.696048,41.2548924 L125.81055,41.2041778 L125.925053,41.1407657 L126.03933,41.0646412 L126.153832,40.9885166 L126.255637,40.9123921 L126.357216,40.8235476 L126.459021,40.7221935 L126.548054,40.633349 L126.637086,40.5317845 L126.725893,40.4304303 L126.802228,40.3161384 L126.866091,40.2020567 L126.929954,40.0877648 L126.993816,39.9736831 L127.044155,39.8466712 L127.095246,39.7198696 L127.133563,39.593068 L127.159109,39.4662664 L127.197426,39.3267448 L127.235744,39.0474838 L127.248517,38.7557132 L127.235744,38.4639425 L127.197426,38.1848919 L127.133563,37.9185687 L127.044531,37.6647551 L126.930254,37.4236616 L126.803054,37.1952955 L126.65061,36.9796494 L126.47247,36.7767232 L126.370665,36.6878787 L126.269086,36.5992446 L126.154583,36.5104001 L126.052778,36.4342755 L125.938501,36.3708635 L125.811302,36.3074514 L125.696799,36.2438139 L125.56975,36.1930993 L125.44255,36.1423847 L125.302803,36.1042172 L125.175603,36.0662752 L125.035631,36.0408052 L124.743214,36.0028631 L124.4381,35.9901657 L124.437273,35.9901957 Z M128.709271,41.4070055 L129.281557,41.4070055 L129.281557,33.5799211 L128.709271,33.5799211 L128.709271,41.4070055 Z M134.723402,39.2378222 L134.723402,39.4280208 L134.697857,39.6057098 L134.659539,39.7706789 L134.621221,39.9354376 L134.557358,40.0876866 L134.481023,40.2272082 L134.379444,40.3667298 L134.277639,40.4937417 L134.163137,40.6078233 L134.02339,40.7093878 L133.883417,40.7982324 L133.730973,40.8743569 L133.565606,40.9250715 L133.400464,40.9630136 L133.222324,40.9884836 L133.031712,41.001181 L132.828177,40.9884836 L132.650263,40.9757861 L132.472123,40.9250715 L132.306906,40.8743569 L132.154236,40.8107194 L132.014489,40.7220853 L131.874517,40.6205208 L131.760015,40.4937192 L131.645738,40.3794272 L131.556705,40.2399056 L131.48037,40.1003841 L131.416508,39.935415 L131.37819,39.783166 L131.339872,39.6056873 L131.314327,39.4279983 L131.314327,39.2377996 L131.314327,36.0915288 L130.754738,36.0915288 L130.754738,39.0982766 L130.754738,39.3518797 L130.793056,39.6056933 L130.831373,39.8465765 L130.895236,40.062433 L130.971571,40.2653591 L131.073151,40.4682852 L131.174956,40.6459743 L131.314928,40.8107329 L131.391263,40.8995775 L131.467372,40.975702 L131.556405,41.0518265 L131.645437,41.1152386 L131.73447,41.1786507 L131.836049,41.2295155 L131.937854,41.2802302 L132.052356,41.3309448 L132.153936,41.3691123 L132.268438,41.4070543 L132.382941,41.4325243 L132.509915,41.4579943 L132.764164,41.4832389 L133.031336,41.4959364 L133.285586,41.4832389 L133.539835,41.4579943 L133.654337,41.4325243 L133.781537,41.4070543 L133.883117,41.3691123 L133.997619,41.3309448 L134.099424,41.2802302 L134.201004,41.2295155 L134.302808,41.1661035 L134.391841,41.1152386 L134.480648,41.0391141 L134.56968,40.9629895 L134.646015,40.886865 L134.72235,40.7982309 L134.862097,40.6332618 L134.976599,40.4555728 L135.065632,40.2653741 L135.154514,40.049728 L135.205604,39.8340819 L135.256694,39.5929884 L135.282239,39.3518948 L135.295012,39.0982916 L135.295012,36.0915438 L134.722951,36.0915438 L134.722951,39.2378147 L134.723402,39.2378222 Z M137.342538,34.6199842 L136.770477,34.6199842 L136.770477,40.3414972 L136.770477,40.4682988 L136.78325,40.5951004 L136.808795,40.7093923 L136.83434,40.8107465 L136.872658,40.899591 L136.923748,40.9884355 L136.974838,41.07728 L137.038701,41.1406921 L137.115036,41.2041041 L137.191145,41.2548188 L137.280178,41.3056837 L137.381983,41.3436257 L137.483788,41.3690957 L137.610837,41.3943403 L137.72534,41.4070378 L137.865087,41.4070378 L138.144956,41.4070378 L138.144956,40.8869011 L137.776204,40.8869011 L137.6744,40.8743539 L137.585367,40.8488839 L137.509258,40.8107164 L137.445395,40.7473043 L137.394305,40.6584598 L137.368759,40.5571057 L137.343214,40.4428137 L137.343214,40.3032922 L137.343214,36.611652 L138.830896,36.611652 L138.830896,36.0915153 L137.343214,36.0915153 L137.343214,34.6199481 L137.342538,34.6199842 Z M140.457641,34.3157039 L140.381306,34.3157039 L140.304971,34.3282511 L140.228636,34.3664186 L140.178297,34.4043606 L140.139979,34.4552255 L140.101662,34.5186376 L140.088889,34.5820496 L140.076117,34.6708942 L140.088889,34.7597387 L140.101662,34.8356528 L140.139979,34.8992903 L140.178297,34.9500049 L140.228636,35.0007195 L140.304971,35.0261896 L140.381306,35.038887 L140.457641,35.0515844 L140.559446,35.038887 L140.635555,35.0261896 L140.699418,35.0007195 L140.763281,34.9500049 L140.801599,34.8992903 L140.839916,34.8356528 L140.852689,34.7597387 L140.865461,34.6708942 L140.852689,34.6074821 L140.839916,34.5438446 L140.827144,34.4804326 L140.788826,34.4297179 L140.737736,34.3790033 L140.661401,34.3408359 L140.572369,34.3155912 L140.458092,34.3155912 L140.457641,34.3157039 Z M140.190694,41.4070047 L140.750058,41.4070047 L140.750058,36.0915506 L140.190694,36.0915506 L140.190694,41.4070047 Z M145.149285,40.9757125 L144.895035,40.9757125 L144.653333,40.9377705 L144.437251,40.899603 L144.221169,40.8234785 L144.119365,40.7855364 L144.030332,40.7346715 L143.941525,40.6839569 L143.852493,40.6205448 L143.763461,40.5698302 L143.674428,40.4937057 L143.598319,40.4175811 L143.521984,40.3414566 L143.382011,40.1892151 L143.267734,40.011526 L143.16593,39.8340474 L143.076897,39.6309109 L143.013034,39.4279847 L142.974717,39.2123386 L142.949171,38.9839726 L142.936399,38.742879 L142.949171,38.5020033 L142.974717,38.2736372 L143.013034,38.0579911 L143.076897,37.855065 L143.16593,37.6519285 L143.267734,37.4744498 L143.382011,37.2967608 L143.521984,37.1317917 L143.687201,36.9922702 L143.852568,36.8654686 L144.030482,36.7511766 L144.234017,36.6625424 L144.437402,36.5991304 L144.666181,36.5482655 L144.895186,36.5103234 L145.149435,36.497626 L145.390912,36.5103234 L145.632614,36.5482655 L145.848696,36.5991304 L146.064778,36.6625424 L146.255615,36.7511766 L146.446227,36.8654686 L146.611594,36.9922702 L146.764038,37.1317917 L146.904011,37.2967608 L147.018288,37.4744498 L147.120093,37.6519285 L147.209125,37.855065 L147.272988,38.0579911 L147.324078,38.2736372 L147.349623,38.5020033 L147.362396,38.742879 L147.349623,38.9839726 L147.324078,39.1996187 L147.272988,39.4152648 L147.209125,39.6309109 L147.120093,39.8213199 L147.018288,40.0115185 L146.904011,40.1764876 L146.764038,40.3414566 L146.611594,40.4937057 L146.433454,40.6205073 L146.25554,40.7345889 L146.052005,40.8234334 L145.848621,40.8868455 L145.619841,40.9377103 L145.390837,40.9756524 L145.14936,40.9756524 L145.149285,40.9757125 Z M145.149285,35.990195 L144.84417,36.0028924 L144.551754,36.0408345 L144.411781,36.0663045 L144.284807,36.1042465 L144.144835,36.142414 L144.017635,36.1931286 L143.890585,36.2438432 L143.776083,36.3074807 L143.648883,36.3708928 L143.534606,36.4343048 L143.420104,36.5104294 L143.318299,36.5992739 L143.216719,36.687908 L143.114914,36.7767525 L143.025882,36.878317 L142.93685,36.9796712 L142.847968,37.0812356 L142.784105,37.1953173 L142.70777,37.3096092 L142.643907,37.4236909 L142.580795,37.5379828 L142.529705,37.6647844 L142.491387,37.791586 L142.45307,37.918598 L142.414752,38.0453996 L142.389207,38.1849212 L142.363662,38.3244427 L142.350889,38.4639643 L142.338117,38.6034859 L142.338117,38.7557274 L142.338117,38.895249 L142.350889,39.0474906 L142.363662,39.1870121 L142.389207,39.3267516 L142.414752,39.4662732 L142.45307,39.5930748 L142.491387,39.7198764 L142.529705,39.8466779 L142.580795,39.9736899 L142.643907,40.0877715 L142.70777,40.2020635 L142.784105,40.3161451 L142.847968,40.4177096 L142.93685,40.5317912 L143.025882,40.6333557 L143.114914,40.7222002 L143.216719,40.8235544 L143.318299,40.9123989 L143.432801,40.9885234 L143.534606,41.0646479 L143.648883,41.1407725 L143.776083,41.2041845 L143.890585,41.2548992 L144.017635,41.3057641 L144.144835,41.3564787 L144.284807,41.3944207 L144.411781,41.4198907 L144.551754,41.4580582 L144.704198,41.4706054 L144.84417,41.4833028 L144.996615,41.4960003 L145.149285,41.4960003 L145.301955,41.4960003 L145.454399,41.4833028 L145.607069,41.4706054 L145.746816,41.4580582 L145.886788,41.4198907 L146.026535,41.3944207 L146.153735,41.3564787 L146.293707,41.3057641 L146.407984,41.2548992 L146.535184,41.2041845 L146.649686,41.1407725 L146.763963,41.0646479 L146.878466,40.9885234 L146.980271,40.9123989 L147.08185,40.8235544 L147.183655,40.7222002 L147.272687,40.6333557 L147.361494,40.5317912 L147.437829,40.4304371 L147.514164,40.3161451 L147.590499,40.2020635 L147.654362,40.0877715 L147.704701,39.9736899 L147.755791,39.8466779 L147.844823,39.5930748 L147.908686,39.3267516 L147.947004,39.0474906 L147.959777,38.7557199 L147.947004,38.4639493 L147.908686,38.1848986 L147.844823,37.9185755 L147.768489,37.6647619 L147.654212,37.4236683 L147.527012,37.1953022 L147.374342,36.9796561 L147.196428,36.77673 L147.094623,36.6878855 L146.993043,36.5992513 L146.878541,36.5104068 L146.776736,36.4342823 L146.662459,36.3708702 L146.535259,36.3074582 L146.420757,36.2438207 L146.293707,36.1931061 L146.153735,36.1423914 L146.026535,36.104224 L145.886788,36.0662819 L145.746816,36.0408119 L145.454399,36.0028699 L145.149285,35.9901724 L145.149285,35.990195 Z M151.710059,35.990195 L151.442887,36.0028924 L151.188638,36.0408345 L150.959859,36.0915491 L150.731079,36.1803936 L150.629274,36.2312585 L150.527469,36.2819731 L150.425665,36.3453852 L150.336782,36.4087973 L150.24775,36.4722093 L150.158718,36.5483339 L150.082383,36.6371784 L149.993501,36.7133029 L149.993501,36.0790846 L149.433912,36.0790846 L149.433912,41.407049 L149.993501,41.407049 L149.993501,38.1469122 L150.006273,37.9692232 L150.031818,37.7915342 L150.070136,37.6267755 L150.108454,37.474534 L150.184789,37.3350124 L150.261124,37.1952729 L150.350156,37.0684713 L150.464433,36.9416697 L150.578935,36.8401053 L150.706135,36.7512607 L150.845882,36.6753466 L150.998552,36.6117091 L151.163694,36.5609945 L151.341834,36.5355245 L151.519748,36.5102799 L151.710585,36.4975824 L151.901197,36.5102799 L152.079337,36.5355245 L152.257251,36.5736919 L152.422619,36.6244066 L152.575063,36.7005311 L152.715035,36.7893756 L152.854782,36.8909401 L152.981982,37.0177417 L153.083787,37.1445433 L153.172594,37.2713449 L153.236457,37.4235939 L153.30032,37.575843 L153.35141,37.7280921 L153.389728,37.9057811 L153.415273,38.0832597 L153.415273,38.2736688 L153.415273,41.4070047 L153.974637,41.4070047 L153.974637,38.4131926 L153.974637,38.1468694 L153.949091,37.9057758 L153.898001,37.6646823 L153.834138,37.4490361 L153.758029,37.24611 L153.656224,37.0431839 L153.541721,36.8654949 L153.414672,36.7005258 L153.32564,36.6116813 L153.249305,36.5355568 L153.160272,36.4594322 L153.071465,36.3960202 L152.982433,36.3326081 L152.880628,36.269196 L152.778823,36.2184814 L152.677244,36.1676165 L152.460936,36.091492 L152.219385,36.0407774 L151.977908,36.0028353 L151.710961,35.9901379 L151.710059,35.990195 Z M158.245169,38.5527157 L157.139162,38.260945 L156.884687,38.1848205 L156.668605,38.095976 L156.5668,38.0452613 L156.490691,37.9945467 L156.401658,37.9436818 L156.337795,37.8929672 L156.273933,37.8422526 L156.21007,37.7788405 L156.171752,37.7279756 L156.133434,37.6645635 L156.095116,37.588439 L156.082344,37.5250269 L156.069571,37.4616149 L156.056799,37.3854903 L156.069571,37.2966458 L156.082344,37.2078013 L156.095116,37.1189568 L156.120662,37.0430502 L156.158979,36.9794127 L156.209318,36.9160006 L156.260409,36.865286 L156.311499,36.8018739 L156.387834,36.7637065 L156.464169,36.7257644 L156.540278,36.687597 L156.642083,36.6623524 L156.731115,36.6368823 L156.845392,36.6241849 L156.959895,36.6114875 L157.087095,36.6114875 L158.05337,36.6114875 L158.231284,36.6241849 L158.396651,36.6368823 L158.549096,36.6623524 L158.689068,36.7002944 L158.816268,36.751009 L158.943242,36.8146465 L159.045047,36.8780586 L159.146852,36.9669031 L159.172397,36.9921477 L159.680896,36.7003771 L159.642578,36.6496624 L159.515529,36.5228608 L159.362859,36.4085689 L159.197642,36.3197243 L159.019502,36.2310902 L158.816193,36.1802253 L158.587188,36.1295107 L158.358409,36.1040407 L158.10416,36.0913432 L157.264896,36.0913432 L157.048814,36.1040407 L156.84528,36.1167381 L156.654668,36.1422081 L156.489451,36.1801502 L156.324084,36.2183176 L156.184111,36.2690323 L156.044364,36.3451568 L155.929862,36.4085689 L155.828057,36.4974134 L155.739175,36.5862579 L155.66284,36.7003395 L155.598977,36.801904 L155.547887,36.9287056 L155.509569,37.0682272 L155.496797,37.2077487 L155.484024,37.3599978 L155.484024,37.4867994 L155.509569,37.6010914 L155.535114,37.715173 L155.573432,37.829465 L155.624522,37.9308191 L155.675613,38.0323836 L155.751948,38.1212281 L155.84083,38.2100726 L155.929862,38.2987068 L156.031667,38.3748313 L156.146169,38.4509558 L156.273219,38.5145933 L156.413191,38.5780053 L156.552938,38.6414174 L156.718305,38.692132 L156.883522,38.7428467 L157.938852,39.0093802 L158.231269,39.0982247 L158.472971,39.1995788 L158.587248,39.2629909 L158.689053,39.3138558 L158.778086,39.3772679 L158.85442,39.4406799 L158.93053,39.504092 L158.994393,39.5802165 L159.045483,39.6436286 L159.083801,39.7197531 L159.122119,39.7958777 L159.147664,39.8847222 L159.160436,39.9735667 L159.173209,40.0496912 L159.160436,40.1637728 L159.147664,40.2526174 L159.122119,40.3414619 L159.083801,40.4175864 L159.045483,40.4937109 L158.98162,40.5698355 L158.917757,40.6332475 L158.854646,40.6839622 L158.765613,40.7346768 L158.676581,40.7728442 L158.562079,40.8107863 L158.447802,40.8362563 L158.333299,40.8617263 L158.193327,40.8744238 L158.05358,40.8869709 L157.90091,40.8869709 L156.99825,40.8869709 L156.833108,40.8869709 L156.680438,40.8617263 L156.540466,40.8362563 L156.400719,40.7983142 L156.273519,40.7346768 L156.159242,40.6712647 L156.057437,40.5951402 L155.955632,40.5190157 L155.930087,40.493771 L155.421589,40.7728142 L155.459906,40.8235288 L155.523018,40.8869409 L155.586881,40.9630654 L155.663216,41.0139303 L155.739551,41.0773424 L155.815886,41.128057 L155.904768,41.1787716 L155.9938,41.2169391 L156.095605,41.2548811 L156.286217,41.3310057 L156.514996,41.3691731 L156.744001,41.3944177 L156.99825,41.4071152 L157.557614,41.4071152 L157.824786,41.4071152 L158.066263,41.3818706 L158.295042,41.3564005 L158.498577,41.3184585 L158.701961,41.2675936 L158.879875,41.216879 L159.045243,41.1407544 L159.185215,41.0646299 L159.312265,40.9757854 L159.426767,40.8617038 L159.515799,40.7474118 L159.591909,40.6333302 L159.655772,40.4938086 L159.694089,40.354287 L159.719635,40.189318 L159.732407,40.0243489 L159.732407,39.8975473 L159.706862,39.7707458 L159.681317,39.6437338 L159.642999,39.5296522 L159.579136,39.4153602 L159.516025,39.3140061 L159.43969,39.2124416 L159.350657,39.1235971 L159.261625,39.0347525 L159.147348,38.9461184 L159.020148,38.8699939 L158.892949,38.7938693 L158.740504,38.7304573 L158.587834,38.6543327 L158.422617,38.6034678 L158.244478,38.5527532 L158.245169,38.5527157 Z M34.6218565,29.4822206 L37.9275816,29.4822206 L37.9275816,4.94756684 L34.6218565,4.94756684 L34.6218565,29.4822206 Z M48.9639124,12.0009759 L48.6967402,12.0009759 L48.4170584,12.0136733 L48.1628241,12.0390682 L47.8958623,12.0644631 L47.641628,12.1025554 L47.3999033,12.1532701 L47.158389,12.2039847 L46.9168747,12.2673967 L46.67515,12.3308088 L46.4463556,12.4069333 L46.2175613,12.4957403 L46.0012766,12.5845472 L45.7852097,12.6860291 L45.5818628,12.8001933 L45.3655781,12.9143801 L45.1749512,13.0412418 L45.1749512,12.2546956 L41.9453491,12.2546956 L41.9453491,29.4822837 L45.1749512,29.4822837 L45.1749512,19.1178609 L45.1749512,18.8894948 L45.1876487,18.6611287 L45.2003461,18.4454826 L45.2385136,18.2298365 L45.2639836,18.0269104 L45.3146982,17.8365014 L45.3655631,17.6463028 L45.416428,17.4558862 L45.4927629,17.2784076 L45.5690978,17.1007561 L45.6452223,16.9358322 L45.7470047,16.7709082 L45.8360596,16.6186817 L45.9505619,16.4664551 L46.0648539,16.326911 L46.1920763,16.1873669 L46.3190882,16.0605052 L46.4590381,15.9463184 L46.5989879,15.8321542 L46.7387198,15.7306723 L46.8913896,15.6291679 L47.0565691,15.540361 L47.2219588,15.464259 L47.3871383,15.4008469 L47.5652555,15.3374349 L47.7431549,15.2867202 L47.9212722,15.2360056 L48.1246191,15.1979133 L48.3281763,15.1725184 L48.5315232,15.1471235 L48.7475976,15.1344261 L48.9638823,15.1344261 L49.1799567,15.1344261 L49.3960235,15.1471235 L49.5995808,15.1725184 L49.7902077,15.2106107 L49.9810449,15.248703 L50.1716718,15.2994177 L50.3497891,15.3628297 L50.5276885,15.4389317 L50.6930783,15.5150563 L50.8582577,15.6038632 L51.0236475,15.7053451 L51.1761069,15.8068269 L51.3160567,15.9336886 L51.4685162,16.0605503 L51.5957385,16.2000944 L51.735478,16.3396385 L51.8627003,16.491865 L51.9772027,16.656789 L52.0914947,16.821713 L52.193277,16.9866144 L52.2823319,17.1642208 L52.3713868,17.3418497 L52.4475113,17.5320483 L52.5111488,17.7224649 L52.5747863,17.925391 L52.6256512,18.1283171 L52.6638186,18.3312432 L52.7019861,18.5470997 L52.7274561,18.7752554 L52.7527007,19.0036215 L52.7653981,19.2319876 L52.7653981,19.4730812 L52.7653981,29.4822837 L55.9568335,29.4822837 L55.9568335,19.8789282 L55.9441361,19.4603559 L55.9314387,19.0545112 L55.8932712,18.6611761 L55.8424063,18.2678409 L55.7789942,17.8872258 L55.7153568,17.5193306 L55.6263019,17.1515481 L55.5245195,16.8090178 L55.4102275,16.46651 L55.2830052,16.1366771 L55.1430554,15.8195266 L54.9905959,15.5023761 L54.8124786,15.2105829 L54.6345792,14.9188123 L54.4439524,14.6397241 L54.2403951,14.3733182 L53.9988808,14.0815251 L53.7446465,13.8151343 L53.4774743,13.5740858 L53.1977925,13.3330598 L52.9053908,13.1300961 L52.6129815,12.9271099 L52.2951323,12.7622085 L51.9772831,12.5972845 L51.6339864,12.4577404 L51.2906897,12.3435536 L50.921953,12.2420717 L50.5532163,12.1532648 L50.1717522,12.0898527 L49.7775681,12.0391381 L49.3833839,12.0137432 L48.9639627,12.0009759 L48.9639124,12.0009759 Z M63.1914666,7.96678213 L59.9745868,7.96678213 L59.9745868,25.5497002 L59.9745868,25.777856 L59.9872842,26.006222 L59.9999816,26.2218681 L60.0381491,26.4375143 L60.0636191,26.6406508 L60.114484,26.8435769 L60.1653489,27.0337755 L60.228761,27.2241845 L60.2923984,27.4016632 L60.3560359,27.5666322 L60.4450908,27.7316013 L60.5341457,27.8965703 L60.6229902,28.0488194 L60.7247725,28.1883409 L60.8392749,28.3278625 L60.9535669,28.4546641 L61.0807892,28.5814657 L61.2080116,28.6957577 L61.347751,28.7971118 L61.5004208,28.8986763 L61.6401528,28.9875208 L61.8055426,29.0763653 L61.970722,29.1524899 L62.1361118,29.2159019 L62.3140112,29.279314 L62.5048484,29.3300286 L62.6954753,29.3808935 L62.8863126,29.4188356 L63.0896595,29.4443056 L63.3057338,29.4695502 L63.5220185,29.4822476 L63.7380929,29.4822476 L65.3782332,29.4822476 L65.3782332,26.298022 L63.5093001,26.298022 L63.4711326,26.298022 L63.4202677,26.2854748 L63.3694028,26.2600048 L63.3185379,26.1965927 L63.2930679,26.1457278 L63.2675979,26.0823158 L63.2423533,26.0189037 L63.2296559,25.9300592 L63.2041859,25.7016931 L63.1914884,25.4099225 L63.1914884,15.4642056 L67.2092492,15.4642056 L67.2092492,12.2927022 L63.1914884,12.2927022 L63.1914884,7.96678213 L63.1914666,7.96678213 Z M72.9561796,19.1051259 L73.0072699,18.9149273 L73.0583601,18.7245183 L73.1214717,18.5343196 L73.1853345,18.3566306 L73.2491974,18.1791519 L73.3255323,18.0014629 L73.4018672,17.8364939 L73.4906742,17.6715248 L73.5924791,17.5067662 L73.6815114,17.3545246 L73.7830909,17.2022755 L73.8975933,17.0500114 L74.0120957,16.9104673 L74.1391452,16.7582183 L74.266345,16.6313566 L74.3935448,16.4918125 L74.5714592,16.326911 L74.749599,16.1746695 L74.9402109,16.022443 L75.1308228,15.8955813 L75.3343575,15.7687196 L75.5376668,15.6545553 L75.753974,15.5657559 L75.9700559,15.464274 L76.1861378,15.3881495 L76.4151425,15.3247374 L76.6566193,15.2613253 L76.898096,15.2233082 L77.1525707,15.1852158 L77.4068201,15.159821 L77.6610694,15.1344261 L77.9407136,15.1344261 L78.2076604,15.1344261 L78.4748325,15.159821 L78.7290819,15.1852158 L78.9705586,15.2233082 L79.2121105,15.2613253 L79.4538127,15.3247374 L79.682592,15.3881495 L79.8986739,15.464274 L80.1149811,15.5657559 L80.3183656,15.6545553 L80.5219003,15.7687196 L80.7252847,15.8955813 L80.9158966,16.022443 L81.1067338,16.1619871 L81.2846483,16.326911 L81.4627881,16.4918125 L81.7170374,16.7582183 L81.9458167,17.0500114 L82.0476216,17.2022755 L82.162124,17.3545246 L82.250931,17.5067662 L82.3527359,17.6715248 L82.5181031,18.0014629 L82.6578501,18.3566306 L82.7850499,18.7245258 L82.8868548,19.1051409 L72.9567431,19.1051409 L72.9561796,19.1051259 Z M77.9529377,12.0009759 L77.4826065,12.0136733 L77.0375199,12.0390682 L76.5924333,12.0897829 L76.1600442,12.1658848 L75.740653,12.2546843 L75.3337339,12.3688711 L74.9395122,12.4957328 L74.5453656,12.6479593 L74.1639165,12.8128833 L73.7951648,13.0031721 L73.4391105,13.2188407 L73.0958289,13.4471918 L72.7652446,13.6882177 L72.4346604,13.9546235 L72.1167736,14.2463942 L71.8243568,14.5508623 L71.5447126,14.8680128 L71.2777658,15.1978457 L71.036244,15.5403535 L70.8072393,15.8955662 L70.5911724,16.250779 L70.4003352,16.6313491 L70.2224358,17.0119417 L70.069766,17.4051942 L69.930034,17.7985293 L69.8155317,18.2171015 L69.7137493,18.6356737 L69.6249048,19.066966 L69.5612673,19.5109782 L69.5104024,19.9677178 L69.4849324,20.4244575 L69.472235,20.8939172 L69.4849324,21.3758865 L69.5104024,21.8453461 L69.5612673,22.3020858 L69.6249048,22.746098 L69.7137493,23.1901102 L69.8155317,23.6086824 L69.942754,24.0272547 L70.0824935,24.4333098 L70.2351633,24.8264345 L70.4130627,25.2070497 L70.6166199,25.5749449 L70.8326868,25.9428325 L71.0614811,26.2854906 L71.3159333,26.6279383 L71.5828801,26.957666 L71.8752968,27.2748766 L72.1804111,27.5666472 L72.4982979,27.8584179 L72.8288821,28.1122314 L73.1594663,28.3658346 L73.5155206,28.5814807 L73.8715748,28.7846172 L74.2530239,28.9748159 L74.6344731,29.1397849 L75.0286196,29.292034 L75.4355388,29.4188356 L75.85493,29.5204001 L76.2873191,29.6090342 L76.7196331,29.6726717 L77.1644943,29.7233863 L77.6222783,29.7613283 L78.0927598,29.7613283 L78.6648208,29.7613283 L79.2241844,29.7233863 L79.7583033,29.6726717 L80.2794994,29.6090342 L80.7754509,29.5204001 L81.2584795,29.4061081 L81.7290361,29.2665865 L82.1868202,29.1143374 L82.402902,29.0382129 L82.6189839,28.9493684 L82.8352912,28.8607343 L83.0386756,28.7591698 L83.2422103,28.6576053 L83.4328222,28.5435237 L83.6362066,28.4292317 L83.8143464,28.3151501 L84.0049583,28.1883485 L84.1830981,28.0613365 L84.3610125,27.9345349 L84.5391524,27.7950133 L84.7043694,27.6554918 L84.8570392,27.5032427 L85.022181,27.3509936 L85.1748508,27.1860246 L85.8232467,26.5011292 L83.4837998,24.2176546 L82.8099339,24.9407175 L82.6190966,25.1309161 L82.4157122,25.2958852 L82.1869329,25.4608542 L81.9324581,25.6256129 L81.6527388,25.7653448 L81.360322,25.9048664 L81.0425103,26.031668 L80.6992287,26.1584696 L80.3686444,26.2600341 L80.0380602,26.3488786 L79.707476,26.4122907 L79.3896643,26.4757027 L79.0590801,26.5264174 L78.7412684,26.5645848 L78.4106842,26.5772823 L78.0927974,26.5898294 L77.8131532,26.5772823 L77.520511,26.5645848 L77.2535642,26.5391148 L76.9866175,26.5011728 L76.7323681,26.4503079 L76.4781188,26.3868958 L76.2364166,26.3234837 L75.9949399,26.2346392 L75.7661606,26.1457947 L75.5498533,26.0444406 L75.3337714,25.917639 L75.1176895,25.790627 L74.9141548,25.6511055 L74.723543,25.4988564 L74.5327057,25.3466148 L74.3547913,25.1691362 L74.2148189,25.0168871 L74.075072,24.8773655 L73.9605696,24.7123965 L73.8333698,24.5601474 L73.7190928,24.3951784 L73.6172879,24.2302093 L73.515483,24.0527307 L73.4266761,23.8750417 L73.3376437,23.697563 L73.2486114,23.507154 L73.1722765,23.3169554 L73.1084136,23.1140292 L73.0453021,22.9236127 L72.9942118,22.7079666 L72.9431215,22.5050405 L72.8920312,22.2893944 L86.0515302,22.2893944 L86.2550649,21.5663315 L86.2933826,21.363195 L86.3317003,21.1348289 L86.3572454,20.8812258 L86.3572454,20.6274122 L86.3572454,20.1708904 L86.3189277,19.7141507 L86.28061,19.2828585 L86.2167471,18.8513559 L86.1277148,18.4327837 L86.0259099,18.0269389 L85.8988604,17.6208838 L85.758888,17.2275487 L85.6064436,16.8470613 L85.4283037,16.4791736 L85.2376919,16.1239609 L85.0213846,15.7687481 L84.7926053,15.4262403 L84.538356,15.0964074 L84.2714092,14.7792569 L83.9915396,14.4621064 L83.6864254,14.1703132 L83.3685386,13.891225 L83.0506518,13.6375166 L82.7073701,13.3964681 L82.3640884,13.1681171 L82.0080342,12.9651534 L81.6519799,12.787547 L81.2832283,12.622623 L80.8890817,12.4703965 L80.507858,12.3562322 L80.1009388,12.2420454 L79.6940197,12.1532385 L79.2617057,12.0898264 L78.8423145,12.0391118 L78.3972279,12.0137169 L77.9521413,12.0009759 L77.9529377,12.0009759 Z M90.3751737,29.4822206 L93.591841,29.4822206 L93.591841,4.94756684 L90.3751737,4.94756684 L90.3751737,29.4822206 Z M97.8892857,29.4822206 L101.106163,29.4822206 L101.106163,12.292745 L97.8892857,12.292745 L97.8892857,29.4822206 Z M99.4787422,7.06613619 L99.2752075,7.06613619 L99.0718982,7.09153107 L98.881061,7.14224569 L98.7031466,7.19296032 L98.5377793,7.26908485 L98.3853349,7.3578918 L98.2453625,7.45937365 L98.1183881,7.57356044 L98.0038858,7.71310456 L97.9020809,7.85264867 L97.8132739,8.0048752 L97.736939,8.18248158 L97.6858487,8.36008796 L97.647531,8.55037675 L97.6219858,8.75336298 L97.6092133,8.95632667 L97.6219858,9.17199532 L97.647531,9.37495901 L97.6858487,9.57794525 L97.736939,9.75555163 L97.8132739,9.93313546 L97.9020809,10.085377 L98.0038858,10.2376035 L98.1183881,10.3644652 L98.2453625,10.4786295 L98.3853349,10.5928163 L98.5377793,10.6816232 L98.7031466,10.7450353 L98.881061,10.8084474 L99.0718982,10.8464646 L99.2752075,10.8845569 L99.4787422,10.8845569 L99.6948241,10.8845569 L99.8981334,10.8464646 L100.088971,10.8084474 L100.266885,10.7450353 L100.445025,10.6816232 L100.597469,10.5928163 L100.750139,10.4786295 L100.877339,10.3644652 L100.991616,10.2376035 L101.093421,10.085377 L101.182453,9.93313546 L101.258563,9.75555163 L101.322426,9.57794525 L101.360743,9.37495901 L101.386288,9.17199532 L101.399061,8.95632667 L101.386288,8.75336298 L101.360743,8.55037675 L101.322426,8.36008796 L101.258563,8.18248158 L101.182453,8.0048752 L101.093421,7.85264867 L100.991616,7.71310456 L100.877339,7.57356044 L100.750139,7.45937365 L100.597469,7.3578918 L100.445025,7.26908485 L100.266885,7.19296032 L100.088971,7.14224569 L99.8981334,7.09153107 L99.6948241,7.06613619 L99.4787422,7.06613619 Z M117.44438,7.78922158 L117.889241,7.80191902 L118.32163,7.84001134 L118.754019,7.89072596 L119.173636,7.95413803 L119.58033,8.05561988 L119.974551,8.15710172 L120.368698,8.29666838 L120.750147,8.4488949 L121.118899,8.62650128 L121.474878,8.81679007 L121.830932,9.04514113 L122.186911,9.27349219 L122.517496,9.53989801 L122.84808,9.81898623 L123.165891,10.1234543 L123.483778,10.4406048 L124.094007,11.1129455 L126.662458,9.05781904 L125.950425,8.29667514 L125.72142,8.06832408 L125.505338,7.85265543 L125.276559,7.63698679 L125.047554,7.42131814 L124.806078,7.23102935 L124.577298,7.02806566 L124.335596,6.85045928 L124.094119,6.6728529 L123.852568,6.49524652 L123.598318,6.34301999 L123.356616,6.17809602 L123.102367,6.0258695 L122.83542,5.88632539 L122.581171,5.75946369 L122.326696,5.61991957 L122.059749,5.50573277 L121.792802,5.39156851 L121.513158,5.29008667 L121.245986,5.18858228 L120.966342,5.09978285 L120.686622,5.0109759 L120.406903,4.93487391 L120.127259,4.87146184 L119.834842,4.80804977 L119.5422,4.74463771 L119.249783,4.70654539 L118.957366,4.65583076 L118.66495,4.63043588 L118.359835,4.605041 L118.054721,4.57964612 L117.749607,4.56694868 L117.444493,4.56694868 L117.113908,4.56694868 L116.783324,4.57964612 L116.465513,4.605041 L116.134928,4.63043588 L115.816891,4.65583076 L115.511777,4.69384795 L115.206663,4.74463771 L114.901549,4.79535234 L114.596434,4.8587644 L114.304018,4.92217647 L113.998903,4.99827846 L113.719184,5.07440299 L113.426767,5.16320994 L113.146898,5.26469179 L112.867253,5.36617363 L112.587534,5.46765548 L112.320587,5.58184228 L112.053641,5.70870398 L111.786468,5.83556568 L111.532219,5.97510979 L111.27797,6.12733632 L111.02372,6.27956284 L110.782018,6.43181191 L110.540541,6.59671334 L110.299065,6.7616373 L110.057363,6.9519261 L109.828583,7.12953248 L109.599804,7.31982127 L109.383497,7.5228075 L109.154717,7.72577119 L108.951408,7.94143984 L108.735101,8.15708595 L108.531716,8.385437 L108.328407,8.61380309 L108.13757,8.85482905 L107.959655,9.08318011 L107.781516,9.32420607 L107.603601,9.56523203 L107.438234,9.81896294 L107.285789,10.0726939 L107.13312,10.3264022 L106.993373,10.5801331 L106.8534,10.8465164 L106.713428,11.1129222 L106.586454,11.379328 L106.471951,11.6584163 L106.357449,11.9375045 L106.243172,12.2166153 L106.141367,12.4957035 L106.052335,12.7874741 L105.963528,13.0792448 L105.887193,13.3710379 L105.810858,13.675506 L105.746995,13.9799516 L105.683132,14.2844196 L105.620021,14.5888877 L105.581703,14.9060382 L105.530613,15.2231887 L105.492295,15.5403167 L105.46675,15.8701721 L105.441205,16.200005 L105.428432,16.5298379 L105.415659,16.8596708 L105.415659,17.2022462 L105.415659,17.5446939 L105.428432,17.874632 L105.441205,18.2170797 L105.46675,18.5470178 L105.492295,18.864018 L105.530613,19.1939561 L105.56893,19.5109564 L105.620021,19.828167 L105.67036,20.1326576 L105.734222,20.4498682 L105.798085,20.7543588 L105.87442,21.0461294 L105.963453,21.3504097 L106.039562,21.6423907 L106.141367,21.9341613 L106.243172,22.213212 L106.344751,22.4922551 L106.459254,22.7713058 L106.573756,23.0503489 L106.70073,23.3168825 L106.82793,23.5832057 L106.967903,23.8497392 L107.10765,24.1033424 L107.260319,24.3571559 L107.412764,24.6107591 L107.578131,24.8645727 L107.743348,25.1056663 L107.921488,25.3465495 L108.1121,25.5749156 L108.302937,25.8032816 L108.493549,26.0316477 L108.696933,26.2600138 L108.900468,26.4756599 L109.11655,26.691306 L109.345555,26.9069521 L109.561637,27.0973611 L109.790416,27.3002873 L110.032118,27.4777659 L110.260897,27.6681824 L110.502374,27.8331515 L110.743851,27.9979102 L110.998326,28.1628792 L111.252575,28.3151283 L111.506824,28.4546498 L111.773771,28.5941714 L112.028246,28.733693 L112.307965,28.847985 L112.574912,28.9620666 L112.854556,29.0763586 L113.1342,29.1777127 L113.41407,29.2792772 L113.706487,29.3681217 L113.998903,29.4442462 L114.29132,29.5203708 L114.583737,29.5837828 L114.888851,29.6471949 L115.193965,29.6979095 L115.511777,29.7487744 L115.816891,29.7867165 L116.134928,29.8246585 L116.465513,29.8501285 L116.783324,29.862826 L117.113908,29.8755234 L117.444493,29.8755234 L117.813244,29.8755234 L118.169223,29.8500534 L118.53775,29.8245834 L118.893804,29.7866413 L119.237086,29.7486993 L119.580367,29.6850618 L119.923649,29.6216497 L120.266931,29.5455252 L120.610212,29.4566807 L120.940797,29.3553266 L121.271381,29.2410346 L121.589193,29.126953 L121.919777,28.9874314 L122.237814,28.8479098 L122.542928,28.6956683 L122.86074,28.5306992 L122.86074,29.7993425 L126.166469,29.7993425 L126.166469,19.6506169 L126.153697,19.4222508 L126.140924,19.1938848 L126.115379,18.9782387 L126.064289,18.7625926 L126.013198,18.5594561 L125.962859,18.3565299 L125.886525,18.1663313 L125.81019,17.9759148 L125.708385,17.7984361 L125.606805,17.6207471 L125.492303,17.455778 L125.365103,17.2910194 L125.225356,17.1387102 L125.085384,16.9991435 L124.932939,16.8595994 L124.767572,16.7327603 L124.500625,16.5551539 L124.233679,16.4156098 L123.953809,16.2887481 L123.674165,16.1745613 L123.381748,16.0984593 L123.076634,16.0477447 L122.77152,16.0096523 L122.453633,15.9969549 L113.311889,15.9969549 L113.311889,19.2191151 L122.50452,19.2191151 L122.618797,19.2445851 L122.707829,19.2827526 L122.771692,19.3206946 L122.81001,19.3588621 L122.835555,19.4222741 L122.848328,19.4856862 L122.8611,19.5490983 L122.8611,19.6379428 L122.8611,24.458492 L122.555986,24.7123056 L122.263344,24.9659088 L121.945457,25.1817652 L121.640343,25.3974114 L121.322531,25.58761 L121.00472,25.765299 L120.674135,25.9175481 L120.343551,26.0570697 L120.000269,26.1838712 L119.656988,26.2854357 L119.301009,26.3867899 L118.94503,26.4502019 L118.576278,26.513614 L118.207526,26.5517814 L117.839,26.5772515 L117.444778,26.5897986 L116.961524,26.5772515 L116.478495,26.539084 L116.020711,26.4883694 L115.575625,26.4249573 L115.130764,26.3361128 L114.711147,26.2218208 L114.507612,26.1584087 L114.304303,26.0822842 L114.100919,26.0061597 L113.910081,25.9300351 L113.706772,25.841401 L113.515935,25.7525565 L113.325323,25.663712 L113.147183,25.5621475 L112.956571,25.4480659 L112.778431,25.3337739 L112.600517,25.2196923 L112.43515,25.0928907 L112.257235,24.9785987 L112.091868,24.8390771 L111.926651,24.6995556 L111.761284,24.560034 L111.443472,24.2555434 L111.138358,23.9258156 L110.845941,23.5958775 L110.578994,23.2534298 L110.337518,22.8855347 L110.108513,22.517647 L109.892431,22.1370319 L109.701819,21.7564167 L109.523679,21.3503616 L109.371235,20.9317894 L109.231263,20.5132171 L109.11676,20.0692049 L109.015181,19.6124653 L108.926148,19.1557256 L108.862286,18.6737563 L108.823968,18.1915767 L108.798423,17.6841599 L108.78565,17.1640833 L108.798423,16.656644 L108.823968,16.1492047 L108.862286,15.6671303 L108.926148,15.1850783 L109.015181,14.7283837 L109.11676,14.2843715 L109.231263,13.8403594 L109.371235,13.421727 L109.523679,13.0030947 L109.701819,12.6098197 L109.892431,12.2165672 L110.108513,11.8359746 L110.337518,11.4680794 L110.591767,11.1128666 L110.858714,10.7703588 L111.151131,10.4405259 L111.456245,10.1106705 L111.774132,9.81889983 L112.104716,9.5398116 L112.447997,9.27340579 L112.791279,9.03237983 L113.160031,8.81671119 L113.528783,8.62642239 L113.910232,8.44881601 L114.304453,8.29658949 L114.72407,8.15702283 L115.143461,8.05554099 L115.575775,7.95405914 L116.020862,7.89064707 L116.478646,7.83993245 L116.961674,7.80184013 L117.444928,7.78914269 L117.44438,7.78922158 Z M137.749465,12.2293202 L137.634962,12.2293202 L137.329848,12.2293202 L137.024734,12.2420237 L136.732317,12.280116 L136.4399,12.3182083 L136.160031,12.3689229 L135.880386,12.4196375 L135.600742,12.4957621 L135.333796,12.5718641 L135.079546,12.6733685 L134.825071,12.7748503 L134.570822,12.8890146 L134.329345,13.0158763 L134.087869,13.142738 L133.858864,13.2949645 L133.630085,13.447206 L133.401305,13.6247899 L133.401305,12.2927668 L130.222588,12.2927668 L130.222588,29.4822424 L133.401305,29.4822424 L133.401305,21.6931136 L133.414078,21.3124984 L133.42685,20.9446033 L133.452396,20.5767156 L133.490713,20.2342679 L133.529031,19.8916098 L133.580121,19.5746096 L133.643984,19.257399 L133.707847,18.9529084 L133.796729,18.6611378 L133.885761,18.3820946 L133.974794,18.128281 L134.089296,17.8746779 L134.203573,17.6335843 L134.330773,17.4052182 L134.457973,17.1768521 L134.610417,16.973911 L134.750389,16.7963046 L134.902834,16.6186982 L135.055504,16.4537968 L135.220721,16.3015477 L135.37339,16.174686 L135.538532,16.0478393 L135.7039,15.9336525 L135.881814,15.8321707 L136.047181,15.7433637 L136.237793,15.6545643 L136.415933,15.5911522 L136.606545,15.5403625 L136.797382,15.4896479 L136.987994,15.464253 L137.191378,15.4388581 L137.394913,15.4388581 L138.195791,15.5276575 L138.679045,15.5910696 L138.920522,15.6164645 L138.996857,15.6291619 L139.022402,15.4896178 L139.022402,15.6418669 L140.242911,15.857513 L140.242911,12.584548 L139.416586,12.4703612 L138.780887,12.3815542 L138.297633,12.3054297 L137.954352,12.2547151 L137.750967,12.2293202 L137.749465,12.2293202 Z M155.295463,24.9913983 L155.117549,25.1943244 L154.939409,25.3720135 L154.736025,25.5369825 L154.545187,25.7017412 L154.329105,25.8414731 L154.113024,25.9682747 L153.896716,26.0950763 L153.667937,26.1966408 L153.426385,26.2854853 L153.184683,26.3613995 L152.930434,26.437524 L152.676184,26.4883889 L152.409238,26.5391035 L152.129368,26.5645736 L151.849724,26.577271 L151.557307,26.5898182 L151.26489,26.577271 L150.972473,26.5645736 L150.692829,26.5391035 L150.41296,26.4883889 L150.15871,26.437524 L149.904461,26.374112 L149.650212,26.2854778 L149.408509,26.1966333 L149.17973,26.0950688 L148.950951,25.9809872 L148.734644,25.8539752 L148.531259,25.7017337 L148.327875,25.5497025 L148.137037,25.3847334 L147.946426,25.2070444 L147.768286,25.0041183 L147.603069,24.8011922 L147.450399,24.5980557 L147.297954,24.3824096 L147.157982,24.1540435 L147.04348,23.9258878 L146.929203,23.6847942 L146.827398,23.4437006 L146.738366,23.1900974 L146.649483,22.9235639 L146.585621,22.6572407 L146.521758,22.3781976 L146.470667,22.0864269 L146.43235,21.7944459 L146.406805,21.4901657 L146.394032,21.1856751 L146.394032,20.855737 L146.394032,20.5387367 L146.406805,20.2342461 L146.43235,19.9297555 L146.470667,19.6379849 L146.521758,19.3462142 L146.585621,19.0669532 L146.649483,18.80063 L146.738366,18.5343069 L146.827398,18.2804933 L146.929203,18.0393997 L147.04348,17.7985165 L147.157982,17.5701504 L147.297954,17.3417843 L147.450399,17.1260932 L147.603069,16.9231295 L147.768286,16.7201432 L147.946426,16.5298544 L148.137037,16.3395656 L148.327875,16.1746417 L148.531259,16.0224152 L148.747341,15.882871 L148.963648,15.7433269 L149.17973,15.6291401 L149.421207,15.5276583 L149.662909,15.4388588 L149.904386,15.3500519 L150.158635,15.2866398 L150.425582,15.2359252 L150.692754,15.1852106 L150.972398,15.1598157 L151.264815,15.1344208 L151.557232,15.1344208 L151.849649,15.1344208 L152.142065,15.1598157 L152.421935,15.1852106 L152.688882,15.2359252 L152.955829,15.2866398 L153.197305,15.3500519 L153.451555,15.4261764 L153.693257,15.5276583 L153.922036,15.6291401 L154.138118,15.7433269 L154.354425,15.882871 L154.55781,16.0224152 L154.761344,16.1746417 L154.951956,16.3395656 L155.142793,16.517172 L155.320708,16.7201357 L155.48585,16.9231219 L155.63852,17.1260856 L155.791189,17.3417768 L155.918239,17.5701429 L156.045439,17.798509 L156.159941,18.0393922 L156.261521,18.2932058 L156.350553,18.5470193 L156.439585,18.8006225 L156.502697,19.0796732 L156.56656,19.3462067 L156.61765,19.6379773 L156.643195,19.929748 L156.681513,20.2342386 L156.694285,20.5387292 L156.694285,20.8557295 L156.694285,21.17294 L156.681513,21.4901506 L156.643195,21.7819213 L156.604877,22.0736919 L156.56656,22.3527351 L156.502697,22.6317782 L156.426587,22.8981014 L156.350252,23.1646349 L156.26122,23.4182381 L156.159641,23.6593317 L156.045138,23.9004253 L155.917938,24.1287914 L155.778191,24.3571574 L155.625522,24.5728035 L155.473077,24.7884497 L155.294937,24.9913758 L155.294937,24.9913758 L155.295463,24.9913983 Z M157.698533,14.5762218 L157.406116,14.2590713 L157.088304,13.9673007 L156.770417,13.7008949 L156.427136,13.4471865 L156.083854,13.2188355 L155.7278,13.0158492 L155.359048,12.8255604 L154.977599,12.647954 L154.583452,12.4957275 L154.189231,12.3688658 L153.76984,12.254679 L153.350223,12.1658796 L152.917834,12.0897776 L152.472747,12.039063 L152.027886,12.0136681 L151.557329,12.0009706 L151.099545,12.0136681 L150.641987,12.039063 L150.1969,12.0897776 L149.764586,12.1658796 L149.345195,12.254679 L148.938276,12.3688658 L148.544129,12.4957275 L148.149908,12.647954 L147.768458,12.812878 L147.399707,13.0031668 L147.043728,13.2188355 L146.700446,13.4471865 L146.369862,13.6882125 L146.039278,13.9546183 L145.734163,14.2463889 L145.429049,14.550857 L145.14933,14.8680075 L144.882383,15.1978404 L144.640681,15.5403482 L144.411902,15.895561 L144.19582,16.2507737 L144.004982,16.6313438 L143.827068,17.0119364 L143.674398,17.4051889 L143.534651,17.798524 L143.420149,18.2170963 L143.318344,18.6356685 L143.242234,19.0669607 L143.178372,19.5109729 L143.127281,19.9677126 L143.101736,20.4244523 L143.088964,20.8939119 L143.101736,21.3631612 L143.127281,21.8326209 L143.178372,22.2766331 L143.242234,22.7206453 L143.318344,23.1519375 L143.420149,23.5705097 L143.534651,23.9892923 L143.674398,24.3824171 L143.827068,24.7757522 L144.004982,25.1563674 L144.19582,25.5369825 L144.411902,25.8921502 L144.640681,26.2345979 L144.882383,26.577256 L145.14933,26.9069837 L145.429049,27.2241943 L145.734163,27.5286849 L146.039278,27.8204555 L146.369862,28.0867787 L146.700446,28.3405923 L147.043728,28.5689584 L147.412479,28.7718845 L147.781231,28.9620831 L148.149983,29.1270522 L148.544204,29.2792937 L148.938351,29.4060953 L149.357968,29.5203873 L149.777359,29.6090214 L150.209748,29.6726589 L150.642062,29.7233735 L151.099621,29.7613156 L151.557405,29.7613156 L152.027961,29.7613156 L152.472822,29.7233735 L152.917909,29.6726589 L153.350298,29.6090214 L153.769915,29.5203873 L154.176608,29.4060953 L154.583528,29.2792937 L154.977674,29.1270522 L155.346426,28.9620831 L155.715178,28.7718845 L156.071232,28.5689584 L156.414513,28.3405923 L156.745098,28.0867787 L157.062984,27.8204555 L157.380796,27.5411945 L157.673213,27.2369143 L157.952857,26.9197037 L158.219804,26.5897656 L158.461506,26.2473179 L158.690285,25.9048702 L158.89367,25.536975 L159.084507,25.1690873 L159.262421,24.7884722 L159.415091,24.3951371 L159.554838,23.9892923 L159.669341,23.5832372 L159.771146,23.164665 L159.84748,22.7206528 L159.910592,22.2766406 L159.961682,21.8326284 L159.987227,21.3631687 L160,20.8939194 L159.987227,20.4244598 L159.961682,19.9550001 L159.910592,19.5109879 L159.84748,19.0669757 L159.771146,18.6356835 L159.669341,18.2171113 L159.554838,17.7985391 L159.427789,17.3924839 L159.262421,17.0119514 L159.097205,16.6313588 L158.906367,16.2634637 L158.702983,15.895576 L158.474203,15.5530682 L158.245199,15.2105378 L157.978252,14.8933873 L157.698608,14.5762369 L157.698533,14.5762218 Z M23.4839575,43.9061276 L23.3567352,43.9061276 L23.2042757,43.8935804 L23.0261584,43.855413 L22.8100916,43.8174709 L22.3139651,43.7032067 L21.7291548,43.5509607 L21.0552874,43.3480368 L20.3050851,43.1069462 L19.4914819,42.8278993 L18.6140543,42.4979627 L17.6986718,42.1427936 L16.745058,41.7496688 L15.7660418,41.330887 L14.7743026,40.8616399 L14.2657213,40.6205463 L13.76986,40.3667328 L13.2612787,40.1131296 L12.7654024,39.846596 L12.2568211,39.5802729 L11.7736872,39.3012297 L11.2778109,39.0094591 L10.7946462,38.7176892 L10.4132264,38.4765979 L10.0317848,38.2355066 L9.66306618,37.9819056 L9.29434755,37.7153691 L8.93832937,37.4617674 L8.59503492,37.1952316 L8.25173972,36.9289077 L7.92116676,36.6625838 L7.27272353,36.1297233 L6.66242597,35.5841414 L6.09027407,35.0387705 L5.55626934,34.5059108 L5.06040801,33.9857741 L4.61539655,33.4910849 L4.20853001,33.0089052 L3.83980838,32.5521655 L3.53464156,32.1208733 L3.26763919,31.7277486 L3.15322174,31.5500595 L3.06420667,31.3723705 L2.97521265,31.2203393 L2.9116428,31.0680978 L24.1703834,31.0680978 L24.3101153,31.0680978 L24.4373376,31.0933424 L24.56456,31.1315098 L24.6915719,31.1694519 L24.8187943,31.232864 L24.9205767,31.2965014 L25.0221411,31.3724156 L25.1239235,31.4612601 L25.2129784,31.5628246 L25.2891029,31.6643891 L25.3527404,31.7784707 L25.4163779,31.8925523 L25.4672428,32.0195643 L25.4927128,32.1463659 L25.5181828,32.2731675 L25.5181828,32.412689 L25.5181828,41.8765207 L25.5181828,42.1937313 L25.4800153,42.4727745 L25.4291504,42.7263777 L25.365513,42.9420238 L25.3273455,43.0435883 L25.2766309,43.1324328 L25.225766,43.2212773 L25.1749011,43.2974018 L25.1112637,43.3735264 L25.0603988,43.4369384 L24.9967613,43.5003505 L24.9206368,43.5637626 L24.7806869,43.6526071 L24.6280171,43.7414516 L24.4501177,43.7921662 L24.2720004,43.8428808 L24.094101,43.8810483 L23.8907542,43.8937457 L23.6999169,43.9062929 L23.4838501,43.9062929 L23.4839575,43.9061276 Z" id="inteligro_svg_text" fill="#505050"></path>
        </g>
    </g>
</svg>