<?xml version="1.0" encoding="UTF-8"?>
<svg width="230px" height="94px" viewBox="0 0 230 94" version="1.1" xmlns="http://www.w3.org/2000/svg" xmlns:xlink="http://www.w3.org/1999/xlink">
    <title>Artboard</title>
    <g id="Artboard" stroke="none" stroke-width="1" fill="none" fill-rule="evenodd">
        <g id="THE-VIRTUAL-CO-OP" transform="translate(78.000000, 0.000000)" fill="#1D2127" fill-rule="nonzero">
            <polygon id="Path" points="9.4284479 28.4479032 15.1180285 28.4479032 15.1180285 5.12062257 23.2460009 5.12062257 23.2460009 0 1.30047557 0 1.30047557 5.12062257 9.4284479 5.12062257"></polygon>
            <polygon id="Path" points="25.7011705 28.4479032 31.3907511 28.4479032 31.3907511 16.5810636 43.176311 16.5810636 43.176311 28.4479032 48.8658916 28.4479032 48.8658916 0 43.176311 0 43.176311 11.460441 31.3907511 11.460441 31.3907511 0 25.7011705 0"></polygon>
            <polygon id="Path" points="52.7434564 28.4479032 69.4870794 28.4479032 69.4870794 23.3272806 58.433037 23.3272806 58.433037 16.459144 69.2026004 16.459144 69.2026004 11.5010808 58.433037 11.5010808 58.433037 5.12062257 69.4057997 5.12062257 69.4057997 0 52.7434564 0"></polygon>
            <path d="M11.3385214,60.9597925 L16.8249027,60.9597925 L28.0821444,32.5118893 L21.6204064,32.5118893 L15.1180285,50.5966278 C14.7116299,51.7345439 14.3458712,52.9537397 14.102032,54.1729356 C13.8581928,52.9943796 13.4924341,51.7751837 13.0860355,50.5966278 L6.58365759,32.5118893 L0,32.5118893 L11.3385214,60.9597925 Z" id="Path"></path>
            <polygon id="Path" points="29.2368385 60.9597925 34.9264191 60.9597925 34.9264191 32.5118893 29.2368385 32.5118893"></polygon>
            <path d="M38.8039839,60.9597925 L44.4935645,60.9597925 L44.4935645,49.8651102 L45.5502009,49.8651102 C45.9159597,50.7185473 46.2410785,51.3281453 46.6474772,51.9377432 L52.7028165,60.9597925 L59.4083937,60.9597925 L51.4429808,49.336792 C55.7508062,48.4020752 58.2704776,45.6385646 58.2704776,41.12754 C58.2704776,35.5598789 54.3690509,32.4306096 47.9885926,32.4712495 L38.8039839,32.5118893 L38.8039839,60.9597925 Z M44.4935645,44.7444877 L44.4935645,37.6325119 L47.6634737,37.6325119 C50.7521032,37.6325119 52.4996172,38.8923476 52.4996172,41.1681799 C52.4996172,43.484652 50.7521032,44.7444877 47.6634737,44.7444877 L44.4935645,44.7444877 Z" id="Shape"></path>
            <polygon id="Path" points="67.7157034 60.9597925 73.4052841 60.9597925 73.4052841 37.6325119 81.5332564 37.6325119 81.5332564 32.5118893 59.5877311 32.5118893 59.5877311 37.6325119 67.7157034 37.6325119"></polygon>
            <path d="M95.0831082,61.4881107 C102.032525,61.4881107 106.584189,56.9364462 106.584189,50.4340683 L106.584189,32.5118893 L100.894608,32.5118893 L100.894608,49.8244704 C100.894608,53.8478167 98.984535,56.2862084 95.0831082,56.2862084 C91.1816815,56.2862084 89.271608,53.8478167 89.271608,49.8244704 L89.271608,32.5118893 L83.5820274,32.5118893 L83.5820274,50.4340683 C83.5820274,56.9364462 88.1336919,61.4881107 95.0831082,61.4881107 Z" id="Path"></path>
            <path d="M105.62561,60.9597925 L111.802869,60.9597925 L113.753583,55.5546909 L125.620422,55.5546909 L127.571136,60.9597925 L133.748395,60.9597925 L122.166034,32.5118893 L117.248611,32.5118893 L105.62561,60.9597925 Z M115.623016,50.6372676 L118.671006,42.875054 C119.077405,41.8590575 119.402523,40.7211414 119.687002,39.6238651 C119.930842,40.7211414 120.2966,41.8184176 120.702999,42.875054 L123.750989,50.6372676 L115.623016,50.6372676 Z" id="Shape"></path>
            <polygon id="Path" points="134.821809 60.9597925 151.118393 60.9597925 151.118393 55.8391699 140.51139 55.8391699 140.51139 32.5118893 134.821809 32.5118893"></polygon>
            <path d="M16.5404237,94 C21.4984868,94 25.1560744,92.0899265 27.309987,89.4889754 L23.1647211,85.9533074 C21.4984868,87.7821012 19.4258539,88.716818 16.6623433,88.716818 C11.0540424,88.716818 7.59965413,84.4902724 7.59965413,79.2883701 C7.59965413,74.0864678 11.0540424,69.7786425 16.5404237,69.7786425 C19.100735,69.7786425 21.2140078,70.6727194 22.920882,72.4608733 L26.9442283,68.9658452 C24.383917,65.9178556 21.1733679,64.4954604 16.5404237,64.4954604 C7.76221358,64.4954604 1.70687419,71.1197579 1.70687419,79.2883701 C1.70687419,87.4163424 8.08733247,94 16.5404237,94 Z" id="Path"></path>
            <path d="M41.6319963,94 C50.0444476,94 56.384266,87.4163424 56.384266,79.2883701 C56.384266,71.1197579 50.0444476,64.4954604 41.6319963,64.4954604 C33.178905,64.4954604 26.7984468,71.1197579 26.7984468,79.2883701 C26.7984468,87.4163424 33.178905,94 41.6319963,94 Z M32.6912267,79.2883701 C32.6912267,74.1271077 36.1049751,69.7786425 41.6319963,69.7786425 C47.1183776,69.7786425 50.4914861,74.1271077 50.4914861,79.2883701 C50.4914861,84.4496325 47.1183776,88.716818 41.6319963,88.716818 C36.1049751,88.716818 32.6912267,84.4496325 32.6912267,79.2883701 Z" id="Shape"></path>
            <polygon id="Path" points="58.0266384 84.9373109 69.6496389 84.9373109 69.6496389 79.613489 58.0266384 79.613489"></polygon>
            <path d="M86.1255608,94 C94.5380121,94 100.877831,87.4163424 100.877831,79.2883701 C100.877831,71.1197579 94.5380121,64.4954604 86.1255608,64.4954604 C77.6724695,64.4954604 71.2920112,71.1197579 71.2920112,79.2883701 C71.2920112,87.4163424 77.6724695,94 86.1255608,94 Z M77.1847912,79.2883701 C77.1847912,74.1271077 80.5985396,69.7786425 86.1255608,69.7786425 C91.6119421,69.7786425 94.9850506,74.1271077 94.9850506,79.2883701 C94.9850506,84.4496325 91.6119421,88.716818 86.1255608,88.716818 C80.5985396,88.716818 77.1847912,84.4496325 77.1847912,79.2883701 Z" id="Shape"></path>
            <path d="M103.739399,93.4716818 L109.428979,93.4716818 L109.428979,83.1491569 L113.330406,83.1491569 C119.710864,83.1491569 123.612291,80.0198876 123.612291,74.0051881 C123.612291,68.0311284 119.710864,65.0237786 113.330406,65.0237786 L103.739399,65.0237786 L103.739399,93.4716818 Z M109.428979,78.0285344 L109.428979,70.1037613 L113.005287,70.1037613 C116.093917,70.1037613 117.841431,71.3635971 117.841431,74.0458279 C117.841431,76.7686987 116.093917,78.0285344 113.005287,78.0285344 L109.428979,78.0285344 Z" id="Shape"></path>
        </g>
        <g id="Group-9" transform="translate(0.000000, 0.000000)" fill="#1D2127">
            <path d="M52.9136786,34.544046 C52.8260292,35.8649845 52.5887561,37.6378929 51.9977866,39.5117309 C57.9296149,44.7600708 61.6795042,52.4218681 61.6795042,60.9463922 C61.6795042,67.0003984 59.7853032,72.6174856 56.5657371,77.2469677 L36.356795,77.2469677 L36.356795,66.1354582 L29.7494467,66.1354582 L29.7494467,77.2469677 L9.54050465,77.2469677 C6.32093847,72.6174856 4.42673749,67.0003984 4.42673749,60.9463922 C4.42673749,52.4218681 8.17662683,44.7605135 14.1084551,39.5117309 C13.5174856,37.6383355 13.2802125,35.8654272 13.1925631,34.544046 C5.18636565,40.582116 0,50.1691014 0,60.9463922 C0,79.1721558 14.8277999,94 33.0535635,94 C51.2788845,94 66.1062417,79.1721558 66.1062417,60.9463922 C66.1062417,50.1691014 60.9198761,40.582116 52.9136786,34.544046 Z" id="Fill-1"></path>
            <path d="M30.8291279,61.6980522 C30.8291279,61.6980522 31.2000885,55.397521 27.542718,51.7401062 C23.8857902,48.08278 17.584772,48.4537406 17.584772,48.4537406 C17.584772,48.4537406 17.2146968,54.7547587 20.8716246,58.4112439 C24.5285525,62.0685702 30.8291279,61.6980522 30.8291279,61.6980522 Z" id="Fill-2"></path>
            <path d="M30.8291279,45.8733953 C30.8291279,45.8733953 31.2000885,39.5732625 27.542718,35.915892 C23.8857902,32.2580788 17.584772,32.6290394 17.584772,32.6290394 C17.584772,32.6290394 17.2146968,38.9296149 20.8716246,42.5865427 C24.5285525,46.2439132 30.8291279,45.8733953 30.8291279,45.8733953 Z" id="Fill-3"></path>
            <path d="M30.8291279,30.0491368 C30.8291279,30.0491368 31.2000885,23.7485613 27.542718,20.0911908 C23.8857902,16.4338203 17.584772,16.8047809 17.584772,16.8047809 C17.584772,16.8047809 17.2146968,23.1053564 20.8716246,26.7622842 C24.5285525,30.4196547 30.8291279,30.0491368 30.8291279,30.0491368 Z" id="Fill-4"></path>
            <path d="M38.5635237,51.7401062 C34.9065958,55.397521 35.2771138,61.6980522 35.2771138,61.6980522 C35.2771138,61.6980522 41.5776892,62.0685702 45.2350598,58.4112439 C48.8915449,54.7547587 48.5214697,48.4537406 48.5214697,48.4537406 C48.5214697,48.4537406 42.2208942,48.08278 38.5635237,51.7401062 Z" id="Fill-5"></path>
            <path d="M48.5214697,32.6290394 C48.5214697,32.6290394 42.2208942,32.2580788 38.5635237,35.915892 C34.9065958,39.5732625 35.2771138,45.8733953 35.2771138,45.8733953 C35.2771138,45.8733953 41.5776892,46.2439132 45.2350598,42.5865427 C48.8915449,38.9296149 48.5214697,32.6290394 48.5214697,32.6290394 Z" id="Fill-6"></path>
            <path d="M35.2771138,30.0491368 C35.2771138,30.0491368 41.5776892,30.4196547 45.2350598,26.7622842 C48.8915449,23.1053564 48.5214697,16.8047809 48.5214697,16.8047809 C48.5214697,16.8047809 42.2208942,16.4338203 38.5635237,20.0911908 C34.9065958,23.7485613 35.2771138,30.0491368 35.2771138,30.0491368 Z" id="Fill-7"></path>
            <path d="M33.0535635,18.7308544 C33.0535635,18.7308544 37.7702523,14.5374059 37.7702523,9.36520584 C37.770695,4.19344843 33.0531208,0 33.0531208,0 C33.0531208,0 28.3359894,4.19344843 28.3359894,9.36520584 C28.3359894,14.5374059 33.0535635,18.7308544 33.0535635,18.7308544 Z" id="Fill-8"></path>
        </g>
    </g>
</svg>