<?xml version="1.0" encoding="UTF-8"?>
<svg width="202px" height="94px" viewBox="0 0 202 94" version="1.1" xmlns="http://www.w3.org/2000/svg" xmlns:xlink="http://www.w3.org/1999/xlink">
    <title>thevirtualcoop-logo-staging-inverse</title>
    <g id="thevirtualcoop-logo-staging-inverse" stroke="none" stroke-width="1" fill="none" fill-rule="evenodd">
        <g id="THE-VIRTUAL-CO-OP" transform="translate(51.000000, 0.000000)" fill="#FFFFFF">
            <polygon id="Path" points="9.4284479 28.4479032 15.1180285 28.4479032 15.1180285 5.12062257 23.2460009 5.12062257 23.2460009 0 1.30047557 0 1.30047557 5.12062257 9.4284479 5.12062257"></polygon>
            <polygon id="Path" points="25.7011705 28.4479032 31.3907511 28.4479032 31.3907511 16.5810636 43.176311 16.5810636 43.176311 28.4479032 48.8658916 28.4479032 48.8658916 0 43.176311 0 43.176311 11.460441 31.3907511 11.460441 31.3907511 0 25.7011705 0"></polygon>
            <polygon id="Path" points="52.7434564 28.4479032 69.4870794 28.4479032 69.4870794 23.3272806 58.433037 23.3272806 58.433037 16.459144 69.2026004 16.459144 69.2026004 11.5010808 58.433037 11.5010808 58.433037 5.12062257 69.4057997 5.12062257 69.4057997 0 52.7434564 0"></polygon>
            <path d="M11.3385214,60.9597925 L16.8249027,60.9597925 L28.0821444,32.5118893 L21.6204064,32.5118893 L15.1180285,50.5966278 C14.7116299,51.7345439 14.3458712,52.9537397 14.102032,54.1729356 C13.8581928,52.9943796 13.4924341,51.7751837 13.0860355,50.5966278 L6.58365759,32.5118893 L0,32.5118893 L11.3385214,60.9597925 Z" id="Path"></path>
            <polygon id="Path" points="29.2368385 60.9597925 34.9264191 60.9597925 34.9264191 32.5118893 29.2368385 32.5118893"></polygon>
            <path d="M38.8039839,60.9597925 L44.4935645,60.9597925 L44.4935645,49.8651102 L45.5502009,49.8651102 C45.9159597,50.7185473 46.2410785,51.3281453 46.6474772,51.9377432 L52.7028165,60.9597925 L59.4083937,60.9597925 L51.4429808,49.336792 C55.7508062,48.4020752 58.2704776,45.6385646 58.2704776,41.12754 C58.2704776,35.5598789 54.3690509,32.4306096 47.9885926,32.4712495 L38.8039839,32.5118893 L38.8039839,60.9597925 Z M44.4935645,44.7444877 L44.4935645,37.6325119 L47.6634737,37.6325119 C50.7521032,37.6325119 52.4996172,38.8923476 52.4996172,41.1681799 C52.4996172,43.484652 50.7521032,44.7444877 47.6634737,44.7444877 L44.4935645,44.7444877 Z" id="Shape"></path>
            <polygon id="Path" points="67.7157034 60.9597925 73.4052841 60.9597925 73.4052841 37.6325119 81.5332564 37.6325119 81.5332564 32.5118893 59.5877311 32.5118893 59.5877311 37.6325119 67.7157034 37.6325119"></polygon>
            <path d="M95.0831082,61.4881107 C102.032525,61.4881107 106.584189,56.9364462 106.584189,50.4340683 L106.584189,32.5118893 L100.894608,32.5118893 L100.894608,49.8244704 C100.894608,53.8478167 98.984535,56.2862084 95.0831082,56.2862084 C91.1816815,56.2862084 89.271608,53.8478167 89.271608,49.8244704 L89.271608,32.5118893 L83.5820274,32.5118893 L83.5820274,50.4340683 C83.5820274,56.9364462 88.1336919,61.4881107 95.0831082,61.4881107 Z" id="Path"></path>
            <path d="M105.62561,60.9597925 L111.802869,60.9597925 L113.753583,55.5546909 L125.620422,55.5546909 L127.571136,60.9597925 L133.748395,60.9597925 L122.166034,32.5118893 L117.248611,32.5118893 L105.62561,60.9597925 Z M115.623016,50.6372676 L118.671006,42.875054 C119.077405,41.8590575 119.402523,40.7211414 119.687002,39.6238651 C119.930842,40.7211414 120.2966,41.8184176 120.702999,42.875054 L123.750989,50.6372676 L115.623016,50.6372676 Z" id="Shape"></path>
            <polygon id="Path" points="134.821809 60.9597925 151.118393 60.9597925 151.118393 55.8391699 140.51139 55.8391699 140.51139 32.5118893 134.821809 32.5118893"></polygon>
            <path d="M16.5404237,94 C21.4984868,94 25.1560744,92.0899265 27.309987,89.4889754 L23.1647211,85.9533074 C21.4984868,87.7821012 19.4258539,88.716818 16.6623433,88.716818 C11.0540424,88.716818 7.59965413,84.4902724 7.59965413,79.2883701 C7.59965413,74.0864678 11.0540424,69.7786425 16.5404237,69.7786425 C19.100735,69.7786425 21.2140078,70.6727194 22.920882,72.4608733 L26.9442283,68.9658452 C24.383917,65.9178556 21.1733679,64.4954604 16.5404237,64.4954604 C7.76221358,64.4954604 1.70687419,71.1197579 1.70687419,79.2883701 C1.70687419,87.4163424 8.08733247,94 16.5404237,94 Z" id="Path"></path>
            <path d="M41.6319963,94 C50.0444476,94 56.384266,87.4163424 56.384266,79.2883701 C56.384266,71.1197579 50.0444476,64.4954604 41.6319963,64.4954604 C33.178905,64.4954604 26.7984468,71.1197579 26.7984468,79.2883701 C26.7984468,87.4163424 33.178905,94 41.6319963,94 Z M32.6912267,79.2883701 C32.6912267,74.1271077 36.1049751,69.7786425 41.6319963,69.7786425 C47.1183776,69.7786425 50.4914861,74.1271077 50.4914861,79.2883701 C50.4914861,84.4496325 47.1183776,88.716818 41.6319963,88.716818 C36.1049751,88.716818 32.6912267,84.4496325 32.6912267,79.2883701 Z" id="Shape"></path>
            <polygon id="Path" points="58.0266384 84.9373109 69.6496389 84.9373109 69.6496389 79.613489 58.0266384 79.613489"></polygon>
            <path d="M86.1255608,94 C94.5380121,94 100.877831,87.4163424 100.877831,79.2883701 C100.877831,71.1197579 94.5380121,64.4954604 86.1255608,64.4954604 C77.6724695,64.4954604 71.2920112,71.1197579 71.2920112,79.2883701 C71.2920112,87.4163424 77.6724695,94 86.1255608,94 Z M77.1847912,79.2883701 C77.1847912,74.1271077 80.5985396,69.7786425 86.1255608,69.7786425 C91.6119421,69.7786425 94.9850506,74.1271077 94.9850506,79.2883701 C94.9850506,84.4496325 91.6119421,88.716818 86.1255608,88.716818 C80.5985396,88.716818 77.1847912,84.4496325 77.1847912,79.2883701 Z" id="Shape"></path>
            <path d="M103.739399,93.4716818 L109.428979,93.4716818 L109.428979,83.1491569 L113.330406,83.1491569 C119.710864,83.1491569 123.612291,80.0198876 123.612291,74.0051881 C123.612291,68.0311284 119.710864,65.0237786 113.330406,65.0237786 L103.739399,65.0237786 L103.739399,93.4716818 Z M109.428979,78.0285344 L109.428979,70.1037613 L113.005287,70.1037613 C116.093917,70.1037613 117.841431,71.3635971 117.841431,74.0458279 C117.841431,76.7686987 116.093917,78.0285344 113.005287,78.0285344 L109.428979,78.0285344 Z" id="Shape"></path>
        </g>
        <g id="thevirtualcoop-logo" transform="translate(0.000000, 0.000000)">
            <g id="Outer-Ring" fill="#B91C1C">
                <path d="M46.2236635,93.9937033 C20.6242678,93.5786562 0,72.6978094 0,47 C0,21.0426168 21.043024,0 47.0009095,0 L47.001057,29.0066298 C46.8348749,29.0022192 46.6681465,29 46.5008998,29 C36.2834342,29 28.0005418,37.2827321 28.0005418,47.5 C28.0005418,57.7172679 36.2834342,66 46.5008998,66 C46.6681465,66 46.8348749,65.9977808 47.001057,65.9933702 L47.0009095,94 Z" id="Combined-Shape"></path>
            </g>
            <path d="M46.5008998,33 C46.6683543,33 46.8351458,33.0028385 47.0012288,33.0084699 L47.0012288,61.9915301 C46.8351458,61.9971615 46.6683543,62 46.5008998,62 C38.492616,62 32.0006192,55.5081289 32.0006192,47.5 C32.0006192,39.4918711 38.492616,33 46.5008998,33 Z" id="Combined-Shape" fill="#F87171"></path>
        </g>
    </g>
</svg>