<?xml version="1.0" encoding="UTF-8"?>
<svg width="96px" height="44px" viewBox="0 0 96 44" version="1.1" xmlns="http://www.w3.org/2000/svg" xmlns:xlink="http://www.w3.org/1999/xlink">
    <title>thevirtualcoop-logo-inverse</title>
    <g id="thevirtualcoop-logo-inverse" stroke="none" stroke-width="1" fill="none" fill-rule="evenodd">
        <g id="THE-VIRTUAL-CO-OP" transform="translate(25.000000, 0.000000)" fill="#FFFFFF">
            <polygon id="Path" points="4.41331604 13.3160398 7.07652399 13.3160398 7.07652399 2.39688716 10.8811068 2.39688716 10.8811068 0 0.608733247 0 0.608733247 2.39688716 4.41331604 2.39688716"></polygon>
            <polygon id="Path" points="12.0303351 13.3160398 14.6935431 13.3160398 14.6935431 7.7613489 20.2101881 7.7613489 20.2101881 13.3160398 22.8733961 13.3160398 22.8733961 0 20.2101881 0 20.2101881 5.36446174 14.6935431 5.36446174 14.6935431 0 12.0303351 0"></polygon>
            <polygon id="Path" points="24.6884264 13.3160398 32.525867 13.3160398 32.525867 10.9191526 27.3516344 10.9191526 27.3516344 7.70428016 32.3927066 7.70428016 32.3927066 5.38348465 27.3516344 5.38348465 27.3516344 2.39688716 32.4878211 2.39688716 32.4878211 0 24.6884264 0"></polygon>
            <path d="M5.307393,28.5343709 L7.87548638,28.5343709 L13.1448335,15.2183312 L10.1201902,15.2183312 L7.07652399,23.6835279 C6.88629486,24.2161695 6.71508863,24.7868569 6.60095115,25.3575443 C6.48681366,24.8058798 6.31560744,24.2351924 6.1253783,23.6835279 L3.08171206,15.2183312 L0,15.2183312 L5.307393,28.5343709 Z" id="Path"></path>
            <polygon id="Path" points="13.6853286 28.5343709 16.3485366 28.5343709 16.3485366 15.2183312 13.6853286 15.2183312"></polygon>
            <path d="M18.1635669,28.5343709 L20.8267749,28.5343709 L20.8267749,23.3411154 L21.3213706,23.3411154 C21.4925769,23.7405966 21.6447602,24.0259403 21.8349893,24.311284 L24.6694035,28.5343709 L27.8081843,28.5343709 L24.0796932,23.0938176 C26.096122,22.6562905 27.2755427,21.3627324 27.2755427,19.2511889 C27.2755427,16.6450497 25.449343,15.1802853 22.4627455,15.1993083 L18.1635669,15.2183312 L18.1635669,28.5343709 Z M20.8267749,20.9442283 L20.8267749,17.6152183 L22.3105622,17.6152183 C23.7563036,17.6152183 24.5742889,18.2049287 24.5742889,19.2702118 C24.5742889,20.3545179 23.7563036,20.9442283 22.3105622,20.9442283 L20.8267749,20.9442283 Z" id="Shape"></path>
            <polygon id="Path" points="31.6967122 28.5343709 34.3599202 28.5343709 34.3599202 17.6152183 38.164503 17.6152183 38.164503 15.2183312 27.8921294 15.2183312 27.8921294 17.6152183 31.6967122 17.6152183"></polygon>
            <path d="M44.5069868,28.7816688 C47.7599051,28.7816688 49.8904715,26.6511025 49.8904715,23.6074362 L49.8904715,15.2183312 L47.2272635,15.2183312 L47.2272635,23.3220925 C47.2272635,25.205361 46.3331866,26.3467358 44.5069868,26.3467358 C42.6807871,26.3467358 41.7867101,25.205361 41.7867101,23.3220925 L41.7867101,15.2183312 L39.1235022,15.2183312 L39.1235022,23.6074362 C39.1235022,26.6511025 41.2540685,28.7816688 44.5069868,28.7816688 Z" id="Path"></path>
            <path d="M49.441775,28.5343709 L52.333258,28.5343709 L53.2463578,26.0043234 L58.8010487,26.0043234 L59.7141486,28.5343709 L62.6056315,28.5343709 L57.184101,15.2183312 L54.8823284,15.2183312 L49.441775,28.5343709 Z M54.1214119,23.7025508 L55.5481304,20.0691742 C55.7383596,19.5936014 55.8905429,19.0609598 56.0237033,18.5473411 C56.1378408,19.0609598 56.309047,19.5745785 56.4992761,20.0691742 L57.9259947,23.7025508 L54.1214119,23.7025508 Z" id="Shape"></path>
            <polygon id="Path" points="63.1080808 28.5343709 70.7362693 28.5343709 70.7362693 26.1374838 65.7712887 26.1374838 65.7712887 15.2183312 63.1080808 15.2183312"></polygon>
            <path d="M7.74232598,44 C10.0631215,44 11.7751837,43.105923 12.7833982,41.8884565 L10.843061,40.233463 C10.0631215,41.0894942 9.09295288,41.5270212 7.79939473,41.5270212 C5.1742326,41.5270212 3.55728491,39.5486381 3.55728491,37.1137051 C3.55728491,34.6787722 5.1742326,32.6623433 7.74232598,32.6623433 C8.94076956,32.6623433 9.92996109,33.0808474 10.7289235,33.9178556 L12.612192,32.281885 C11.4137484,30.8551665 9.91093818,30.1893645 7.74232598,30.1893645 C3.63337657,30.1893645 0.798962387,33.2900994 0.798962387,37.1137051 C0.798962387,40.9182879 3.78555988,44 7.74232598,44 Z" id="Path"></path>
            <path d="M19.4873174,44 C23.4250606,44 26.3926352,40.9182879 26.3926352,37.1137051 C26.3926352,33.2900994 23.4250606,30.1893645 19.4873174,30.1893645 C15.5305513,30.1893645 12.5439538,33.2900994 12.5439538,37.1137051 C12.5439538,40.9182879 15.5305513,44 19.4873174,44 Z M15.3022763,37.1137051 C15.3022763,34.6977951 16.9002011,32.6623433 19.4873174,32.6623433 C22.0554108,32.6623433 23.6343126,34.6977951 23.6343126,37.1137051 C23.6343126,39.5296152 22.0554108,41.5270212 19.4873174,41.5270212 C16.9002011,41.5270212 15.3022763,39.5296152 15.3022763,37.1137051 Z" id="Shape"></path>
            <polygon id="Path" points="27.1614052 39.7578902 32.6019586 39.7578902 32.6019586 37.2658885 27.1614052 37.2658885"></polygon>
            <path d="M40.3140923,44 C44.2518355,44 47.21941,40.9182879 47.21941,37.1137051 C47.21941,33.2900994 44.2518355,30.1893645 40.3140923,30.1893645 C36.3573262,30.1893645 33.3707287,33.2900994 33.3707287,37.1137051 C33.3707287,40.9182879 36.3573262,44 40.3140923,44 Z M36.1290512,37.1137051 C36.1290512,34.6977951 37.726976,32.6623433 40.3140923,32.6623433 C42.8821857,32.6623433 44.4610875,34.6977951 44.4610875,37.1137051 C44.4610875,39.5296152 42.8821857,41.5270212 40.3140923,41.5270212 C37.726976,41.5270212 36.1290512,39.5296152 36.1290512,37.1137051 Z" id="Shape"></path>
            <path d="M48.5588675,43.7527021 L51.2220755,43.7527021 L51.2220755,38.920882 L53.0482752,38.920882 C56.0348727,38.920882 57.8610724,37.4561176 57.8610724,34.6407263 C57.8610724,31.844358 56.0348727,30.4366623 53.0482752,30.4366623 L48.5588675,30.4366623 L48.5588675,43.7527021 Z M51.2220755,36.5239948 L51.2220755,32.8145266 L52.8960919,32.8145266 C54.3418334,32.8145266 55.1598187,33.4042369 55.1598187,34.6597492 C55.1598187,35.9342845 54.3418334,36.5239948 52.8960919,36.5239948 L51.2220755,36.5239948 Z" id="Shape"></path>
        </g>
        <g id="thevirtualcoop-logo" transform="translate(0.000000, 0.000000)">
            <g id="Outer-Ring" fill="#16A34A">
                <path d="M21.6366085,43.9970526 C9.65391258,43.8027752 0,34.0287619 0,22 C0,9.8497355 9.8499261,0 22.0004257,0 L22.0004225,13.5775695 C21.922659,13.5755062 21.8446401,13.5744681 21.7663786,13.5744681 C16.9837352,13.5744681 13.1066366,17.4514916 13.1066366,22.2340426 L13.1104638,22.4939931 C13.2479214,27.1562945 17.0706923,30.893617 21.7663786,30.893617 L21.9996366,30.889 L22.0004257,44 Z" id="Combined-Shape"></path>
            </g>
            <path d="M21.7663786,15.4468085 C21.8447948,15.4468085 21.9229003,15.4481383 22.0006739,15.4507765 L22.0000133,29.0168085 L21.7663786,29.0212766 C18.0975768,29.0212766 15.1086455,26.1104612 14.9831178,22.4723213 L14.9790133,22.2340426 C14.9790133,18.4855567 18.0178202,15.4468085 21.7663786,15.4468085 Z" id="Combined-Shape" fill="#BEF264"></path>
        </g>
    </g>
</svg>