<?xml version="1.0" encoding="UTF-8"?>
<svg width="94px" height="94px" viewBox="0 0 94 94" version="1.1" xmlns="http://www.w3.org/2000/svg" xmlns:xlink="http://www.w3.org/1999/xlink">
    <title>thevirtualcoop-avatar</title>
    <g id="thevirtualcoop-avatar" stroke="none" stroke-width="1" fill="none" fill-rule="evenodd">
        <g id="thevirtualcoop-logo" transform="translate(0.000000, 0.000000)">
            <g id="Outer-Ring" fill="#15803D">
                <path d="M46.2227691,93.9937033 C20.6238687,93.5786562 0,72.6978094 0,47 C0,21.0426168 21.0426168,0 47,0 L47.0006381,29.0066429 C46.8342967,29.0022236 46.667408,29 46.5,29 C36.2827321,29 28,37.2827321 28,47.5 C28,57.7172679 36.2827321,66 46.5,66 C46.667408,66 46.8342967,65.9977764 47.0006381,65.9933571 L47,94 Z" id="Combined-Shape"></path>
            </g>
            <path d="M46.5,33 C46.6673129,33 46.833964,33.0028338 46.9999078,33.008456 L46.9999078,61.991544 C46.833964,61.9971662 46.6673129,62 46.5,62 C38.4918711,62 32,55.5081289 32,47.5 C32,39.4918711 38.4918711,33 46.5,33 Z" id="Combined-Shape" fill="#A3E635"></path>
        </g>
    </g>
</svg>